<?xml version="1.0" encoding="utf-8"?>
<!-- Generator: Adobe Illustrator 16.0.0, SVG Export Plug-In . SVG Version: 6.00 Build 0)  -->
<!DOCTYPE svg PUBLIC "-//W3C//DTD SVG 1.1//EN" "http://www.w3.org/Graphics/SVG/1.1/DTD/svg11.dtd">
<svg version="1.1" id="Layer_1" xmlns="http://www.w3.org/2000/svg" xmlns:xlink="http://www.w3.org/1999/xlink" x="0px" y="0px"
	 width="300px" height="280px" viewBox="0 19.125 300 280" enable-background="new 0 19.125 300 280" xml:space="preserve">
<g>
	<g>
		<path fill="#868686" d="M54.046,50.623h-9.708c0,0-3.345-0.023-3.345,3.229c0,0.046,0,5.853,0,5.853s-0.163,3.298,3.322,3.298
			h9.708v-3.298h-8.686c0,0-0.999,0.046-0.999-1.093c0-1.16,0-3.785,0-3.785s-0.047-0.975,1.021-0.975c1.116,0,8.688,0,8.688,0
			L54.046,50.623L54.046,50.623z"/>
		<path fill="#868686" d="M68.585,50.623H58.18c0,0-3.322-0.023-3.322,3.229c0,0.046,0,5.853,0,5.853s-0.186,3.298,3.322,3.298
			h10.381v-3.298h-9.382c0,0-0.999,0.046-0.999-1.093c0-1.16,0-3.785,0-3.785s-0.046-0.975,1.021-0.975c1.14,0,9.384,0,9.384,0
			V50.623L68.585,50.623z"/>
		<polygon fill="#868686" points="60.456,58.217 68.562,58.217 68.562,55.593 60.456,55.593 		"/>
		<path fill="#868686" d="M100.172,50.623H89.767c0,0-3.321-0.023-3.321,3.229c0,0.046,0,5.853,0,5.853s-0.186,3.298,3.321,3.298
			h10.405v-3.298h-9.383c0,0-1.022,0.046-1.022-1.093c0-1.16,0-3.785,0-3.785s-0.023-0.975,1.022-0.975c1.138,0,9.383,0,9.383,0
			V50.623L100.172,50.623z"/>
		<polygon fill="#868686" points="92.066,58.217 100.149,58.217 100.149,55.593 92.066,55.593 		"/>
		<path fill="#868686" d="M82.08,50.623c-3.438,0-12.449,0-12.449,0v12.38h3.297v-9.104h2.926v9.104h3.298v-9.104h2.927v9.104h3.274
			v-9.174C85.354,53.829,85.541,50.623,82.08,50.623L82.08,50.623z"/>
		<polygon fill="#868686" points="116.895,50.623 113.387,50.623 113.387,52.388 108.974,54.873 104.562,52.388 104.562,50.623 
			101.055,50.623 101.055,53.829 105.701,56.8 101.055,59.796 101.055,63.002 104.562,63.002 104.562,61.237 108.974,58.751 
			113.387,61.237 113.387,63.002 116.895,63.002 116.895,59.796 112.25,56.8 116.895,53.829 		"/>
		<polygon fill="#868686" points="11.194,62.957 37.021,32.322 25.804,32.322 0,62.957 		"/>
		<polygon fill="#868686" points="27.94,62.957 53.744,32.322 42.55,32.322 16.746,62.957 		"/>
	</g>
	<g>
		<path fill="#868686" d="M196.723,41.783c2.072,0,3.896,0.331,5.471,1.077c1.908,0.829,3.232,2.238,3.979,4.228
			c0.58,1.575,0.911,3.482,0.911,5.554c0,2.155-0.415,3.979-1.16,5.554c-0.83,1.907-2.238,3.232-4.062,3.979
			c-1.406,0.498-3.064,0.828-4.807,0.828c-2.404,0-4.477-0.496-6.217-1.325c-1.41-0.746-2.57-1.907-3.316-3.482
			c-0.828-1.575-1.158-3.48-1.158-5.72c0-3.979,0.992-6.797,2.982-8.536C191.004,42.528,193.49,41.783,196.723,41.783
			L196.723,41.783z M196.723,45.264c-2.072,0-3.562,0.664-4.395,2.073c-0.744,0.994-1.076,2.651-1.076,4.974
			c0,2.485,0.414,4.309,1.326,5.47c0.912,1.077,2.238,1.657,4.145,1.657c1.824,0,3.233-0.58,4.062-1.657
			c0.91-1.161,1.324-2.984,1.324-5.388c0-2.238-0.33-3.896-1.076-5.056C200.204,46.01,198.795,45.264,196.723,45.264L196.723,45.264
			z"/>
		<path fill="#868686" d="M248.529,62.836v-3.729h9.533c1.574,0,2.568-0.166,3.066-0.414c0.744-0.499,1.158-1.161,1.158-1.99
			c0-0.994-0.496-1.741-1.324-2.239c-0.498-0.248-1.245-0.414-2.32-0.414h-3.896c-2.406,0-4.062-0.414-5.141-1.243
			c-0.666-0.58-1.162-1.243-1.574-2.071c-0.332-0.829-0.498-1.741-0.498-2.654c0-1.491,0.416-2.817,1.242-4.061
			c0.83-1.161,2.238-1.823,4.062-1.989c0.58-0.083,1.575-0.166,2.816-0.166h10.363v3.73h-9.367
			c-1.409,0.082-2.319,0.082-2.817,0.248c-0.913,0.166-1.41,0.912-1.41,2.073c0,0.993,0.415,1.739,1.161,2.071
			c0.581,0.249,1.409,0.333,2.652,0.333h3.397c1.74,0,2.982,0.164,3.812,0.414c1.494,0.58,2.57,1.409,3.068,2.651
			c0.497,1.077,0.663,2.156,0.663,3.316c0,1.243-0.25,2.404-0.829,3.398c-0.828,1.409-2.072,2.32-3.73,2.57
			c-0.746,0.082-1.988,0.164-3.564,0.164h-10.525v0.002H248.529z"/>
		<path fill="#868686" d="M245.049,41.866v3.73h-5.803c-1.574,0-2.65,0.166-3.398,0.332c-0.664,0.248-1.244,0.662-1.658,1.243
			c-0.33,0.414-0.58,0.828-0.662,1.242c-0.084,0.415-0.166,1.161-0.248,2.156h11.771v3.73h-11.771
			c0.082,1.823,0.662,3.066,1.574,3.812c0.91,0.663,2.404,0.995,4.561,0.995h5.637v3.729h-5.803c-1.574,0-2.982-0.082-4.229-0.248
			c-1.822-0.33-3.313-1.161-4.476-2.486c-1.576-1.907-2.403-4.559-2.403-7.875c0-3.646,1.159-6.465,3.397-8.454
			c0.746-0.747,1.573-1.161,2.485-1.493c0.83-0.248,1.99-0.414,3.481-0.414L245.049,41.866L245.049,41.866z"/>
		<path fill="#868686" d="M226.148,59.108v3.729h-7.295c-1.408,0-2.485-0.082-3.232-0.164c-2.569-0.498-4.393-1.989-5.471-4.312
			c-0.746-1.657-1.078-3.564-1.078-5.886c0-2.818,0.58-5.138,1.66-6.963c0.744-1.243,1.822-2.154,3.148-2.734
			c1.324-0.58,3.066-0.912,5.139-0.912h7.129v3.73h-6.631c-1.988,0-3.398,0.58-4.395,1.657c-0.746,0.828-1.16,2.487-1.16,4.808
			c0,3.067,0.662,5.058,1.822,6.052c0.829,0.663,2.154,0.995,3.896,0.995H226.148L226.148,59.108z"/>
		<polygon fill="#868686" points="281.355,54.3 280.361,58.029 275.221,58.029 273.23,62.92 268.01,62.92 276.714,41.866 
			281.852,41.866 290.557,62.92 285.25,62.92 282.932,56.124 279.283,46.922 276.3,54.3 		"/>
	</g>
	<g>
		<path fill="#868686" d="M207.014,116.848h-8.811c-1.252,0.03-2.082,0.657-2.504,1.864l-3.961,15.34
			c-0.594,2.084,0.971,3.321,1.941,3.321l11.627,0.079l-4.521-17.033l2.02-0.563l4.615,17.439h3.475
			c1.189-0.016,2.332-1.771,2.1-2.851l-3.633-13.868l1.77-0.486l4.771,17.283h3.646c0.971-0.062,2.566-1.174,2.254-2.442
			l-4.367-16.611c-0.375-1.207-1.047-1.693-2.018-1.472l-6.62,1.785C208.798,117.301,208.062,116.878,207.014,116.848
			L207.014,116.848z"/>
		<path fill="#868686" d="M232.084,124.166l-7.245,2.758c-1.048,0.329-1.612,1.144-1.722,2.443v6.143
			c-0.062,1.098,0.359,1.911,1.252,1.896h11.174L232.084,124.166L232.084,124.166z"/>
		<path fill="#868686" d="M223.508,122.034l8.029-2.837c0.673-0.281,1.174,0.032,1.486,0.941l4.646,17.267h3.615
			c1.609-0.093,2.332-1.175,2.051-2.678l-3.693-13.946c-0.875-2.476-4.568-4.592-7.246-3.871l-8.967,3.229L223.508,122.034
			L223.508,122.034z"/>
		<path fill="#868686" d="M252.461,118.883v-1.816h-9.202c-1.563,0.046-2.442,1.598-2.05,2.914l4.335,15.687
			c0.563,1.487,1.408,1.926,2.05,1.895h4.789l-4.477-16.781c-0.375-1.144,0.172-1.975,1.644-2.053L252.461,118.883L252.461,118.883z
			"/>
		<path fill="#868686" d="M260.395,115.546v-8.524l-5.693,1.912c-0.393,0.156-0.407,0.627-0.376,0.925v7.317
			c-0.063,1.096-0.017,2.195,0.376,3.307l4.006,15.449c0.454,1.302,1.127,1.771,1.909,1.693h4.913l-4.286-16.767
			c-0.347-1.566,0.391-2.069,1.61-2.069h2.91v-1.848h-3.756C261.225,116.973,260.348,116.487,260.395,115.546L260.395,115.546z"/>
		<path fill="#868686" d="M267,117.019l5.07,18.835c0.328,1.239,1.002,1.692,1.988,1.692l4.709-0.078l-5.242-20.449H267L267,117.019
			z"/>
		<path fill="#868686" d="M268.001,114.167l6.136-2.224c1.299-0.502,0.469-2.932-1.002-2.382l-6.025,2.147
			C265.277,112.412,266.061,114.81,268.001,114.167L268.001,114.167z"/>
		<path fill="#868686" d="M280.004,137.703v-2.601h0.518l0.609,1.834c0.062,0.173,0.096,0.298,0.126,0.392
			c0.031-0.094,0.078-0.234,0.142-0.423l0.609-1.803h0.471v2.601h-0.33v-2.178l-0.75,2.178h-0.312l-0.75-2.209v2.209H280.004
			L280.004,137.703z M283.025,137.703v-2.601h1.143c0.234,0,0.406,0.032,0.531,0.079c0.126,0.046,0.219,0.125,0.281,0.25
			c0.08,0.111,0.109,0.236,0.109,0.376c0,0.188-0.062,0.345-0.174,0.471c-0.124,0.125-0.297,0.202-0.547,0.235
			c0.094,0.046,0.154,0.094,0.203,0.14c0.095,0.079,0.188,0.204,0.281,0.345l0.453,0.705h-0.438l-0.346-0.548
			c-0.094-0.157-0.172-0.267-0.233-0.359c-0.062-0.079-0.125-0.143-0.172-0.173c-0.062-0.033-0.11-0.048-0.157-0.063
			c-0.046-0.016-0.109-0.016-0.204-0.016h-0.391v1.159H283.025L283.025,137.703z M283.369,136.246h0.736
			c0.154,0,0.279-0.016,0.357-0.046c0.096-0.033,0.156-0.079,0.204-0.158c0.046-0.062,0.077-0.14,0.077-0.234
			c0-0.109-0.047-0.219-0.141-0.298c-0.08-0.078-0.221-0.109-0.424-0.109h-0.812L283.369,136.246L283.369,136.246z"/>
	</g>
	<g>
		<path fill="#868686" d="M70.371,197.373c-0.425-0.316-1.089-0.508-1.738-0.498c-0.7,0.01-1.372,0.234-1.839,0.605v-4.43h-2.191
			v14.441h2.191v-7.537c0-0.521,0.442-1.104,1.258-1.141c0.363-0.014,0.868,0.145,1.123,0.523c0.272,0.406,0.255,0.943,0.255,1.533
			l-0.002,6.619h2.19v-6.705C71.619,198.812,71.362,198.109,70.371,197.373"/>
		<path fill="#868686" d="M52.548,202.33c0,1.414-0.044,1.812-0.057,1.936c-0.074,0.783-0.409,1.613-1.322,1.613
			s-1.284-0.887-1.322-1.652c-0.001-0.004-0.056-0.48-0.056-1.896c0-1.416,0.055-2.004,0.056-2.011
			c0.01-0.797,0.423-1.594,1.322-1.594s1.312,0.797,1.322,1.586C52.491,200.326,52.548,200.914,52.548,202.33 M54.667,200.627
			c-0.312-3.088-2.063-3.75-3.503-3.75c-2.038,0-3.281,1.297-3.503,3.746c-0.017,0.195-0.052,0.555-0.062,1.707
			c-0.007,0.84,0.046,1.529,0.057,1.703c0.142,2.287,1.454,3.697,3.508,3.697c2.056,0,3.366-1.438,3.51-3.697
			c0.008-0.162,0.055-0.863,0.055-1.703C54.729,201.951,54.696,200.918,54.667,200.627z"/>
		<path fill="#868686" d="M75.276,201.031c0.017-0.479,0.017-0.578,0.025-0.719c0.063-0.865,0.449-1.58,1.335-1.586
			c1.051-0.012,1.298,1.021,1.334,1.592c0.022,0.299,0.042,0.5,0.041,0.713H75.276 M77.981,203.924c0,0,0.003,0.16-0.019,0.357
			c-0.06,0.51-0.264,1.598-1.33,1.598c-0.908,0-1.255-0.826-1.317-1.648c-0.014-0.23-0.055-0.49-0.053-1.381h4.885
			c0,0,0.009-0.727-0.005-1.164c-0.007-0.172-0.016-0.459-0.057-1.061c-0.067-0.926-0.413-1.938-0.942-2.592
			c-0.614-0.758-1.482-1.156-2.511-1.156c-1.973,0-3.207,1.283-3.45,3.746c-0.019,0.221-0.056,0.527-0.056,1.707
			c0,0.84,0.046,1.543,0.055,1.703c0.133,2.25,1.462,3.697,3.452,3.697c1.986,0,3.316-1.41,3.453-3.809L77.981,203.924
			L77.981,203.924z"/>
		<path fill="#868686" d="M40.671,185.684h35.606l13.614,15.928l-13.61,15.709h-35.61l-13.667-15.764L40.671,185.684
			 M77.138,183.914H39.812l-15.147,17.588l15.149,17.477h37.323l15.094-17.418L77.138,183.914z"/>
		<path fill="#868686" d="M41.111,195.016h1.038c1.126,0,1.738,0.6,1.765,1.664c0.002,0.078,0.012,0.168,0.012,0.336
			c0,0.193-0.003,0.26-0.012,0.336c-0.062,0.633-0.341,1.742-1.661,1.742h-1.142V195.016 M46.3,206.602
			c0,0.002-0.224-3.547-0.224-3.547c-0.098-1.586-0.512-2.518-1.332-2.998c0.592-0.354,1.359-1.238,1.354-3.078
			c-0.012-2.805-1.753-3.787-3.802-3.811h-3.349v14.326h2.163l0.001-6.553h1.204c0.695,0,1.481,0.607,1.599,2.314l0.226,3.354
			c0.017,0.479,0.108,0.885,0.108,0.885h2.162C46.41,207.496,46.317,207.102,46.3,206.602z"/>
		<path fill="#868686" d="M61.067,203.824c-0.008,0.16-0.019,0.303-0.027,0.402c-0.062,0.801-0.344,1.65-1.323,1.65
			c-0.911,0-1.272-0.924-1.339-1.604c-0.04-0.41-0.029-0.729-0.04-1.945c-0.008-1.416,0.038-1.779,0.057-2.012
			c0.077-0.893,0.425-1.588,1.322-1.594c0.924-0.008,1.313,0.797,1.323,1.586c0,0.008,0.019,0.199,0.034,0.619h2.167
			c-0.007-0.145-0.014-0.266-0.019-0.338c-0.247-2.992-2.07-3.717-3.51-3.717c-2.038,0-3.28,1.297-3.503,3.746
			c-0.019,0.195-0.05,0.555-0.062,1.707c-0.007,0.84,0.048,1.529,0.058,1.703c0.14,2.287,1.452,3.688,3.506,3.697
			c2.13,0.006,3.304-1.293,3.51-3.697c0.007-0.088,0.019-0.148,0.012-0.209h-2.166"/>
	</g>
	<g>
		<g>
			<path fill="#868686" d="M54.923,259.379c3.843-0.07,6.983,2.992,7.048,6.838c0.068,3.838-3.2,7.025-7.041,7.094l-0.004-4.422
				h0.025c1.412,0,2.556-1.145,2.556-2.553c0-1.41-1.144-2.553-2.556-2.553h-0.027L54.923,259.379z"/>
			<path fill="#868686" d="M81.067,266.268c0.068,3.842-2.994,6.984-6.835,7.055c-3.843,0.062-7.03-3.201-7.098-7.047h4.422v0.023
				c0,1.408,1.145,2.551,2.553,2.551c1.411,0,2.554-1.143,2.554-2.551v-0.027L81.067,266.268z"/>
			<path fill="#868686" d="M100.935,266.268c0.066,3.842-2.994,6.984-6.837,7.055c-3.843,0.062-7.025-3.201-7.094-7.047h4.42v0.023
				c0,1.408,1.145,2.551,2.554,2.551s2.55-1.143,2.55-2.551v-0.027L100.935,266.268z"/>
			<path fill="#868686" d="M82.271,265.662c-0.067-3.842,2.995-6.982,6.837-7.047c3.839-0.068,7.027,3.197,7.096,7.039l-4.421,0.002
				v-0.021c0-1.414-1.146-2.555-2.554-2.555c-1.412,0-2.553,1.141-2.553,2.555v0.027H82.271L82.271,265.662z"/>
			<path fill="#868686" d="M22.979,268.881c-1.402,0-2.54-1.135-2.54-2.539c0-1.4,1.138-2.539,2.54-2.539
				c1.405,0,2.541,1.139,2.541,2.539C25.519,267.746,24.383,268.881,22.979,268.881 M22.979,259.332
				c-3.876,0-7.019,3.143-7.019,7.021c0,3.875,3.143,7.016,7.019,7.016c3.878,0,7.021-3.141,7.021-7.016
				C30,262.475,26.857,259.332,22.979,259.332"/>
			<path fill="#868686" d="M36.477,266.344c0-1.402,1.136-2.541,2.541-2.541c1.402,0,2.54,1.139,2.54,2.541s-1.137,2.541-2.54,2.541
				C37.613,268.885,36.477,267.746,36.477,266.344"/>
			<path fill="#868686" d="M43.371,266.344c0-1.402,1.138-2.541,2.541-2.541c1.404,0,2.541,1.139,2.541,2.541
				s-1.137,2.541-2.541,2.541C44.509,268.885,43.371,267.746,43.371,266.344"/>
		</g>
		<path fill="#868686" d="M100.929,293.535v-2.164h-6.423v-3.512h5.59v-2.096h-5.59v-3.246h6.388v-2.184h-7.612
			c-1.046,0-1.667,0.604-1.667,1.562v10.098c0,0.957,0.621,1.541,1.667,1.541H100.929L100.929,293.535z M89.857,282.572v-2.236
			h-10.52v2.236h3.796v10.963h2.929v-10.963H89.857z M75.239,284.223c0,0.639-0.3,1.17-0.656,1.65l-0.532,0.709h-3.425v-4.152h2.857
			C74.724,282.43,75.239,283.156,75.239,284.223 M78.645,293.535l-2.52-5.658l0.816-0.994c0.622-0.762,1.082-1.65,1.082-2.732
			c0-2.465-1.542-3.812-4.098-3.812h-4.542c-1.012,0-1.648,0.621-1.648,1.545v11.654h2.89v-4.857h2.911l2.058,4.857L78.645,293.535
			L78.645,293.535z M62.022,288.994h-3.797l1.933-5.873L62.022,288.994z M66.314,293.535l-4.079-12.01
			c-0.285-0.854-0.977-1.332-2.023-1.332c-1.1,0-1.756,0.463-2.059,1.35l-4.222,11.992h2.911l0.815-2.412h4.915l0.798,2.412H66.314z
			 M43.18,281.771l7.204,11.318c0.231,0.354,0.514,0.533,0.905,0.533c0.497,0,0.833-0.27,0.833-0.869v-12.42h-1.065v11.729
			l-7.202-11.318c-0.231-0.355-0.55-0.531-0.923-0.531c-0.498,0-0.834,0.283-0.834,0.887v12.438h1.082V281.771z M38.319,286.971
			c0,3.691-1.792,5.715-4.737,5.715s-4.825-2.041-4.825-5.715c0-3.635,1.81-5.676,4.79-5.676
			C36.492,281.295,38.319,283.336,38.319,286.971 M39.49,286.971c0-4.293-2.376-6.705-5.89-6.705c-3.547,0-5.997,2.434-5.997,6.705
			c0,4.312,2.377,6.707,5.908,6.707C37.06,293.678,39.49,291.336,39.49,286.971 M16.284,286.971c0,4.703,2.449,6.707,5.766,6.707
			c1.047,0,2.093-0.229,3.406-0.639l0.834-0.268l-0.214-1.064l-0.869,0.268c-1.259,0.393-2.253,0.621-3.123,0.621
			c-2.768,0-4.595-1.703-4.595-5.625c0-3.902,1.792-5.623,4.578-5.623c0.852,0,1.862,0.23,3.14,0.621l0.869,0.268l0.214-1.062
			l-0.834-0.25c-1.294-0.406-2.359-0.654-3.406-0.654C18.803,280.266,16.284,282.393,16.284,286.971"/>
	</g>
	<g>
		<path fill="#868686" d="M278.727,276.865c0.65-0.637,1.57-0.953,2.728-0.953c0.802,0,1.521,0.148,2.175,0.467l1.021-3.947
			c-1.154-0.5-2.41-0.752-3.797-0.752c-2.358,0-4.385,0.736-6.058,2.191s-2.509,3.229-2.489,5.285
			c-0.02,2.059,0.816,3.83,2.489,5.285s3.697,2.189,6.058,2.189c1.453,0,2.793-0.283,3.996-0.836L283.543,282
			c-0.62,0.283-1.322,0.418-2.091,0.418c-1.155,0-2.106-0.303-2.827-0.92c-0.736-0.619-1.07-1.387-1.004-2.291
			C277.688,278.287,278.057,277.5,278.727,276.865L278.727,276.865z"/>
		<polygon fill="#868686" points="271.148,272.082 266.549,272.082 266.549,286.465 271.148,286.465 		"/>
		<path fill="#868686" d="M286.77,273.82c-1.521,1.457-2.272,3.195-2.256,5.236c-0.019,2.039,0.734,3.777,2.256,5.217
			c1.522,1.457,3.348,2.176,5.486,2.176c2.141,0,3.964-0.719,5.484-2.176c1.506-1.438,2.26-3.178,2.26-5.217
			c0-2.041-0.754-3.779-2.26-5.236c-1.521-1.438-3.346-2.156-5.484-2.156C290.115,271.664,288.292,272.383,286.77,273.82
			L286.77,273.82z M292.239,275.846c0.887,0,1.655,0.318,2.29,0.938c0.621,0.637,0.938,1.402,0.938,2.291
			c0,0.887-0.316,1.639-0.938,2.26c-0.635,0.633-1.403,0.951-2.29,0.951c-0.888,0-1.657-0.318-2.291-0.951
			c-0.638-0.621-0.954-1.373-0.937-2.26c-0.02-0.889,0.299-1.654,0.937-2.291C290.582,276.164,291.352,275.846,292.239,275.846
			L292.239,275.846z"/>
		<path fill="#868686" d="M204.23,273.82c-1.521,1.457-2.275,3.195-2.258,5.236c-0.02,2.039,0.734,3.777,2.258,5.217
			c1.521,1.457,3.346,2.176,5.484,2.176s3.967-0.719,5.486-2.176c1.505-1.438,2.258-3.178,2.258-5.217
			c0-2.041-0.753-3.779-2.258-5.236c-1.521-1.438-3.348-2.156-5.486-2.156S205.752,272.383,204.23,273.82L204.23,273.82z
			 M209.7,275.846c0.886,0,1.655,0.318,2.291,0.938c0.62,0.637,0.938,1.402,0.938,2.291c0,0.887-0.318,1.639-0.938,2.26
			c-0.636,0.633-1.405,0.951-2.291,0.951s-1.655-0.318-2.292-0.951c-0.635-0.621-0.952-1.373-0.936-2.26
			c-0.019-0.889,0.301-1.654,0.936-2.291C208.045,276.164,208.814,275.846,209.7,275.846L209.7,275.846z"/>
		<polygon fill="#868686" points="227.128,278.84 225.088,272.115 220.32,272.115 217.176,286.248 221.977,286.248 223.482,279.525 
			225.605,286.248 228.801,286.248 230.807,279.307 232.279,286.248 237.381,286.248 234.203,272.115 229.135,272.115 		"/>
		<path fill="#868686" d="M239.723,273.871c-1.455,1.488-2.188,3.262-2.188,5.352c0,2.092,0.733,3.863,2.188,5.336
			c1.455,1.488,3.229,2.227,5.301,2.227c2.06,0,3.832-0.736,5.287-2.227c0.77-0.77,1.336-1.623,1.705-2.576h-4.768
			c-0.553,0.805-1.221,1.238-2.04,1.289c-0.836,0.066-1.556-0.268-2.175-1.021c-0.484-0.586-0.803-1.287-0.938-2.106h10.354
			c0.033-0.302,0.052-0.603,0.052-0.92c0-2.091-0.737-3.863-2.19-5.353c-1.455-1.474-3.229-2.207-5.287-2.207
			c-0.115,0-0.217,0-0.316,0.017l4.918-2.709l-2.479-3.462l-4.264,3.929l1.807,2.242
			C242.766,271.746,241.109,272.482,239.723,273.871L239.723,273.871z M242.432,277.1c0.103-0.219,0.219-0.418,0.353-0.619
			c0.552-0.836,1.235-1.287,2.073-1.338c0.834-0.066,1.572,0.27,2.189,1.021c0.234,0.283,0.436,0.582,0.586,0.936H242.432
			L242.432,277.1z"/>
		<path fill="#868686" d="M183.006,272.031h-6.088v14.217h4.551v-4.699h3.244c1.891-0.102,3.145-0.871,3.729-2.326
			s0.568-2.994-0.049-4.615C187.758,272.969,185.967,272.115,183.006,272.031L183.006,272.031z M182.773,278.537h-1.307v-2.928
			h1.021c1.221,0.051,1.807,0.52,1.772,1.438c-0.034,0.904-0.536,1.404-1.489,1.488L182.773,278.537L182.773,278.537z"/>
		<path fill="#868686" d="M200.953,274.607c-0.637-1.641-2.426-2.492-5.387-2.576h-6.088v14.217h4.549v-4.768h0.738l2.559,4.768
			h5.217l-3.193-5.186c0.771-0.387,1.32-1.002,1.655-1.84C201.588,277.768,201.572,276.229,200.953,274.607L200.953,274.607z
			 M196.822,277.049c-0.034,0.904-0.535,1.404-1.488,1.488h-1.307v-2.928h1.021C196.27,275.66,196.855,276.129,196.822,277.049
			L196.822,277.049z"/>
		<polygon fill="#868686" points="261.294,279.271 265.711,272.082 260.498,272.082 258.49,275.65 256.266,272.082 250.995,272.082 
			255.346,279.391 251.045,286.246 256.434,286.246 258.504,282.896 260.443,286.465 265.596,286.465 		"/>
	</g>
	<g>
		<path fill="#868686" d="M201.984,216.787c0,0,10.488-18.539,26.418-29.41l1.309-0.793c0,0-10.551,3.217-33.082,26.74
			L201.984,216.787"/>
		<path fill="#868686" d="M196.65,213.549c0,0,6.477-20.871,18.387-27.443c0,0,8.671,1.719,14.195,12.482
			c0,0,0.668-6.766-0.951-11.338l1.43-0.666c0,0,2.094,8.764,0.477,15.625l-1.334,1.428c0,0-4.289-11.717-11.721-13.812
			c0,0-6.287,1.619-15.148,26.965L196.65,213.549"/>
		<path fill="#868686" d="M225.158,215.318v-8.162c0-0.939-0.449-1.922-2.182-1.922c-0.899,0-1.373,0.127-1.894,0.32v9.764h-2.745
			v-10.896c1.148-0.512,2.702-0.836,4.749-0.836c3.626,0,4.813,1.668,4.813,3.523v8.205h-2.743"/>
		<path fill="#868686" d="M232.09,210.512c0.227,2.135,1.307,3.203,3.309,3.203c1.395,0,2.406-0.322,3.062-0.641l0.65,1.646
			c-0.854,0.446-2.158,0.812-4.006,0.812c-3.44,0-5.625-2.115-5.625-6.005c0-3.758,2.002-5.938,5.174-5.938
			c3.221,0,4.975,2.031,4.861,5.896L232.09,210.512 M234.566,205.191c-1.6,0-2.701,1.238-2.633,3.994l5.018-0.727
			C236.951,206.133,236.073,205.191,234.566,205.191z"/>
		<path fill="#868686" d="M254.749,215.318v-8.186c0-1.002-0.584-1.879-2.047-1.879c-0.833,0-1.462,0.256-2.025,0.791v9.271h-2.745
			v-8.248c0-1.108-0.789-1.836-2.271-1.836c-0.811,0-1.264,0.104-1.801,0.319v9.765h-2.744v-10.896
			c1.217-0.558,2.521-0.836,4.545-0.836c1.959,0,3.084,0.535,3.781,1.261c0.809-0.703,2.045-1.261,3.894-1.261
			c2.879,0,4.163,1.711,4.163,3.524v8.205h-2.748"/>
		<path fill="#868686" d="M263.887,215.531c-3.311,0-4.951-1.281-4.951-3.504c0-3.035,3.082-3.908,6.773-4.254v-0.617
			c0-1.494-0.99-1.9-2.408-1.9c-1.172,0-2.296,0.363-3.037,0.705l-0.631-1.494c0.787-0.365,2.25-0.879,4.164-0.879
			c2.496,0,4.477,1.004,4.477,3.975v7.139C267.309,215.189,265.777,215.531,263.887,215.531 M265.709,209.016
			c-2.588,0.299-4.186,0.832-4.186,2.926c0,1.494,0.942,2.137,2.541,2.137c0.631,0,1.236-0.127,1.645-0.32V209.016L265.709,209.016z
			"/>
		<polyline fill="#868686" points="277.209,215.318 273.158,209.441 273.113,209.441 273.113,215.318 270.389,215.318 
			270.389,203.658 273.113,203.658 273.113,209.016 273.158,209.016 277.004,203.803 279.795,203.803 275.609,209.076 
			280.289,215.318 277.209,215.318 		"/>
	</g>
	<g>
		<polygon fill="#868686" points="80.237,130.368 82.207,130.368 82.207,137.366 80.237,137.366 		"/>
		<polygon fill="#868686" points="62.818,121.097 69.074,121.097 69.074,122.566 64.696,122.566 64.696,123.823 68.725,123.823 
			68.725,125.216 64.696,125.216 64.696,126.625 69.074,126.625 69.074,128.095 62.818,128.095 		"/>
		<path fill="#868686" d="M88.267,131.927v-1.574c-0.576-0.137-1.273-0.213-2.076-0.213c-1.136-0.03-3.15,0.272-3.06,2.302
			c0.106,1.272,1.015,1.591,2.288,2.015c1.09,0.35,1.318,0.44,1.272,0.939c-0.091,0.516-0.697,0.546-1.075,0.562
			c-0.727,0-1.743-0.151-2.454-0.38v1.697c0,0,1.318,0.272,2.53,0.287c0.908,0,2.908-0.302,3.074-2.211
			c0.031-1.272-0.742-1.727-1.333-1.984c-1.545-0.636-1.954-0.605-2.15-0.908c-0.243-0.546,0.394-0.789,1.15-0.743
			C86.66,131.73,87.115,131.761,88.267,131.927L88.267,131.927z"/>
		<path fill="#868686" d="M68.135,137.366h2.5v-6.998h-1.879c0,0,0,2.878,0,4.71l-2.863-4.71h-2.499v6.998h1.893
			c0,0,0-2.878,0-4.727L68.135,137.366L68.135,137.366z"/>
		<path fill="#868686" d="M77.072,128.095l-2.333-2.863c0.711,0.03,1.832-0.545,1.863-1.863c0.044-1.772-0.833-2.271-2.181-2.271
			h-4.545v6.998h1.955v-5.529h1.878c0.364,0,0.97,0.03,0.97,0.833c0,0.697-0.501,0.818-0.985,0.818h-1.667l2.651,3.878
			L77.072,128.095L77.072,128.095z"/>
		<polygon fill="#868686" points="56.304,130.368 62.56,130.368 62.56,131.837 58.182,131.837 58.182,133.093 62.211,133.093 
			62.211,134.488 58.182,134.488 58.182,135.896 62.56,135.896 62.56,137.366 56.304,137.366 		"/>
		<path fill="#868686" d="M76.542,137.366h2.499v-6.998h-1.878c0,0,0,2.878,0,4.71l-2.863-4.71h-2.5v6.998h1.909
			c0,0,0-2.878,0-4.727L76.542,137.366L76.542,137.366z"/>
		<path fill="#868686" d="M102.855,137.366h2.499v-6.998h-1.878c0,0,0,2.878,0,4.71l-2.864-4.71h-2.499v6.998h1.894
			c0,0,0-2.878,0-4.727L102.855,137.366L102.855,137.366z"/>
		<path fill="#868686" d="M80.132,123.732l-1.62-2.65H76.3l3.137,4.544v2.47h1.877v-2.47l3.182-4.544h-2.228l-1.651,2.65
			c-0.152,0.243-0.242,0.485-0.242,0.485S80.284,123.975,80.132,123.732L80.132,123.732z"/>
		<path fill="#868686" d="M93.235,137.593c-2.606,0.044-4.076-1.425-4.06-3.771c0.015-2.349,1.454-3.833,4.045-3.773
			c2.62-0.06,4.075,1.425,4.075,3.773C97.31,136.168,95.84,137.637,93.235,137.593L93.235,137.593z M93.235,135.896
			c1.408,0,2.136-0.803,2.136-2.074c0-1.272-0.728-2.092-2.136-2.092c-1.394,0-2.137,0.819-2.137,2.092
			C91.099,135.093,91.842,135.896,93.235,135.896L93.235,135.896z"/>
		<path fill="#868686" d="M52.35,130.368c2.5,0,3.256,2.045,3.242,3.515c-0.031,1.62-0.757,3.483-3.196,3.483h-4.318v-6.998H52.35
			L52.35,130.368z M53.638,133.867c0-1.485-0.909-1.939-2.03-1.939h-1.622v3.879h1.576
			C52.698,135.806,53.638,135.518,53.638,133.867L53.638,133.867z"/>
		<path fill="#868686" d="M50.517,126.595l-0.591,1.5h-2.09l2.938-6.998h2.471l2.923,6.998h-2.091l-0.591-1.5H50.517L50.517,126.595
			z M52.259,123.399c0,0-0.136-0.378-0.242-0.727c-0.091,0.363-0.227,0.727-0.227,0.727l-0.712,1.803h1.878L52.259,123.399
			L52.259,123.399z"/>
		<path fill="#868686" d="M11.542,132.17c0-0.833,0.166-1.272,0.438-2.03c0.197-0.409,0.075-0.182,0.637-1.272
			c1.06-1.893,9.043-16.147,9.043-16.147c0.53-0.925,1.347-2.349,1.347-2.349c1.122-1.923,2.137-2.757,3.53-3.151
			c0.127-0.034,0.252-0.064,0.378-0.09h2.236c0.578,0.12,1.104,0.328,1.551,0.59c0.849,0.5,1.622,1.409,2.151,2.363
			c0.182,0.288,0.167,0.213,0.848,1.439l9.953,17.45c0.817,1.424,1.333,2.666,0.864,4.454c-0.742,2.545-2.742,3.726-5.409,3.894
			c-0.757,0.075-0.575,0.03-1.182,0.06c-3.923,0-17.677,0.016-19.616,0c-1.317-0.015-0.561-0.015-1.091-0.029
			C13.449,137.335,11.542,134.624,11.542,132.17L11.542,132.17z M23.174,126.762l7.211-12.68c0.545-1.045,0.621-1.817,0.424-2.514
			c-0.455-1.546-2.045-2.484-3.666-1.984c-0.698,0.196-1.258,0.62-1.849,1.666l-8.861,15.784c0.621-0.212,1.242-0.288,1.757-0.303
			h0.272l8.347-14.77c0.303-0.516,0.531-0.697,0.833-0.803c0.773-0.229,1.41,0.212,1.59,0.863c0.075,0.333,0,0.697-0.241,1.151
			L21.25,126.76h1.924V126.762z M25.992,126.777h4.243l-2.151-3.711L25.992,126.777L25.992,126.777z M29.477,120.657l7.135,12.483
			c0.484,0.787,0.969,1.394,1.848,1.681c1.574,0.5,3.271-0.484,3.649-2.074c0.228-0.985-0.052-1.687-0.438-2.364l-9.119-15.966
			c-0.107,0.863-0.44,1.5-0.698,2.075l8.392,14.693c0.303,0.545,0.364,0.88,0.273,1.196c-0.167,0.667-0.924,1.077-1.53,0.864
			c-0.303-0.091-0.546-0.303-0.909-0.908l-7.634-13.377L29.477,120.657L29.477,120.657z M35.248,134.958
			c-0.742-0.621-0.985-1.061-1.363-1.667H16.934c-0.318,0-0.667-0.09-0.909-0.333c-0.5-0.469-0.531-1.258-0.046-1.742
			c0.243-0.228,0.651-0.363,0.955-0.363h15.558l-0.97-1.682H17.1c-0.939,0.016-1.711,0.334-2.272,0.878
			c-1.151,1.122-1.151,2.97,0.122,4.167c0.772,0.637,1.394,0.695,2.286,0.742H35.248L35.248,134.958z"/>
		<polygon fill="#868686" points="58.576,126.004 56.651,121.097 54.517,121.097 57.515,128.095 59.606,128.095 62.605,121.097 
			60.485,121.097 		"/>
	</g>
</g>
</svg>
