<?xml version="1.0" encoding="utf-8"?>
<!-- Generator: Adobe Illustrator 16.0.0, SVG Export Plug-In . SVG Version: 6.00 Build 0)  -->
<!DOCTYPE svg PUBLIC "-//W3C//DTD SVG 1.1//EN" "http://www.w3.org/Graphics/SVG/1.1/DTD/svg11.dtd">
<svg version="1.1" id="Layer_1" xmlns="http://www.w3.org/2000/svg" xmlns:xlink="http://www.w3.org/1999/xlink" x="0px" y="0px"
	 width="200px" height="74px" viewBox="0 0 200 74" enable-background="new 0 0 200 74" xml:space="preserve">
<g>
	<path d="M17.583,25.279v18.281h7.593v5.161H11.489V25.279H17.583z"/>
	<path d="M32.32,26.011c1.969-1.006,4.083-1.508,6.342-1.508s4.374,0.502,6.343,1.508c1.968,1.006,3.564,2.441,4.789,4.307
		c1.222,1.865,1.834,3.948,1.834,6.248c0,3.792-1.219,6.896-3.654,9.312c-2.436,2.415-5.538,3.623-9.311,3.623
		c-3.772,0-6.875-1.208-9.312-3.623c-2.436-2.415-3.652-5.52-3.652-9.312c0-2.3,0.61-4.383,1.834-6.248
		C28.755,28.452,30.352,27.017,32.32,26.011z M43.327,32.276c-1.306-1.245-2.861-1.866-4.665-1.866
		c-1.802,0-3.357,0.621-4.664,1.866c-1.305,1.242-1.958,2.685-1.958,4.32c0,1.99,0.642,3.652,1.927,4.99
		c1.285,1.338,2.849,2.005,4.694,2.005c1.844,0,3.41-0.667,4.696-2.005c1.284-1.338,1.926-3,1.926-4.99
		C45.285,34.961,44.632,33.519,43.327,32.276z"/>
	<path d="M65.743,35.633h12.092c-0.041,2.031-0.212,3.753-0.512,5.161c-0.3,1.409-0.928,2.778-1.88,4.104
		c-2.197,3.067-5.42,4.603-9.669,4.603c-3.689,0-6.696-1.146-9.017-3.436c-2.321-2.29-3.481-5.271-3.481-8.939
		c0-3.794,1.172-6.846,3.512-9.155c2.343-2.311,5.411-3.467,9.203-3.467c2.446,0,4.57,0.549,6.374,1.647
		c1.805,1.099,3.203,2.736,4.197,4.912l-5.781,2.425c-0.437-1.16-1.089-2.071-1.96-2.734c-0.87-0.664-1.907-0.996-3.109-0.996
		c-1.886,0-3.374,0.746-4.462,2.238c-1.088,1.492-1.63,3.213-1.63,5.161s0.553,3.659,1.663,5.13
		c1.108,1.472,2.616,2.207,4.523,2.207c1.367,0,2.497-0.352,3.388-1.056c0.892-0.705,1.4-1.711,1.523-3.017h-4.973V35.633z"/>
	<path d="M147.938,30.44h-8.103v3.918h7.729v5.161h-7.729v4.041h8.103v5.161h-14.196V25.279h14.196V30.44z"/>
	<path d="M164.44,30.44h-8.103v3.918h7.729v5.161h-7.729v4.041h8.103v5.161h-14.196V25.279h14.196V30.44z"/>
	<path d="M172.748,34.949l7.368-9.67h7.555l-9.326,11.101l10.166,12.342h-7.896l-7.866-10.166h-0.062v10.166h-6.094V25.279h6.094
		v9.67H172.748z"/>
	<path d="M98.753,34.811l0.017,0.048C98.765,34.842,98.758,34.827,98.753,34.811z"/>
	<path d="M98.721,34.712l-0.004,0.005c0.012,0.03,0.026,0.063,0.036,0.094L98.721,34.712z"/>
	<g>
		<path d="M125.753,25.166l-4.415,15.151h-0.062l-4.601-15.151h-4.851l-4.912,15.151h-0.063l-2.014-7.331
			c-0.304-0.944-0.729-1.829-1.287-2.683c-1.224-1.865-2.819-3.294-4.788-4.3C96.79,25,94.676,24.5,92.417,24.5
			c-2.26,0-4.374,0.505-6.343,1.509c-1.97,1.006-3.564,2.441-4.787,4.307c-1.224,1.865-1.836,3.948-1.836,6.25
			c0,3.792,1.218,6.896,3.654,9.312c2.434,2.415,5.54,3.623,9.311,3.623c3.233,0,5.975-0.892,8.226-2.664l-2.347-6.926
			c-0.302,0.607-0.693,1.167-1.184,1.677c-1.286,1.338-2.852,2.005-4.695,2.005c-1.845,0-3.41-0.667-4.694-2.005
			c-1.286-1.338-1.929-3-1.929-4.99c0-1.636,0.655-3.078,1.96-4.32c1.307-1.245,2.859-1.866,4.663-1.866
			c1.803,0,3.357,0.621,4.665,1.866c0.78,0.742,1.32,1.557,1.635,2.44l0.004-0.005l0.032,0.099c0.005,0.017,0.012,0.031,0.017,0.048
			l4.661,13.75h6.187l4.602-13.438h0.062l4.104,13.438h6.217l7.494-23.442H125.753z"/>
	</g>
</g>
</svg>
