<?xml version="1.0" encoding="utf-8"?>
<!-- Generator: Adobe Illustrator 16.0.0, SVG Export Plug-In . SVG Version: 6.00 Build 0)  -->
<!DOCTYPE svg PUBLIC "-//W3C//DTD SVG 1.1//EN" "http://www.w3.org/Graphics/SVG/1.1/DTD/svg11.dtd">
<svg version="1.1" id="Layer_1" xmlns="http://www.w3.org/2000/svg" xmlns:xlink="http://www.w3.org/1999/xlink" x="0px" y="0px"
	 width="122px" height="122px" viewBox="0 0 122 122" enable-background="new 0 0 122 122" xml:space="preserve">
<g>
	<path fill="#797979" d="M61,1c-5.932,0-11.791,0.863-17.415,2.564C43.042,3.729,42.735,4.3,42.9,4.843
		c0.164,0.542,0.737,0.848,1.278,0.685C49.611,3.884,55.27,3.051,61,3.051c9.379,0,18.236,2.254,26.082,6.226l0.923-1.83
		C79.882,3.333,70.711,1,61,1z"/>
	<path fill="#FFFFFF" d="M6.133,42.309c0.182-0.538-0.105-1.12-0.64-1.303c-0.537-0.182-1.12,0.105-1.302,0.64
		C2.074,47.861,1,54.372,1,61h2.051C3.051,54.597,4.088,48.309,6.133,42.309z"/>
	<path fill="#797979" d="M118.948,61H121c0-23.373-13.443-43.653-32.995-53.553l-0.923,1.83
		C105.966,18.839,118.948,38.425,118.948,61z"/>
	<path fill="#FFFFFF" d="M118.948,61c0,22.574-12.982,42.161-31.866,51.723c-7.846,3.973-16.703,6.227-26.082,6.227
		c-9.378,0-18.236-2.254-26.083-6.227C16.034,103.161,3.051,83.574,3.051,61H1c0,23.372,13.443,43.652,32.995,53.553
		C42.118,118.666,51.289,121,61,121s18.882-2.334,27.005-6.447C107.557,104.652,121,84.372,121,61H118.948z"/>
</g>
<path fill="#FFFFFF" d="M68.559,73.302H52.953v-4.163H44.51v-3.285c0-2.515,1.785-4.619,4.154-5.114
	c-1.693-0.471-2.939-2.026-2.939-3.867c0-2.212,1.799-4.012,4.012-4.012c2.212,0,4.012,1.8,4.012,4.012
	c0,1.842-1.248,3.397-2.942,3.867c1.661,0.349,3.062,1.493,3.731,3.05c1.465-1.932,3.763-3.096,6.219-3.096
	c2.688,0,5.123,1.356,6.542,3.553c0.575-1.761,2.068-3.119,3.899-3.506c-1.696-0.47-2.944-2.025-2.944-3.868
	c0-2.212,1.8-4.012,4.013-4.012c2.212,0,4.011,1.8,4.011,4.012c0,1.841-1.246,3.396-2.939,3.867c2.369,0.495,4.153,2.6,4.153,5.114
	v3.285h-8.932V73.302z M53.938,72.318h13.637v-4.164h0.392l-0.887-2.201c-1.047-2.598-3.528-4.275-6.323-4.275
	c-2.461,0-4.741,1.338-5.948,3.491l-0.652,1.163l-0.26-1.309c-0.392-1.977-2.142-3.411-4.159-3.411c-2.34,0-4.242,1.902-4.242,4.241
	v2.301h8.443V72.318z M67.986,68.154h8.521v-2.301c0-2.339-1.903-4.241-4.241-4.241c-2.298,0-4.198,1.868-4.238,4.165L67.986,68.154
	z M72.266,53.845c-1.67,0-3.029,1.358-3.029,3.027c0,1.67,1.359,3.027,3.029,3.027c1.669,0,3.027-1.357,3.027-3.027
	C75.293,55.203,73.935,53.845,72.266,53.845z M49.736,53.845c-1.67,0-3.027,1.358-3.027,3.027c0,1.67,1.357,3.027,3.027,3.027
	c1.669,0,3.027-1.357,3.027-3.027C52.764,55.203,51.405,53.845,49.736,53.845z M60.756,60.554c-3.269,0-5.928-2.66-5.928-5.929
	c0-3.268,2.659-5.927,5.928-5.927s5.928,2.659,5.928,5.927C66.684,57.894,64.024,60.554,60.756,60.554z M60.756,49.683
	c-2.726,0-4.943,2.217-4.943,4.942c0,2.727,2.218,4.944,4.943,4.944s4.944-2.218,4.944-4.944
	C65.7,51.899,63.481,49.683,60.756,49.683z"/>
</svg>
