<?xml version="1.0" encoding="utf-8"?>
<!-- Generator: Adobe Illustrator 16.0.0, SVG Export Plug-In . SVG Version: 6.00 Build 0)  -->
<!DOCTYPE svg PUBLIC "-//W3C//DTD SVG 1.1//EN" "http://www.w3.org/Graphics/SVG/1.1/DTD/svg11.dtd">
<svg version="1.1" id="Layer_1" xmlns="http://www.w3.org/2000/svg" xmlns:xlink="http://www.w3.org/1999/xlink" x="0px" y="0px"
	 width="122px" height="122px" viewBox="0 0 122 122" enable-background="new 0 0 122 122" xml:space="preserve">
<g>
	<g>
		<path fill="#797979" d="M61,1c-5.932,0-11.791,0.863-17.415,2.564C43.042,3.729,42.735,4.3,42.9,4.843
			c0.164,0.542,0.737,0.848,1.278,0.685C49.611,3.884,55.27,3.051,61,3.051c9.379,0,18.236,2.254,26.082,6.226l0.923-1.83
			C79.882,3.333,70.711,1,61,1z"/>
		<path fill="#FFFFFF" d="M6.133,42.309c0.182-0.538-0.105-1.12-0.64-1.303c-0.537-0.182-1.12,0.105-1.302,0.64
			C2.074,47.861,1,54.372,1,61h2.051C3.051,54.597,4.088,48.309,6.133,42.309z"/>
		<path fill="#797979" d="M118.948,61H121c0-23.373-13.443-43.653-32.995-53.553l-0.923,1.83
			C105.966,18.839,118.948,38.425,118.948,61z"/>
		<path fill="#797979" d="M121,61h-2.052c0,22.574-12.982,42.161-31.866,51.723l0.923,1.83C107.557,104.652,121,84.372,121,61z"/>
		<path fill="#797979" d="M3.051,61H1c0,23.372,13.443,43.652,32.995,53.553l0.923-1.83C16.034,103.161,3.051,83.574,3.051,61z"/>
		<path fill="#797979" d="M61,118.949c-9.378,0-18.236-2.254-26.083-6.227l-0.923,1.83C42.118,118.666,51.289,121,61,121
			s18.882-2.334,27.005-6.447l-0.923-1.83C79.236,116.695,70.379,118.949,61,118.949z"/>
	</g>
	<g>
		<path fill="#FFFFFF" d="M65.594,76.255l-3.361-0.006c-2.613-0.468-4.256-2.988-4.875-3.937c-1.872-2.889-2.051-8.854-2.042-11.284
			c-0.009-2.488,0.169-8.453,2.042-11.339c0.619-0.949,2.26-3.469,4.788-3.929l3.446-0.016c0.603,0,1.092,0.488,1.092,1.088v6.89
			c0,0.601-0.489,1.09-1.09,1.09c-0.006,0-2.768,0.054-3.279,0.064c-0.412,0.148-1.47,0.876-1.265,4.414l0.002,3.387
			c-0.208,3.569,0.851,4.296,1.262,4.443c0.513,0.01,3.29,0.063,3.29,0.063c0.591,0,1.08,0.49,1.08,1.092v6.89
			C66.684,75.767,66.194,76.255,65.594,76.255z M65.594,46.729l-3.359,0.007c-2.024,0.375-3.497,2.638-4.052,3.49
			c-1.726,2.663-1.892,8.399-1.882,10.741c-0.01,2.408,0.156,8.143,1.883,10.809c0.555,0.85,2.03,3.112,4.137,3.496l3.273-0.002
			c0.058,0,0.106-0.046,0.106-0.104v-6.89c0-0.058-0.049-0.107-0.106-0.107L62.1,68.085c-0.863-0.243-2.274-1.273-2.032-5.435v-3.33
			c-0.242-4.13,1.168-5.162,2.031-5.408l0.127-0.018l3.359-0.065c0.066,0,0.115-0.047,0.115-0.105v-6.89
			C65.7,46.775,65.651,46.729,65.594,46.729z"/>
	</g>
</g>
</svg>
