<?xml version="1.0" encoding="utf-8"?>
<!-- Generator: Adobe Illustrator 16.0.0, SVG Export Plug-In . SVG Version: 6.00 Build 0)  -->
<!DOCTYPE svg PUBLIC "-//W3C//DTD SVG 1.1//EN" "http://www.w3.org/Graphics/SVG/1.1/DTD/svg11.dtd">
<svg version="1.1" id="Layer_1" xmlns="http://www.w3.org/2000/svg" xmlns:xlink="http://www.w3.org/1999/xlink" x="0px" y="0px"
	 width="167.667px" height="74px" viewBox="0 0 167.667 74" enable-background="new 0 0 167.667 74" xml:space="preserve">
<g>
	<g>
		<path fill="#9B9B9B" d="M152.48,59.104c0,0.49-0.088,0.938-0.258,1.34c-0.174,0.402-0.406,0.746-0.701,1.031
			c-0.293,0.285-0.635,0.508-1.023,0.666c-0.387,0.157-0.795,0.235-1.221,0.235c-0.471,0-0.904-0.084-1.299-0.25
			c-0.393-0.165-0.73-0.396-1.014-0.687c-0.281-0.293-0.506-0.64-0.666-1.037c-0.16-0.398-0.24-0.832-0.24-1.299
			c0-0.489,0.088-0.936,0.258-1.338c0.174-0.404,0.406-0.746,0.701-1.033c0.295-0.284,0.637-0.506,1.027-0.664
			c0.393-0.157,0.801-0.235,1.231-0.235c0.427,0,0.834,0.078,1.222,0.235c0.389,0.158,0.729,0.38,1.022,0.664
			c0.295,0.287,0.526,0.629,0.701,1.033C152.393,58.169,152.48,58.614,152.48,59.104z M151.779,59.104
			c0-0.396-0.064-0.76-0.191-1.093c-0.129-0.331-0.307-0.616-0.532-0.856c-0.229-0.238-0.492-0.424-0.796-0.555
			c-0.305-0.133-0.631-0.197-0.981-0.197c-0.354,0-0.687,0.064-0.991,0.197c-0.308,0.131-0.57,0.315-0.8,0.555
			c-0.229,0.24-0.405,0.525-0.532,0.856c-0.129,0.333-0.193,0.696-0.193,1.093c0,0.375,0.057,0.724,0.174,1.051
			c0.117,0.326,0.285,0.613,0.504,0.856c0.219,0.245,0.482,0.439,0.793,0.582c0.307,0.144,0.658,0.216,1.047,0.216
			c0.352,0,0.678-0.065,0.982-0.197c0.303-0.131,0.566-0.316,0.795-0.555c0.227-0.24,0.404-0.524,0.533-0.854
			C151.714,59.872,151.779,59.506,151.779,59.104z M148.632,60.977h-0.596v-3.621h1.371c0.438,0,0.768,0.082,0.99,0.244
			c0.221,0.164,0.332,0.43,0.332,0.797c0,0.326-0.09,0.565-0.271,0.719c-0.182,0.15-0.405,0.24-0.672,0.271l1.014,1.593h-0.674
			l-0.936-1.549h-0.559V60.977L148.632,60.977z M149.294,58.92c0.111,0,0.22-0.004,0.32-0.013c0.102-0.009,0.191-0.032,0.266-0.074
			c0.076-0.04,0.14-0.099,0.185-0.17c0.05-0.074,0.07-0.177,0.07-0.312c0-0.11-0.023-0.199-0.072-0.263
			c-0.051-0.063-0.112-0.114-0.188-0.147c-0.078-0.035-0.162-0.058-0.256-0.065s-0.184-0.015-0.27-0.015h-0.717v1.059H149.294z"/>
	</g>
	<path fill="#9B9B9B" d="M16.595,44.898h3.746v2.436c1.188-1.674,3.136-2.952,5.906-2.952c5.846,0,8.312,4.962,8.312,9.011
		c0,4.75-3.379,8.737-8.281,8.737c-3.258,0-5.023-1.674-5.694-2.737v2.223v5.845h-3.989V44.898z M30.57,53.24
		c0-2.404-1.735-5.145-5.115-5.145c-1.462,0-2.71,0.577-3.624,1.521c-0.882,0.912-1.431,2.223-1.431,3.684
		c0,1.432,0.548,2.709,1.462,3.624c0.913,0.912,2.191,1.49,3.623,1.49c3.044,0,5.084-2.405,5.084-5.146L30.57,53.24L30.57,53.24z"/>
	<path fill="#9B9B9B" d="M51.335,61.614H47.59v-2.224c-0.701,1.309-2.192,2.771-5.206,2.738c-5.481-0.029-6.516-4.201-6.516-7.123
		V44.898h3.988v9.104c0,2.465,0.822,4.414,3.654,4.383c2.862,0,3.836-1.886,3.836-4.261v-9.226h3.988L51.335,61.614L51.335,61.614z"
		/>
	<path fill="#9B9B9B" d="M53.2,44.898h3.745c0,0.73,0,1.432-0.031,2.224c0.731-1.31,2.224-2.771,5.207-2.74
		c5.45,0.03,6.485,4.2,6.485,7.155v10.076h-3.988v-9.071c0-2.497-0.822-4.415-3.623-4.415c-2.831,0.03-3.805,1.918-3.805,4.264
		v9.225H53.2V44.898z"/>
	<path fill="#9B9B9B" d="M72.386,47.975h-2.771V44.9h2.771v-5.815h3.988V44.9h2.862v3.074h-2.862v13.641h-3.988V47.975z"/>
	<path fill="#9B9B9B" d="M102.25,44.898h3.744v2.103c0.365-0.763,1.979-2.619,4.873-2.619c1.369,0,2.891,0.396,4.109,1.704
		c0.365,0.396,0.791,1.098,1.004,1.521c0.305-0.518,0.672-1.065,1.219-1.582c1.035-0.975,2.498-1.645,4.262-1.645
		c1.4,0,3.166,0.364,4.445,1.676c1.523,1.582,1.826,2.951,1.826,6.393v9.165h-3.988v-9.013c0-1.065-0.092-2.224-0.668-3.105
		c-0.428-0.822-1.219-1.37-2.621-1.37c-1.399,0-2.373,0.608-2.891,1.522s-0.578,1.795-0.578,2.801v9.165h-3.99v-9.165
		c0-0.975-0.09-1.92-0.516-2.771c-0.488-0.882-1.311-1.521-2.74-1.553c-1.463,0-2.375,0.7-2.863,1.553
		c-0.485,0.885-0.639,1.92-0.639,2.893v9.043h-3.988V44.898z"/>
	<path fill="#9B9B9B" d="M134.373,52.814l-5.633-7.916h4.811l3.259,5.146l3.256-5.146h4.75l-5.603,7.916l6.242,8.8h-4.901
		l-3.744-5.755l-3.774,5.755h-4.843L134.373,52.814z"/>
	<g>
		<path fill="#9B9B9B" d="M100.535,47.812c-1.517,0.168-3.012,0.617-4.593,1.381c-0.053,0.018-0.103,0.037-0.153,0.057
			c-1.485-2.725-4.357-4.611-7.676-4.611c-4.879,0-8.876,3.936-8.876,8.846c0,4.849,3.871,8.91,8.782,8.91
			c4.941,0,8.848-4.03,8.848-8.94c0-0.246-0.019-0.488-0.039-0.729c1.532-0.651,2.617-1.062,3.707-1.25V47.812L100.535,47.812z
			 M88.112,48.415c1.654,0,3.087,0.838,3.983,2.084c-0.635,0.158-1.153,0.229-1.682,0.237l-0.32,0.003
			c-0.248,0-0.547-0.009-0.938-0.064c-1.563-0.12-2.903-0.669-3.981-1.325C86.009,48.762,87.026,48.415,88.112,48.415z
			 M88.018,58.614c-2.865,0-5.005-2.394-5.005-5.162c0-0.481,0.073-0.947,0.202-1.388c1.494,1.011,3.324,1.812,5.828,2.051
			c0.424,0.064,0.834,0.072,1.145,0.072c0.154,0,0.309-0.002,0.463-0.006c0.758-0.012,1.544-0.104,2.418-0.293
			C92.891,56.531,90.703,58.614,88.018,58.614z"/>
	</g>
	<path fill="#9B9B9B" d="M70.752,33.158c-1.328,3.221-4.454,5.4-7.961,5.4c-4.927,0-8.875-3.854-8.875-8.812
		c0-4.988,3.759-9.001,8.781-9.001c2.336,0,4.674,1.042,6.317,2.717c1.675,1.767,2.37,3.915,2.37,6.315l-0.127,1.359H57.611
		c0.506,2.338,2.655,4.042,5.055,4.042c1.673,0,3.127-0.63,4.075-2.021L70.752,33.158L70.752,33.158z M67.816,28.167
		c-0.664-2.433-2.812-3.979-5.308-3.979c-2.274,0-4.454,1.769-4.929,3.979H67.816z"/>
	<g>
		<path fill="#9B9B9B" d="M110.214,23.929c-1.521,0.17-3.02,0.621-4.606,1.384c-0.053,0.02-0.103,0.04-0.151,0.06
			c-1.492-2.734-4.375-4.627-7.703-4.627c-4.896,0-8.907,3.948-8.907,8.876c0,4.864,3.884,8.938,8.812,8.938
			c4.961,0,8.877-4.043,8.877-8.973c0-0.246-0.017-0.488-0.037-0.729c1.537-0.655,2.629-1.066,3.719-1.256v-3.674H110.214z
			 M97.753,24.535c1.658,0,3.094,0.839,3.994,2.09c-0.637,0.16-1.158,0.229-1.685,0.238l-0.323,0.003
			c-0.248,0-0.55-0.005-0.943-0.065c-1.567-0.119-2.91-0.672-3.993-1.33C95.642,24.884,96.664,24.535,97.753,24.535z M97.658,34.77
			c-2.875,0-5.023-2.4-5.023-5.183c0-0.483,0.072-0.948,0.203-1.391c1.498,1.014,3.334,1.818,5.846,2.058
			c0.427,0.064,0.84,0.073,1.15,0.073c0.155,0,0.312-0.002,0.465-0.005c0.758-0.011,1.547-0.106,2.426-0.292
			C102.546,32.677,100.352,34.77,97.658,34.77z"/>
	</g>
	<path fill="#9B9B9B" d="M33.242,38.113h-3.818v-2.412c-0.734,1.251-2.322,2.931-5.744,2.931c-5.163,0-8.492-4.034-8.492-8.92
		c0-5.438,3.878-8.89,8.431-8.89c3.208,0,5.01,1.711,5.622,2.688v-2.444v-5.56h4.002L33.242,38.113L33.242,38.113z M19.188,29.712
		c0,2.842,2.046,5.163,5.133,5.163c1.465,0,2.78-0.58,3.727-1.526c0.948-0.947,1.497-2.262,1.436-3.727
		c0-1.467-0.581-2.721-1.497-3.605c-0.917-0.917-2.201-1.466-3.636-1.466c-3.269,0-5.163,2.505-5.163,5.131V29.712z"/>
	<g>
		<circle fill="#9B9B9B" cx="37.142" cy="16.901" r="2.36"/>
		<path fill="#9B9B9B" d="M35.143,21.398h4.002V38.17h-4.002V21.398z"/>
	</g>
	<path fill="#9B9B9B" d="M48.484,25.818c-0.03-0.886-0.488-1.801-2.046-1.801c-1.343,0-1.986,0.855-1.986,1.679
		c0.032,1.07,1.251,1.648,2.842,2.108c2.687,0.734,5.59,1.529,5.62,5.134c0.061,3.451-2.841,5.651-6.354,5.651
		c-2.597,0-6.11-1.345-6.415-5.409h4.001c0.152,1.803,1.711,2.169,2.475,2.169c1.252,0,2.322-0.825,2.29-1.955
		c0-1.438-1.252-1.833-4.338-2.903c-2.26-0.703-4.094-1.954-4.124-4.368c0-3.298,2.779-5.346,6.019-5.346
		c2.26,0,5.622,1.009,5.957,5.04L48.484,25.818L48.484,25.818z"/>
	<g>
		<path fill="#9B9B9B" d="M76.274,18.965c0.098-0.379,0.234-0.688,0.399-0.91c0.139-0.189,0.382-0.281,0.741-0.281
			c0.342,0,0.692,0.052,1.038,0.154c0.361,0.106,0.749,0.236,1.164,0.389c0.413,0.13,0.837,0.255,1.275,0.375
			c0.45,0.124,0.938,0.186,1.457,0.186c0.688,0,1.267-0.135,1.723-0.405c0.447-0.262,0.819-0.595,1.108-0.986
			c0.283-0.386,0.501-0.812,0.648-1.267c0.144-0.435,0.269-0.837,0.375-1.208l0.088-0.296h-2.797l0.018,0.248
			c0.017,0.237-0.058,0.441-0.228,0.621c-0.171,0.178-0.474,0.268-0.905,0.268c-0.34,0-0.682-0.055-1.013-0.167
			c-0.35-0.116-0.698-0.249-1.047-0.402c-0.347-0.13-0.689-0.255-1.026-0.375c-0.36-0.127-0.742-0.192-1.131-0.192
			c-0.748,0-1.382,0.128-1.889,0.381c-0.504,0.253-0.923,0.584-1.246,0.989c-0.317,0.396-0.569,0.842-0.75,1.33
			c-0.175,0.472-0.32,0.958-0.43,1.44l-0.065,0.283h2.448L76.274,18.965z"/>
		<path fill="#9B9B9B" d="M81.336,20.735c-2.994-0.03-4.491,1.435-5.225,2.75c0.03-0.794,0.03-1.498,0.03-2.231h-3.756v16.771h4.001
			V28.77c0-2.353,0.978-4.246,3.819-4.276c2.81,0,3.635,1.924,3.635,4.428v9.104h4.001V27.914
			C87.843,24.95,86.804,20.766,81.336,20.735z"/>
	</g>
</g>
</svg>
