<?xml version="1.0" encoding="utf-8"?>
<!-- Generator: Adobe Illustrator 16.0.0, SVG Export Plug-In . SVG Version: 6.00 Build 0)  -->
<!DOCTYPE svg PUBLIC "-//W3C//DTD SVG 1.1//EN" "http://www.w3.org/Graphics/SVG/1.1/DTD/svg11.dtd">
<svg version="1.1" id="Layer_1" xmlns="http://www.w3.org/2000/svg" xmlns:xlink="http://www.w3.org/1999/xlink" x="0px" y="0px"
	 width="226px" height="74px" viewBox="0 0 226 74" enable-background="new 0 0 226 74" xml:space="preserve">
<g>
	<g>
		<rect x="80.505" y="15.868" width="4.402" height="17.514"/>
		<polygon points="87.581,15.868 91.982,15.868 91.982,29.806 98.37,29.806 98.37,33.38 87.581,33.38 		"/>
		<path d="M99.054,27.18V15.867h4.401v11.101c0,2.2,0.592,3.005,1.988,3.005s1.965-0.826,1.965-2.982V15.867h4.188v11.288
			c0,4.284-1.797,6.511-6.223,6.511S99.054,31.394,99.054,27.18"/>
		<path d="M112.988,29.5l3.527-1.802c0.732,1.304,1.893,2.533,3.432,2.533c1.229,0,1.844-0.59,1.844-1.512
			c0-1.162-1.303-1.707-2.863-2.32c-2.342-0.949-5.299-2.036-5.299-5.728c0-3.102,2.508-5.138,5.961-5.138
			c3.125,0,5.066,1.682,6.227,4.026l-3.387,1.867c-0.756-1.468-1.68-2.293-2.934-2.293c-1.041,0-1.561,0.568-1.561,1.323
			c0,1.063,1.137,1.635,2.578,2.248c2.389,0.993,5.586,2.106,5.586,5.822c0,2.697-2.037,5.181-6.152,5.181
			C116.256,33.709,114.221,31.935,112.988,29.5"/>
		<polygon points="130.639,19.561 126.641,19.561 126.641,15.868 139.039,15.868 139.039,19.561 135.041,19.561 135.041,33.38 
			130.639,33.38 		"/>
		<path d="M140.574,15.867h5.703c3.836,0,6.248,1.562,6.248,5.774c0,2.178-0.994,3.858-2.65,4.641l3.195,7.099h-4.545l-2.695-5.965
			h-0.973v5.965h-4.283V15.867z M146.16,24.104c1.465,0,2.176-0.64,2.176-2.369c0-1.677-0.711-2.222-2.176-2.222h-1.303v4.591
			H146.16z"/>
		<path d="M157.729,33.38h-4.096l5.113-17.582h4.283l5.111,17.582h-4.424l-0.734-2.958h-4.496L157.729,33.38z M161.848,25.712
			c-0.428-1.728-0.783-2.865-1.043-4.474h-0.047c-0.262,1.636-0.637,2.723-1.09,4.474l-0.33,1.326h2.814L161.848,25.712z"/>
		<path d="M169.51,15.868h4.402l3.289,6.438c0.543,1.065,0.779,1.562,1.371,2.959h0.049v-9.397h3.975V33.38h-4.07l-3.883-7.101
			c-0.424-0.78-0.66-1.205-1.111-2.247h-0.047v9.348h-3.975V15.868z"/>
		<path d="M185.219,15.868h4.943c4.639,0,8.332,1.632,8.332,8.684c0,7.171-3.762,8.828-8.332,8.828h-4.943V15.868z M190.543,29.735
			c2.768,0,3.527-1.275,3.527-5.184c0-3.737-0.76-4.99-3.551-4.99h-0.898v10.174H190.543z"/>
		<path d="M199.676,24.623c0-6.458,3.406-9.088,7.264-9.088c3.834,0,7.24,2.63,7.24,9.088c0,6.46-3.406,9.087-7.24,9.087
			C203.082,33.709,199.676,31.083,199.676,24.623 M209.756,24.623c0-3.5-0.898-5.345-2.816-5.345c-1.916,0-2.84,1.845-2.84,5.345
			c0,3.503,0.924,5.468,2.84,5.468C208.857,30.09,209.756,28.125,209.756,24.623"/>
		<path fill="#A1A9AD" d="M80.389,40.955h5.488c3.267,0,6.462,1.205,6.462,5.986c0,4.971-3.456,6.059-6.485,6.059h-1.135v5.469
			h-4.33V40.955z M85.973,49.568c1.656,0,2.177-0.854,2.177-2.533c0-1.633-0.521-2.436-2.202-2.436h-1.23v4.969H85.973z"/>
		<path fill="#A1A9AD" d="M95.531,58.469h-4.096l5.113-17.586h4.284l5.11,17.586h-4.424l-0.735-2.959h-4.496L95.531,58.469z
			 M99.648,50.801c-0.426-1.73-0.782-2.865-1.041-4.477h-0.049c-0.259,1.637-0.638,2.725-1.087,4.477l-0.332,1.324h2.816
			L99.648,50.801z"/>
		<path fill="#A1A9AD" d="M107.311,40.955h5.703c3.834,0,6.248,1.561,6.248,5.773c0,2.18-0.994,3.859-2.65,4.639l3.195,7.102h-4.543
			l-2.699-5.965h-0.971v5.965h-4.283V40.955z M112.895,49.189c1.469,0,2.178-0.639,2.178-2.367c0-1.678-0.709-2.223-2.178-2.223
			h-1.301v4.59H112.895z"/>
		<path fill="#A1A9AD" d="M124.465,58.469h-4.096l5.113-17.586h4.281l5.113,17.586h-4.426l-0.734-2.959h-4.496L124.465,58.469z
			 M128.582,50.801c-0.426-1.73-0.781-2.865-1.041-4.477h-0.049c-0.26,1.637-0.637,2.725-1.088,4.477l-0.33,1.324h2.816
			L128.582,50.801z"/>
	</g>
	<g>
		<path fill="#C8202F" d="M39.927,65.109c-15.499,0-28.107-12.609-28.107-28.108c0-15.499,12.608-28.107,28.107-28.107
			c15.5,0,28.107,12.608,28.107,28.107C68.034,52.5,55.426,65.109,39.927,65.109"/>
		<path fill="#FFFFFF" d="M43.851,25.139h0.571c0.394,0,0.714-0.319,0.714-0.713v-1.428c0-0.394-0.32-0.714-0.714-0.714h-4.495
			h-4.494c-0.394,0-0.714,0.32-0.714,0.714v1.428c0,0.394,0.32,0.713,0.714,0.713h0.571c0,0-0.785,5.518-6.85,10.694l9.157,19.479
			h0.76v-0.039V40.652c-0.831-0.338-1.419-1.154-1.419-2.107c0-1.257,1.019-2.276,2.275-2.276c1.257,0,2.275,1.019,2.275,2.276
			c0,0.953-0.587,1.77-1.419,2.107v14.621v0.039h0.759l9.158-19.479C44.636,30.657,43.851,25.139,43.851,25.139"/>
	</g>
</g>
</svg>
