<?xml version="1.0" encoding="utf-8"?>
<!-- Generator: Adobe Illustrator 16.0.0, SVG Export Plug-In . SVG Version: 6.00 Build 0)  -->
<!DOCTYPE svg PUBLIC "-//W3C//DTD SVG 1.1//EN" "http://www.w3.org/Graphics/SVG/1.1/DTD/svg11.dtd">
<svg version="1.1" id="Layer_1" xmlns="http://www.w3.org/2000/svg" xmlns:xlink="http://www.w3.org/1999/xlink" x="0px" y="0px"
	 width="212.5px" height="74px" viewBox="0 0 212.5 74" enable-background="new 0 0 212.5 74" xml:space="preserve">
<g>
	<g>
		<g>
			<path fill="#9B9B9B" d="M33.604,24.994c0.744,0.037,1.211-0.182,1.211-0.182l-0.531-3.076c0,0-0.477,0.059-1.058,0.04
				c-0.964-0.034-1.507-0.13-1.507-0.13l0.439,3.097C32.159,24.744,32.861,24.958,33.604,24.994z M31.993,22.032
				c0,0,0.645,0.104,1.129,0.095c0.413-0.01,0.943-0.01,0.943-0.01l0.102,0.525l-0.109-0.022c0,0,0.023-0.122-0.136-0.157
				c-0.16-0.036-0.49-0.009-0.49-0.009s0.205,1.565,0.22,1.665c0.009,0.058,0.012,0.17,0.052,0.222
				c0.055,0.07,0.325,0.275,0.325,0.275s-0.259,0.067-0.514,0.051c-0.305-0.018-0.537-0.016-0.537-0.016s0.187-0.245,0.227-0.311
				c0.04-0.065,0.02-0.179,0.008-0.245c-0.028-0.21-0.219-1.491-0.219-1.491s0.009-0.208-0.209-0.183c0,0-0.321-0.045-0.442-0.045
				c-0.125,0-0.183,0.289-0.183,0.289h-0.09L31.993,22.032z M52.633,29.777c0,0-0.386,1.311-0.283,3.061
				c0.121,1.986,1.032,3.417,1.032,3.417s-0.287-0.001-0.512-0.337c-0.211-0.319-0.503-0.88-0.704-1.709
				c-0.479,0.119-0.92,0.202-1.339,0.26c0.268,0.586,0.503,1.312,0.638,2.121c0.227,1.368-0.054,2.514-0.157,2.865
				c0.793-0.916,1.834-2.19,2.656-3.441l0.132-0.202c0.097-0.43,0.212-1.622,0.021-2.935C53.808,30.78,52.633,29.777,52.633,29.777z
				 M51.962,38.046c0.081-1.506-0.305-2.514-0.559-3.275l0.471-0.09c0.193,0.561,0.451,1.323,1.104,2.028
				C52.527,37.301,52.26,37.678,51.962,38.046z M53.708,35.925c-0.593-0.911-0.668-2.159-0.73-2.849
				c-0.02-0.208,0.027-0.386,0.158-0.42C53.263,32.623,53.787,35.434,53.708,35.925z M51.968,32.871
				c-0.163-0.146-0.304-0.265-0.316-0.263c-0.641,0.147-1.235,0.229-1.797,0.262c0.163,0.211,0.479,0.611,0.778,1.184
				c0.459-0.053,0.932-0.14,1.444-0.274C52.026,33.507,51.99,33.196,51.968,32.871z M32.618,31.867
				c0.094,0.141,0.202,0.294,0.321,0.46c0.243,0.046,0.663,0.104,1.368,0.071c1.445-0.065,3.088-0.432,4.514-0.447
				c1.322-0.016,2.506,0.473,2.496,0.473c-0.225-1.371-1.511-9.499-1.555-9.767c-0.066-0.403,0.114-0.849,0.267-0.041
				c0.195,1.017,1.812,9.845,1.812,9.845c0.578-0.303,1.783-0.639,2.979-0.597c1.722,0.061,3.337,0.969,6.525,0.378
				c-1.472-4.813-2.902-11.625-2.902-11.625c-2.94,0.204-3.614-0.63-6.412-0.693c-1.798-0.041-2.453,1.104-2.449,1.101
				c0-0.001-1.496-1.063-3.479-0.915c-3.997,0.303-4.772,0.181-5.529-0.013c0.413,2.966,0.982,8.729,1.114,10.082
				C31.935,30.738,32.249,31.301,32.618,31.867z M50.058,31.049c-0.293,0.054-0.868,0.111-1.491,0.071
				c-1.896-0.124-2.695-0.528-3.951-0.562c-1.132-0.03-1.961,0.272-2.164,0.348c-0.221,0.082-0.329-0.235-0.071-0.316
				c0.205-0.064,1.021-0.409,2.267-0.357c1.234,0.051,2.306,0.469,4.134,0.601c0.563,0.042,1.03-0.05,1.269-0.082
				C50.299,30.721,50.388,30.987,50.058,31.049z M49.69,29.594c-0.287,0.054-0.858,0.111-1.475,0.071
				c-1.878-0.125-2.667-0.526-3.911-0.561c-1.122-0.031-1.942,0.269-2.145,0.348c-0.218,0.082-0.325-0.236-0.069-0.315
				c0.203-0.066,1.011-0.41,2.245-0.357c1.221,0.051,2.28,0.47,4.093,0.601c0.554,0.041,1.018-0.051,1.254-0.082
				C49.931,29.266,50.018,29.534,49.69,29.594z M49.31,28.14c-0.285,0.056-0.848,0.113-1.453,0.072
				c-1.852-0.123-2.631-0.528-3.854-0.561c-1.107-0.03-1.912,0.271-2.111,0.348c-0.214,0.083-0.322-0.235-0.069-0.317
				c0.201-0.064,0.995-0.408,2.21-0.355c1.204,0.051,2.25,0.469,4.032,0.6c0.548,0.041,1.004-0.051,1.234-0.081
				C49.544,27.814,49.632,28.08,49.31,28.14z M48.956,26.704c-0.285,0.05-0.844,0.099-1.446,0.047
				c-1.838-0.156-2.607-0.573-3.823-0.628c-1.098-0.05-1.907,0.237-2.105,0.31c-0.214,0.078-0.315-0.241-0.063-0.319
				c0.2-0.061,0.997-0.39,2.206-0.317c1.195,0.072,2.229,0.508,3.998,0.672c0.544,0.051,1.001-0.034,1.23-0.06
				C49.194,26.381,49.276,26.648,48.956,26.704z M48.586,24.874c0.243-0.028,0.322,0.24,0.006,0.297
				c-0.283,0.049-0.836,0.097-1.435,0.045c-1.818-0.155-2.579-0.572-3.782-0.626c-1.086-0.05-1.885,0.237-2.084,0.309
				c-0.212,0.08-0.312-0.239-0.063-0.316c0.199-0.061,0.988-0.391,2.184-0.319c1.184,0.07,2.204,0.507,3.958,0.672
				C47.909,24.985,48.357,24.902,48.586,24.874z M48.188,23.638c-0.276,0.05-0.821,0.098-1.41,0.047
				c-1.793-0.157-2.539-0.573-3.728-0.628c-1.071-0.05-1.858,0.238-2.052,0.31c-0.208,0.079-0.308-0.239-0.062-0.317
				c0.195-0.061,0.975-0.391,2.149-0.318c1.167,0.07,2.172,0.507,3.899,0.67c0.53,0.051,0.976-0.034,1.2-0.06
				C48.423,23.315,48.503,23.581,48.188,23.638z M40.679,21.52c0.191-0.061,0.956-0.389,2.116-0.318
				c1.147,0.07,2.14,0.505,3.842,0.668c0.521,0.05,0.958-0.033,1.181-0.061c0.233-0.028,0.312,0.241,0.003,0.297
				c-0.272,0.049-0.81,0.098-1.39,0.048c-1.765-0.155-2.502-0.571-3.67-0.625c-1.055-0.05-1.831,0.237-2.023,0.311
				C40.531,21.918,40.435,21.6,40.679,21.52z M40.154,30.951c-0.202-0.076-0.928-0.365-2.171-0.294
				c-1.241,0.067-2.631,0.51-3.45,0.515c-0.746,0.005-1.673-0.095-1.96-0.149c-0.327-0.061-0.239-0.328,0.008-0.295
				c0.236,0.03,1.048,0.126,1.706,0.127c0.889,0.005,2.532-0.473,3.686-0.535c1.288-0.067,1.972,0.251,2.176,0.315
				C40.403,30.717,40.374,31.033,40.154,30.951z M39.882,29.372c-0.205-0.05-0.836-0.303-2.047-0.234
				c-1.209,0.07-2.557,0.47-3.433,0.455c-0.935-0.017-1.785-0.158-2.023-0.23c-0.312-0.092-0.223-0.371,0.009-0.295
				c0.25,0.083,0.98,0.193,1.774,0.21c0.867,0.018,2.527-0.425,3.651-0.485c1.254-0.068,1.875,0.21,2.077,0.258
				C40.095,29.098,40.086,29.422,39.882,29.372z M39.626,27.591c0.2,0.051,0.187,0.375-0.018,0.321
				c-0.202-0.055-0.824-0.316-2.031-0.267c-1.205,0.049-2.553,0.425-3.423,0.396c-0.93-0.032-1.675-0.212-1.91-0.287
				c-0.31-0.099-0.216-0.375,0.014-0.296c0.246,0.086,0.875,0.234,1.663,0.263c0.862,0.032,2.521-0.382,3.644-0.424
				C38.812,27.25,39.424,27.54,39.626,27.591z M39.418,26.418c-0.198-0.053-0.861-0.33-2.03-0.282
				c-1.171,0.05-2.478,0.427-3.325,0.396c-0.901-0.031-1.742-0.211-1.973-0.287c-0.298-0.098-0.208-0.375,0.015-0.295
				c0.239,0.085,0.964,0.233,1.733,0.262c0.836,0.033,2.449-0.381,3.535-0.422c1.212-0.047,1.864,0.257,2.059,0.307
				C39.628,26.147,39.616,26.473,39.418,26.418z M39.187,25.037c-0.204-0.066-0.815-0.372-2.045-0.405
				c-0.634-0.017-0.933,0.065-1.494,0.142c0,0-0.208,0.04-0.232-0.139c-0.026-0.18,0.172-0.2,0.172-0.2
				c0.632-0.081,0.987-0.167,1.567-0.148c1.273,0.037,1.874,0.368,2.074,0.432C39.427,24.781,39.39,25.104,39.187,25.037z
				 M38.948,23.535c-0.194-0.067-0.778-0.372-1.949-0.405c-0.6-0.017-1.029,0.051-1.625,0.107c0,0-0.198,0.03-0.221-0.146
				c-0.022-0.183,0.158-0.195,0.158-0.195c0.663-0.061,1.146-0.13,1.697-0.112c1.211,0.036,1.784,0.367,1.975,0.431
				C39.175,23.279,39.142,23.604,38.948,23.535z M35.038,21.354c0.65-0.057,1.12-0.123,1.688-0.098
				c1.164,0.055,1.704,0.39,1.886,0.458c0.185,0.066,0.143,0.39-0.042,0.319c-0.184-0.069-0.737-0.381-1.86-0.43
				c-0.623-0.026-1.025,0.039-1.61,0.087c0,0-0.179,0.013-0.203-0.13C34.867,21.362,35.038,21.354,35.038,21.354z M33.212,21.429
				c0.721,0.002,1.303-0.049,1.303-0.049l0.675,3.785c0,0-0.596,0.267-1.512,0.224c-0.914-0.043-1.776-0.284-1.776-0.284
				l-0.549-3.839C31.354,21.264,32.028,21.426,33.212,21.429z M43.717,34.474c2.068,1.023,3.92,2.419,5.463,4.103
				c-0.126-0.507-0.218-1.18-0.227-2.068c-0.004-0.709,0.079-1.374,0.193-1.941C47.082,34.532,45.678,33.95,43.717,34.474z
				 M48.605,37.451c-0.988-1.069-2.351-1.955-3.599-2.751c0.886-0.128,2.176,0.272,3.676,0.235c-0.082,0.414-0.13,0.877-0.125,1.394
				C48.561,36.977,48.515,37.08,48.605,37.451z M63.327,28.012c-1.934-0.236-4.318,0.488-5.729,1.73
				c-0.067-1.405-0.758-4.045-2.542-5.483c-0.615,1.064-1.821,5.705,0.533,8.252l-0.628,1.078c-0.029-1.446-0.644-3.868-2.707-5.278
				c-0.955-2.941-1.351-5.301-1.894-7.901c-0.374-0.034-1.187-0.28-1.562-0.654c-4.499,0.232-6.484-1.688-9.387,0.149
				c-2.843-1.54-6.149,0.219-9.388-0.845c-0.604,0.703-0.97,1.09-2.173,1.487c0.027,0.369,0.097,0.901,0.097,0.901
				c-0.327-0.081-0.696,0.083-0.696,0.083c0.231-0.341,0.096-0.574,0.205-1.147c0.16-0.844,0.381-1.487-0.356-2.523
				c-0.231-0.371-0.773-0.676-1.062-0.988c1.764-2.02,1.146-5.14,1.565-6.792c-0.583,0.456-1.083,0.8-1.083,0.8
				s0.28-2.683-2.297-5.715c0.025,0.967,0.106,1.547,0.008,2.542c-0.278,2.04-1.301,2.863-1.301,2.863s-0.33-1.433-1.686-1.782
				c0.123,0.855,0.083,1.714-0.017,2.149c-0.67,2.031-1.222,1.836-1.964,3.962c-0.3,1.487,0.68,3.321,1.516,3.665
				c-0.621,1.453-0.635,2.695,0.82,3.786c0.164,0.112,0.266,0.165,0.332,0.265c0.123,0.185,0.159,0.324,0.685,0.396
				c0.01,0.094,0.066,0.104,0.089,0.239c-0.695,0.207-1.637,1.292-1.49,1.741c0.369,1.127-0.036,1.053-0.007,1.566
				c-2.283,1.479-2.792,4.146-2.936,5.138c-0.253-0.566-0.344-0.764-0.53-1.333c1.348-0.749,2.52-5.141,1.174-8.067
				c-1.945,1.508-2.711,3.573-2.927,5.243c-0.58-0.502-2.46-2.304-5.508-2.274c0.92,4.075,5.198,5.993,6.067,5.519
				c0.2,0.551,0.439,1.01,0.572,1.371c-0.763-0.511-3.684-1.469-5.907-0.796c1.342,2.788,6.129,5.149,7.479,4.064l0.904,1.475
				c-1.546-0.529-4.812-0.428-6.009,0.358c0.333,0.928,3.22,2.362,3.22,2.362c1.894,0.875,3.228,0.858,3.228,0.858
				c-4.725,5.449-3.138,13.94-3.138,13.94c2.767,13.469,15.061,15.771,18.794,15.569c16.323-0.894,18.486-15.812,18.486-15.812
				c0.945-7.585-1.907-11.89-1.907-11.89c3.339,0.249,7.001-2.535,7.001-2.535c-1.905-1.286-4.617-1.292-6.153-0.977l1.029-1.331
				c0.057,0.094,3.081,1.698,7.961-3.418c-1.846-0.737-3.92-0.563-6.062,0.223l0.63-1.222
				C58.938,33.221,61.796,31.574,63.327,28.012z M24.617,6.11c0.487,1.328,1.991,3.046,1.351,5.468c0,0,0.578,0.06,1.214-0.8
				c0,0-0.198,0.626-0.225,2.029c-0.017,0.879-0.192,2.982-1.426,4.003c0,0,1.233-2.248,1.054-4.786c0,0-0.708,0.645-1.325,0.429
				c0,0,1.054-2.01-0.283-4.411c0,0-0.039,1.682-1.567,2.619C23.794,10.115,24.925,8.844,24.617,6.11z M24.409,11.855
				c0,0-0.136,1.266,0.134,2.102c0.267,0.837,0.703,1.835,0.014,2.917c0,0,0.211-1.227-0.134-1.818
				c-0.344-0.592-0.508-0.715-0.583-1.59c0,0-0.429,0.355-1.122,0.529c-1.302,0.329-1.468,1.616-1.468,1.616
				s-0.299-1.471,1.198-2.144C23.431,13.025,23.81,12.692,24.409,11.855z M19.642,14.94c0.24-1.082,1.279-2.114,1.745-3.281
				c0.443-1.102,0.3-2.224,0.3-2.224c1.092,0.591,1.034,2.734,1.034,2.734s-0.45-1.513-0.779-1.554
				c-0.463,2.52-1.431,2.999-1.66,4.387c-0.254,1.531,0.284,2.318,0.778,3.226C19.354,17.392,19.642,14.94,19.642,14.94z
				 M57.213,34.27c2.302-0.598,4.175-0.086,4.175-0.086s-1.137,1.414-3.02,2.357c-1.395,0.698-2.538,0.904-3.477,0.8
				c-0.414-0.069-0.562-0.321-0.562-0.321s1.582,0.186,3.706-0.785c1.598-0.729,2.303-1.711,2.303-1.711s-1.348-0.401-3.238,0.175
				c-1.453,0.443-2.382,1.268-2.631,1.543c-0.071,0.124-0.111,0.192-0.08,0.125c-0.771,1.188-1.722,2.381-2.496,3.292
				c0.41-0.233,1.146-0.533,2.238-0.616c2.497-0.188,4.428,0.719,4.428,0.719s-1.539,1.164-3.657,1.812
				c-1.714,0.522-2.834,0.327-3.394,0.157c1.613,2.742,2.525,5.918,2.525,9.332c0,10.219-8.298,18.5-18.532,18.5
				s-18.531-8.281-18.531-18.5c0-4.131,1.357-7.946,3.65-11.025c-0.609,0.079-1.602,0.061-3.002-0.504
				c-2.058-0.828-3.485-2.122-3.485-2.122s2.001-0.737,4.468-0.332c1.085,0.179,1.793,0.542,2.179,0.807
				c-0.69-0.974-1.533-2.243-2.198-3.495c0.024,0.07-0.008-0.002-0.069-0.131c-0.224-0.295-1.077-1.199-2.487-1.767
				c-1.832-0.74-3.21-0.458-3.21-0.458s0.617,1.042,2.145,1.908c2.033,1.151,3.625,1.105,3.625,1.105s-0.172,0.236-0.592,0.27
				c-0.938,0.021-2.062-0.285-3.391-1.102c-1.792-1.104-2.802-2.61-2.802-2.61s1.912-0.349,4.15,0.448
				c1.273,0.455,1.932,1.106,2.138,1.34c-0.488-1.052-0.924-2.18-1.486-3.501c-0.294-0.696-0.855-1.691-1.979-2.498
				c-1.523-1.09-2.873-1.105-2.873-1.105s0.367,1.076,1.555,2.244c1.352,1.326,3.125,1.791,3.125,1.791s-0.185,0.184-0.54,0.093
				c-0.658-0.117-1.729-0.537-2.939-1.685c-1.451-1.377-1.966-3.058-1.966-3.058s1.959,0.07,3.811,1.366
				c1.147,0.805,1.546,1.633,1.546,1.632c0.001,0-0.123-0.99,0.286-2.335c0.656-2.158,2.138-3.384,2.138-3.384
				s0.539,1.688,0.279,3.668c-0.234,1.798-0.945,2.835-1.243,3.183c-0.22,0.227-0.366,0.151-0.366,0.151s1.021-1.396,1.231-3.276
				c0.188-1.655-0.174-2.717-0.174-2.717s-1.018,0.865-1.534,2.667c-0.39,1.354-0.297,2.325-0.045,3.001
				c0.645,1.452,1.141,2.536,1.68,3.599c-0.018-0.415-0.022-1.41,0.238-2.539c0.522-2.235,2.328-3.556,2.328-3.556
				s0.466,1.787,0.159,3.868c-0.239,1.645-0.827,2.623-1.184,3.072c-0.252,0.316-0.539,0.293-0.539,0.293s1.03-1.347,1.324-3.317
				c0.26-1.734-0.084-2.863-0.084-2.863s-1.188,0.687-1.677,2.746c-0.309,1.293-0.297,2.49-0.236,2.928l0.113,0.214
				c0.708,1.315,1.637,2.676,2.344,3.658c-0.069-0.359-0.25-1.525,0.096-2.867c0.592-2.3,2.081-3.711,2.081-3.711
				s0.631,1.755,0.43,3.849c-0.071,0.765-0.198,1.369-0.343,1.842c1-0.835,2.092-1.565,3.253-2.176
				c-0.399-1.232-1.04-3.192-1.149-3.525c-0.771-0.061-1.171-0.075-1.938-0.486c-0.534-0.317-0.877-0.605-0.894-0.913
				c-0.021-0.563-0.053-0.616-0.253-0.739c-0.341-0.235-0.541-0.512-0.459-1.091c0.106-0.379-0.034-0.414-0.493-0.962
				c-0.318-0.467,0.181-1.084,0.106-1.369c-0.157-0.305-0.264-0.538-0.153-0.81c0.053-0.298,0.577-0.921,1.067-1.101
				c0.203-0.077,0.363-0.102,0.514-0.155l-0.345-0.908c-0.348-0.01-0.576-0.08-0.614-0.216c-0.02-0.064,0-0.128,0.058-0.205
				c-0.499-0.043-0.882-0.406-1.155-0.861c-0.354-0.284-0.452-0.745-0.373-1.047c-0.084-0.59,0-1.153,0.4-1.335l-0.058-0.123
				c-0.093-0.322,0.973-0.922,2.272-1.295c1.296-0.372,2.494-0.471,2.584-0.148l0.063,0.222c0.243-0.032,0.666,0.3,0.88,0.945
				c0.196,0.179,0.302,0.724,0.191,1.098c-0.02,0.431-0.104,0.87-0.412,1.235c0.522,0.125,0.144,0.486-0.14,0.674l0.173,0.873
				l0.078-0.148c0.248-0.503,1.354-0.541,1.565-0.215l0.093,0.113c-0.064-0.421-0.223-1.344-0.223-1.344s0.653-0.256,0.994-0.482
				c0.429-0.285,0.609-0.534,0.855-0.839c0.755,0.205,1.635,0.477,5.913,0.139c2.062-0.163,3.411,0.795,3.41,0.795
				c0.001,0.003,0.867-1.002,2.615-0.968c2.259,0.042,3.777,0.886,6.595,0.674c0.451,0.529,1.378,0.56,1.378,0.56
				s0.641,3.508,1.378,6.231c0.245,0.896,0.53,1.868,0.804,2.791c0.118-0.516,0.227-0.817,0.227-0.817s1.683,1.473,2.01,3.747
				c0.162,1.146,0.069,2.137,0.014,2.548c0.63-1.011,1.219-2.05,1.988-3.438c0.311-0.651,0.488-1.611,0.218-2.993
				c-0.36-1.84-1.295-2.79-1.295-2.79s-0.456,1.026-0.413,2.69c0.047,1.892,0.943,3.373,0.943,3.373s-0.154,0.062-0.354-0.185
				c-0.264-0.372-0.882-1.467-0.96-3.279c-0.085-1.997,0.601-3.63,0.601-3.63s1.369,1.35,1.833,3.556
				c0.291,1.376,0.082,2.353,0.082,2.353s0.469-0.789,1.682-1.491c1.956-1.131,3.915-1.029,3.915-1.029s-0.659,1.629-2.228,2.876
				c-1.306,1.038-2.409,1.364-3.074,1.418c-0.364,0.061-0.532-0.138-0.532-0.138s1.81-0.308,3.27-1.514
				c1.287-1.06,1.746-2.097,1.746-2.097s-1.345-0.104-2.957,0.853c-1.19,0.707-1.836,1.648-2.191,2.317
				c-0.674,1.266-1.207,2.352-1.784,3.356C55.19,35.205,55.906,34.612,57.213,34.27z M54.492,36.622
				c0.385-0.314,3.084-1.267,3.118-1.139c0.036,0.127-0.093,0.258-0.283,0.346C56.698,36.118,55.578,36.68,54.492,36.622z
				 M18.459,34.636c-1.086-0.037-2.155-0.694-2.756-1.037c-0.181-0.103-0.3-0.247-0.253-0.369
				C15.498,33.105,18.104,34.291,18.459,34.636z M16.388,29.932c-0.997-0.266-1.846-1.102-2.327-1.548
				c-0.146-0.134-0.226-0.291-0.154-0.396C13.973,27.883,16.134,29.536,16.388,29.932z M17.283,29.617
				c-0.053-0.468,0.584-3.111,0.706-3.072c0.118,0.038,0.156,0.21,0.127,0.405C18.021,27.601,17.89,28.783,17.283,29.617z
				 M21.716,27.615c0,0,0.176,0.145,0.167,0.709c0.039,0.161-0.032,0.397,0.298,0.679c0.507,0.434,0.299,0.961,0.532,1.323
				c0.114,0.147,0.376,0.395,0.608,0.529c-0.556,0.302-2.23,2.492-2.465,5.388c0,0-0.749-1.168-0.995-1.519
				C20.758,34.647,22.42,31.593,21.716,27.615z M19.302,34.009c-0.037-0.495,0.73-3.249,0.854-3.206
				c0.126,0.045,0.157,0.227,0.12,0.431C20.153,31.915,19.97,33.155,19.302,34.009z M23.995,31.212
				c0.534,0.24,1.072,0.312,1.428,0.312l0.965,2.972c0,0-1.349,0.694-2.113,1.345C24.547,34.241,24.434,32.473,23.995,31.212z
				 M56.102,31.723c-0.532-0.883-0.562-2.072-0.6-2.728c-0.012-0.197,0.043-0.366,0.165-0.392
				C55.79,28.574,56.191,31.261,56.102,31.723z M56.966,32.116c0.287-0.373,2.583-1.832,2.643-1.721
				c0.06,0.11-0.029,0.26-0.188,0.381C58.898,31.178,57.981,31.937,56.966,32.116z M50.337,41.387
				c1.822,2.782,2.881,6.102,2.881,9.678c0,9.769-7.933,17.688-17.716,17.688s-17.715-7.919-17.715-17.688
				c0-4.391,1.599-8.405,4.251-11.496c-0.096-0.117-0.332-0.42-0.651-0.844c-0.425-0.346-1.377-0.983-2.71-1.243
				c-2.042-0.396-3.46,0.124-3.46,0.124s0.923,0.928,2.651,1.588c1.821,0.695,3.026,0.451,3.803,0.309
				c0,0.01-0.091,0.307-0.387,0.389l-0.152,0.043c-2.392,3.073-3.817,6.938-3.817,11.133c0,10.027,8.145,18.156,18.188,18.156
				S53.69,61.094,53.69,51.066c0-3.5-1.011-6.799-2.729-9.568c-0.133-0.13-0.178-0.307-0.177-0.312
				c0.759,0.209,2.022,0.564,3.899,0.028c1.777-0.506,2.777-1.351,2.777-1.351s-1.367-0.641-3.438-0.424
				c-1.347,0.143-2.353,0.693-2.808,1.002C50.804,40.9,50.416,41.307,50.337,41.387z M18.376,38.625
				c-0.208-0.07-0.357-0.193-0.334-0.331c0.021-0.14,2.954,0.563,3.391,0.851C20.301,39.323,19.067,38.859,18.376,38.625z
				 M54.589,40.302c0.009,0.142-0.151,0.25-0.363,0.304c-0.709,0.172-1.981,0.525-3.09,0.25
				C51.595,40.605,54.578,40.162,54.589,40.302z M30.362,62.88c-0.338-0.146-0.658-0.045-0.961,0.306
				c-0.159,0.186-0.312,0.448-0.463,0.793c-0.151,0.35-0.239,0.645-0.268,0.889c-0.047,0.449,0.097,0.754,0.435,0.898
				c0.336,0.145,0.653,0.047,0.952-0.298c0.163-0.188,0.318-0.454,0.47-0.798c0.207-0.479,0.292-0.869,0.255-1.173
				C30.747,63.189,30.606,62.986,30.362,62.88z M43.801,61.675c-0.178-0.103-0.368-0.09-0.569,0.043
				c-0.106,0.072-0.171,0.134-0.186,0.185c-0.019,0.048-0.003,0.104,0.038,0.166l0.688,1.037c0.265-0.182,0.431-0.346,0.498-0.489
				c0.067-0.146,0.018-0.351-0.153-0.607C44.01,61.85,43.904,61.739,43.801,61.675z M38.753,38.555
				c0.354,0.092,0.651-0.057,0.894-0.441c0.128-0.209,0.243-0.497,0.338-0.864c0.13-0.502,0.152-0.903,0.067-1.198
				c-0.083-0.292-0.253-0.475-0.511-0.541c-0.357-0.093-0.659,0.059-0.902,0.451c-0.127,0.208-0.239,0.493-0.332,0.855
				c-0.095,0.367-0.138,0.674-0.124,0.918C38.207,38.188,38.396,38.464,38.753,38.555z M47.419,44.619
				c-0.334,0.309-0.421,0.631-0.263,0.963c0.157,0.33,0.462,0.465,0.912,0.398c0.246-0.035,0.538-0.135,0.881-0.299
				c0.471-0.226,0.793-0.465,0.963-0.717c0.173-0.254,0.201-0.501,0.085-0.736c-0.158-0.336-0.465-0.47-0.923-0.402
				c-0.243,0.037-0.532,0.135-0.868,0.297C47.86,44.288,47.6,44.452,47.419,44.619z M31.693,37.999
				c0.226,0.396,0.521,0.552,0.881,0.472c0.356-0.078,0.556-0.348,0.596-0.798c0.02-0.247-0.01-0.554-0.094-0.923
				c-0.113-0.508-0.273-0.873-0.482-1.097c-0.209-0.225-0.443-0.307-0.702-0.25c-0.36,0.08-0.561,0.349-0.599,0.808
				c-0.021,0.246,0.012,0.55,0.091,0.914C31.469,37.495,31.57,37.786,31.693,37.999z M45.989,59.438
				c-0.202-0.053-0.38,0.014-0.533,0.194c-0.086,0.101-0.13,0.177-0.13,0.228c-0.002,0.052,0.024,0.102,0.082,0.149l0.946,0.804
				c0.204-0.246,0.318-0.445,0.345-0.604c0.024-0.162-0.082-0.342-0.316-0.544C46.239,59.546,46.106,59.467,45.989,59.438z
				 M18.371,51.062c0,9.446,7.67,17.104,17.131,17.104c9.463,0,17.132-7.658,17.132-17.104c0-9.448-7.669-17.106-17.132-17.106
				C26.04,33.957,18.371,41.614,18.371,51.062z M21.192,43.408l0.908,0.39l-0.057,0.13c-0.341-0.1-0.614-0.072-0.814,0.079
				c-0.11,0.086-0.219,0.236-0.321,0.456l2.36,1.029c0.165,0.068,0.288,0.09,0.367,0.056c0.08-0.034,0.158-0.144,0.236-0.325
				l0.117,0.051l-0.696,1.598l-0.113-0.053c0.077-0.176,0.099-0.305,0.068-0.385c-0.03-0.082-0.126-0.156-0.291-0.229l-2.361-1.025
				c-0.089,0.221-0.128,0.402-0.118,0.549c0.024,0.267,0.19,0.479,0.498,0.646l-0.056,0.131l-0.905-0.397L21.192,43.408z
				 M19.48,54.45l-0.362-1.501l0.123-0.026c0.035,0.115,0.073,0.197,0.111,0.244c0.07,0.08,0.168,0.106,0.294,0.076l2.349-0.562
				c0.123-0.029,0.198-0.098,0.224-0.193c0.017-0.059,0.014-0.149-0.006-0.277l0.122-0.029l0.349,1.453
				c0.142,0.588,0.093,1.072-0.146,1.452c-0.218,0.349-0.568,0.58-1.047,0.692c-0.431,0.104-0.829,0.053-1.195-0.156
				C19.882,55.382,19.609,54.994,19.48,54.45z M21.539,59.503l-1.365-2.511l0.108-0.059c0.072,0.117,0.138,0.197,0.193,0.231
				c0.087,0.058,0.192,0.052,0.316-0.017l2.08-1.127c0.126-0.067,0.188-0.155,0.187-0.264c0.001-0.062-0.027-0.156-0.088-0.285
				l0.108-0.06l1.347,2.476l-0.869,0.469l-0.056-0.104c0.248-0.204,0.386-0.398,0.418-0.587c0.029-0.185-0.047-0.451-0.234-0.798
				c-0.073-0.133-0.133-0.207-0.181-0.229c-0.046-0.021-0.108-0.011-0.19,0.033l-0.994,0.547c0.13,0.246,0.266,0.387,0.403,0.426
				c0.139,0.035,0.343,0.014,0.612-0.074l0.059,0.107l-1.454,0.786l-0.059-0.106c0.228-0.162,0.365-0.318,0.414-0.471
				c0.051-0.145,0.008-0.346-0.125-0.59l-1.042,0.564c-0.092,0.048-0.141,0.105-0.15,0.169c-0.007,0.065,0.031,0.172,0.108,0.315
				c0.149,0.273,0.324,0.471,0.523,0.586c0.202,0.114,0.484,0.16,0.851,0.137l0.063,0.119L21.539,59.503z M26.771,64.708
				l-1.272-1.011l0.078-0.098c0.114,0.088,0.216,0.137,0.302,0.146c0.084,0.013,0.172-0.041,0.266-0.154l1.487-1.868l-0.026-0.021
				l-2.729,1.501l-0.104-0.082l0.809-2.957l-0.019-0.013l-1.378,1.731c-0.101,0.127-0.152,0.237-0.152,0.335
				c0.001,0.096,0.079,0.211,0.237,0.346l-0.078,0.099l-0.896-0.712l0.078-0.098c0.146,0.114,0.262,0.164,0.345,0.146
				c0.085-0.016,0.167-0.071,0.25-0.175l1.443-1.814c0.083-0.104,0.111-0.192,0.089-0.267c-0.021-0.073-0.094-0.165-0.213-0.276
				l0.079-0.098l0.964,0.767l-0.657,2.367l0.033,0.023l2.159-1.172l0.964,0.766l-0.078,0.098c-0.14-0.096-0.246-0.14-0.324-0.138
				c-0.079,0-0.174,0.071-0.292,0.221l-1.346,1.69c-0.113,0.142-0.163,0.251-0.15,0.332c0.013,0.082,0.082,0.178,0.208,0.285
				L26.771,64.708z M30.359,65.969c-0.428,0.159-0.866,0.145-1.318-0.055c-0.479-0.207-0.8-0.537-0.964-0.989
				c-0.15-0.42-0.132-0.844,0.053-1.271c0.205-0.471,0.52-0.793,0.945-0.965c0.432-0.179,0.882-0.164,1.353,0.041
				c0.454,0.194,0.767,0.508,0.939,0.926c0.178,0.431,0.164,0.884-0.041,1.355C31.122,65.484,30.799,65.805,30.359,65.969z
				 M35.164,64.029c-0.154,0.008-0.261,0.027-0.319,0.062c-0.056,0.034-0.094,0.127-0.113,0.274l-0.376,2.851l-0.137-0.019
				l-1.792-2.872l-0.034-0.004l-0.25,1.904c-0.02,0.146-0.014,0.256,0.021,0.32c0.05,0.107,0.177,0.18,0.375,0.215l-0.016,0.121
				l-1.1-0.143l0.017-0.123c0.182,0.02,0.303,0,0.362-0.059c0.061-0.06,0.099-0.146,0.115-0.271l0.304-2.294
				c-0.127-0.186-0.206-0.297-0.237-0.328c-0.03-0.035-0.075-0.061-0.133-0.075l0.017-0.123l1.025,0.136l1.397,2.261l0.024,0.005
				l0.189-1.441c0.021-0.162,0.006-0.283-0.044-0.361s-0.164-0.139-0.343-0.176l0.017-0.121l1.043,0.135L35.164,64.029z
				 M23.404,51.062c0-6.67,5.417-12.082,12.098-12.082c6.682,0,12.098,5.412,12.098,12.082c0,6.672-5.417,12.08-12.098,12.08
				S23.404,57.734,23.404,51.062z M38.423,64.618c-0.079-0.349-0.234-0.569-0.463-0.675c-0.128-0.057-0.315-0.075-0.559-0.061
				l0.246,2.559c0.02,0.182,0.061,0.299,0.127,0.349c0.068,0.054,0.203,0.067,0.401,0.052l0.012,0.123l-1.736,0.168l-0.012-0.123
				c0.188-0.019,0.312-0.061,0.369-0.126c0.059-0.063,0.078-0.188,0.061-0.366l-0.247-2.558c-0.237,0.026-0.417,0.083-0.534,0.163
				c-0.223,0.148-0.33,0.396-0.327,0.748l-0.141,0.014l-0.091-0.98l2.936-0.281l0.098,0.98L38.423,64.618z M39.913,66.68
				l-0.041-0.117c0.13-0.051,0.218-0.103,0.263-0.151c0.067-0.078,0.079-0.185,0.033-0.315l-0.791-2.229
				c-0.047-0.135-0.123-0.21-0.229-0.225c-0.062-0.011-0.159,0.004-0.297,0.041l-0.04-0.115l2.657-0.938l0.331,0.929l-0.113,0.039
				c-0.165-0.274-0.337-0.443-0.515-0.506c-0.179-0.059-0.455-0.021-0.824,0.108c-0.141,0.049-0.227,0.097-0.254,0.142
				c-0.027,0.042-0.025,0.105,0.006,0.192l0.377,1.065c0.267-0.092,0.426-0.201,0.484-0.33c0.058-0.135,0.065-0.338,0.023-0.615
				l0.115-0.043l0.552,1.557l-0.115,0.041c-0.126-0.25-0.26-0.411-0.399-0.482c-0.139-0.068-0.341-0.062-0.603,0.032l0.395,1.115
				c0.037,0.099,0.084,0.155,0.146,0.177c0.062,0.016,0.174-0.004,0.328-0.061c0.295-0.104,0.514-0.245,0.659-0.428
				c0.147-0.18,0.236-0.451,0.271-0.814l0.128-0.046l0.151,1.024L39.913,66.68z M45.653,63.878l-1.688-0.713l-0.108,0.069
				l0.529,0.798c0.096,0.143,0.184,0.226,0.266,0.243c0.08,0.017,0.193-0.019,0.341-0.106l0.068,0.104l-1.378,0.912l-0.068-0.104
				c0.135-0.102,0.21-0.188,0.231-0.266c0.021-0.08-0.019-0.194-0.12-0.346l-1.192-1.802c-0.103-0.157-0.203-0.239-0.294-0.248
				c-0.061-0.008-0.164,0.03-0.312,0.108l-0.071-0.103l1.313-0.868c0.273-0.179,0.512-0.298,0.719-0.351
				c0.402-0.101,0.704-0.002,0.901,0.298c0.146,0.225,0.18,0.451,0.102,0.686c-0.062,0.18-0.153,0.326-0.272,0.445l1.589,0.617
				c0.042,0.016,0.081,0.021,0.111,0.016c0.031-0.006,0.068-0.021,0.106-0.041l0.065,0.097L45.653,63.878z M48.38,61.042
				l-1.822-0.22l-0.084,0.097l0.729,0.622c0.13,0.111,0.237,0.165,0.321,0.16c0.082-0.006,0.182-0.07,0.299-0.196l0.094,0.08
				l-1.074,1.255l-0.093-0.081c0.102-0.13,0.147-0.235,0.147-0.317c-0.002-0.08-0.072-0.182-0.211-0.297l-1.644-1.403
				c-0.145-0.122-0.261-0.175-0.354-0.158c-0.059,0.013-0.147,0.074-0.267,0.192l-0.095-0.08L45.35,59.5
				c0.212-0.247,0.411-0.428,0.593-0.535c0.36-0.207,0.678-0.193,0.95,0.039c0.203,0.172,0.297,0.382,0.287,0.632
				c-0.008,0.188-0.057,0.354-0.14,0.503l1.697,0.156c0.046,0.003,0.084,0,0.112-0.018c0.03-0.018,0.061-0.038,0.092-0.071
				l0.086,0.077L48.38,61.042z M49.367,59.747l-0.112-0.058c0.056-0.129,0.082-0.226,0.078-0.293
				c-0.008-0.104-0.073-0.186-0.2-0.246l-2.137-1.019c-0.131-0.062-0.238-0.062-0.322,0.003c-0.05,0.036-0.109,0.116-0.179,0.24
				l-0.112-0.055l1.214-2.543l0.89,0.428l-0.05,0.105c-0.312-0.078-0.552-0.074-0.722,0.01c-0.168,0.084-0.338,0.302-0.508,0.656
				c-0.063,0.135-0.091,0.228-0.08,0.276c0.01,0.052,0.056,0.095,0.14,0.138l1.023,0.484c0.123-0.25,0.158-0.441,0.106-0.575
				c-0.052-0.136-0.19-0.282-0.419-0.45l0.054-0.111l1.491,0.713l-0.053,0.107c-0.266-0.086-0.473-0.105-0.623-0.059
				c-0.148,0.048-0.284,0.195-0.405,0.447l1.07,0.511c0.094,0.044,0.167,0.052,0.226,0.021c0.058-0.031,0.119-0.123,0.192-0.272
				c0.133-0.281,0.188-0.536,0.163-0.767c-0.021-0.229-0.152-0.483-0.385-0.767l0.055-0.122l0.835,0.615L49.367,59.747z
				 M51.279,54.021c0.067-0.053,0.123-0.162,0.164-0.33l0.122,0.023l-0.369,1.658l-0.122-0.025c0.036-0.182,0.03-0.304-0.013-0.373
				c-0.043-0.07-0.151-0.125-0.326-0.164l-0.701-0.156l-1.778,0.52c-0.119,0.035-0.207,0.092-0.269,0.164
				c-0.038,0.051-0.064,0.105-0.078,0.162l-0.121-0.027l0.354-1.596l0.121,0.027c-0.027,0.166-0.039,0.272-0.033,0.324
				c0.006,0.051,0.032,0.08,0.083,0.092c0.021,0.006,0.047,0.008,0.076,0.005c0.025-0.003,0.076-0.017,0.15-0.032l1.279-0.34
				l0.009-0.041l-0.726-0.697c-0.046-0.044-0.1-0.093-0.167-0.143c-0.102-0.081-0.18-0.127-0.233-0.141
				c-0.084-0.021-0.146,0.004-0.19,0.062c-0.029,0.043-0.063,0.14-0.111,0.29l-0.121-0.026l0.233-1.046l0.122,0.023
				c-0.002,0.08,0,0.146,0.009,0.192c0.017,0.062,0.05,0.122,0.104,0.175l1.281,1.24l0.881,0.194
				C51.092,54.078,51.216,54.072,51.279,54.021z M50.147,44.156c0.212,0.447,0.246,0.883,0.099,1.316
				c-0.148,0.442-0.457,0.772-0.921,0.995c-0.465,0.222-0.915,0.25-1.355,0.087c-0.428-0.158-0.749-0.459-0.96-0.9
				c-0.225-0.473-0.251-0.93-0.079-1.377c0.164-0.418,0.455-0.727,0.876-0.926c0.461-0.223,0.913-0.259,1.348-0.109
				C49.595,43.391,49.928,43.695,50.147,44.156z M48.056,40.833c0.131,0.157,0.232,0.343,0.305,0.552
				c0.077,0.209,0.121,0.322,0.136,0.34c0.04,0.049,0.091,0.072,0.149,0.069c0.062,0,0.115-0.017,0.162-0.041l0.086,0.104
				l-0.881,0.725l-0.079-0.093c0.116-0.251,0.192-0.468,0.224-0.652c0.059-0.345-0.005-0.629-0.188-0.853
				c-0.208-0.254-0.464-0.342-0.772-0.268c-0.307,0.072-0.641,0.264-1.009,0.562c-0.271,0.225-0.468,0.437-0.589,0.643
				c-0.23,0.387-0.216,0.738,0.045,1.053c0.161,0.193,0.365,0.332,0.609,0.408c0.143,0.045,0.335,0.075,0.581,0.092v0.188
				c-0.285-0.014-0.513-0.042-0.677-0.096c-0.297-0.09-0.545-0.256-0.746-0.5c-0.308-0.371-0.453-0.773-0.439-1.209
				c0.013-0.479,0.229-0.892,0.643-1.23c0.41-0.338,0.854-0.479,1.327-0.423C47.383,40.262,47.756,40.471,48.056,40.833z
				 M45.361,38.257l1.28,1.132l-0.082,0.094c-0.118-0.097-0.208-0.152-0.271-0.17c-0.104-0.024-0.204,0.018-0.302,0.127
				l-1.569,1.768c-0.09,0.105-0.123,0.197-0.095,0.283c0.025,0.085,0.097,0.181,0.212,0.277l-0.082,0.094l-1.284-1.129l0.085-0.097
				c0.103,0.093,0.19,0.144,0.256,0.161c0.107,0.027,0.208-0.015,0.304-0.123l1.571-1.767c0.096-0.109,0.123-0.214,0.087-0.312
				c-0.021-0.062-0.087-0.144-0.193-0.244L45.361,38.257z M41.224,37.665c0.246-0.417,0.59-0.691,1.029-0.819
				c0.454-0.129,0.896-0.067,1.332,0.188c0.175,0.102,0.328,0.238,0.463,0.404c0.134,0.167,0.224,0.263,0.266,0.289
				c0.045,0.024,0.093,0.03,0.138,0.018c0.045-0.016,0.096-0.051,0.152-0.104l0.117,0.068l-0.58,0.984l-0.106-0.062
				c0.024-0.273,0.02-0.504-0.014-0.689c-0.062-0.342-0.221-0.588-0.47-0.735c-0.272-0.159-0.539-0.158-0.803,0.004
				c-0.267,0.162-0.522,0.457-0.775,0.884c-0.207,0.352-0.333,0.698-0.38,1.043c-0.045,0.342,0.1,0.611,0.431,0.805
				c0.18,0.104,0.321,0.141,0.431,0.102c0.059-0.021,0.113-0.075,0.166-0.161l0.263-0.442c0.075-0.129,0.083-0.235,0.03-0.319
				c-0.037-0.056-0.132-0.129-0.285-0.224l0.062-0.106l1.446,0.851l-0.062,0.104c-0.148-0.077-0.265-0.106-0.345-0.081
				c-0.077,0.023-0.159,0.107-0.245,0.254l-0.316,0.536c-0.127,0.003-0.312-0.024-0.553-0.093c-0.244-0.065-0.494-0.176-0.751-0.325
				c-0.469-0.274-0.756-0.644-0.862-1.103C40.904,38.503,40.979,38.08,41.224,37.665z M37.458,36.623
				c0.128-0.496,0.389-0.862,0.783-1.101c0.397-0.241,0.845-0.299,1.341-0.171c0.479,0.124,0.837,0.38,1.072,0.769
				c0.244,0.4,0.301,0.848,0.173,1.346c-0.128,0.497-0.397,0.861-0.805,1.093c-0.396,0.227-0.834,0.277-1.312,0.152
				c-0.504-0.13-0.873-0.404-1.105-0.822C37.389,37.495,37.341,37.072,37.458,36.623z M34.123,38.074
				c0.132-0.004,0.228-0.021,0.287-0.051c0.097-0.049,0.146-0.146,0.146-0.291l0.021-2.361c0.001-0.144-0.043-0.241-0.139-0.291
				c-0.053-0.03-0.15-0.049-0.292-0.06l0.001-0.123l1.711,0.014l-0.001,0.124c-0.198,0.005-0.333,0.031-0.398,0.08
				c-0.066,0.05-0.101,0.171-0.103,0.365l-0.021,2.307c0,0.107,0.027,0.181,0.082,0.216c0.058,0.035,0.17,0.054,0.333,0.056
				c0.294,0.002,0.541-0.061,0.741-0.187c0.203-0.128,0.377-0.38,0.526-0.755l0.144,0.002l-0.208,1.104L34.122,38.2L34.123,38.074z
				 M30.737,36.002c0.246-0.396,0.619-0.65,1.118-0.76c0.482-0.106,0.917-0.041,1.307,0.2c0.397,0.245,0.653,0.619,0.764,1.12
				c0.112,0.503,0.039,0.948-0.218,1.338c-0.251,0.381-0.617,0.625-1.1,0.73c-0.51,0.113-0.964,0.036-1.359-0.232
				c-0.372-0.254-0.606-0.606-0.709-1.061C30.431,36.837,30.496,36.392,30.737,36.002z M27.667,36.921l2.423,1.093l0.021-0.012
				l-0.647-1.3c-0.076-0.148-0.154-0.24-0.24-0.276c-0.086-0.036-0.213-0.021-0.383,0.048l-0.055-0.111l0.942-0.469l0.056,0.11
				c-0.125,0.091-0.201,0.167-0.23,0.229c-0.026,0.061-0.006,0.158,0.062,0.292l1.286,2.577l-0.123,0.06l-3.093-1.375L27.653,37.8
				l0.856,1.718c0.068,0.135,0.133,0.219,0.198,0.256c0.103,0.061,0.248,0.05,0.432-0.032l0.056,0.11l-0.992,0.494l-0.055-0.113
				c0.159-0.084,0.249-0.166,0.269-0.246c0.018-0.082-0.002-0.182-0.06-0.293l-1.032-2.07c-0.208-0.082-0.337-0.128-0.38-0.14
				c-0.045-0.01-0.095-0.006-0.153,0.015l-0.056-0.112L27.667,36.921z M24.933,38.779c0.149-0.139,0.326-0.247,0.533-0.334
				c0.204-0.084,0.313-0.137,0.332-0.149c0.046-0.044,0.064-0.095,0.062-0.153c-0.006-0.062-0.021-0.113-0.049-0.16l0.101-0.092
				l0.773,0.844l-0.092,0.082c-0.256-0.104-0.477-0.166-0.663-0.188c-0.348-0.04-0.628,0.038-0.842,0.233
				c-0.243,0.222-0.319,0.484-0.229,0.787c0.09,0.302,0.293,0.627,0.617,0.975c0.236,0.259,0.461,0.443,0.675,0.555
				c0.398,0.211,0.747,0.176,1.051-0.102c0.186-0.172,0.311-0.381,0.376-0.631c0.037-0.144,0.057-0.338,0.061-0.584l0.188-0.01
				c0.004,0.285-0.016,0.513-0.059,0.68c-0.074,0.299-0.228,0.555-0.461,0.77c-0.354,0.325-0.751,0.492-1.185,0.501
				c-0.481,0.011-0.904-0.181-1.267-0.577c-0.358-0.391-0.522-0.824-0.49-1.301C24.395,39.48,24.585,39.098,24.933,38.779z
				 M22.441,42.176l0.921,0.657c0.164-0.226,0.233-0.407,0.205-0.547c-0.027-0.144-0.137-0.313-0.333-0.519l0.071-0.101l1.346,0.96
				l-0.071,0.1c-0.248-0.131-0.449-0.187-0.604-0.164c-0.155,0.021-0.313,0.144-0.475,0.369l0.963,0.688
				c0.083,0.062,0.158,0.079,0.219,0.062c0.062-0.021,0.143-0.103,0.238-0.238c0.18-0.252,0.279-0.494,0.294-0.726
				c0.017-0.229-0.067-0.505-0.249-0.821l0.08-0.11l0.713,0.752l-1.661,2.325l-0.102-0.074c0.078-0.115,0.121-0.207,0.126-0.273
				c0.013-0.104-0.041-0.197-0.153-0.277l-1.928-1.37c-0.117-0.084-0.224-0.103-0.317-0.054c-0.057,0.024-0.127,0.096-0.218,0.205
				l-0.103-0.071l1.639-2.291l0.803,0.571l-0.067,0.1c-0.293-0.135-0.531-0.174-0.714-0.117c-0.18,0.053-0.384,0.238-0.611,0.559
				c-0.087,0.121-0.132,0.207-0.129,0.262C22.327,42.07,22.365,42.123,22.441,42.176z M21.301,54.95
				c0.337-0.08,0.614-0.197,0.83-0.353c0.352-0.252,0.48-0.562,0.392-0.937c-0.029-0.126-0.074-0.197-0.138-0.224
				c-0.039-0.019-0.108-0.016-0.207,0.012l-2.34,0.559c-0.098,0.028-0.162,0.062-0.199,0.105c-0.036,0.041-0.041,0.115-0.017,0.219
				c0.066,0.279,0.224,0.488,0.465,0.621C20.332,55.087,20.735,55.085,21.301,54.95z M38.163,56.038
				c0.332-0.134,1.287-2.196,1.21-2.326C38.791,54.15,38.122,55.715,38.163,56.038z M38.431,56.242l0.663,0.294l0.048-0.25
				c0.206-0.185,0.593-0.804,0.593-0.804l1.445,0.787l0.115-0.209l-1.456-0.781c0.164-0.375,0.286-0.7,0.337-0.994l0.112-0.131
				l-0.614-0.334C39.564,54.546,38.937,55.754,38.431,56.242z M41.009,56.551l-1-0.559l0.578,1.295
				C40.587,57.287,40.937,56.727,41.009,56.551z M42.084,54.361l-1.842,0.779l1.185,0.635
				C41.428,55.777,42.005,54.592,42.084,54.361z M38.365,60.251l0.662-3.425l-1.757,4.15C37.677,60.904,38.365,60.251,38.365,60.251
				z M36.973,58.439l0.374,0.183l1.204-1.978l-0.049-0.023l-1.5,1.705L36.973,58.439z M36.66,59.768l0.521-0.865l-0.282-0.144
				L36.66,59.768z M38.629,62.157c0.934-0.238,1.832-0.679,1.832-0.679l-0.884-0.428C39.461,60.67,38.741,61.781,38.629,62.157z
				 M40.58,59.87l1.368,0.673c0.075-0.697,0.7-1.773,1.191-1.952l-1.324-0.721C41.499,57.915,40.698,59.018,40.58,59.87z M45,54.988
				l-1.325-0.772c0,0-1.078,0.938-1.038,2.148l1.336,0.72C43.894,56.264,44.562,55.324,45,54.988z M44.131,52.659l1.153,0.702
				c-0.035-0.396,0.202-0.965,0.676-1.607l-1.228-0.794C44.732,50.96,43.857,52.118,44.131,52.659z M44.853,49.697l0.86,0.57
				c0,0,0.054-0.254,0.33-0.748l-1.119-0.76C44.722,49.068,44.269,50.16,44.853,49.697z M44.775,47.917l-0.353-0.24
				c0,0-0.263,0.628-0.187,0.664C44.328,48.385,44.775,47.917,44.775,47.917z M40.606,53.791l2.441-2.77
				c0.02-0.431-0.026-0.763-0.174-0.979L40.606,53.791z M41.389,50.545c-0.231,0.152-0.932,0.979-0.932,0.979l0.414,0.244
				L41.389,50.545z M39.977,53.613l0.094,0.051l0.698-1.646l-0.425-0.244L39.977,53.613z M43.641,53.812l1.535,0.895l0.307-0.848
				l-1.568-0.942c-0.542-0.321,0.325-1.925,0.737-2.379l1.438,0.918l0.062-0.54l-1.312-0.865c-0.375,0.197-1.054,0.014-0.008-1.664
				l1.217,0.827l-0.07-0.251l-1.144-0.781c-0.309,0.396-1.239,0.832-0.633-0.589l-0.188-0.044c-0.683,0.876-0.899,0.807-0.723,0.209
				l-0.422,0.225c-0.02,0.117-0.717,1.248-0.828,0.697l-0.444,0.42c-0.08,0.248-0.677,1.244-0.884,1.027l-0.45,0.568
				c-0.142,0.496-0.651,1.23-0.859,1.224l-0.402,0.64c-0.088,0.354-0.467,1.166-0.806,1.367l-0.375,0.682
				c0.037,0.308-0.469,1.25-0.691,1.426l-0.09,0.205c0.415,0.547,0.217,0.978,0.065,1.613l1.178-1.33l-0.304-0.149
				c-0.577-0.335,0.991-3.224,1.534-3.002l0.238,0.127l0.398-1.983c0.474-0.58,1.409-1.545,1.803-1.693l-1.583,3.75l2.442-4.041
				c0.564,0.433,0.584,1.009,0.55,1.621l-2.908,3.299c-0.021,0.113-0.06,0.279-0.06,0.279l2.311-0.984
				c-0.345,0.857-1.19,2.707-2.145,4.203l-0.854-1.854c-0.117,0.17-0.268,0.338-0.268,0.338l-0.792,3.986
				c-0.96,1.016-1.874,0.938-1.874,0.938l1.815-4.305l-2.101,3.459l-0.475,2.051c0,0,1.363-0.078,2.227-0.309
				c0.278-0.758,1.029-2.042,1.574-1.445l1.03,0.486c0,0,0.574-0.303,0.877-0.511l-1.494-0.726c0.082-0.889,0.765-2.332,1.646-2.531
				l1.559,0.845l0.505-0.935l-1.566-0.855C42.069,55.77,42.868,54.385,43.641,53.812z M35.767,56.902
				c0-0.116-0.049-0.229-0.145-0.336l-0.432,0.973C35.552,57.359,35.767,57.143,35.767,56.902z M34.453,57.796
				c0.141-0.032,0.268-0.069,0.389-0.11l2.326-5.295l-0.956,0.301l3.175-7.293l-1.442,0.455l2.299-5.272
				c-1.05-0.464-1.875-0.642-2.01-0.677l-2.061,7.471l0.768-0.245l-1.824,6.628l0.463-0.144L34.453,57.796z M33.982,57.889
				c0.061-0.011,0.123-0.02,0.181-0.031l0.654-2.449c-0.147-0.042-0.427-0.079-0.597-0.11L33.982,57.889z M32.578,54.896
				l-1.049-2.539v-4.059c0,0,0.099-0.148,0.108-0.254c0.032-0.35-0.674-0.535-1.252-0.529c-0.377,0.004-1.201,0.075-1.01,0.447
				c0.106,0.211,0.708,0.301,1.12,0.28c0.427-0.021,0.8-0.222,0.8-0.222s0.102-0.035,0.146,0.072
				c0.045,0.11-0.082,0.163-0.082,0.163s-0.399,0.216-1.021,0.226c-0.485,0.01-1.022-0.103-1.203-0.442
				c-0.021-0.045-0.021-0.125-0.026-0.123c-0.118,0.054-0.142,0.237-0.043,0.339c0.1,0.096,0.075,0.2,0.075,0.2v3.896l-2.359,6.125
				c0.671,0.815,1.675,1.738,2.485,2.217L28.33,57.09C28.163,55.695,30.699,54.889,32.578,54.896z M33.252,58.956
				c-0.082,0-0.148-0.065-0.148-0.149c0-0.08,0.065-0.145,0.147-0.145c2.09-0.092,3.707-0.827,3.707-1.721
				c0-0.438-0.306-0.815-1.005-1.146l-0.209,0.491c0.226,0.185,0.354,0.397,0.354,0.626c0,0.762-1.467,1.382-3.278,1.382
				c-1.808,0-3.273-0.62-3.273-1.382c0-0.625,1.001-1.156,2.348-1.327c0.085,0,0.144,0.065,0.144,0.151
				c0,0.082-0.062,0.141-0.144,0.148c-1.183,0.143-2.028,0.541-2.028,1.018c0,0.591,1.321,1.072,2.95,1.072
				c0.102,0,0.204-0.002,0.306-0.007l-0.027-2.77c-2.596-0.041-4.448,0.772-4.448,1.729c0,0.795,1.274,1.463,3.021,1.668
				c0.084,0.008,0.138,0.067,0.138,0.147c0,0.084-0.055,0.151-0.146,0.149c-0.964-0.127-1.996-0.41-2.761-0.971l0.736,2.984
				c1.871,1.188,4.121,1.677,6.022,1.658l1.087-4.652C36.166,58.426,34.803,58.88,33.252,58.956z M32.753,44.301l0.04,4.467
				l0.47-0.147l0.118,9.334c0.106-0.006,0.212-0.017,0.312-0.024l1.054-10.63l-1.207,0.397l0.484-4.887l-0.653,0.215l0.335-3.275
				c-1.042,0.186-1.583,0.373-1.583,0.373l0.053,4.363L32.753,44.301z M28.098,45.811c0,0,0.011-0.062,0.022-0.1
				c0.037-0.105,0.158-0.121,0.156-0.244c-0.002-0.213-0.367-0.242-0.81-0.244c-0.258-0.002-0.632,0.021-0.883,0.1
				c-0.192,0.062-0.404,0.148-0.401,0.246c0.001,0.136,0.403,0.195,0.686,0.218c0.271,0.024,0.484-0.021,0.69-0.091
				c0.117-0.039,0.187-0.092,0.255-0.068c0.039,0.02,0.066,0.046,0.081,0.094c0.016,0.053-0.021,0.111-0.07,0.137
				c-0.289,0.127-0.562,0.183-0.93,0.17c-0.274-0.008-0.512-0.053-0.694-0.133c-0.112-0.047-0.131-0.08-0.19-0.129
				c-0.064-0.054-0.079,0.024-0.079,0.024v0.969c0.263,0.229,0.598,0.252,0.598,0.252c0.094,0.007,0.164,0.072,0.162,0.169
				c-0.002,0.103-0.101,0.172-0.168,0.168c0,0-0.329-0.02-0.592-0.25v0.844c0.263,0.229,0.598,0.25,0.598,0.25
				c0.094,0.008,0.164,0.074,0.162,0.168c-0.002,0.104-0.101,0.176-0.168,0.172c0,0-0.329-0.021-0.592-0.252v0.845
				c0.263,0.226,0.598,0.25,0.598,0.25c0.094,0.007,0.164,0.073,0.162,0.17c-0.002,0.101-0.101,0.173-0.168,0.169
				c0,0-0.329-0.021-0.592-0.252v0.852c0.263,0.229,0.598,0.242,0.598,0.242c0.094,0.01,0.164,0.075,0.162,0.17
				c-0.002,0.102-0.101,0.174-0.168,0.17c0,0-0.329-0.021-0.592-0.25v0.844c0.263,0.227,0.598,0.251,0.598,0.251
				c0.094,0.006,0.164,0.073,0.162,0.167c-0.002,0.103-0.101,0.174-0.168,0.168c0,0-0.329-0.02-0.592-0.248v0.842
				c0.263,0.229,0.598,0.252,0.598,0.252c0.094,0.008,0.164,0.072,0.162,0.168c-0.002,0.102-0.101,0.176-0.168,0.17
				c0,0-0.329-0.021-0.592-0.252v0.848c0.263,0.228,0.598,0.246,0.598,0.246c0.094,0.01,0.164,0.075,0.162,0.172
				c-0.002,0.101-0.101,0.174-0.168,0.168c0,0-0.329-0.021-0.592-0.252v0.842c0.263,0.229,0.598,0.255,0.598,0.255
				c0.094,0.006,0.164,0.073,0.162,0.167c-0.002,0.102-0.101,0.176-0.168,0.169c0,0-0.329-0.021-0.592-0.249v0.841
				c0.263,0.228,0.598,0.252,0.598,0.252c0.094,0.009,0.164,0.074,0.162,0.169c-0.002,0.102-0.101,0.178-0.168,0.172
				c0,0-0.329-0.021-0.592-0.252v0.788c0.204,0.322,0.601,0.817,0.601,0.817l1.564-4.073L28.098,45.811z M41.624,32.955
				c-0.188,0.13-0.354,0.298-0.5,0.471c0.425,0.135,0.844,0.285,1.256,0.45C42.167,33.479,41.913,33.144,41.624,32.955z
				 M25.428,29.819c0.327-0.161,0.726-0.341,1.24-0.771c0.664-0.231,1.059-0.376,1.156-0.706c0.051-0.142,0.011-0.4-0.232-0.515
				c-0.365-0.07-1.098,0.131-1.34,0.201c-0.206,0.061-0.958,0.474-1.329,0.704c-0.496,0.304-0.79-0.398-0.354-0.416
				c0.396-0.161,0.958-0.459,1.622-0.829c0.188-0.091,0.538-0.084,0.767-0.106c0.372-0.036,0.644-0.024,0.745-0.137
				c0.126-0.121,0.117-0.521-0.04-0.663c-0.367-0.209-0.923-0.146-1.583-0.218c-0.52,0.045-0.996,0.433-1.93,0.825
				c-0.271,0.045-0.585-0.465-0.101-0.544c0.341-0.056,0.795-0.385,1.837-0.809c0.265-0.112,0.771,0.099,1.232,0.155
				c0.151,0.019,0.326,0.06,0.442,0.022c0.272-0.187,0.165-0.631,0.084-0.725c-0.271-0.374-1.511-0.501-1.853-0.575
				c-0.354-0.076-1.402,0.577-1.654,0.68c-0.114,0.046-0.179,0.091-0.363,0.119C23.64,25.49,23.428,25.164,23.917,25
				c0.727-0.262,1.295-0.747,1.641-0.82c0.061-0.014,0.129-0.009,0.255,0.02c0.062-0.356,0.458-0.886,0.458-0.886
				c-0.439-0.18-0.872-0.317-1.139-0.298c-0.271,0.021-1.077,0.549-1.496,0.796c-0.184,0.106-0.471,0.171-0.748,0.278
				c-0.211,0.104-0.562,0.289-0.713,0.782c-0.128,0.648,0.241,0.507,0.025,1.283c-0.187,0.494,0.009,0.793,0.459,1.181
				c0.238,0.25-0.186,0.664,0.138,1.071c0.189,0.254,0.597,0.325,0.62,0.625c0.027,0.497-0.115,0.757,0.338,1.028
				c0.583,0.439,0.885,0.521,1.856,0.64c0.018,0.003-0.174-0.152-0.292-0.294C25.251,30.273,25.066,29.993,25.428,29.819z
				 M22.429,39.126c1.348-1.474,2.952-2.718,4.726-3.667c-0.037-0.116-0.088-0.271-0.146-0.456
				c-1.312,0.693-2.517,1.528-3.613,2.511c-0.164,0.363-0.323,0.594-0.432,0.728c-0.189,0.235-0.454,0.221-0.454,0.221
				s0.94-1.489,1.084-3.378c0.133-1.748-0.285-2.852-0.285-2.852s-1.037,0.946-1.516,2.861c-0.369,1.484-0.074,2.894,0.032,3.246
				C22.076,38.675,22.303,38.967,22.429,39.126z M22.735,35.027c0.13,0.033,0.179,0.212,0.158,0.418
				c-0.062,0.688-0.139,1.94-0.729,2.849C22.086,37.807,22.608,34.994,22.735,35.027z M29.022,34.594
				c-0.163-0.696-1.238-5.645-1.238-5.645c-0.199,0.185-0.831,0.449-1.006,0.508c-0.454,0.343-0.442,0.322-0.962,0.602
				c0,0,1.343,4.209,1.663,5.226C27.98,35.031,28.497,34.801,29.022,34.594z M49.646,32.881c-2.263,0.097-3.835-0.559-4.665-0.58
				c-1.26-0.03-2.234,0.205-2.807,0.511c0.318,0.369,0.588,0.668,0.848,1.335c0.026,0.012,0.05,0.021,0.076,0.033
				c2.142-0.819,3.82-0.084,6.153-0.054C49.399,33.533,49.556,33.103,49.646,32.881z M51.133,36.785
				c-0.212-1.344-0.731-2.252-1.033-2.687c-0.135-0.196-0.227-0.295-0.227-0.295s-0.046,0.108-0.119,0.315
				c-0.152,0.437-0.401,1.309-0.416,2.499c-0.021,1.898,0.785,3.461,0.785,3.461s-0.262-0.01-0.433-0.26
				c-0.059-0.086-0.135-0.213-0.214-0.379c-1.693-2.03-3.818-3.682-6.239-4.818c-0.148,0.052-0.312,0.111-0.472,0.178
				c-0.05-0.155-0.104-0.311-0.168-0.464c-0.548-0.23-1.125-0.441-1.7-0.621c-0.106,0.154-0.192,0.299-0.257,0.413
				c3.838,1.161,7.128,3.584,9.375,6.792c0.118-0.135,0.455-0.519,0.801-0.903C50.954,39.674,51.372,38.296,51.133,36.785z
				 M50.479,39.943c-0.51-0.961-0.476-2.211-0.478-2.901c-0.001-0.208,0.063-0.381,0.193-0.403
				C50.325,36.617,50.601,39.465,50.479,39.943z M26.618,24.477c0.767,0.284,1.188-0.18,1.308-0.34c0.124-0.16,0.29,0.186,0.051,0.5
				c-0.013,0.02-0.161,0.14-0.16,0.139c-0.072,0.051-0.13,0.073-0.172,0.082c0.029,0.007,0.06,0.013,0.11,0.041
				c0.137,0.083,0.345,0.363,0.333,0.754c-0.012,0.164-0.02,0.416-0.24,0.61c0.153,0.129,0.324,0.377,0.292,0.667
				c-0.012,0.284-0.055,0.512-0.275,0.624c0.27,0.173,0.401,0.693,0.246,1.02l0.227,1.02c0.043-0.05,0.086-0.1,0.12-0.149
				c0.252-0.356,0.312-0.541,0.453-0.474c0.091,0.265-0.086,0.737-0.48,1.084c0,0,0.71,3.294,0.959,4.4
				c1.25-0.46,2.56-0.778,3.923-0.946c-0.372-0.49-0.694-0.891-0.949-1.282c-0.583-0.904-1.064-1.802-1.246-2.339
				c-0.183-0.536-0.312-1.008-1.188-2.074c-0.021-0.028-0.039-0.054-0.054-0.079c-0.092,0.145-0.174,0.253-0.211,0.293
				c-0.252,0.256-0.58,0.158-0.334-0.136c0.307-0.365,0.646-1.013,0.551-1.647c-0.165-1.111-0.221-2.05-0.588-2.482
				c-0.287-0.337-0.719-0.873-1.061-1.307c-0.171-0.219-0.862-0.324-1.091,0.133c-0.155,0.309-0.312,0.692-0.823,1.36
				C26.069,24.271,26.359,24.382,26.618,24.477z M29.573,23.465c0.442,0.48,0.513,1.258,0.633,2.375
				c0.044,0.399,0.08,0.84-0.02,1.198c-0.022,0.088-0.054,0.18-0.088,0.264c0.264,0.499,0.664,0.839,0.994,1.424
				c-0.146-1.463-0.564-5.553-0.973-8.501c0,0-0.306,0.286-0.587,0.475c-0.369,0.245-0.736,0.407-0.736,0.407
				s0.159,0.936,0.354,1.848C29.387,23.239,29.573,23.465,29.573,23.465z M40.193,34.001c0.175-0.299,0.36-0.762,0.898-1.179
				c0,0.008-0.981-0.454-2.237-0.429c-1.533,0.032-3.236,0.429-4.432,0.429c-0.75,0-0.926,0.021-1.105,0.012
				c0.152,0.198,0.312,0.405,0.478,0.622c0.562-0.055,1.135-0.08,1.713-0.08C37.135,33.376,38.7,33.593,40.193,34.001z
				 M51.944,32.386c-0.01-0.616,0.037-1.176,0.108-1.679c-0.288-0.967-0.63-2.16-0.978-3.536c-0.815-2.813-1.383-6.141-1.383-6.141
				s-0.534-0.006-0.818-0.239c0.001,0.001,1.358,6.249,2.837,11.348C51.717,32.155,51.815,32.255,51.944,32.386z M26.069,21.342
				c-0.405,0.039-0.935,0.146-1.462,0.297c-0.512,0.146-0.977,0.324-1.342,0.505l0.373,1.152c0.75-0.472,1.36-0.73,1.632-0.71
				c0.324,0.022,0.93,0.248,1.14,0.348c0.008-0.01,0.014-0.021,0.02-0.031L26.069,21.342z M25.265,19.188
				c0.223,0.728,0.07,1.436-0.331,1.813c0.528-0.128,0.89-0.174,1.259-0.179c-0.343-0.217-0.641-0.835-0.736-1.673
				c-0.099-0.843,0.07-1.349,0.38-1.505c-0.39-0.088-1.065-0.016-1.924,0.205C24.421,17.915,25.034,18.436,25.265,19.188z
				 M23.008,18.109c-0.775,0.26-1.242,0.526-1.521,0.779c0.352,0.027,0.79,0.371,1.103,1.145c0.312,0.782,0.303,1.453,0.117,1.828
				c0.309-0.2,0.752-0.404,1.29-0.587C22.229,20.695,22.388,18.514,23.008,18.109z M22.967,19.855
				c0.226,0.753,0.835,1.248,1.36,1.104c0.521-0.144,0.763-0.869,0.534-1.62c-0.226-0.752-0.835-1.246-1.357-1.103
				C22.979,18.378,22.74,19.104,22.967,19.855z M23.464,18.895c0.267-0.12,0.629-0.047,0.851,0.444
				c0.194,0.423,0.105,0.875-0.187,1.006c-0.292,0.131-0.689-0.021-0.867-0.532C23.106,19.376,23.253,18.991,23.464,18.895z
				 M26.444,19.165c0.047,0.269,0.162,0.5,0.362,0.459c0.07-0.014,0.118-0.279,0.07-0.55c-0.045-0.271-0.172-0.428-0.268-0.399
				C26.514,18.702,26.399,18.895,26.444,19.165z M21.321,19.247c-0.185,0.061-0.259,0.342-0.239,0.741
				c0.018-0.044,0.08-0.085,0.133-0.102c0.271-0.083,0.577,0.263,0.666,0.604c0.106,0.407,0.061,0.764-0.211,0.849
				c-0.05,0.016-0.103,0.02-0.156,0.012c0.26,0.37,0.56,0.547,0.758,0.481c0.287-0.093,0.299-0.647,0.048-1.421
				C22.068,19.635,21.609,19.154,21.321,19.247z M21.587,20.513c-0.102-0.254-0.286-0.397-0.413-0.317
				c-0.043,0.027-0.07,0.076-0.087,0.138c-0.029,0.114-0.008,0.272,0.057,0.438c0.067,0.17,0.25,0.41,0.424,0.327
				C21.701,21.033,21.687,20.769,21.587,20.513z M25.835,19.304c0.132,0.752,0.447,1.3,0.707,1.254
				c0.168-0.028,0.284-0.312,0.308-0.697c-0.028,0.016-0.085,0.029-0.119,0.036c-0.28,0.043-0.51-0.263-0.591-0.676
				c-0.08-0.415,0.029-0.744,0.312-0.789c0.043-0.006,0.101-0.006,0.142,0.001c-0.146-0.346-0.35-0.549-0.515-0.52
				C25.816,17.958,25.702,18.554,25.835,19.304z M24.002,20.131c0.174-0.081,0.23-0.367,0.123-0.64
				c-0.108-0.273-0.338-0.429-0.515-0.349c-0.175,0.081-0.23,0.367-0.123,0.641C23.597,20.057,23.826,20.212,24.002,20.131z
				 M130.971,58.902l-5.559-7.391h-2.176l-0.021,10.961h2.217v-7.274l5.56,7.296h2.153V51.551h-2.174V58.902L130.971,58.902z
				 M180.533,41.495v-0.718c0-2.977-2.441-5.412-5.426-5.412h-0.853c-2.983,0-5.422,2.435-5.422,5.412v0.718
				c0,2.978,2.438,5.414,5.422,5.414h0.853C178.092,46.909,180.533,44.475,180.533,41.495z M177.967,41.6
				c0,1.875-1.48,3.41-3.285,3.41c-1.807,0-3.285-1.533-3.285-3.41v-0.901c0-1.876,1.479-3.412,3.285-3.412
				c1.805,0,3.285,1.534,3.285,3.412V41.6z M167.99,44.111c-0.777,0.746-1.844,1.207-3.018,1.207c-2.359,0-4.287-1.864-4.287-4.153
				c0-2.291,1.928-4.154,4.287-4.154c1.164,0,2.221,0.452,2.993,1.187l-0.008-2.19c-3.537-0.998-5.972-0.81-7.987,0.97
				c-2.39,2.108-2.375,6.275,0,8.324c2.041,1.762,4.127,1.959,8.026,0.991L167.99,44.111z M183.633,53.438
				c0.119-0.636,0.42-1.263,0.812-1.82h-8.568v10.921h8.547c-0.428-0.606-0.697-1.215-0.814-1.821c-1.86,0-3.717-0.001-5.577-0.001
				v-2.987h5.557v-1.806h-5.557v-2.483h5.602L183.633,53.438L183.633,53.438z M171.201,51.604h-5.773V62.51l2.139,0.016v-9.106
				h2.771c1.881,0,1.881,2.919,0,2.919h-2.396l3.525,5.125c0.406,0.596,1.152,1.083,1.875,1.083h1.395l-3.059-4.478
				C175.58,56.861,174.436,51.604,171.201,51.604z M190.467,55.927l-2.564-4.323h-2.549l3.988,6.445v4.477h2.176v-4.439l4.027-6.482
				h-2.564L190.467,55.927z M136.107,46.909h0.856c2.979,0,5.422-2.435,5.422-5.414v-0.718c0-2.977-2.438-5.412-5.422-5.412h-0.856
				c-2.98,0-5.422,2.435-5.422,5.412v0.718C130.686,44.475,133.125,46.909,136.107,46.909z M133.252,40.697
				c0-1.877,1.479-3.412,3.283-3.412c1.809,0,3.285,1.535,3.285,3.412V41.6c0,1.875-1.478,3.41-3.285,3.41
				c-1.805,0-3.283-1.533-3.283-3.41V40.697L133.252,40.697z M199.852,59.218c-1.192,0-2.164,0.974-2.164,2.162
				c0,1.193,0.972,2.161,2.164,2.161c1.191,0,2.164-0.968,2.164-2.161C202.016,60.189,201.045,59.218,199.852,59.218z
				 M199.852,63.188c-0.996,0-1.811-0.812-1.811-1.808c0.002-0.996,0.814-1.807,1.811-1.807c0.998,0,1.812,0.811,1.812,1.807
				C201.662,62.375,200.848,63.188,199.852,63.188z M142.385,31.097h-2.836l-1.342,2.678h1.477L142.385,31.097z M71.605,46.621
				h2.221v-8.965h3.214v-1.98h-8.616l-0.026,1.996h3.207L71.605,46.621L71.605,46.621z M116.406,51.355h-0.854
				c-2.983,0-5.424,2.437-5.424,5.414v0.717c0,2.978,2.438,5.412,5.424,5.412h0.853c2.984,0,5.424-2.435,5.424-5.412V56.77
				C121.826,53.792,119.389,51.355,116.406,51.355z M119.264,57.587c0,1.876-1.479,3.41-3.285,3.41c-1.809,0-3.285-1.534-3.285-3.41
				v-0.901c0-1.875,1.478-3.412,3.285-3.412s3.285,1.535,3.285,3.412V57.587z M200.744,61.24c0.096-0.11,0.143-0.239,0.143-0.381
				c0-0.463-0.441-0.676-0.883-0.691c-0.109-0.005-0.623,0.005-0.801,0.014c-0.18,0.006-0.281,0.012-0.307,0.012v2.352h0.49v-0.982
				c0.129,0.006,0.299,0.01,0.368,0.013l0.646,0.97h0.548l-0.64-0.939C200.451,61.555,200.654,61.354,200.744,61.24z
				 M199.586,61.219c-0.045,0-0.109-0.004-0.201-0.012v-0.652c0.059-0.006,0.109-0.008,0.162-0.008c0.213,0,0.518,0.021,0.615,0.064
				c0.102,0.049,0.148,0.129,0.148,0.246c0,0.142-0.047,0.235-0.14,0.283C200.082,61.191,199.785,61.219,199.586,61.219z
				 M160.604,51.604h-5.774V62.51l2.139,0.016v-9.106h2.771c1.877,0,1.877,2.919,0,2.919h-2.396l3.523,5.125
				c0.409,0.596,1.155,1.083,1.877,1.083h1.396l-3.06-4.478C164.979,56.861,163.836,51.604,160.604,51.604z M97.271,44.111
				c-0.775,0.746-1.841,1.207-3.017,1.207c-2.362,0-4.286-1.864-4.286-4.153c0-2.291,1.924-4.154,4.286-4.154
				c1.165,0,2.222,0.452,2.995,1.187l-0.009-2.19c-3.537-0.998-5.971-0.81-7.984,0.97c-2.393,2.108-2.375,6.275,0,8.324
				c2.037,1.762,4.125,1.959,8.021,0.991L97.271,44.111z M78.469,46.602h8.55c-0.428-0.608-0.699-1.217-0.814-1.822h-5.577v-2.987
				h5.558v-1.808h-5.558v-2.482h5.597c0.121-0.637,0.423-1.264,0.814-1.822h-8.569V46.602z M102.097,59.657l-3.24-8.058h-3.531
				v10.918l2.202,0.022v-8.532l3.447,8.532h2.182l3.488-8.554v8.531h2.143V51.645h-3.534L102.097,59.657z M115.451,46.909h0.855
				c2.979,0,5.422-2.435,5.422-5.414v-0.718c0-2.977-2.441-5.412-5.422-5.412h-0.855c-2.984,0-5.42,2.435-5.42,5.412l-0.002,0.718
				C110.029,44.475,112.471,46.909,115.451,46.909z M112.594,40.697c0-1.877,1.477-3.412,3.285-3.412l0,0
				c1.807,0,3.283,1.535,3.283,3.412V41.6c0,1.875-1.477,3.41-3.283,3.41c-1.809,0-3.285-1.533-3.285-3.41V40.697z M86.224,53.438
				c0.121-0.636,0.423-1.263,0.814-1.82h-8.569v10.921h8.55c-0.428-0.606-0.699-1.215-0.814-1.821c-1.861,0-3.72-0.001-5.577-0.001
				v-2.987h5.558v-1.806h-5.558v-2.483h5.597V53.438z M106.606,43.05l-5.557-7.394h-2.176l-0.02,10.964h2.214v-7.276l5.557,7.295
				h2.16V35.695h-2.181v7.354L106.606,43.05L106.606,43.05z M73.107,51.618h-4.692l-0.019,10.929h4.642
				c2.27,0,4.036-1.855,4.052-5.463C77.104,53.475,75.367,51.618,73.107,51.618z M74.684,58.518c0,1.049-1.175,2.225-2.224,2.225
				h-1.828l-0.019-7.309h1.923c1.015,0,2.147,1.135,2.147,2.146V58.518L74.684,58.518z M145.201,45.3
				c2.039,1.763,4.127,1.959,8.027,0.99l-0.008-4.954l-2.718,0.012c0.713,0.489,0.808,1.053,0.797,1.738l-0.032,2.104
				c-0.343,0.086-0.697,0.131-1.064,0.131c-2.359,0-4.287-1.864-4.287-4.153s1.928-4.154,4.287-4.154
				c1.166,0,2.219,0.452,2.992,1.186l-0.006-2.19c-3.537-0.998-5.972-0.81-7.988,0.97C142.814,39.084,142.828,43.251,145.201,45.3z
				 M152.434,53.438c0.121-0.636,0.422-1.263,0.814-1.82h-8.568v10.921h8.551c-0.428-0.606-0.698-1.215-0.813-1.821
				c-1.86,0-3.722-0.001-5.578-0.001v-2.987h5.558v-1.806h-5.558v-2.483h5.597v-0.002H152.434z M134.562,53.594h3.196v8.947h2.224
				v-8.947h3.197v-1.992h-8.617V53.594L134.562,53.594z M156.998,35.677h-2.197v10.944h2.197V35.677z M130.803,44.796h-5.539v-9.158
				h-2.178v10.983h7.715L130.803,44.796L130.803,44.796z"/>
		</g>
	</g>
</g>
</svg>
