<?xml version="1.0" encoding="utf-8"?>
<!-- Generator: Adobe Illustrator 16.0.0, SVG Export Plug-In . SVG Version: 6.00 Build 0)  -->
<!DOCTYPE svg PUBLIC "-//W3C//DTD SVG 1.1//EN" "http://www.w3.org/Graphics/SVG/1.1/DTD/svg11.dtd">
<svg version="1.1" id="Layer_1" xmlns="http://www.w3.org/2000/svg" xmlns:xlink="http://www.w3.org/1999/xlink" x="0px" y="0px"
	 width="122px" height="122px" viewBox="0 0 122 122" enable-background="new 0 0 122 122" xml:space="preserve">
<g>
	<g>
		<path fill="#797979" d="M61,1c-5.932,0-11.791,0.863-17.415,2.564C43.043,3.729,42.735,4.3,42.9,4.843
			c0.164,0.542,0.737,0.848,1.278,0.685C49.611,3.884,55.271,3.051,61,3.051c9.379,0,18.236,2.254,26.083,6.226l0.922-1.83
			C79.882,3.333,70.711,1,61,1z"/>
		<path fill="#FFFFFF" d="M6.134,42.309c0.182-0.538-0.105-1.12-0.641-1.303c-0.537-0.182-1.119,0.105-1.302,0.64
			C2.074,47.861,1,54.372,1,61h2.051C3.051,54.597,4.088,48.309,6.134,42.309z"/>
		<path fill="#797979" d="M118.949,61H121c0-23.373-13.442-43.653-32.995-53.553l-0.922,1.83
			C105.967,18.839,118.949,38.425,118.949,61z"/>
		<path fill="#797979" d="M121,61h-2.051c0,22.574-12.982,42.16-31.866,51.723l0.922,1.83C107.558,104.652,121,84.372,121,61z"/>
		<path fill="#FFFFFF" d="M3.051,61H1c0,23.372,13.443,43.652,32.995,53.553l0.923-1.83C16.034,103.16,3.051,83.574,3.051,61z"/>
		<path fill="#797979" d="M61,118.949c-9.378,0-18.235-2.254-26.082-6.227l-0.923,1.83C42.118,118.666,51.289,121,61,121
			s18.882-2.334,27.005-6.447l-0.922-1.83C79.236,116.695,70.379,118.949,61,118.949z"/>
	</g>
	<g>
		<path fill="#FFFFFF" d="M57.164,69.842c-0.375-0.695-0.122-1.14,0.028-1.406c0.114-0.199,0.131-0.23,0.012-0.44
			c-0.847-1.491-1.839-2.657-2.798-3.783c-1.116-1.312-2.171-2.549-2.823-4.12c-0.364-0.88-0.583-1.773-0.668-2.73
			c-0.04-0.433-0.067-0.869-0.081-1.307c-0.025-0.304-0.042-0.617-0.042-0.9c0-0.371,0.03-0.756,0.094-1.214
			c0.564-4.016,3.787-7.262,8.02-8.077c1.421-0.162,2.754-0.157,4.102-0.004v-0.002l0.109,0.011
			c4.688,0.912,8.093,4.817,8.093,9.286c0,1.155-0.225,2.672-0.647,4.389c-0.7,2.14-1.851,3.466-3.068,4.868
			c-0.899,1.037-1.83,2.108-2.67,3.595c-0.114,0.205-0.099,0.229,0.02,0.428c0.156,0.265,0.421,0.709,0.045,1.406l-0.867-0.465
			c0.112-0.209,0.094-0.238-0.024-0.438c-0.159-0.268-0.424-0.715-0.03-1.414c0.889-1.574,1.853-2.684,2.783-3.758
			c1.202-1.384,2.238-2.578,2.866-4.494c0.39-1.581,0.609-3.056,0.609-4.118c0-3.997-3.066-7.495-7.292-8.319l-0.001,0.006
			c-1.286-0.148-2.596-0.15-3.878-0.005c-3.781,0.729-6.688,3.642-7.193,7.24c-0.057,0.411-0.084,0.754-0.084,1.078
			c0,0.26,0.015,0.544,0.039,0.844c0.016,0.444,0.042,0.861,0.08,1.275c0.075,0.856,0.271,1.654,0.597,2.441
			c0.593,1.427,1.599,2.609,2.663,3.859c0.989,1.16,2.012,2.361,2.905,3.936c0.395,0.697,0.14,1.145-0.012,1.412
			c-0.114,0.201-0.135,0.236-0.019,0.452L57.164,69.842z"/>
		<path fill="#FFFFFF" d="M62.684,76.251c-0.254,0-0.511-0.022-0.753-0.044c-0.587-0.053-1.285-0.051-1.87,0
			c-1,0.089-2.245,0.199-2.509-1.354l0.971-0.166c0.099,0.585,0.259,0.645,1.451,0.539c0.64-0.057,1.402-0.057,2.043,0
			c1.19,0.105,1.354,0.046,1.452-0.537l0.971,0.163C64.241,76.029,63.478,76.251,62.684,76.251z"/>
		<rect x="57.157" y="72.74" fill="#FFFFFF" width="7.614" height="0.984"/>
		<rect x="57.157" y="70.803" fill="#FFFFFF" width="7.614" height="0.984"/>
		<path fill="#FFFFFF" d="M62.936,65.943h-0.984c0-1.742,0.119-3.252,0.357-4.513c-0.481-0.071-0.934-0.246-1.331-0.5
			c-0.383,0.242-0.813,0.414-1.27,0.49c0.228,1.241,0.342,2.732,0.342,4.46h-0.983c0-1.941-0.152-3.379-0.357-4.435
			c-1.596-0.152-3.081-1.117-3.081-2.829c0-0.764,0.579-1.362,1.318-1.362c0.391,0,1.381,0.192,2.14,1.978
			c0.155,0.366,0.292,0.775,0.411,1.227c0.243-0.036,0.479-0.108,0.697-0.21c-0.48-0.566-0.772-1.283-0.772-2.053
			c0-1.127,0.657-1.945,1.563-1.945c0.932,0,1.608,0.801,1.608,1.904c0,0.779-0.313,1.517-0.821,2.097
			c0.234,0.109,0.488,0.185,0.755,0.215c0.12-0.45,0.261-0.859,0.418-1.229c0.781-1.822,1.771-2.02,2.158-2.02
			c0.708,0,1.24,0.564,1.24,1.313c0,1.743-1.453,2.732-3.03,2.908C63.097,62.512,62.936,63.973,62.936,65.943z M56.946,58.24
			c-0.22,0-0.334,0.19-0.334,0.377c0,0.999,0.851,1.609,1.85,1.8c-0.093-0.318-0.189-0.583-0.281-0.799
			C57.748,58.601,57.245,58.24,56.946,58.24z M65.104,58.204c-0.297,0-0.803,0.372-1.253,1.422
			c-0.092,0.212-0.187,0.468-0.278,0.775c0.973-0.214,1.787-0.848,1.787-1.869C65.359,58.478,65.346,58.204,65.104,58.204z
			 M60.985,57.235c-0.397,0-0.579,0.499-0.579,0.961c0,0.555,0.221,1.072,0.581,1.474c0.384-0.415,0.622-0.949,0.622-1.515
			C61.609,57.698,61.417,57.235,60.985,57.235z"/>
	</g>
</g>
</svg>
