<?xml version="1.0" encoding="utf-8"?>
<!-- Generator: Adobe Illustrator 16.0.0, SVG Export Plug-In . SVG Version: 6.00 Build 0)  -->
<!DOCTYPE svg PUBLIC "-//W3C//DTD SVG 1.1//EN" "http://www.w3.org/Graphics/SVG/1.1/DTD/svg11.dtd">
<svg version="1.1" id="Layer_1" xmlns="http://www.w3.org/2000/svg" xmlns:xlink="http://www.w3.org/1999/xlink" x="0px" y="0px"
	 width="940px" height="205px" viewBox="0 0 940 205" enable-background="new 0 0 940 205" xml:space="preserve">
<g>
	<path fill="#868686" d="M914.062,60.219c-0.484-0.359-1.242-0.579-1.982-0.566c-0.799,0.01-1.564,0.267-2.098,0.69v-5.052h-2.5
		v16.476h2.5v-8.599c0-0.599,0.504-1.258,1.436-1.299c0.414-0.017,0.99,0.161,1.281,0.597c0.311,0.463,0.291,1.075,0.291,1.748
		l-0.002,7.553h2.498v-7.65C915.486,61.862,915.193,61.059,914.062,60.219"/>
	<path fill="#868686" d="M893.73,65.874c0,1.614-0.051,2.067-0.064,2.208c-0.084,0.894-0.467,1.842-1.508,1.842
		s-1.465-1.012-1.508-1.886c-0.002-0.005-0.064-0.55-0.064-2.164s0.062-2.286,0.064-2.292c0.012-0.909,0.482-1.819,1.508-1.819
		s1.496,0.91,1.508,1.811C893.666,63.588,893.73,64.26,893.73,65.874 M896.148,63.931c-0.355-3.521-2.354-4.276-3.996-4.276
		c-2.324,0-3.742,1.479-3.996,4.272c-0.02,0.223-0.059,0.634-0.07,1.947c-0.008,0.959,0.053,1.746,0.064,1.944
		c0.162,2.608,1.658,4.216,4.002,4.216c2.346,0,3.84-1.636,4.004-4.217c0.01-0.186,0.062-0.984,0.062-1.943
		C896.219,65.441,896.182,64.263,896.148,63.931z"/>
	<path fill="#868686" d="M919.658,64.393c0.02-0.546,0.02-0.66,0.029-0.819c0.072-0.986,0.512-1.803,1.523-1.811
		c1.199-0.01,1.48,1.166,1.521,1.816c0.025,0.342,0.049,0.57,0.047,0.813H919.658 M922.744,67.692c0,0,0.004,0.184-0.021,0.408
		c-0.068,0.581-0.301,1.823-1.518,1.823c-1.035,0-1.432-0.943-1.502-1.881c-0.016-0.267-0.062-0.562-0.061-1.576h5.572
		c0,0,0.01-0.828-0.006-1.328c-0.008-0.195-0.018-0.522-0.064-1.21c-0.076-1.055-0.471-2.21-1.074-2.956
		c-0.701-0.864-1.691-1.318-2.865-1.318c-2.25,0-3.658,1.463-3.936,4.273c-0.021,0.251-0.064,0.602-0.064,1.946
		c0,0.959,0.053,1.76,0.062,1.944c0.152,2.565,1.668,4.216,3.938,4.216c2.266,0,3.783-1.607,3.939-4.342H922.744L922.744,67.692z"/>
	<path fill="#868686" d="M880.182,46.884h40.619l15.531,18.17l-15.527,17.922h-40.623L864.59,64.993L880.182,46.884 M921.783,44.866
		h-42.582L861.922,64.93l17.281,19.937h42.578L939,64.996L921.783,44.866z"/>
	<path fill="#868686" d="M880.684,57.529h1.184c1.285,0,1.982,0.683,2.014,1.899c0.002,0.09,0.014,0.191,0.014,0.383
		c0,0.221-0.004,0.297-0.014,0.384c-0.07,0.723-0.389,1.986-1.895,1.986h-1.303V57.529 M886.604,70.747
		c0,0.002-0.256-4.045-0.256-4.045c-0.111-1.81-0.584-2.873-1.52-3.421c0.676-0.406,1.551-1.412,1.545-3.513
		c-0.014-3.198-2-4.32-4.338-4.346h-3.82v16.344h2.467l0.002-7.477h1.373c0.793,0,1.689,0.695,1.824,2.644l0.258,3.828
		c0.02,0.542,0.123,1.006,0.123,1.006h2.467C886.729,71.768,886.623,71.318,886.604,70.747z"/>
	<path fill="#868686" d="M903.449,67.578c-0.01,0.183-0.021,0.346-0.031,0.46c-0.07,0.914-0.393,1.886-1.51,1.886
		c-1.039,0-1.451-1.054-1.527-1.828c-0.045-0.47-0.033-0.834-0.045-2.222c-0.01-1.614,0.043-2.028,0.064-2.292
		c0.088-1.02,0.484-1.812,1.508-1.819c1.055-0.007,1.498,0.91,1.51,1.811c0,0.009,0.021,0.227,0.039,0.705h2.473
		c-0.008-0.164-0.016-0.303-0.021-0.384c-0.281-3.414-2.361-4.24-4.004-4.24c-2.324,0-3.742,1.479-3.996,4.272
		c-0.021,0.223-0.057,0.634-0.07,1.947c-0.008,0.959,0.055,1.746,0.066,1.944c0.16,2.608,1.656,4.208,4,4.216
		c2.43,0.008,3.77-1.474,4.004-4.217c0.008-0.101,0.021-0.169,0.014-0.239H903.449"/>
</g>
<g>
	<g>
		<path fill="#868686" d="M284.405,52.857c0.63,0.031,1.026-0.153,1.026-0.153l-0.451-2.609c0,0-0.402,0.05-0.896,0.033
			c-0.816-0.028-1.276-0.109-1.276-0.109l0.372,2.627C283.18,52.646,283.776,52.828,284.405,52.857z M283.04,50.346
			c0,0,0.547,0.089,0.957,0.08c0.35-0.008,0.8-0.008,0.8-0.008l0.086,0.445l-0.093-0.02c0,0,0.02-0.104-0.115-0.134
			c-0.136-0.03-0.415-0.007-0.415-0.007s0.174,1.328,0.187,1.412c0.007,0.049,0.009,0.146,0.043,0.188
			c0.047,0.06,0.276,0.233,0.276,0.233s-0.22,0.057-0.436,0.043c-0.258-0.015-0.455-0.013-0.455-0.013s0.157-0.208,0.191-0.264
			c0.033-0.057,0.017-0.151,0.007-0.208c-0.024-0.178-0.186-1.265-0.186-1.265s0.008-0.177-0.178-0.154c0,0-0.271-0.038-0.374-0.038
			c-0.105,0-0.155,0.245-0.155,0.245h-0.074L283.04,50.346z"/>
		<path fill="#868686" d="M300.523,56.915c0,0-0.327,1.112-0.239,2.597c0.103,1.686,0.874,2.9,0.874,2.9s-0.243-0.001-0.434-0.287
			c-0.179-0.271-0.426-0.747-0.596-1.45c-0.405,0.102-0.779,0.172-1.134,0.221c0.228,0.497,0.427,1.113,0.54,1.8
			c0.192,1.159-0.046,2.132-0.133,2.431c0.672-0.778,1.554-1.859,2.25-2.92l0.111-0.172c0.082-0.365,0.18-1.376,0.017-2.49
			C301.518,57.767,300.523,56.915,300.523,56.915z M299.955,63.931c0.068-1.278-0.258-2.133-0.473-2.778l0.398-0.076
			c0.165,0.476,0.382,1.121,0.935,1.721C300.434,63.299,300.207,63.618,299.955,63.931z M301.432,62.131
			c-0.502-0.772-0.565-1.832-0.618-2.417c-0.017-0.177,0.023-0.327,0.134-0.355C301.056,59.33,301.5,61.715,301.432,62.131z"/>
		<path fill="#868686" d="M299.958,59.541c-0.138-0.125-0.257-0.225-0.268-0.224c-0.543,0.126-1.047,0.194-1.521,0.223
			c0.138,0.179,0.405,0.519,0.659,1.004c0.389-0.044,0.789-0.118,1.224-0.232C300.009,60.079,299.978,59.816,299.958,59.541z"/>
		<path fill="#868686" d="M283.569,58.688c0.079,0.119,0.171,0.25,0.272,0.391c0.205,0.039,0.562,0.089,1.158,0.061
			c1.225-0.056,2.616-0.366,3.824-0.38c1.119-0.013,2.122,0.401,2.114,0.401c-0.19-1.162-1.279-8.058-1.317-8.286
			c-0.056-0.342,0.097-0.72,0.227-0.034c0.165,0.863,1.535,8.353,1.535,8.353c0.489-0.257,1.51-0.542,2.523-0.507
			c1.458,0.051,2.826,0.821,5.526,0.32c-1.246-4.084-2.458-9.861-2.458-9.861c-2.491,0.173-3.062-0.534-5.432-0.588
			c-1.521-0.035-2.077,0.936-2.074,0.934c0-0.001-1.268-0.902-2.947-0.775c-3.386,0.256-4.043,0.152-4.684-0.012
			c0.351,2.517,0.833,7.405,0.944,8.553C282.991,57.73,283.256,58.209,283.569,58.688z M298.341,57.994
			c-0.249,0.046-0.735,0.095-1.263,0.061c-1.607-0.105-2.284-0.447-3.348-0.477c-0.959-0.025-1.66,0.23-1.833,0.295
			c-0.187,0.069-0.279-0.199-0.061-0.268c0.173-0.056,0.865-0.347,1.92-0.304c1.046,0.043,1.953,0.397,3.502,0.511
			c0.477,0.034,0.872-0.043,1.073-0.069C298.546,57.716,298.621,57.942,298.341,57.994z M298.031,56.761
			c-0.243,0.046-0.728,0.095-1.249,0.061c-1.591-0.105-2.26-0.446-3.312-0.476c-0.95-0.026-1.645,0.229-1.816,0.295
			c-0.184,0.068-0.275-0.2-0.06-0.269c0.172-0.056,0.856-0.347,1.901-0.303c1.034,0.043,1.932,0.397,3.467,0.51
			c0.47,0.035,0.862-0.043,1.062-0.069C298.234,56.482,298.307,56.709,298.031,56.761z M297.708,55.527
			c-0.241,0.047-0.718,0.096-1.23,0.061c-1.568-0.104-2.228-0.447-3.265-0.476c-0.938-0.026-1.619,0.229-1.788,0.294
			c-0.182,0.07-0.272-0.199-0.059-0.269c0.17-0.055,0.843-0.346,1.871-0.302c1.02,0.043,1.905,0.397,3.416,0.51
			c0.464,0.034,0.851-0.043,1.046-0.068C297.907,55.25,297.981,55.476,297.708,55.527z M297.408,54.309
			c-0.241,0.042-0.714,0.083-1.225,0.039c-1.557-0.132-2.208-0.485-3.238-0.532c-0.931-0.042-1.615,0.201-1.784,0.264
			c-0.182,0.066-0.267-0.204-0.054-0.271c0.169-0.052,0.845-0.331,1.868-0.27c1.013,0.061,1.887,0.431,3.387,0.569
			c0.461,0.043,0.848-0.028,1.043-0.051C297.611,54.034,297.68,54.262,297.408,54.309z M297.095,52.757
			c0.205-0.024,0.272,0.203,0.005,0.251c-0.239,0.042-0.708,0.083-1.215,0.039c-1.54-0.132-2.184-0.485-3.204-0.531
			c-0.921-0.042-1.597,0.201-1.765,0.263c-0.18,0.067-0.265-0.203-0.054-0.269c0.169-0.053,0.837-0.332,1.85-0.271
			c1.002,0.06,1.866,0.43,3.353,0.569C296.521,52.851,296.902,52.78,297.095,52.757z M296.758,51.708
			c-0.234,0.042-0.696,0.083-1.193,0.04c-1.519-0.133-2.152-0.486-3.158-0.532c-0.907-0.043-1.573,0.201-1.738,0.264
			c-0.177,0.066-0.26-0.204-0.053-0.27c0.165-0.053,0.824-0.332,1.82-0.271c0.988,0.06,1.84,0.43,3.304,0.568
			c0.449,0.043,0.825-0.028,1.017-0.051C296.957,51.434,297.024,51.66,296.758,51.708z M290.397,49.912
			c0.162-0.052,0.81-0.331,1.792-0.271c0.973,0.06,1.812,0.429,3.254,0.566c0.441,0.042,0.812-0.028,1-0.052
			c0.198-0.024,0.264,0.204,0.003,0.251c-0.231,0.042-0.686,0.083-1.177,0.041c-1.495-0.132-2.119-0.484-3.108-0.53
			c-0.894-0.042-1.551,0.202-1.714,0.264C290.272,50.249,290.191,49.979,290.397,49.912z M289.954,57.911
			c-0.172-0.064-0.786-0.309-1.839-0.25s-2.229,0.434-2.923,0.438c-0.632,0.004-1.416-0.08-1.661-0.126
			c-0.276-0.052-0.202-0.278,0.008-0.251c0.2,0.026,0.888,0.106,1.444,0.108c0.753,0.004,2.146-0.402,3.122-0.454
			c1.091-0.058,1.671,0.213,1.843,0.268C290.165,57.713,290.139,57.981,289.954,57.911z M289.722,56.572
			c-0.174-0.043-0.708-0.257-1.734-0.199c-1.024,0.06-2.165,0.399-2.906,0.386c-0.792-0.014-1.513-0.134-1.715-0.195
			c-0.263-0.078-0.188-0.314,0.008-0.25c0.212,0.069,0.83,0.164,1.503,0.178c0.735,0.015,2.142-0.359,3.094-0.411
			c1.062-0.059,1.588,0.178,1.76,0.219S289.895,56.615,289.722,56.572z M289.505,55.062c0.17,0.043,0.158,0.318-0.014,0.272
			s-0.699-0.269-1.721-0.227c-1.021,0.041-2.161,0.36-2.898,0.336c-0.788-0.027-1.419-0.18-1.619-0.243
			c-0.262-0.083-0.183-0.318,0.013-0.251c0.208,0.073,0.74,0.198,1.408,0.223c0.73,0.027,2.137-0.323,3.086-0.359
			C288.816,54.772,289.334,55.019,289.505,55.062z M289.33,54.066c-0.168-0.045-0.729-0.28-1.72-0.239
			c-0.992,0.042-2.1,0.361-2.816,0.336c-0.764-0.026-1.476-0.179-1.671-0.243c-0.253-0.083-0.177-0.318,0.013-0.251
			c0.202,0.072,0.817,0.198,1.468,0.223c0.709,0.028,2.074-0.323,2.994-0.358c1.027-0.04,1.579,0.218,1.744,0.261
			S289.497,54.113,289.33,54.066z M289.133,52.895c-0.172-0.057-0.691-0.315-1.732-0.344c-0.537-0.014-0.79,0.057-1.266,0.12
			c0,0-0.177,0.034-0.198-0.117c-0.021-0.152,0.146-0.171,0.146-0.171c0.535-0.068,0.836-0.141,1.328-0.125
			c1.078,0.031,1.587,0.312,1.757,0.366C289.336,52.678,289.305,52.952,289.133,52.895z M288.931,51.621
			c-0.165-0.058-0.659-0.315-1.651-0.344c-0.508-0.014-0.871,0.043-1.376,0.091c0,0-0.168,0.026-0.187-0.123
			c-0.02-0.155,0.134-0.166,0.134-0.166c0.562-0.052,0.97-0.11,1.438-0.096c1.026,0.031,1.511,0.312,1.673,0.366
			C289.125,51.404,289.094,51.679,288.931,51.621z M285.62,49.77c0.552-0.048,0.948-0.104,1.43-0.082
			c0.985,0.046,1.443,0.331,1.598,0.388c0.155,0.057,0.12,0.331-0.036,0.271c-0.155-0.06-0.625-0.324-1.575-0.365
			c-0.527-0.022-0.869,0.033-1.364,0.074c0,0-0.151,0.011-0.171-0.11C285.474,49.777,285.62,49.77,285.62,49.77z M284.073,49.834
			c0.611,0.001,1.104-0.042,1.104-0.042l0.571,3.211c0,0-0.505,0.227-1.28,0.189c-0.773-0.037-1.504-0.241-1.504-0.241l-0.465-3.258
			C282.499,49.693,283.071,49.831,284.073,49.834z"/>
		<path fill="#868686" d="M292.97,60.9c1.752,0.868,3.32,2.053,4.627,3.48c-0.106-0.43-0.185-1.001-0.192-1.755
			c-0.004-0.602,0.066-1.166,0.164-1.646C295.82,60.949,294.631,60.456,292.97,60.9z M297.112,63.426
			c-0.838-0.906-1.991-1.658-3.049-2.334c0.751-0.108,1.843,0.231,3.113,0.199c-0.069,0.351-0.11,0.744-0.106,1.183
			C297.074,63.023,297.034,63.111,297.112,63.426z"/>
		<path fill="#868686" d="M308.553,60.522c-1.563-0.625-3.32-0.478-5.136,0.189l0.534-1.037c1.911,0.162,4.332-1.234,5.629-4.256
			c-1.638-0.201-3.658,0.414-4.852,1.467c-0.058-1.191-0.643-3.432-2.153-4.651c-0.521,0.902-1.542,4.839,0.451,7.001l-0.532,0.914
			c-0.024-1.227-0.544-3.28-2.292-4.478c-0.809-2.495-1.144-4.496-1.604-6.702c-0.317-0.029-1.005-0.238-1.323-0.556
			c-3.81,0.197-5.492-1.432-7.951,0.127c-2.407-1.307-5.209,0.186-7.951-0.717c-0.513,0.597-0.821,0.926-1.841,1.262
			c0.023,0.312,0.081,0.764,0.081,0.764c-0.277-0.068-0.59,0.07-0.59,0.07c0.197-0.289,0.081-0.486,0.174-0.974
			c0.136-0.716,0.323-1.261-0.301-2.14c-0.197-0.315-0.656-0.574-0.9-0.839c1.494-1.713,0.972-4.36,1.326-5.762
			c-0.494,0.387-0.917,0.68-0.917,0.68s0.237-2.275-1.945-4.848c0.021,0.821,0.09,1.312,0.007,2.156
			c-0.236,1.73-1.103,2.429-1.103,2.429s-0.279-1.216-1.428-1.512c0.104,0.725,0.07,1.454-0.014,1.822
			c-0.567,1.724-1.035,1.558-1.663,3.361c-0.254,1.262,0.576,2.817,1.283,3.109c-0.526,1.233-0.537,2.287,0.695,3.212
			c0.14,0.096,0.225,0.141,0.281,0.225c0.104,0.157,0.135,0.275,0.58,0.337c0.009,0.079,0.057,0.089,0.075,0.203
			c-0.589,0.176-1.386,1.096-1.262,1.478c0.312,0.956-0.03,0.894-0.006,1.328c-1.934,1.255-2.364,3.518-2.486,4.359
			c-0.215-0.48-0.291-0.648-0.449-1.131c1.142-0.636,2.135-4.362,0.994-6.844c-1.647,1.279-2.297,3.03-2.479,4.447
			c-0.491-0.426-2.084-1.954-4.665-1.93c0.779,3.457,4.403,5.083,5.139,4.682c0.169,0.467,0.372,0.857,0.484,1.162
			c-0.646-0.433-3.119-1.246-5.003-0.675c1.137,2.365,5.191,4.369,6.336,3.448l0.766,1.251c-1.31-0.448-4.077-0.363-5.09,0.305
			c0.282,0.787,2.727,2.003,2.727,2.003c1.604,0.742,2.733,0.729,2.733,0.729c-4.001,4.623-2.656,11.826-2.656,11.826
			c2.343,11.426,12.756,13.38,15.919,13.208c13.826-0.758,15.658-13.412,15.658-13.412c0.801-6.434-1.615-10.086-1.615-10.086
			c2.828,0.212,5.93-2.149,5.93-2.149c-1.614-1.091-3.911-1.098-5.212-0.828l0.872-1.13
			C301.857,63.503,304.418,64.864,308.553,60.522z M276.792,36.839c0.413,1.126,1.688,2.584,1.144,4.639
			c0,0,0.489,0.051,1.028-0.679c0,0-0.168,0.53-0.19,1.722c-0.014,0.746-0.163,2.529-1.208,3.396c0,0,1.045-1.907,0.893-4.061
			c0,0-0.6,0.547-1.122,0.364c0,0,0.893-1.706-0.24-3.743c0,0-0.032,1.427-1.328,2.222
			C276.095,40.235,277.053,39.158,276.792,36.839z M276.616,41.712c0,0-0.114,1.074,0.114,1.783c0.227,0.71,0.595,1.558,0.012,2.475
			c0,0,0.179-1.041-0.114-1.542c-0.291-0.502-0.43-0.606-0.494-1.35c0,0-0.362,0.302-0.95,0.449c-1.103,0.278-1.242,1.37-1.242,1.37
			s-0.253-1.247,1.015-1.818C275.788,42.705,276.108,42.422,276.616,41.712z M272.579,44.329c0.203-0.917,1.083-1.794,1.478-2.783
			c0.375-0.935,0.254-1.887,0.254-1.887c0.926,0.502,0.876,2.32,0.876,2.32s-0.381-1.283-0.66-1.318
			c-0.393,2.138-1.212,2.543-1.407,3.721c-0.215,1.299,0.241,1.967,0.66,2.737C272.333,46.409,272.579,44.329,272.579,44.329z
			 M301.792,64.777c2.115-0.161,3.75,0.609,3.75,0.609s-1.303,0.987-3.098,1.536c-1.452,0.444-2.4,0.277-2.875,0.133
			c1.366,2.328,2.14,5.021,2.14,7.917c0,8.669-7.028,15.695-15.697,15.695s-15.696-7.026-15.696-15.695
			c0-3.505,1.149-6.74,3.092-9.353c-0.516,0.066-1.356,0.052-2.543-0.428c-1.742-0.703-2.952-1.8-2.952-1.8s1.694-0.625,3.785-0.281
			c0.919,0.151,1.519,0.459,1.846,0.685c-0.586-0.826-1.3-1.902-1.862-2.965c0.021,0.06-0.008-0.001-0.06-0.111
			c-0.189-0.25-0.912-1.017-2.105-1.498c-1.552-0.628-2.719-0.389-2.719-0.389s0.522,0.884,1.815,1.618
			c1.723,0.977,3.071,0.938,3.071,0.938s-0.146,0.2-0.502,0.229c-0.795,0.018-1.747-0.241-2.871-0.935
			c-1.519-0.937-2.374-2.214-2.374-2.214s1.619-0.296,3.516,0.38c1.079,0.386,1.637,0.938,1.812,1.137
			c-0.413-0.893-0.783-1.849-1.259-2.97c-0.25-0.591-0.726-1.436-1.677-2.119c-1.291-0.928-2.434-0.94-2.434-0.94
			s0.311,0.912,1.317,1.903c1.144,1.125,2.647,1.52,2.647,1.52s-0.156,0.155-0.458,0.078c-0.559-0.098-1.467-0.454-2.492-1.428
			c-1.229-1.168-1.664-2.594-1.664-2.594s1.659,0.06,3.227,1.158c0.973,0.684,1.31,1.385,1.31,1.384c0.001,0-0.104-0.839,0.242-1.98
			c0.556-1.831,1.811-2.871,1.811-2.871s0.457,1.432,0.236,3.112c-0.198,1.525-0.801,2.405-1.053,2.7
			c-0.187,0.193-0.311,0.129-0.311,0.129s0.864-1.185,1.044-2.779c0.159-1.403-0.148-2.305-0.148-2.305s-0.861,0.733-1.299,2.262
			c-0.329,1.149-0.251,1.973-0.038,2.546c0.547,1.23,0.967,2.151,1.423,3.053c-0.015-0.352-0.02-1.195,0.202-2.153
			c0.442-1.896,1.972-3.017,1.972-3.017s0.395,1.517,0.136,3.282c-0.203,1.395-0.701,2.225-1.003,2.605
			c-0.214,0.269-0.457,0.249-0.457,0.249s0.873-1.143,1.122-2.813c0.22-1.471-0.072-2.43-0.072-2.43s-1.005,0.584-1.42,2.33
			c-0.261,1.097-0.251,2.111-0.2,2.483l0.097,0.182c0.6,1.116,1.386,2.271,1.985,3.104c-0.06-0.306-0.212-1.294,0.08-2.433
			c0.502-1.951,1.763-3.148,1.763-3.148s0.534,1.488,0.364,3.265c-0.062,0.649-0.169,1.161-0.291,1.562
			c0.848-0.708,1.772-1.327,2.757-1.846c-0.34-1.045-0.881-2.708-0.975-2.99c-0.652-0.052-0.992-0.063-1.642-0.412
			c-0.452-0.269-0.743-0.514-0.757-0.774c-0.017-0.479-0.043-0.522-0.215-0.626c-0.288-0.2-0.458-0.435-0.389-0.927
			c0.091-0.321-0.028-0.351-0.418-0.815c-0.27-0.396,0.153-0.919,0.091-1.161c-0.134-0.258-0.224-0.456-0.131-0.687
			c0.045-0.253,0.489-0.781,0.905-0.935c0.171-0.065,0.307-0.086,0.435-0.132l-0.29-0.771c-0.294-0.008-0.488-0.068-0.521-0.184
			c-0.016-0.054,0-0.108,0.049-0.174c-0.423-0.036-0.747-0.344-0.979-0.729c-0.301-0.241-0.383-0.632-0.315-0.889
			c-0.071-0.501,0-0.978,0.339-1.133l-0.049-0.104c-0.078-0.273,0.824-0.783,1.926-1.099c1.099-0.315,2.112-0.4,2.189-0.126
			l0.054,0.188c0.206-0.026,0.563,0.255,0.745,0.802c0.167,0.151,0.256,0.614,0.162,0.932c-0.017,0.366-0.089,0.738-0.349,1.048
			c0.442,0.105,0.121,0.412-0.118,0.571l0.147,0.739l0.065-0.125c0.211-0.428,1.146-0.459,1.325-0.183l0.079,0.097
			c-0.055-0.357-0.188-1.142-0.188-1.142s0.554-0.216,0.843-0.408c0.362-0.242,0.516-0.453,0.724-0.712
			c0.64,0.173,1.385,0.404,5.008,0.117c1.748-0.139,2.89,0.674,2.889,0.674c0.001,0.002,0.734-0.85,2.216-0.821
			c1.913,0.036,3.199,0.752,5.586,0.571c0.382,0.449,1.168,0.476,1.168,0.476s0.543,2.976,1.167,5.285
			c0.207,0.761,0.448,1.585,0.682,2.367c0.1-0.438,0.191-0.693,0.191-0.693s1.426,1.25,1.702,3.179
			c0.138,0.973,0.06,1.813,0.013,2.162c0.533-0.858,1.032-1.739,1.685-2.917c0.263-0.553,0.413-1.366,0.185-2.539
			c-0.305-1.561-1.098-2.366-1.098-2.366s-0.386,0.87-0.35,2.282c0.04,1.604,0.799,2.86,0.799,2.86s-0.131,0.053-0.299-0.156
			c-0.224-0.315-0.747-1.244-0.813-2.781c-0.072-1.693,0.508-3.079,0.508-3.079s1.159,1.145,1.553,3.017
			c0.246,1.168,0.068,1.995,0.069,1.995c0,0,0.396-0.669,1.425-1.265c1.656-0.959,3.315-0.873,3.315-0.873s-0.559,1.383-1.886,2.439
			c-1.105,0.881-2.041,1.156-2.604,1.204c-0.309,0.052-0.451-0.117-0.451-0.117s1.533-0.262,2.77-1.284
			c1.09-0.899,1.479-1.779,1.479-1.779s-1.139-0.088-2.505,0.724c-1.009,0.599-1.556,1.397-1.857,1.966
			c-0.57,1.074-1.021,1.995-1.511,2.848c0.19-0.181,0.795-0.685,1.902-0.974c1.95-0.508,3.536-0.073,3.536-0.073
			s-0.963,1.199-2.558,2c-1.181,0.593-2.15,0.767-2.943,0.68c-0.351-0.06-0.478-0.272-0.478-0.272s1.34,0.157,3.14-0.666
			c1.354-0.618,1.95-1.452,1.95-1.452s-1.142-0.341-2.742,0.148c-1.23,0.376-2.018,1.076-2.229,1.31
			c-0.06,0.104-0.094,0.162-0.067,0.105c-0.653,1.009-1.459,2.02-2.114,2.792C300.243,65.102,300.867,64.848,301.792,64.777z
			 M271.577,61.038c-0.921-0.031-1.825-0.589-2.335-0.879c-0.152-0.088-0.253-0.209-0.215-0.313
			C269.068,59.74,271.276,60.745,271.577,61.038z M269.822,57.047c-0.845-0.226-1.563-0.935-1.972-1.313
			c-0.124-0.113-0.191-0.246-0.131-0.336C267.777,55.309,269.607,56.711,269.822,57.047z M270.58,56.779
			c-0.044-0.396,0.495-2.639,0.599-2.605c0.101,0.032,0.133,0.178,0.108,0.344C271.207,55.069,271.094,56.072,270.58,56.779z
			 M274.335,55.081c0,0,0.148,0.124,0.142,0.602c0.033,0.137-0.026,0.338,0.253,0.576c0.43,0.368,0.253,0.815,0.451,1.122
			c0.097,0.125,0.318,0.335,0.516,0.449c-0.471,0.256-1.889,2.113-2.087,4.571c0,0-0.635-0.991-0.843-1.288
			C273.524,61.047,274.931,58.457,274.335,55.081z M272.291,60.507c-0.031-0.42,0.618-2.757,0.723-2.72
			c0.106,0.038,0.134,0.192,0.103,0.366C273.012,58.73,272.857,59.781,272.291,60.507z M276.265,58.133
			c0.453,0.204,0.909,0.265,1.21,0.265l0.817,2.521c0,0-1.143,0.589-1.789,1.142C276.733,60.702,276.637,59.203,276.265,58.133z
			 M303.46,58.566c-0.45-0.749-0.476-1.758-0.508-2.314c-0.01-0.168,0.036-0.31,0.14-0.333
			C303.197,55.896,303.538,58.175,303.46,58.566z M304.192,58.899c0.243-0.316,2.188-1.554,2.239-1.46
			c0.05,0.094-0.026,0.221-0.16,0.323C305.83,58.104,305.053,58.748,304.192,58.899z M302.097,62.723
			c0.326-0.267,2.612-1.075,2.642-0.966c0.03,0.107-0.079,0.219-0.24,0.293C303.965,62.295,303.016,62.771,302.097,62.723z"/>
		<path fill="#868686" d="M298.578,66.765c1.544,2.36,2.44,5.175,2.44,8.208c0,8.288-6.719,15.005-15.006,15.005
			s-15.005-6.717-15.005-15.005c0-3.723,1.354-7.13,3.601-9.752c-0.08-0.1-0.281-0.354-0.552-0.717
			c-0.36-0.292-1.167-0.834-2.296-1.053c-1.729-0.337-2.931,0.104-2.931,0.104s0.782,0.787,2.245,1.347
			c1.544,0.591,2.564,0.384,3.222,0.263c0,0.008-0.077,0.259-0.328,0.328l-0.128,0.036c-2.025,2.608-3.233,5.885-3.233,9.443
			c0,8.508,6.897,15.405,15.405,15.405s15.405-6.897,15.405-15.405c0-2.969-0.856-5.766-2.312-8.116
			c-0.113-0.111-0.151-0.261-0.15-0.267c0.644,0.178,1.714,0.479,3.304,0.025c1.505-0.429,2.353-1.146,2.353-1.146
			s-1.157-0.544-2.91-0.359c-1.141,0.12-1.993,0.589-2.379,0.849C298.973,66.353,298.644,66.695,298.578,66.765z M271.506,64.422
			c-0.176-0.061-0.303-0.165-0.283-0.281c0.02-0.117,2.502,0.479,2.872,0.721C273.137,65.015,272.092,64.62,271.506,64.422z
			 M302.179,65.844c0.008,0.118-0.128,0.212-0.308,0.256c-0.601,0.146-1.679,0.447-2.617,0.212
			C299.644,66.102,302.169,65.726,302.179,65.844z"/>
		<path fill="#868686" d="M281.66,84.998c-0.286-0.124-0.559-0.038-0.814,0.258c-0.135,0.158-0.265,0.382-0.392,0.672
			c-0.129,0.298-0.203,0.548-0.227,0.755c-0.04,0.383,0.081,0.638,0.369,0.763c0.284,0.123,0.553,0.039,0.806-0.252
			c0.138-0.159,0.27-0.386,0.397-0.679c0.176-0.405,0.247-0.735,0.216-0.995C281.984,85.262,281.866,85.089,281.66,84.998z"/>
		<path fill="#868686" d="M293.042,83.977c-0.15-0.088-0.312-0.077-0.482,0.035c-0.091,0.062-0.145,0.113-0.157,0.156
			c-0.015,0.04-0.003,0.088,0.032,0.141l0.582,0.88c0.224-0.153,0.364-0.292,0.422-0.416c0.057-0.125,0.014-0.297-0.131-0.516
			C293.218,84.123,293.129,84.03,293.042,83.977z"/>
		<path fill="#868686" d="M288.766,64.362c0.301,0.077,0.553-0.048,0.757-0.375c0.109-0.178,0.206-0.422,0.286-0.733
			c0.11-0.426,0.129-0.766,0.058-1.016c-0.07-0.248-0.215-0.402-0.433-0.459c-0.303-0.078-0.559,0.05-0.764,0.383
			c-0.108,0.176-0.203,0.418-0.281,0.726c-0.081,0.312-0.116,0.571-0.105,0.779C288.303,64.052,288.463,64.284,288.766,64.362z"/>
		<path fill="#868686" d="M296.107,69.507c-0.283,0.262-0.357,0.535-0.223,0.816c0.134,0.28,0.392,0.395,0.773,0.341
			c0.208-0.03,0.456-0.115,0.745-0.254c0.398-0.189,0.671-0.393,0.815-0.607c0.146-0.215,0.171-0.424,0.072-0.626
			c-0.134-0.284-0.395-0.396-0.782-0.341c-0.205,0.03-0.45,0.113-0.735,0.251C296.481,69.226,296.259,69.365,296.107,69.507z"/>
		<path fill="#868686" d="M282.787,63.891c0.19,0.335,0.44,0.469,0.746,0.4c0.303-0.066,0.471-0.294,0.505-0.678
			c0.017-0.209-0.009-0.47-0.079-0.783c-0.096-0.431-0.231-0.74-0.408-0.931s-0.375-0.261-0.595-0.212
			c-0.306,0.067-0.475,0.296-0.507,0.686c-0.017,0.208,0.01,0.466,0.077,0.774C282.596,63.463,282.682,63.71,282.787,63.891z"/>
		<path fill="#868686" d="M294.895,82.076c-0.171-0.044-0.321,0.013-0.452,0.166c-0.073,0.085-0.11,0.149-0.11,0.194
			c-0.002,0.043,0.021,0.085,0.069,0.127l0.803,0.684c0.173-0.209,0.27-0.379,0.291-0.514c0.021-0.138-0.069-0.29-0.268-0.46
			C295.106,82.169,294.995,82.103,294.895,82.076z"/>
		<path fill="#868686" d="M271.501,74.973c0,8.015,6.496,14.511,14.511,14.511c8.016,0,14.512-6.496,14.512-14.511
			s-6.496-14.512-14.512-14.512C277.998,60.461,271.501,66.958,271.501,74.973z M273.892,68.479l0.769,0.329l-0.048,0.11
			c-0.289-0.084-0.52-0.062-0.689,0.066c-0.094,0.073-0.186,0.202-0.272,0.388l2,0.872c0.14,0.06,0.244,0.076,0.311,0.047
			c0.067-0.029,0.134-0.121,0.2-0.275l0.099,0.042l-0.59,1.354l-0.096-0.043c0.064-0.147,0.084-0.257,0.059-0.324
			c-0.025-0.069-0.107-0.135-0.246-0.195l-2-0.87c-0.075,0.188-0.108,0.342-0.1,0.465c0.021,0.226,0.161,0.408,0.422,0.549
			l-0.047,0.11l-0.767-0.337L273.892,68.479z M272.442,77.847l-0.307-1.273l0.104-0.024c0.03,0.1,0.062,0.169,0.095,0.208
			c0.06,0.069,0.143,0.091,0.25,0.064l1.988-0.477c0.104-0.024,0.168-0.08,0.189-0.164c0.014-0.049,0.012-0.127-0.005-0.236
			l0.103-0.024l0.296,1.232c0.119,0.497,0.079,0.908-0.124,1.232c-0.184,0.295-0.48,0.492-0.887,0.589
			c-0.364,0.088-0.702,0.043-1.013-0.135C272.782,78.638,272.552,78.308,272.442,77.847z M274.185,82.134l-1.156-2.129l0.092-0.049
			c0.062,0.101,0.116,0.168,0.165,0.197c0.074,0.047,0.163,0.043,0.268-0.014l1.762-0.956c0.107-0.059,0.159-0.133,0.158-0.223
			c0.001-0.052-0.024-0.134-0.075-0.242l0.092-0.05l1.141,2.1l-0.735,0.397l-0.048-0.089c0.21-0.174,0.327-0.34,0.354-0.498
			c0.025-0.157-0.04-0.383-0.198-0.676c-0.062-0.111-0.112-0.176-0.152-0.193c-0.039-0.017-0.092-0.008-0.161,0.029l-0.842,0.459
			c0.109,0.209,0.224,0.328,0.341,0.36c0.117,0.03,0.29,0.011,0.519-0.063l0.05,0.093l-1.231,0.667l-0.05-0.092
			c0.193-0.138,0.31-0.271,0.351-0.397c0.043-0.125,0.007-0.292-0.105-0.5l-0.882,0.479c-0.078,0.042-0.119,0.091-0.127,0.145
			c-0.006,0.056,0.025,0.145,0.092,0.268c0.127,0.232,0.274,0.398,0.444,0.497c0.171,0.098,0.41,0.137,0.72,0.115l0.055,0.102
			L274.185,82.134z M278.619,86.549l-1.078-0.857l0.065-0.082c0.098,0.074,0.184,0.116,0.256,0.125
			c0.071,0.01,0.146-0.035,0.225-0.133l1.26-1.586l-0.022-0.018l-2.312,1.273l-0.088-0.07l0.685-2.507l-0.015-0.011l-1.167,1.469
			c-0.086,0.107-0.129,0.201-0.129,0.284c0.001,0.08,0.067,0.179,0.201,0.293l-0.065,0.083l-0.759-0.604l0.065-0.082
			c0.124,0.098,0.222,0.14,0.292,0.126c0.072-0.013,0.142-0.062,0.211-0.148l1.223-1.539c0.07-0.089,0.096-0.163,0.075-0.225
			c-0.019-0.062-0.08-0.141-0.181-0.234l0.066-0.083l0.816,0.65l-0.557,2.009l0.028,0.021l1.829-0.995l0.816,0.65l-0.065,0.082
			c-0.117-0.08-0.208-0.118-0.273-0.116c-0.066,0-0.148,0.062-0.248,0.187l-1.14,1.434c-0.096,0.12-0.138,0.214-0.127,0.282
			c0.011,0.069,0.069,0.15,0.176,0.241L278.619,86.549z M281.657,87.617c-0.362,0.136-0.734,0.122-1.117-0.044
			c-0.405-0.176-0.678-0.456-0.816-0.84c-0.127-0.356-0.111-0.717,0.045-1.078c0.173-0.399,0.44-0.671,0.801-0.819
			c0.366-0.149,0.747-0.139,1.146,0.035c0.385,0.167,0.649,0.43,0.795,0.786c0.15,0.367,0.139,0.751-0.034,1.15
			C282.301,87.208,282.029,87.478,281.657,87.617z M285.726,85.974c-0.131,0.005-0.221,0.022-0.271,0.053
			c-0.048,0.029-0.079,0.108-0.096,0.233l-0.318,2.42l-0.115-0.016l-1.518-2.436l-0.028-0.003l-0.212,1.613
			c-0.017,0.126-0.012,0.218,0.017,0.273c0.043,0.092,0.15,0.151,0.318,0.182l-0.013,0.104l-0.932-0.123l0.015-0.104
			c0.153,0.016,0.255,0,0.306-0.048c0.052-0.049,0.084-0.126,0.098-0.231l0.257-1.945c-0.107-0.158-0.174-0.251-0.2-0.278
			c-0.026-0.03-0.064-0.05-0.113-0.063l0.013-0.104l0.87,0.114l1.184,1.917l0.021,0.004l0.16-1.223
			c0.02-0.139,0.006-0.241-0.037-0.307c-0.043-0.067-0.14-0.117-0.29-0.149l0.014-0.104l0.884,0.115L285.726,85.974z
			 M275.766,74.973c0-5.659,4.588-10.248,10.246-10.248c5.659,0,10.247,4.589,10.247,10.248s-4.588,10.248-10.247,10.248
			C280.354,85.221,275.766,80.632,275.766,74.973z M288.487,86.473c-0.066-0.294-0.198-0.483-0.392-0.57
			c-0.109-0.048-0.268-0.064-0.473-0.051l0.208,2.171c0.016,0.152,0.051,0.251,0.108,0.295c0.059,0.045,0.172,0.059,0.34,0.043
			l0.01,0.104l-1.471,0.143l-0.009-0.104c0.159-0.016,0.265-0.052,0.312-0.106c0.049-0.056,0.065-0.159,0.051-0.311l-0.209-2.17
			c-0.2,0.024-0.353,0.07-0.453,0.139c-0.188,0.127-0.279,0.338-0.277,0.635l-0.119,0.011l-0.076-0.832l2.485-0.239l0.083,0.832
			L288.487,86.473z M289.749,88.221l-0.035-0.099c0.11-0.043,0.185-0.086,0.223-0.13c0.057-0.066,0.066-0.155,0.027-0.268
			l-0.67-1.89c-0.04-0.114-0.104-0.179-0.193-0.19c-0.053-0.009-0.136,0.003-0.252,0.036l-0.034-0.099l2.251-0.797l0.279,0.787
			l-0.096,0.033c-0.14-0.233-0.285-0.376-0.437-0.427c-0.151-0.05-0.385-0.021-0.698,0.092c-0.119,0.042-0.192,0.081-0.216,0.118
			c-0.023,0.036-0.021,0.091,0.005,0.165l0.319,0.903c0.225-0.076,0.36-0.17,0.409-0.28c0.049-0.112,0.057-0.285,0.021-0.521
			l0.098-0.036l0.468,1.32l-0.099,0.035c-0.106-0.212-0.219-0.349-0.338-0.409c-0.117-0.061-0.289-0.053-0.511,0.026l0.335,0.946
			c0.03,0.083,0.071,0.132,0.123,0.148c0.054,0.013,0.147-0.003,0.279-0.051c0.249-0.088,0.435-0.208,0.559-0.36
			s0.199-0.383,0.228-0.692l0.109-0.039l0.129,0.869L289.749,88.221z M294.612,85.845l-1.431-0.605l-0.092,0.06l0.448,0.677
			c0.08,0.122,0.155,0.191,0.225,0.207c0.067,0.014,0.164-0.016,0.288-0.092l0.059,0.087l-1.168,0.773l-0.059-0.087
			c0.114-0.084,0.179-0.159,0.196-0.226s-0.016-0.164-0.102-0.292l-1.01-1.527c-0.088-0.134-0.172-0.204-0.25-0.211
			c-0.051-0.005-0.139,0.027-0.264,0.094l-0.06-0.086l1.112-0.736c0.232-0.152,0.434-0.252,0.609-0.298
			c0.341-0.085,0.597-0.002,0.764,0.253c0.124,0.188,0.152,0.382,0.086,0.581c-0.053,0.151-0.129,0.276-0.231,0.378l1.347,0.523
			c0.035,0.014,0.068,0.019,0.095,0.014c0.026-0.006,0.058-0.019,0.09-0.037l0.055,0.082L294.612,85.845z M296.92,83.438
			l-1.544-0.187l-0.071,0.083l0.617,0.527c0.11,0.094,0.202,0.14,0.272,0.136c0.069-0.005,0.153-0.061,0.252-0.168l0.08,0.069
			l-0.909,1.064l-0.079-0.068c0.086-0.11,0.126-0.201,0.126-0.271c-0.002-0.068-0.062-0.153-0.179-0.252l-1.392-1.19
			c-0.122-0.104-0.222-0.147-0.299-0.135c-0.05,0.011-0.126,0.064-0.227,0.165l-0.081-0.068l0.866-1.015
			c0.18-0.21,0.348-0.361,0.503-0.454c0.305-0.176,0.573-0.164,0.805,0.033c0.171,0.146,0.252,0.324,0.242,0.536
			c-0.007,0.158-0.048,0.301-0.119,0.426l1.439,0.133c0.038,0.003,0.071,0,0.095-0.014c0.024-0.013,0.051-0.033,0.077-0.061
			l0.073,0.064L296.92,83.438z M297.756,82.339l-0.095-0.046c0.047-0.109,0.068-0.192,0.065-0.249
			c-0.007-0.088-0.062-0.158-0.169-0.209l-1.811-0.863c-0.11-0.052-0.201-0.051-0.272,0.002c-0.043,0.031-0.093,0.1-0.151,0.204
			l-0.095-0.045l1.028-2.156l0.754,0.36l-0.043,0.092c-0.265-0.067-0.468-0.065-0.611,0.007c-0.143,0.071-0.286,0.256-0.43,0.557
			c-0.055,0.115-0.077,0.193-0.067,0.236c0.008,0.042,0.047,0.079,0.118,0.114l0.866,0.412c0.104-0.212,0.134-0.374,0.091-0.488
			c-0.044-0.113-0.162-0.24-0.355-0.383l0.045-0.094l1.264,0.603l-0.045,0.094c-0.226-0.073-0.401-0.091-0.527-0.049
			c-0.127,0.04-0.24,0.166-0.343,0.379l0.906,0.433c0.08,0.037,0.142,0.043,0.191,0.018c0.048-0.028,0.101-0.105,0.163-0.232
			c0.113-0.238,0.159-0.455,0.138-0.65c-0.019-0.195-0.129-0.411-0.326-0.65l0.047-0.104l0.707,0.522L297.756,82.339z
			 M299.376,77.483c0.057-0.043,0.104-0.136,0.139-0.28l0.103,0.022l-0.312,1.405l-0.104-0.022c0.03-0.152,0.026-0.257-0.01-0.316
			c-0.037-0.06-0.129-0.106-0.276-0.14l-0.595-0.132l-1.506,0.44c-0.101,0.03-0.175,0.077-0.228,0.139
			c-0.032,0.043-0.055,0.09-0.066,0.138l-0.103-0.023l0.301-1.354l0.103,0.023c-0.023,0.141-0.033,0.232-0.028,0.275
			c0.005,0.042,0.027,0.069,0.069,0.077c0.019,0.005,0.04,0.007,0.064,0.004c0.021-0.002,0.064-0.012,0.127-0.026l1.084-0.289
			l0.007-0.034l-0.614-0.592c-0.038-0.037-0.084-0.078-0.141-0.122c-0.086-0.068-0.152-0.106-0.198-0.117
			c-0.071-0.016-0.124,0.003-0.161,0.054c-0.024,0.035-0.055,0.116-0.094,0.245l-0.103-0.022l0.197-0.89l0.103,0.022
			c-0.002,0.067,0,0.122,0.008,0.164c0.014,0.054,0.043,0.104,0.088,0.146l1.086,1.053l0.745,0.165
			C299.217,77.531,299.322,77.526,299.376,77.483z M298.417,69.115c0.18,0.378,0.208,0.749,0.083,1.115
			c-0.126,0.376-0.387,0.657-0.78,0.845c-0.394,0.188-0.775,0.213-1.148,0.074c-0.362-0.134-0.635-0.389-0.813-0.765
			c-0.19-0.4-0.213-0.789-0.066-1.169c0.139-0.354,0.386-0.616,0.742-0.786c0.391-0.187,0.773-0.218,1.142-0.093
			C297.95,68.464,298.231,68.723,298.417,69.115z M296.646,66.295c0.11,0.134,0.196,0.289,0.258,0.467
			c0.064,0.177,0.103,0.273,0.114,0.288c0.034,0.04,0.077,0.061,0.127,0.059c0.053,0,0.098-0.013,0.137-0.034l0.073,0.089
			l-0.747,0.615l-0.066-0.079c0.098-0.212,0.162-0.396,0.188-0.554c0.05-0.292-0.004-0.533-0.16-0.723
			c-0.177-0.215-0.394-0.29-0.654-0.228c-0.259,0.062-0.543,0.222-0.854,0.479c-0.229,0.188-0.396,0.37-0.499,0.545
			c-0.195,0.327-0.183,0.626,0.038,0.894c0.137,0.164,0.309,0.28,0.516,0.346c0.121,0.038,0.284,0.063,0.492,0.077v0.16
			c-0.241-0.01-0.434-0.037-0.573-0.08c-0.251-0.077-0.461-0.218-0.632-0.425c-0.26-0.314-0.384-0.656-0.372-1.023
			c0.012-0.407,0.194-0.756,0.544-1.045c0.348-0.286,0.723-0.406,1.125-0.358C296.076,65.811,296.392,65.987,296.646,66.295z
			 M294.364,64.109l1.084,0.96l-0.069,0.079c-0.101-0.081-0.177-0.129-0.229-0.144c-0.088-0.022-0.174,0.014-0.255,0.106l-1.33,1.5
			c-0.076,0.089-0.104,0.167-0.081,0.24c0.022,0.071,0.082,0.151,0.18,0.236l-0.069,0.079l-1.087-0.96l0.072-0.079
			c0.088,0.076,0.162,0.122,0.217,0.137c0.091,0.022,0.177-0.013,0.258-0.104l1.33-1.501c0.081-0.092,0.104-0.181,0.074-0.265
			c-0.02-0.051-0.074-0.12-0.164-0.206L294.364,64.109z M290.859,63.607c0.208-0.354,0.5-0.587,0.872-0.695
			c0.385-0.109,0.76-0.057,1.129,0.16c0.148,0.087,0.278,0.202,0.392,0.343c0.114,0.142,0.189,0.223,0.226,0.244
			c0.038,0.022,0.078,0.027,0.116,0.015c0.039-0.013,0.082-0.042,0.13-0.088l0.099,0.059l-0.491,0.835l-0.091-0.054
			c0.021-0.232,0.017-0.427-0.011-0.584c-0.054-0.291-0.188-0.5-0.397-0.624c-0.23-0.136-0.457-0.135-0.681,0.003
			c-0.225,0.138-0.442,0.388-0.656,0.75c-0.176,0.298-0.283,0.593-0.322,0.884c-0.038,0.29,0.084,0.52,0.365,0.684
			c0.151,0.09,0.272,0.118,0.363,0.085c0.05-0.018,0.098-0.063,0.141-0.137l0.222-0.376c0.064-0.109,0.071-0.199,0.026-0.271
			c-0.031-0.047-0.111-0.109-0.241-0.189l0.053-0.09l1.225,0.721l-0.053,0.09c-0.126-0.066-0.224-0.091-0.291-0.069
			c-0.064,0.021-0.134,0.093-0.207,0.216l-0.269,0.455c-0.107,0.002-0.264-0.023-0.469-0.079c-0.206-0.056-0.418-0.147-0.636-0.276
			c-0.396-0.232-0.64-0.545-0.73-0.935C290.588,64.317,290.652,63.96,290.859,63.607z M287.668,62.724
			c0.108-0.421,0.329-0.731,0.663-0.934c0.338-0.205,0.716-0.254,1.137-0.146c0.405,0.104,0.709,0.322,0.908,0.652
			c0.206,0.34,0.255,0.72,0.146,1.142c-0.108,0.422-0.336,0.73-0.681,0.928c-0.336,0.191-0.706,0.235-1.111,0.131
			c-0.427-0.111-0.739-0.345-0.936-0.699C287.611,63.463,287.57,63.105,287.668,62.724z M284.844,63.955
			c0.112-0.004,0.193-0.018,0.242-0.043c0.082-0.042,0.125-0.124,0.125-0.246l0.019-2.005c0.001-0.121-0.037-0.204-0.116-0.246
			c-0.045-0.025-0.128-0.042-0.248-0.051l0.001-0.104l1.449,0.012l-0.001,0.105c-0.169,0.004-0.282,0.026-0.338,0.068
			c-0.057,0.041-0.085,0.145-0.086,0.309l-0.019,1.957c0,0.091,0.023,0.152,0.069,0.183c0.049,0.03,0.144,0.045,0.282,0.047
			c0.249,0.002,0.458-0.051,0.628-0.158c0.172-0.109,0.319-0.322,0.446-0.641l0.12,0.002l-0.176,0.937l-2.399-0.021L284.844,63.955z
			 M281.977,62.196c0.208-0.336,0.524-0.552,0.947-0.646c0.408-0.091,0.777-0.034,1.105,0.17c0.338,0.208,0.554,0.524,0.647,0.95
			c0.095,0.426,0.033,0.804-0.185,1.136c-0.213,0.323-0.522,0.53-0.931,0.62c-0.432,0.096-0.816,0.03-1.151-0.198
			c-0.315-0.215-0.515-0.515-0.601-0.899C281.717,62.905,281.772,62.527,281.977,62.196z M279.375,62.977l2.053,0.927l0.019-0.009
			l-0.549-1.103c-0.064-0.126-0.131-0.204-0.203-0.234c-0.073-0.03-0.181-0.018-0.324,0.04l-0.047-0.094l0.799-0.398l0.047,0.094
			c-0.106,0.077-0.171,0.143-0.195,0.194c-0.022,0.052-0.005,0.135,0.052,0.248l1.09,2.185l-0.104,0.051l-2.62-1.169l-0.026,0.013
			l0.726,1.456c0.058,0.113,0.112,0.186,0.167,0.217c0.088,0.052,0.21,0.042,0.366-0.028l0.047,0.095l-0.841,0.419l-0.046-0.095
			c0.135-0.071,0.211-0.143,0.228-0.211c0.015-0.069-0.002-0.151-0.05-0.247l-0.875-1.757c-0.177-0.069-0.284-0.109-0.321-0.118
			c-0.038-0.009-0.081-0.005-0.131,0.012l-0.047-0.095L279.375,62.977z M277.06,64.553c0.126-0.117,0.276-0.21,0.451-0.282
			c0.173-0.072,0.267-0.116,0.281-0.129c0.039-0.036,0.056-0.079,0.053-0.13c-0.005-0.052-0.019-0.097-0.042-0.136l0.085-0.077
			l0.655,0.715l-0.078,0.07c-0.216-0.087-0.403-0.141-0.562-0.16c-0.295-0.034-0.531,0.032-0.713,0.198
			c-0.205,0.188-0.27,0.41-0.194,0.666c0.076,0.255,0.249,0.531,0.522,0.828c0.2,0.219,0.391,0.376,0.571,0.471
			c0.337,0.178,0.633,0.148,0.89-0.086c0.157-0.145,0.264-0.321,0.318-0.534c0.031-0.122,0.048-0.286,0.052-0.494l0.158-0.008
			c0.004,0.242-0.013,0.435-0.049,0.576c-0.062,0.254-0.193,0.472-0.39,0.653c-0.301,0.275-0.637,0.417-1.004,0.425
			c-0.407,0.009-0.766-0.153-1.072-0.489c-0.304-0.332-0.442-0.7-0.416-1.104C276.604,65.147,276.765,64.823,277.06,64.553z
			 M274.95,67.434l0.78,0.558c0.14-0.191,0.198-0.345,0.174-0.464c-0.023-0.12-0.116-0.266-0.282-0.438l0.061-0.086l1.14,0.814
			l-0.061,0.084c-0.21-0.111-0.38-0.159-0.511-0.141c-0.132,0.018-0.267,0.122-0.403,0.315l0.816,0.582
			c0.071,0.051,0.134,0.067,0.186,0.051c0.053-0.02,0.12-0.088,0.201-0.201c0.152-0.215,0.236-0.42,0.25-0.617
			c0.014-0.195-0.057-0.427-0.211-0.696l0.067-0.095l0.604,0.638l-1.407,1.973l-0.086-0.062c0.065-0.099,0.102-0.176,0.107-0.233
			c0.011-0.087-0.034-0.166-0.13-0.235l-1.633-1.164c-0.099-0.07-0.188-0.086-0.269-0.045c-0.048,0.022-0.108,0.081-0.185,0.174
			l-0.086-0.061l1.387-1.944l0.68,0.486l-0.057,0.082c-0.248-0.112-0.45-0.146-0.604-0.099c-0.152,0.044-0.325,0.202-0.519,0.474
			c-0.074,0.104-0.11,0.177-0.109,0.222C274.853,67.346,274.885,67.389,274.95,67.434z"/>
		<path fill="#868686" d="M273.984,78.271c0.285-0.068,0.52-0.168,0.703-0.301c0.298-0.213,0.408-0.478,0.332-0.794
			c-0.025-0.106-0.063-0.168-0.116-0.189c-0.033-0.014-0.092-0.011-0.176,0.01l-1.982,0.475c-0.082,0.024-0.137,0.053-0.168,0.09
			c-0.03,0.035-0.035,0.098-0.014,0.186c0.058,0.238,0.189,0.415,0.394,0.526C273.163,78.388,273.505,78.386,273.984,78.271z"/>
		<path fill="#868686" d="M288.266,79.194c0.281-0.113,1.09-1.864,1.025-1.974C288.797,77.593,288.231,78.92,288.266,79.194z"/>
		<path fill="#868686" d="M288.494,79.367l0.562,0.249l0.04-0.212c0.175-0.156,0.503-0.682,0.503-0.682l1.224,0.667l0.098-0.176
			l-1.233-0.664c0.139-0.317,0.242-0.594,0.285-0.844l0.095-0.109l-0.52-0.283C289.454,77.927,288.921,78.953,288.494,79.367z"/>
		<path fill="#868686" d="M290.676,79.629l-0.847-0.476l0.49,1.1C290.32,80.253,290.616,79.776,290.676,79.629z"/>
		<path fill="#868686" d="M291.587,77.772l-1.56,0.66l1.004,0.539C291.032,78.972,291.52,77.967,291.587,77.772z"/>
		<path fill="#868686" d="M288.437,82.768l0.562-2.905l-1.488,3.521C287.854,83.321,288.437,82.768,288.437,82.768z"/>
		<polygon fill="#868686" points="287.257,81.231 287.575,81.386 288.594,79.708 288.552,79.688 287.282,81.135 		"/>
		<polygon fill="#868686" points="286.993,82.357 287.435,81.624 287.197,81.503 		"/>
		<path fill="#868686" d="M288.661,84.385c0.791-0.203,1.552-0.577,1.552-0.577l-0.749-0.361
			C289.366,83.123,288.756,84.066,288.661,84.385z"/>
		<path fill="#868686" d="M290.313,82.445l1.159,0.569c0.063-0.592,0.594-1.505,1.01-1.656l-1.121-0.611
			C291.091,80.786,290.414,81.722,290.313,82.445z"/>
		<path fill="#868686" d="M294.057,78.303l-1.122-0.655c0,0-0.913,0.796-0.88,1.821l1.132,0.611
			C293.121,79.384,293.686,78.588,294.057,78.303z"/>
		<path fill="#868686" d="M293.321,76.327l0.977,0.596c-0.029-0.338,0.172-0.819,0.572-1.363l-1.039-0.674
			C293.831,74.886,293.09,75.869,293.321,76.327z"/>
		<path fill="#868686" d="M293.932,73.814l0.728,0.484c0,0,0.046-0.215,0.279-0.634l-0.947-0.645
			C293.822,73.281,293.438,74.207,293.932,73.814z"/>
		<path fill="#868686" d="M293.868,72.304l-0.299-0.203c0,0-0.223,0.53-0.157,0.562C293.488,72.701,293.868,72.304,293.868,72.304z"
			/>
		<path fill="#868686" d="M290.336,77.287l2.067-2.35c0.017-0.365-0.021-0.646-0.147-0.83L290.336,77.287z"/>
		<path fill="#868686" d="M290.999,74.534c-0.196,0.129-0.789,0.83-0.789,0.83l0.351,0.207L290.999,74.534z"/>
		<polygon fill="#868686" points="289.802,77.137 289.882,77.18 290.473,75.784 290.113,75.576 		"/>
		<path fill="#868686" d="M292.906,77.306l1.301,0.76l0.26-0.718l-1.329-0.802c-0.459-0.273,0.275-1.632,0.625-2.019l1.218,0.779
			l0.055-0.458l-1.112-0.734c-0.317,0.168-0.893,0.012-0.007-1.411l1.031,0.701l-0.06-0.213l-0.969-0.662
			c-0.261,0.335-1.049,0.705-0.535-0.499l-0.16-0.038c-0.578,0.743-0.762,0.685-0.612,0.177l-0.357,0.19
			c-0.016,0.101-0.606,1.058-0.701,0.591l-0.376,0.356c-0.067,0.212-0.573,1.055-0.749,0.873l-0.381,0.481
			c-0.12,0.422-0.552,1.044-0.729,1.038l-0.341,0.543c-0.075,0.302-0.396,0.988-0.682,1.159l-0.317,0.578
			c0.03,0.261-0.397,1.061-0.587,1.21l-0.076,0.173c0.352,0.465,0.184,0.83,0.056,1.37l0.997-1.129l-0.258-0.127
			c-0.489-0.284,0.84-2.734,1.299-2.547l0.201,0.107l0.338-1.683c0.401-0.49,1.193-1.311,1.527-1.435l-1.341,3.182l2.069-3.43
			c0.478,0.368,0.494,0.857,0.466,1.378l-2.464,2.797c-0.017,0.098-0.05,0.238-0.05,0.238l1.956-0.836
			c-0.291,0.729-1.009,2.297-1.815,3.566l-0.724-1.571c-0.099,0.145-0.227,0.285-0.227,0.285l-0.671,3.382
			c-0.812,0.862-1.587,0.796-1.587,0.796l1.537-3.651l-1.778,2.936l-0.402,1.737c0,0,1.154-0.066,1.885-0.263
			c0.236-0.644,0.873-1.732,1.334-1.225l0.873,0.412c0,0,0.486-0.257,0.743-0.434l-1.266-0.615c0.069-0.754,0.647-1.979,1.395-2.146
			l1.32,0.716l0.428-0.793l-1.328-0.726C291.575,78.966,292.251,77.792,292.906,77.306z"/>
		<path fill="#868686" d="M286.237,79.928c0-0.099-0.042-0.195-0.123-0.285l-0.365,0.824
			C286.054,80.314,286.237,80.13,286.237,79.928z"/>
		<path fill="#868686" d="M285.124,80.685c0.119-0.027,0.227-0.059,0.33-0.094l1.97-4.491l-0.811,0.255l2.689-6.188l-1.222,0.387
			l1.946-4.474c-0.889-0.394-1.588-0.544-1.702-0.572l-1.745,6.338l0.65-0.208l-1.546,5.623l0.392-0.124L285.124,80.685z"/>
		<path fill="#868686" d="M284.725,80.764c0.051-0.009,0.104-0.017,0.152-0.026l0.555-2.079c-0.125-0.036-0.361-0.067-0.505-0.095
			L284.725,80.764z"/>
		<path fill="#868686" d="M283.536,78.225l-0.888-2.153v-3.443c0,0,0.083-0.127,0.092-0.215c0.026-0.296-0.571-0.454-1.062-0.449
			c-0.319,0.003-1.018,0.064-0.856,0.38c0.091,0.179,0.601,0.255,0.949,0.238c0.361-0.017,0.678-0.188,0.678-0.188
			s0.087-0.03,0.125,0.062c0.038,0.096-0.069,0.139-0.069,0.139s-0.339,0.184-0.866,0.192c-0.411,0.008-0.866-0.086-1.019-0.376
			c-0.019-0.037-0.02-0.105-0.022-0.104c-0.101,0.043-0.12,0.202-0.037,0.285c0.084,0.082,0.063,0.172,0.063,0.172v3.304
			l-1.999,5.194c0.568,0.691,1.419,1.473,2.106,1.88l-0.794-3.058C279.795,78.903,281.944,78.219,283.536,78.225z"/>
		<path fill="#868686" d="M284.106,81.67c-0.068,0-0.126-0.058-0.126-0.127c0-0.068,0.056-0.125,0.125-0.125
			c1.771-0.077,3.141-0.701,3.141-1.46c0-0.372-0.258-0.691-0.852-0.972l-0.178,0.417c0.191,0.158,0.301,0.339,0.301,0.531
			c0,0.646-1.242,1.172-2.776,1.172c-1.531,0-2.773-0.525-2.773-1.172c0-0.53,0.848-0.98,1.988-1.126
			c0.072,0,0.122,0.059,0.122,0.129s-0.052,0.119-0.122,0.128c-1.002,0.119-1.719,0.459-1.719,0.862c0,0.502,1.12,0.909,2.5,0.909
			c0.086,0,0.174-0.002,0.259-0.005l-0.022-2.35c-2.199-0.034-3.768,0.655-3.768,1.469c0,0.673,1.079,1.239,2.559,1.414
			c0.072,0.007,0.117,0.058,0.117,0.126c0,0.071-0.047,0.129-0.124,0.126c-0.816-0.107-1.69-0.347-2.338-0.821l0.623,2.531
			c1.584,1.008,3.49,1.422,5.101,1.406l0.922-3.947C286.575,81.22,285.419,81.604,284.106,81.67z"/>
		<path fill="#868686" d="M283.684,69.237l0.033,3.788l0.398-0.126l0.1,7.919c0.091-0.006,0.18-0.013,0.266-0.022l0.893-9.019
			l-1.021,0.338l0.411-4.145l-0.554,0.182l0.283-2.778c-0.882,0.157-1.341,0.316-1.341,0.316l0.045,3.703L283.684,69.237z"/>
		<path fill="#868686" d="M279.741,70.517c0,0,0.009-0.051,0.02-0.083c0.031-0.091,0.135-0.103,0.133-0.208
			c-0.002-0.181-0.312-0.204-0.686-0.206c-0.219-0.003-0.535,0.017-0.748,0.083c-0.163,0.053-0.343,0.127-0.341,0.209
			c0.001,0.114,0.342,0.165,0.58,0.185c0.229,0.021,0.411-0.017,0.586-0.077c0.099-0.033,0.157-0.077,0.216-0.058
			c0.032,0.014,0.056,0.038,0.068,0.077c0.013,0.045-0.018,0.097-0.061,0.115c-0.245,0.108-0.475,0.154-0.786,0.145
			c-0.233-0.007-0.434-0.044-0.589-0.112c-0.095-0.04-0.11-0.068-0.162-0.109c-0.054-0.045-0.066,0.022-0.066,0.022v0.822
			c0.222,0.194,0.507,0.213,0.507,0.213c0.078,0.007,0.14,0.062,0.138,0.143c-0.003,0.086-0.086,0.147-0.144,0.145
			c0,0-0.279-0.019-0.501-0.214v0.717c0.222,0.194,0.507,0.212,0.507,0.212c0.078,0.006,0.14,0.063,0.138,0.143
			c-0.003,0.087-0.086,0.148-0.144,0.145c0,0-0.279-0.019-0.501-0.213v0.716c0.222,0.193,0.507,0.213,0.507,0.213
			c0.078,0.006,0.14,0.062,0.138,0.144c-0.003,0.084-0.086,0.146-0.144,0.143c0,0-0.279-0.018-0.501-0.212v0.721
			c0.222,0.193,0.507,0.206,0.507,0.206c0.078,0.008,0.14,0.064,0.138,0.144c-0.003,0.087-0.086,0.148-0.144,0.145
			c0,0-0.279-0.018-0.501-0.213v0.717c0.222,0.193,0.507,0.212,0.507,0.212c0.078,0.006,0.14,0.062,0.138,0.143
			c-0.003,0.086-0.086,0.147-0.144,0.143c0,0-0.279-0.018-0.501-0.211v0.715c0.222,0.194,0.507,0.213,0.507,0.213
			c0.078,0.007,0.14,0.062,0.138,0.143c-0.003,0.086-0.086,0.148-0.144,0.144c0,0-0.279-0.018-0.501-0.213v0.719
			c0.222,0.194,0.507,0.21,0.507,0.21c0.078,0.008,0.14,0.063,0.138,0.144c-0.003,0.086-0.086,0.148-0.144,0.144
			c0,0-0.279-0.019-0.501-0.213v0.714c0.222,0.194,0.507,0.215,0.507,0.215c0.078,0.006,0.14,0.063,0.138,0.142
			c-0.003,0.088-0.086,0.149-0.144,0.145c0,0-0.279-0.018-0.501-0.212v0.715c0.222,0.194,0.507,0.214,0.507,0.214
			c0.078,0.006,0.14,0.062,0.138,0.142c-0.003,0.086-0.086,0.149-0.144,0.145c0,0-0.279-0.018-0.501-0.213v0.669
			c0.172,0.273,0.508,0.693,0.508,0.693l1.325-3.454L279.741,70.517z"/>
		<path fill="#868686" d="M291.198,59.611c-0.159,0.11-0.301,0.253-0.424,0.399c0.36,0.115,0.715,0.242,1.064,0.382
			C291.658,60.057,291.442,59.772,291.198,59.611z"/>
		<path fill="#868686" d="M277.479,56.951c0.277-0.137,0.615-0.289,1.051-0.653c0.562-0.197,0.896-0.319,0.979-0.599
			c0.043-0.12,0.01-0.34-0.196-0.437c-0.31-0.061-0.93,0.11-1.136,0.17c-0.174,0.051-0.812,0.402-1.126,0.597
			c-0.42,0.258-0.669-0.338-0.3-0.353c0.335-0.137,0.812-0.39,1.374-0.703c0.159-0.077,0.456-0.071,0.649-0.091
			c0.314-0.03,0.545-0.02,0.631-0.115c0.106-0.103,0.1-0.441-0.034-0.562c-0.311-0.177-0.782-0.123-1.341-0.185
			c-0.439,0.038-0.844,0.368-1.634,0.7c-0.229,0.038-0.496-0.395-0.086-0.463c0.289-0.047,0.673-0.326,1.556-0.686
			c0.225-0.095,0.651,0.083,1.044,0.131c0.129,0.017,0.276,0.052,0.375,0.02c0.23-0.158,0.14-0.534,0.071-0.615
			c-0.23-0.316-1.279-0.425-1.569-0.487c-0.3-0.064-1.188,0.489-1.401,0.577c-0.097,0.039-0.151,0.077-0.307,0.101
			c-0.114-0.019-0.294-0.295,0.12-0.433c0.616-0.223,1.098-0.634,1.391-0.696c0.051-0.011,0.11-0.008,0.216,0.017
			c0.052-0.303,0.389-0.752,0.389-0.752c-0.373-0.152-0.738-0.27-0.965-0.252c-0.229,0.019-0.912,0.465-1.268,0.674
			c-0.155,0.091-0.398,0.146-0.633,0.236c-0.179,0.089-0.476,0.245-0.604,0.663c-0.108,0.551,0.203,0.43,0.021,1.088
			c-0.157,0.42,0.008,0.674,0.389,1.003c0.203,0.212-0.155,0.562,0.117,0.908c0.16,0.216,0.506,0.276,0.525,0.53
			c0.023,0.421-0.098,0.643,0.286,0.872c0.494,0.373,0.75,0.441,1.573,0.543c0.014,0.002-0.147-0.13-0.248-0.249
			C277.33,57.336,277.174,57.1,277.479,56.951z"/>
		<path fill="#868686" d="M274.939,64.847c1.142-1.249,2.5-2.306,4.003-3.111c-0.032-0.099-0.075-0.23-0.125-0.387
			c-1.11,0.589-2.132,1.297-3.061,2.129c-0.139,0.31-0.273,0.504-0.366,0.618c-0.161,0.199-0.385,0.187-0.385,0.187
			s0.796-1.263,0.918-2.866c0.112-1.483-0.241-2.42-0.241-2.42s-0.878,0.803-1.284,2.428c-0.313,1.258-0.062,2.454,0.026,2.753
			C274.64,64.465,274.833,64.712,274.939,64.847z M275.2,61.37c0.109,0.028,0.15,0.18,0.134,0.354
			c-0.054,0.585-0.117,1.646-0.618,2.417C274.649,63.728,275.091,61.342,275.2,61.37z"/>
		<path fill="#868686" d="M280.525,61.002c-0.138-0.59-1.05-4.788-1.05-4.788c-0.169,0.156-0.704,0.381-0.852,0.431
			c-0.386,0.29-0.375,0.273-0.815,0.511c0,0,1.138,3.571,1.409,4.434C279.642,61.373,280.079,61.178,280.525,61.002z"/>
		<path fill="#868686" d="M297.993,59.549c-1.917,0.082-3.248-0.475-3.95-0.491c-1.067-0.025-1.894,0.173-2.378,0.433
			c0.27,0.312,0.498,0.566,0.718,1.133c0.021,0.01,0.043,0.018,0.064,0.027c1.812-0.694,3.235-0.071,5.212-0.045
			C297.784,60.103,297.917,59.737,297.993,59.549z"/>
		<path fill="#868686" d="M299.251,62.86c-0.18-1.141-0.619-1.911-0.875-2.279c-0.114-0.166-0.192-0.25-0.192-0.25
			s-0.039,0.092-0.101,0.268c-0.129,0.371-0.339,1.11-0.352,2.12c-0.017,1.609,0.665,2.937,0.665,2.937s-0.222-0.007-0.366-0.22
			c-0.05-0.073-0.114-0.18-0.182-0.322c-1.435-1.722-3.234-3.121-5.284-4.086c-0.127,0.044-0.266,0.095-0.399,0.15
			c-0.043-0.132-0.089-0.264-0.143-0.393c-0.464-0.196-0.953-0.375-1.44-0.526c-0.091,0.131-0.163,0.253-0.217,0.35
			c3.251,0.984,6.037,3.041,7.94,5.761c0.1-0.113,0.386-0.439,0.68-0.768C299.1,65.312,299.455,64.142,299.251,62.86z
			 M298.698,65.541c-0.432-0.813-0.402-1.875-0.404-2.462c-0.002-0.176,0.054-0.323,0.164-0.342
			C298.568,62.718,298.801,65.134,298.698,65.541z"/>
		<path fill="#868686" d="M278.487,52.42c0.649,0.241,1.007-0.152,1.107-0.288c0.104-0.136,0.245,0.158,0.043,0.424
			c-0.012,0.017-0.137,0.119-0.136,0.118c-0.062,0.042-0.111,0.062-0.146,0.069c0.025,0.006,0.05,0.011,0.093,0.034
			c0.115,0.07,0.292,0.308,0.282,0.64c-0.01,0.139-0.016,0.353-0.203,0.518c0.13,0.109,0.274,0.319,0.248,0.565
			c-0.01,0.241-0.046,0.435-0.233,0.529c0.229,0.146,0.341,0.587,0.209,0.864l0.191,0.865c0.037-0.042,0.073-0.084,0.102-0.126
			c0.214-0.303,0.264-0.459,0.384-0.402c0.077,0.225-0.073,0.625-0.406,0.92c0,0,0.602,2.794,0.812,3.733
			c1.06-0.391,2.168-0.66,3.323-0.803c-0.315-0.416-0.59-0.755-0.804-1.087c-0.494-0.767-0.903-1.528-1.056-1.984
			c-0.153-0.455-0.264-0.855-1.006-1.76c-0.019-0.023-0.033-0.045-0.046-0.066c-0.078,0.123-0.147,0.215-0.179,0.248
			c-0.213,0.218-0.491,0.135-0.283-0.114c0.26-0.311,0.547-0.859,0.467-1.397c-0.14-0.942-0.188-1.739-0.498-2.106
			c-0.243-0.285-0.608-0.739-0.897-1.108c-0.145-0.186-0.73-0.275-0.924,0.113c-0.132,0.262-0.264,0.588-0.697,1.153
			C278.024,52.245,278.269,52.339,278.487,52.42z"/>
		<path fill="#868686" d="M280.991,51.562c0.375,0.407,0.435,1.067,0.536,2.015c0.037,0.339,0.067,0.713-0.016,1.016
			c-0.02,0.075-0.046,0.152-0.075,0.224c0.224,0.424,0.562,0.712,0.842,1.209c-0.124-1.242-0.478-4.711-0.823-7.212
			c0,0-0.258,0.242-0.498,0.402c-0.312,0.208-0.623,0.346-0.623,0.346s0.135,0.794,0.3,1.567
			C280.833,51.37,280.991,51.562,280.991,51.562z"/>
		<path fill="#868686" d="M289.987,60.499c0.147-0.254,0.305-0.646,0.761-1c0,0.007-0.831-0.385-1.895-0.363
			c-1.299,0.026-2.741,0.363-3.754,0.363c-0.636,0-0.785,0.018-0.936,0.01c0.128,0.168,0.263,0.344,0.403,0.527
			c0.477-0.046,0.962-0.067,1.451-0.067C287.395,59.969,288.721,60.152,289.987,60.499z"/>
		<path fill="#868686" d="M299.94,59.129c-0.009-0.522,0.031-0.998,0.092-1.424c-0.244-0.82-0.533-1.832-0.828-2.999
			c-0.69-2.387-1.171-5.209-1.171-5.209s-0.453-0.006-0.694-0.204c0.001,0.001,1.151,5.302,2.403,9.627
			C299.747,58.933,299.831,59.019,299.94,59.129z"/>
		<path fill="#868686" d="M278.024,49.761c-0.344,0.032-0.792,0.123-1.239,0.251c-0.434,0.125-0.827,0.275-1.137,0.428l0.316,0.978
			c0.635-0.4,1.151-0.619,1.382-0.602c0.274,0.02,0.787,0.21,0.964,0.294c0.007-0.009,0.013-0.018,0.017-0.026L278.024,49.761z"/>
		<path fill="#868686" d="M277.341,47.934c0.188,0.617,0.06,1.218-0.28,1.537c0.447-0.108,0.753-0.147,1.066-0.151
			c-0.29-0.184-0.543-0.708-0.624-1.419c-0.083-0.716,0.06-1.145,0.322-1.277c-0.33-0.074-0.902-0.013-1.63,0.174
			C276.626,46.853,277.146,47.295,277.341,47.934z"/>
		<path fill="#868686" d="M275.43,47.018c-0.657,0.221-1.053,0.446-1.288,0.661c0.297,0.022,0.669,0.314,0.933,0.971
			c0.265,0.663,0.257,1.232,0.099,1.551c0.262-0.17,0.638-0.343,1.093-0.498C274.77,49.211,274.904,47.361,275.43,47.018z"/>
		<path fill="#868686" d="M275.395,48.499c0.191,0.639,0.707,1.058,1.151,0.937c0.442-0.121,0.646-0.736,0.453-1.374
			c-0.191-0.638-0.707-1.057-1.15-0.936C275.406,47.246,275.203,47.861,275.395,48.499z M275.816,47.684
			c0.226-0.102,0.532-0.04,0.721,0.377c0.164,0.358,0.089,0.741-0.158,0.854c-0.247,0.111-0.584-0.018-0.734-0.451
			C275.514,48.093,275.637,47.766,275.816,47.684z"/>
		<path fill="#868686" d="M278.647,48.303c0.06-0.012,0.1-0.237,0.06-0.467c-0.038-0.229-0.146-0.362-0.226-0.339
			c-0.082,0.023-0.178,0.187-0.14,0.416C278.379,48.142,278.477,48.337,278.647,48.303z"/>
		<path fill="#868686" d="M274.001,47.983c-0.156,0.051-0.22,0.289-0.203,0.628c0.015-0.037,0.067-0.072,0.112-0.086
			c0.23-0.07,0.488,0.223,0.564,0.512c0.091,0.345,0.052,0.648-0.179,0.72c-0.043,0.014-0.087,0.017-0.133,0.01
			c0.22,0.314,0.473,0.464,0.643,0.409c0.243-0.079,0.253-0.55,0.041-1.206C274.633,48.312,274.246,47.904,274.001,47.983z"/>
		<path fill="#868686" d="M274.226,49.058c-0.086-0.216-0.242-0.337-0.351-0.27c-0.037,0.022-0.06,0.064-0.074,0.116
			c-0.024,0.097-0.007,0.231,0.048,0.372c0.057,0.144,0.212,0.348,0.359,0.277C274.323,49.498,274.31,49.273,274.226,49.058z"/>
		<path fill="#868686" d="M277.824,48.031c0.112,0.638,0.379,1.104,0.599,1.064c0.143-0.024,0.24-0.265,0.261-0.591
			c-0.024,0.013-0.072,0.024-0.101,0.03c-0.238,0.036-0.432-0.224-0.501-0.574c-0.068-0.352,0.024-0.631,0.264-0.669
			c0.037-0.005,0.085-0.005,0.119,0.001c-0.123-0.293-0.296-0.466-0.436-0.441C277.809,46.89,277.711,47.395,277.824,48.031z"/>
		<path fill="#868686" d="M276.272,48.733c0.147-0.068,0.195-0.311,0.104-0.543c-0.092-0.231-0.286-0.363-0.436-0.296
			c-0.148,0.068-0.195,0.312-0.104,0.544C275.928,48.67,276.123,48.802,276.272,48.733z"/>
	</g>
	<g>
		<polygon fill="none" points="354.093,69.838 354.093,69.838 354.092,69.838 		"/>
		<polygon fill="#868686" points="346.241,68.175 341.534,61.903 339.69,61.903 339.674,71.204 341.55,71.204 341.55,65.031 
			346.256,71.22 348.085,71.22 348.085,61.937 346.241,61.937 		"/>
		<path fill="#868686" d="M354.54,75.221h-0.724c-2.526,0-4.593,2.067-4.593,4.593v0.608c0,2.526,2.066,4.592,4.593,4.592h0.723
			c2.527,0,4.593-2.065,4.593-4.592v-0.608C359.131,77.288,357.066,75.221,354.54,75.221z M356.959,80.508
			c0,1.592-1.252,2.893-2.782,2.893s-2.782-1.301-2.782-2.893l0.001-0.766c0-1.591,1.251-2.893,2.781-2.893s2.782,1.303,2.782,2.893
			V80.508z"/>
		<path fill="#868686" d="M338.333,69.077c-0.657,0.633-1.56,1.023-2.556,1.023c-2,0-3.63-1.583-3.63-3.523
			c0-1.941,1.63-3.524,3.63-3.524c0.986,0,1.882,0.384,2.537,1.006l-0.008-1.858c-2.995-0.846-5.057-0.687-6.764,0.823
			c-2.026,1.788-2.011,5.322,0,7.062c1.726,1.493,3.495,1.662,6.796,0.839L338.333,69.077z"/>
		<polygon fill="#868686" points="342.419,82.263 339.675,75.43 336.684,75.43 336.684,84.691 338.549,84.711 338.549,77.472 
			341.469,84.711 343.317,84.711 346.272,77.454 346.272,84.691 348.085,84.691 348.085,75.466 345.093,75.466 		"/>
		<path fill="#868686" d="M353.731,71.45h0.725c2.525,0,4.592-2.066,4.592-4.593V66.25c0-2.526-2.066-4.593-4.592-4.593h-0.725
			h-0.001c-2.526,0-4.591,2.066-4.591,4.593l-0.001,0.607C349.138,69.384,351.206,71.45,353.731,71.45z M351.311,66.18
			c0-1.591,1.251-2.894,2.781-2.894h0.001c1.529,0,2.78,1.303,2.78,2.894l0.001,0.766c0,1.59-1.252,2.892-2.782,2.893h0h-0.001h0
			c-1.531,0-2.782-1.303-2.782-2.893V66.18z"/>
		<path fill="#868686" d="M322.407,71.188h7.242c-0.362-0.516-0.593-1.032-0.69-1.548c-1.576,0-3.15,0-4.725,0v-2.534h4.708v-1.531
			h-4.708v-2.107h4.741c0.103-0.541,0.358-1.072,0.689-1.547h-7.258V71.188z"/>
		<polygon fill="#868686" points="376.543,58.036 374.141,58.036 373.005,60.308 374.256,60.308 		"/>
		<polygon fill="#868686" points="316.593,71.205 318.473,71.205 318.473,63.6 321.196,63.6 321.196,61.92 313.898,61.92 
			313.876,63.613 316.593,63.613 		"/>
		<path fill="#868686" d="M371.227,71.45h0.725c2.525,0,4.592-2.066,4.592-4.593V66.25c0-2.526-2.066-4.593-4.592-4.593h-0.725
			c-2.525,0-4.592,2.066-4.592,4.593v0.607C366.635,69.384,368.702,71.45,371.227,71.45z M368.808,66.18
			c0-1.591,1.252-2.894,2.781-2.894c1.531,0,2.782,1.303,2.782,2.894v0.766c0,1.59-1.251,2.893-2.782,2.893
			c-1.529,0-2.781-1.303-2.781-2.893V66.18z"/>
		<path fill="#868686" d="M328.975,76.987c0.103-0.54,0.358-1.07,0.689-1.546h-7.258v9.267h7.242
			c-0.362-0.517-0.593-1.032-0.69-1.547c-1.576,0-3.15-0.001-4.725-0.001v-2.534h4.708v-1.531h-4.708v-2.107H328.975z"/>
		<path fill="#868686" d="M317.866,75.444h-3.975l-0.015,9.271h3.931c1.923,0,3.419-1.574,3.432-4.635
			C321.25,77.02,319.778,75.444,317.866,75.444z M319.2,81.297c0,0.89-0.995,1.885-1.884,1.885h-1.549l-0.015-6.197h1.628
			c0.859,0,1.819,0.963,1.819,1.819V81.297z"/>
		<path fill="#868686" d="M425.977,83.607c0.08-0.095,0.121-0.204,0.121-0.322c0-0.393-0.375-0.573-0.75-0.588
			c-0.092-0.003-0.527,0.004-0.678,0.011c-0.152,0.006-0.238,0.01-0.262,0.01v1.994h0.418v-0.833c0.107,0.005,0.25,0.008,0.311,0.01
			l0.549,0.823h0.463l-0.543-0.799C425.727,83.873,425.9,83.704,425.977,83.607z M424.994,83.588c-0.037,0-0.094-0.003-0.168-0.009
			v-0.554c0.047-0.005,0.092-0.007,0.135-0.007c0.18,0,0.439,0.019,0.521,0.057c0.084,0.04,0.127,0.107,0.127,0.207
			c0,0.12-0.041,0.2-0.117,0.242S425.164,83.588,424.994,83.588z"/>
		<polygon fill="#868686" points="417.27,79.1 415.098,75.431 412.939,75.431 416.32,80.899 416.32,84.697 418.162,84.697 
			418.162,80.929 421.572,75.431 419.4,75.431 		"/>
		<path fill="#868686" d="M411.482,76.987c0.1-0.54,0.355-1.07,0.689-1.546h-7.258v9.267h7.24c-0.361-0.517-0.592-1.032-0.691-1.547
			c-1.574,0-3.148-0.001-4.723-0.001v-2.534h4.707v-1.531h-4.707v-2.107H411.482z"/>
		<path fill="#868686" d="M408.855,66.857V66.25c0-2.526-2.066-4.593-4.594-4.593h-0.723c-2.525,0-4.592,2.066-4.592,4.593v0.607
			c0,2.526,2.066,4.593,4.592,4.593h0.723C406.789,71.45,408.855,69.384,408.855,66.857z M406.684,66.945
			c0,1.59-1.254,2.893-2.783,2.893s-2.781-1.303-2.781-2.893V66.18c0-1.591,1.252-2.894,2.781-2.894s2.783,1.303,2.783,2.894V66.945
			z"/>
		<path fill="#868686" d="M425.219,81.892c-1.01,0-1.832,0.824-1.832,1.834c0,1.012,0.822,1.835,1.832,1.835
			s1.836-0.823,1.836-1.835C427.055,82.716,426.23,81.892,425.219,81.892z M425.219,85.259c-0.842,0-1.531-0.688-1.531-1.533
			c0-0.844,0.689-1.531,1.531-1.531c0.844,0,1.533,0.688,1.533,1.531C426.752,84.57,426.062,85.259,425.219,85.259z"/>
		<polygon fill="#868686" points="366.734,69.657 362.043,69.657 362.043,61.888 360.199,61.888 360.199,71.204 366.734,71.204 		
			"/>
		<path fill="#868686" d="M400.953,75.431h-4.891v9.253l1.811,0.014v-7.727h2.346c1.594,0,1.594,2.476,0,2.476h-2.027l2.984,4.348
			c0.346,0.505,0.979,0.918,1.59,0.918h1.182l-2.592-3.798C404.662,79.893,403.691,75.431,400.953,75.431z"/>
		<polygon fill="#868686" points="369.917,77.12 372.626,77.12 372.626,84.711 374.509,84.711 374.509,77.12 377.217,77.12 
			377.217,75.43 369.917,75.43 		"/>
		<polygon fill="#868686" points="366.876,81.624 362.168,75.354 360.325,75.354 360.308,84.653 362.185,84.653 362.185,78.48 
			366.892,84.67 368.719,84.67 368.719,75.387 366.876,75.387 		"/>
		<path fill="#868686" d="M385.729,70.924l-0.007-4.201l-2.299,0.008c0.603,0.416,0.683,0.895,0.674,1.476l-0.029,1.784
			c-0.289,0.072-0.59,0.11-0.901,0.11c-1.999,0-3.632-1.583-3.632-3.523c0-1.941,1.633-3.524,3.632-3.524
			c0.986,0,1.88,0.384,2.535,1.006l-0.006-1.858c-2.996-0.846-5.058-0.687-6.766,0.823c-2.023,1.788-2.01,5.322,0,7.062
			C380.657,71.578,382.425,71.747,385.729,70.924z"/>
		<rect x="387.061" y="61.92" fill="#868686" width="1.861" height="9.284"/>
		<path fill="#868686" d="M391.976,75.431h-4.893v9.253l1.812,0.014v-7.727h2.347c1.592,0,1.592,2.476,0,2.476h-2.029l2.984,4.348
			c0.346,0.505,0.979,0.918,1.59,0.918h1.181l-2.59-3.798C395.682,79.893,394.714,75.431,391.976,75.431z"/>
		<path fill="#868686" d="M398.232,69.077c-0.658,0.633-1.562,1.023-2.556,1.023c-2,0-3.632-1.583-3.632-3.523
			c0-1.941,1.632-3.524,3.632-3.524c0.984,0,1.88,0.384,2.535,1.006l-0.006-1.858c-2.996-0.846-5.057-0.687-6.766,0.823
			c-2.022,1.788-2.01,5.322,0,7.062c1.729,1.493,3.496,1.662,6.799,0.839L398.232,69.077z"/>
		<path fill="#868686" d="M385.055,76.987c0.104-0.54,0.358-1.07,0.691-1.546h-7.258v9.267h7.241
			c-0.361-0.517-0.592-1.032-0.689-1.547c-1.575,0-3.15-0.001-4.726-0.001v-2.534h4.709v-1.531h-4.709v-2.107H385.055z"/>
	</g>
</g>
<g>
	<path fill="#868686" d="M62.655,70.743H51.58c0,0-3.815-0.026-3.815,3.684c0,0.053,0,6.677,0,6.677s-0.186,3.763,3.789,3.763
		h11.075v-3.763H52.72c0,0-1.14,0.053-1.14-1.246c0-1.324,0-4.318,0-4.318s-0.054-1.112,1.165-1.112c1.272,0,9.91,0,9.91,0V70.743
		L62.655,70.743z"/>
	<path fill="#868686" d="M79.241,70.743h-11.87c0,0-3.789-0.026-3.789,3.684c0,0.053,0,6.677,0,6.677s-0.212,3.763,3.789,3.763
		h11.843v-3.763H68.511c0,0-1.14,0.053-1.14-1.246c0-1.324,0-4.318,0-4.318s-0.053-1.112,1.165-1.112c1.3,0,10.705,0,10.705,0
		V70.743L79.241,70.743z"/>
	<polygon fill="#868686" points="69.968,79.407 79.214,79.407 79.214,76.414 69.968,76.414 	"/>
	<path fill="#868686" d="M115.275,70.743h-11.87c0,0-3.789-0.026-3.789,3.684c0,0.053,0,6.677,0,6.677s-0.212,3.763,3.789,3.763
		h11.87v-3.763h-10.704c0,0-1.166,0.053-1.166-1.246c0-1.324,0-4.318,0-4.318s-0.026-1.112,1.166-1.112c1.298,0,10.704,0,10.704,0
		V70.743L115.275,70.743z"/>
	<polygon fill="#868686" points="106.028,79.407 115.249,79.407 115.249,76.414 106.028,76.414 	"/>
	<path fill="#868686" d="M94.636,70.743c-3.922,0-14.201,0-14.201,0v14.123h3.762V74.479h3.338v10.387h3.763V74.479h3.339v10.387
		h3.735V74.4C98.371,74.4,98.584,70.743,94.636,70.743L94.636,70.743z"/>
	<polygon fill="#868686" points="134.353,70.743 130.351,70.743 130.351,72.758 125.316,75.592 120.283,72.758 120.283,70.743 
		116.282,70.743 116.282,74.4 121.582,77.791 116.282,81.209 116.282,84.866 120.283,84.866 120.283,82.852 125.316,80.017 
		130.351,82.852 130.351,84.866 134.353,84.866 134.353,81.209 129.053,77.791 134.353,74.4 	"/>
	<polygon fill="#868686" points="13.771,84.813 43.233,49.866 30.437,49.866 1,84.813 	"/>
	<polygon fill="#868686" points="32.874,84.813 62.311,49.866 49.54,49.866 20.104,84.813 	"/>
</g>
<path fill="#868686" d="M680.187,83.875h2.828l-13.355-28.497l-0.002,0.001l0,0h-0.002l-2.102,4.488
	c-1.031-2.25-3.131-3.908-5.59-4.118v0.017h-8.258v0.112l-0.717,1.647c-2.533-1.707-5.619-2.713-8.951-2.713
	c-3.43,0-6.598,1.062-9.174,2.859l-1.074-2.294v0.001l0,0h-0.002H604.88l5.586-5.513h-4.268l-3.676,5.513h-10.943v-0.001v0.001l0,0
	l0,0h-0.002l-1.281,2.732c-2.615-1.971-5.898-3.148-9.469-3.148c-8.529,0-15.443,6.694-15.443,14.952
	c0,8.256,6.914,14.951,15.443,14.951c3.617,0,6.939-1.209,9.57-3.227v2.245h2.775v-9.081h4.684l4.252,9.071h0.068v0.009h2.775
	v-0.009h13.338V81.1h-13.338v-6.296h13.338v-2.576h-13.338V58.105h15.064v25.779h2.832v-0.01h0.41l5.412-11.543
	c1.271,7.032,7.664,12.383,15.367,12.383c3.67,0,7.041-1.219,9.705-3.253v2.423h2.773v-0.01h2.611l0.021-0.047h4.764v0.027
	c3.801-0.327,6.791-3.637,6.791-7.677c0-0.468-0.045-0.927-0.121-1.374h5.352L680.187,83.875z M656.517,81.213V70.047h6.266
	l-5.234,11.166H656.517z M665.815,62.921c-0.035,0.403-0.113,0.776-0.223,1.127l-0.572,1.222c-0.725,1.103-1.846,1.825-3.018,2.19
	v0.01h-5.486v-9.128h5.533v-0.03C664.181,58.57,665.993,60.867,665.815,62.921z M644.038,57.663c2.934,0,5.631,0.964,7.773,2.572
	l-7.576,17.43l-8.117-17.322C638.284,58.668,641.038,57.663,644.038,57.663z M631.411,69.764c0-2.854,1.033-5.476,2.758-7.544
	l4.691,10.008h-7.188C631.501,71.432,631.411,70.608,631.411,69.764z M590.397,72.228h-3.891l3.891-8.301V72.228z M568.329,69.915
	c0-6.683,5.596-12.101,12.498-12.101c3.143,0,6.014,1.127,8.211,2.982l-9.893,21.106C573.038,81.107,568.329,76.045,568.329,69.915z
	 M590.397,77.955l-0.164-0.079c-2.059,2.281-4.99,3.803-8.289,4.087l3.355-7.159h5.098V77.955z M593.173,72.228v-7.417l3.475,7.417
	H593.173z M602.177,77.991l-1.492-3.188h1.492V77.991z M602.177,72.228h-2.701l-6.303-13.448v-0.21h-0.098l-0.219-0.464h9.32V72.228
	z M622.849,78.718V58.105h9.662l-1.883,4.019c-0.607,0.977-1.104,2.024-1.467,3.128L622.849,78.718z M632.56,74.805h7.508
	l3.301,7.042C638.56,81.606,634.466,78.786,632.56,74.805z M653.696,77.616c-1.885,2.063-4.588,3.582-7.574,4.075l-0.268-0.573
	l7.889-18.614v15.139L653.696,77.616z M668.069,76.152c-0.232,2.713-2.119,4.425-4.15,5.061h-3.543l4.609-9.837
	C666.835,72.142,668.233,74.241,668.069,76.152z M669.671,72.228c-0.811-1.463-2.049-2.643-3.527-3.322l1.021-2.179
	c0.273-0.443,0.496-0.924,0.67-1.429l1.822-3.89l0,0l5.07,10.819H669.671z"/>
<g>
	<g>
		<path fill="#868686" d="M620.179,156.112c4.384-0.078,7.967,3.414,8.041,7.801c0.077,4.379-3.65,8.016-8.032,8.094l-0.005-5.045
			h0.029c1.61,0,2.915-1.305,2.915-2.912c0-1.609-1.305-2.912-2.915-2.912h-0.031L620.179,156.112z"/>
		<path fill="#868686" d="M650.003,163.972c0.078,4.383-3.415,7.967-7.797,8.045c-4.384,0.072-8.02-3.65-8.098-8.035h5.045v0.025
			c0,1.607,1.306,2.91,2.912,2.91c1.609,0,2.913-1.303,2.913-2.91v-0.031L650.003,163.972z"/>
		<path fill="#868686" d="M672.668,163.972c0.075,4.383-3.416,7.967-7.8,8.045c-4.384,0.072-8.014-3.65-8.093-8.035h5.042v0.025
			c0,1.607,1.306,2.91,2.914,2.91c1.607,0,2.909-1.303,2.909-2.91v-0.031L672.668,163.972z"/>
		<path fill="#868686" d="M651.377,163.282c-0.077-4.383,3.416-7.967,7.8-8.039c4.38-0.078,8.017,3.646,8.095,8.029l-5.044,0.002
			v-0.025c0-1.611-1.307-2.914-2.913-2.914c-1.61,0-2.912,1.303-2.912,2.914v0.031L651.377,163.282z"/>
		<path fill="#868686" d="M583.736,166.954c-1.6,0-2.897-1.295-2.897-2.896c0-1.6,1.298-2.898,2.897-2.898
			c1.603,0,2.898,1.299,2.898,2.898C586.635,165.659,585.339,166.954,583.736,166.954 M583.736,156.06
			c-4.422,0-8.007,3.586-8.007,8.01c0,4.422,3.585,8.004,8.007,8.004c4.425,0,8.01-3.582,8.01-8.004
			C591.746,159.646,588.161,156.06,583.736,156.06"/>
		<path fill="#868686" d="M599.136,164.06c0-1.602,1.296-2.898,2.898-2.898c1.6,0,2.897,1.297,2.897,2.898
			c0,1.6-1.298,2.898-2.897,2.898C600.432,166.958,599.136,165.659,599.136,164.06"/>
		<path fill="#868686" d="M607,164.06c0-1.602,1.299-2.898,2.898-2.898c1.602,0,2.898,1.297,2.898,2.898
			c0,1.6-1.297,2.898-2.898,2.898C608.299,166.958,607,165.659,607,164.06"/>
	</g>
	<path fill="#868686" d="M672.661,195.079v-2.469h-7.327v-4.008h6.377v-2.389h-6.377v-3.703h7.287v-2.49h-8.684
		c-1.193,0-1.901,0.689-1.901,1.781v11.518c0,1.092,0.708,1.76,1.901,1.76H672.661z M660.031,182.571v-2.551H648.03v2.551h4.33
		v12.508h3.341v-12.508H660.031z M643.354,184.454c0,0.729-0.343,1.336-0.748,1.883l-0.607,0.809h-3.907v-4.736h3.259
		C642.768,182.409,643.354,183.239,643.354,184.454 M647.24,195.079l-2.874-6.455l0.931-1.135c0.709-0.869,1.234-1.883,1.234-3.117
		c0-2.812-1.76-4.352-4.675-4.352h-5.181c-1.154,0-1.881,0.709-1.881,1.762v13.297h3.297v-5.545h3.32l2.348,5.545H647.24z
		 M628.277,189.897h-4.332l2.205-6.699L628.277,189.897z M633.174,195.079l-4.653-13.701c-0.325-0.973-1.114-1.52-2.309-1.52
		c-1.255,0-2.003,0.527-2.349,1.539l-4.816,13.682h3.32l0.93-2.752h5.606l0.911,2.752H633.174z M606.782,181.659L615,194.573
		c0.264,0.404,0.587,0.607,1.032,0.607c0.567,0,0.951-0.305,0.951-0.992v-14.168h-1.215v13.379l-8.216-12.912
		c-0.264-0.406-0.628-0.607-1.053-0.607c-0.567,0-0.952,0.324-0.952,1.012v14.188h1.234V181.659z M601.237,187.591
		c0,4.209-2.044,6.518-5.404,6.518s-5.505-2.328-5.505-6.518c0-4.148,2.064-6.477,5.465-6.477
		C599.152,181.114,601.237,183.442,601.237,187.591 M602.572,187.591c0-4.898-2.711-7.65-6.719-7.65
		c-4.047,0-6.841,2.773-6.841,7.65c0,4.918,2.712,7.65,6.739,7.65C599.8,195.241,602.572,192.569,602.572,187.591 M576.1,187.591
		c0,5.363,2.794,7.65,6.578,7.65c1.194,0,2.388-0.264,3.886-0.729l0.952-0.305l-0.244-1.215l-0.991,0.305
		c-1.437,0.445-2.57,0.709-3.562,0.709c-3.157,0-5.242-1.943-5.242-6.416c0-4.453,2.045-6.416,5.223-6.416
		c0.972,0,2.124,0.264,3.582,0.709l0.991,0.305l0.244-1.215l-0.952-0.283c-1.477-0.467-2.691-0.75-3.886-0.75
		C578.974,179.94,576.1,182.368,576.1,187.591"/>
</g>
<g>
	<path fill="#868686" d="M905.106,171.421c-3.264,0-4.16,2.584-4.16,4.531c0,2.322,1.483,4.359,4.289,4.359
		c1.211,0,2.525-0.203,3.554-0.664l-0.016-0.037c-0.569-1.566-2.369-1.287-2.369-1.287v-0.002c-0.367,0.09-0.718,0.135-1.023,0.135
		c-0.861,0-1.591-0.398-1.816-1.518h5.756C909.32,173.108,908.295,171.421,905.106,171.421 M903.586,175.087
		c0.055-1.65,1.171-1.74,1.54-1.74c0.822,0,1.555,0.348,1.684,1.74H903.586z"/>
	<path fill="#868686" d="M899.945,177.854h-3.433v-9.656h-1.262c-0.463,0.053-1.343,0.289-1.523,1.281v10.574h7.477v-0.459
		C901.157,179.136,900.927,178.263,899.945,177.854"/>
	<path fill="#868686" d="M914.119,171.403c-3.112,0-4.36,2.092-4.36,4.418c0,2.42,1.228,4.506,4.36,4.506
		c3.118,0,4.349-2.105,4.349-4.506C918.468,173.38,917.291,171.403,914.119,171.403 M914.119,178.423
		c-1.137,0-1.794-0.768-1.794-2.602c0-2.055,0.697-2.512,1.794-2.512c1.159,0,1.78,0.457,1.78,2.512
		C915.899,177.854,915.094,178.423,914.119,178.423"/>
	<path fill="#868686" d="M923.922,171.403c-1.099,0-1.813,0.951-2.181,1.299l-0.364-1.021h-2.329
		c0.092,0.549,0.239,1.08,0.239,1.777v6.596h0.837c0.525-0.064,1.271-0.299,1.676-1.055v-4.023c0.42-0.801,0.914-1.666,1.669-1.666
		c1.024,0,1.024,0.717,1.024,1.303v5.441h0.141v-0.008c0,0,0.022,0.004,0.052,0.008h0.615c0.558-0.064,1.317-0.346,1.702-1.314
		v-3.963C927.003,172.853,926.488,171.403,923.922,171.403"/>
	<path fill="#868686" d="M934.653,158.448c-3.113,0-4.357,2.088-4.357,4.416c0,2.42,1.228,4.508,4.357,4.508
		c3.118,0,4.347-2.105,4.347-4.508C939,160.427,937.828,158.448,934.653,158.448 M934.653,165.466c-1.134,0-1.792-0.768-1.792-2.602
		c0-2.051,0.695-2.51,1.792-2.51c1.157,0,1.779,0.459,1.779,2.51C936.433,164.897,935.627,165.466,934.653,165.466"/>
	<path fill="#868686" d="M912.715,158.724h-0.894c-0.458,0.031-1.562,0.242-1.611,1.561l-0.003-0.012v3.525
		c-0.42,0.809-0.843,1.668-1.593,1.668c-0.937,0-0.97-0.732-0.97-1.299v-5.443h-0.897c-0.456,0.031-1.561,0.242-1.607,1.561
		l-0.006-0.025v3.742c0,1.924,0.602,3.371,3.021,3.371c1.1,0,1.741-0.951,2.107-1.301l0.368,1.025h2.326
		c-0.091-0.551-0.241-1.08-0.241-1.779V158.724z"/>
	<path fill="#868686" d="M901.304,156.636v7.162l-3.498-8.557h-4.178v11.855h0.305c0.676-0.021,2.242-0.213,2.357-1.518l0.013,0.029
		v-7.066l3.535,8.555h4.216v-11.855h-1.128C902.509,155.265,901.44,155.444,901.304,156.636"/>
	<path fill="#868686" d="M917.704,158.491c-3.262,0-4.161,2.584-4.161,4.527c0,2.326,1.487,4.359,4.287,4.359
		c1.211,0,2.53-0.203,3.556-0.66l-0.018-0.037c-0.57-1.57-2.367-1.287-2.367-1.287l-0.005-0.004
		c-0.362,0.088-0.71,0.139-1.019,0.139c-0.858,0-1.594-0.404-1.812-1.523h5.752C921.918,160.179,920.892,158.491,917.704,158.491
		 M916.183,162.155c0.056-1.646,1.175-1.738,1.54-1.738c0.823,0,1.558,0.348,1.685,1.738H916.183z"/>
	<path fill="#868686" d="M927.626,159.687l-1.497,4.533l-1.565-4.512v0.018c-0.343-0.656-0.925-0.91-1.43-1.002h-1.588l3.244,8.373
		h2.527l3.263-8.373h-1.506C928.571,158.806,927.983,159.048,927.626,159.687"/>
	<path fill="#868686" d="M909.863,185.093c-1.287,0-2.128,1.117-2.558,1.525l-0.432-1.201h-2.726
		c0.107,0.643,0.279,1.266,0.279,2.086v7.73h0.979c0.617-0.074,1.488-0.346,1.962-1.238v-4.713c0.497-0.943,1.077-1.953,1.959-1.953
		c1.202,0,1.202,0.838,1.202,1.525v6.379h0.165v-0.012c0,0,0.024,0.006,0.06,0.012h0.723c0.651-0.074,1.545-0.402,1.997-1.541
		v-4.645C913.475,186.792,912.871,185.093,909.863,185.093"/>
	<path fill="#868686" d="M933.954,184.907c-3.584,0-5.013,2.4-5.013,5.076c0,2.783,1.411,5.184,5.013,5.184
		c3.579,0,4.993-2.424,4.993-5.184C938.947,187.181,937.597,184.907,933.954,184.907 M933.954,192.974
		c-1.308,0-2.067-0.885-2.067-2.99c0-2.359,0.802-2.885,2.067-2.885c1.325,0,2.043,0.525,2.043,2.885
		C935.997,192.323,935.07,192.974,933.954,192.974"/>
	<path fill="#868686" d="M902.552,181.843h-1.054c-0.536,0.037-1.828,0.285-1.888,1.834l-0.003-0.018v7.316
		c-0.493,0.949-0.99,1.955-1.868,1.955c-1.097,0-1.138-0.857-1.138-1.523v-9.564h-1.05c-0.533,0.037-1.829,0.285-1.883,1.834
		l-0.011-0.031v7.568c0,2.252,0.71,3.953,3.543,3.953c1.291,0,2.072-0.496,2.502-0.906l0.398,0.98h2.729
		c-0.108-0.645-0.279-1.664-0.279-2.48V181.843z"/>
	<path fill="#868686" d="M916.238,181.843c-1.081,0.172-1.373,1.016-1.438,1.645v0.633c0.005,0.039,0.009,0.064,0.009,0.064
		l-0.009-0.006v0.066h1.962c0.891-0.227,1.138-1.102,1.197-1.707v-0.695h-1.737H916.238z"/>
	<path fill="#868686" d="M913.496,168.478c-1.08,0.174-1.37,1.016-1.437,1.643v0.635c0.004,0.039,0.01,0.066,0.01,0.066l-0.01-0.006
		v0.064h2.715c0.891-0.227,1.136-1.102,1.195-1.707v-0.695h-2.487H913.496z"/>
	<path fill="#868686" d="M914.865,186.511v8.641h1.7c1.074-0.191,1.296-1.266,1.331-1.883v-0.426
		c-0.002-0.004-0.002-0.014-0.002-0.014h0.002v-7.852h-1.614C915.267,185.142,914.952,185.901,914.865,186.511"/>
	<path fill="#868686" d="M928.174,191.96v-10.957h-1.207c-1.286,0.035-1.617,0.795-1.696,1.281v4.146
		c-0.595-0.789-1.397-1.488-2.522-1.488c-2.82,0-4.028,2.42-4.028,5.09c0,2.775,1.127,5.189,4.475,5.189
		c1.23,0,1.927-0.781,2.142-1.186l0.388,1.143h0.922c1.613-0.1,1.545-1.691,1.545-1.691l0.007,0.006
		C928.162,193.116,928.174,192.464,928.174,191.96 M925.314,191.493c-0.359,0.867-0.868,1.504-1.614,1.504
		c-1.208,0-2.009-0.359-2.009-2.924c0-2.523,0.801-2.902,1.715-2.902c0.783,0,1.296,0.951,1.908,1.969V191.493z"/>
	<path fill="#868686" d="M868.797,185.222c0,0,0.22,0,0.22-0.232v-0.143l1.02-0.023l0.1-0.305l-0.201-0.092l0.243-0.162l0.438,0.068
		l0.14-0.256c0,0-0.2-0.092-0.1-0.537c0.1-0.447,0.46-0.889,0.46-0.889s0.238,0.025,0.52,0c0.279-0.023,0.501-0.094,0.601-0.164
		c0.101-0.068,0.241,0.027,0.339-0.115c0.1-0.139,0.282-0.186,0.202-0.373c-0.081-0.189-0.021-0.047-0.383-0.35
		c-0.359-0.305-0.461-0.168-0.417-0.75c0.038-0.582,0.237-0.861,0.237-0.861l-0.12-0.562c0,0-0.3,0.023-0.38,0.045
		c-0.079,0.023-0.12-0.068-0.14-0.188c-0.02-0.115,0.58-0.416,0.58-0.416l0.322,0.139c0,0,0.157-0.188,0.237-0.305
		c0.083-0.117,0.503-0.303,0.503-0.303l0.358-0.258l0.42,0.047l0.1-0.117l-0.141-0.398l0.141-0.092l0.021-0.258l0.179-0.234
		l0.3-0.184l0.08-0.232c0,0,0.12,0.324,0.317,0.254c0.203-0.068,1.383-0.889,1.722-1.145c0.341-0.258,0.48-0.443,0.48-0.443
		l0.061-0.143l-0.379-0.068h-0.103c0,0-0.26,0.092-0.219-0.609c0.039-0.699,0.121-1.539,0.121-1.539l-0.162-0.094l-0.899-0.094
		l-0.38,0.232l-0.479-0.441l-0.16-0.049l-0.321,0.115l-0.157-0.162l-0.083-0.652l-0.518-0.117l-0.16-0.141l-0.339-0.023
		c0,0-0.121-0.07-0.062-0.42c0.062-0.35,0.119-0.445,0.119-0.537c0-0.094,0-0.305-0.079-0.328c-0.081-0.021-0.3-0.141-0.3-0.141
		l-0.24-0.066l-0.22,0.066c0,0-0.1,0.07-0.06-0.139c0.038-0.211,0.24-0.354,0.24-0.354l-0.039-0.348l-0.201-0.164l-0.462-0.162
		c0,0-0.04-0.094,0.021-0.234c0.06-0.141,0.3-0.234,0.18-0.703c-0.12-0.465-0.279-0.652-0.279-0.793c0-0.139,0.16-0.324-0.099-0.488
		c-0.26-0.164-0.542-0.283-0.542-0.283l-0.179-0.326l0.039-0.117l0.78-0.441l-0.422-0.377l-0.678,0.678l-0.898-0.723l-0.701,0.422
		l-0.258,1.143c0,0-1.404,0.143-1.861,0.865l-0.04,0.211l0.08,0.209l0.018,0.211l0.142-0.092l0.141,0.092l0.098-0.166l0.062-0.139
		c0,0,0.036-0.047,0.138,0.047c0.101,0.092,0.242,0.209,0.242,0.209s0.342-0.043,0.4,0.234c0.058,0.281,0,0.375,0,0.562
		c0,0.186-0.043,0.467-0.099,0.631c-0.062,0.164-0.202,0.42-0.202,0.42s-0.199,0.02-0.26,0.164
		c-0.061,0.139-0.099,0.139-0.099,0.139s0,0.094-0.085-0.068c-0.079-0.164-0.196-0.445-0.196-0.445l-2,1.656
		c0,0,0.521,0.377,0.58,0.539c0.061,0.164,0.32,0.188,0.32,0.188l0.282,0.117l0.237,0.514l-0.019,0.164c0,0,0.039,0,0.197,0.117
		c0.161,0.115,0.261,0.326,0.261,0.326s-0.18,0.025-0.221,0.373c-0.04,0.352,0.299,0.654,0.381,0.816
		c0.078,0.162,0.278,0.234,0.278,0.234s0.482,0.07,0.502,0.186c0.021,0.119-0.221,0.143-0.221,0.143s-0.161-0.143-0.161-0.023
		c0,0.117,0.082,0.188,0.262,0.303c0.18,0.117,0.938,0.443,1.039,0.469c0.102,0.021,0.36,0,0.461,0.188
		c0.099,0.188,0.2,0.139,0.078,0.188c-0.118,0.045-0.418,0.068-0.418,0.068s-0.1,0.16-0.401,0c-0.301-0.162-0.44-0.162-0.579-0.162
		c-0.14,0-0.441-0.049-0.578,0.045c-0.141,0.094-0.563,0.492-0.563,0.492l-0.161,0.348l0.322,0.328l0.317,0.117l-0.237,0.094
		l-0.32,0.469c0,0,0.16,0.627,0.079,1.051c0,0,0.521,0.582,0.58,0.699c0.062,0.117,0.321-0.07,0.242,0.396
		c-0.079,0.469,0,1.215,0,1.215s0.119,0.42,0.24,0.516c0.117,0.094,0.142-0.023,0.199,0.279c0.061,0.305,0.103,0.422,0.138,0.516
		c0.041,0.094,0.062,0.066,0.021,0.186c-0.039,0.117-0.021,0.303,0.021,0.562c0.042,0.256,0.061,0.531,0.061,0.531
		s-0.137,0.377-0.12,0.471c0.019,0.096,0.081,0.141,0.081,0.141s0.021,0.281,0.122,0.373
		C868.556,185.173,868.797,185.222,868.797,185.222"/>
	<path fill="#868686" d="M867.931,157.524c0,1.258,1.02,2.275,2.276,2.275c1.256,0,2.275-1.018,2.275-2.275s-1.02-2.275-2.275-2.275
		C868.95,155.249,867.931,156.267,867.931,157.524"/>
	<path fill="#868686" d="M876.988,157.265h-2.927c0.006,0.086,0.013,0.172,0.013,0.26c0,2.135-1.73,3.867-3.867,3.867
		c-2.136,0-3.866-1.732-3.866-3.867c0-0.088,0.008-0.174,0.012-0.26h-2.927c-0.003,0.086-0.007,0.174-0.007,0.26
		c0,3.748,3.039,6.789,6.788,6.789c3.75,0,6.787-3.041,6.787-6.789C876.994,157.438,876.992,157.351,876.988,157.265"/>
	<path fill="#868686" d="M887.895,172.937c-1.257,0-2.274,1.018-2.274,2.275s1.018,2.275,2.274,2.275s2.276-1.018,2.276-2.275
		S889.151,172.937,887.895,172.937"/>
	<path fill="#868686" d="M888.154,181.993v-2.928c-0.086,0.006-0.172,0.014-0.26,0.014c-2.136,0-3.866-1.732-3.866-3.867
		c0-2.137,1.73-3.867,3.866-3.867c0.088,0,0.174,0.008,0.26,0.012v-2.926c-0.086-0.004-0.174-0.006-0.26-0.006
		c-3.749,0-6.788,3.039-6.788,6.787s3.039,6.787,6.788,6.787C887.98,181.999,888.068,181.997,888.154,181.993"/>
	<path fill="#868686" d="M881.104,161.097c-0.889,0.889-0.889,2.328,0.002,3.219c0.889,0.887,2.328,0.887,3.217,0
		c0.89-0.891,0.89-2.33,0-3.219C883.435,160.208,881.994,160.208,881.104,161.097"/>
	<path fill="#868686" d="M887.693,167.317l-2.071-2.07c-0.056,0.064-0.112,0.131-0.174,0.191c-1.51,1.51-3.959,1.51-5.468,0
		c-1.511-1.51-1.511-3.959-0.002-5.469c0.063-0.061,0.129-0.117,0.192-0.174l-2.069-2.068c-0.062,0.057-0.125,0.115-0.187,0.176
		c-2.651,2.652-2.651,6.951,0,9.6c2.649,2.652,6.948,2.652,9.6,0C887.575,167.442,887.634,167.38,887.693,167.317"/>
	<path fill="#868686" d="M884.323,186.11c-0.889-0.889-2.328-0.889-3.217,0c-0.891,0.887-0.891,2.33-0.002,3.217
		c0.89,0.889,2.33,0.889,3.219,0C885.213,188.44,885.213,186.997,884.323,186.11"/>
	<path fill="#868686" d="M878.102,192.696l2.069-2.07c-0.063-0.057-0.129-0.111-0.192-0.174c-1.509-1.51-1.509-3.957,0.002-5.467
		c1.509-1.512,3.958-1.512,5.468,0c0.062,0.061,0.118,0.127,0.174,0.191l2.071-2.07c-0.06-0.064-0.118-0.127-0.179-0.188
		c-2.651-2.652-6.95-2.652-9.6,0c-2.651,2.65-2.651,6.949,0,9.6C877.977,192.581,878.04,192.638,878.102,192.696"/>
	<path fill="#868686" d="M872.482,192.899c0-1.256-1.017-2.275-2.275-2.275c-1.257,0-2.275,1.02-2.275,2.275
		s1.019,2.275,2.275,2.275C871.463,195.175,872.482,194.155,872.482,192.899"/>
	<path fill="#868686" d="M863.426,193.157h2.927c-0.004-0.086-0.012-0.17-0.012-0.258c0-2.137,1.73-3.865,3.866-3.865
		c2.137,0,3.869,1.729,3.869,3.865c0,0.088-0.009,0.172-0.015,0.258h2.927c0.005-0.086,0.007-0.172,0.007-0.258
		c0-3.748-3.038-6.787-6.788-6.787c-3.747,0-6.788,3.039-6.788,6.787C863.422,192.985,863.423,193.071,863.426,193.157"/>
	<path fill="#868686" d="M859.311,189.327c0.887-0.887,0.887-2.328,0-3.217c-0.889-0.889-2.33-0.889-3.218,0
		c-0.889,0.887-0.889,2.33,0,3.217C856.98,190.216,858.422,190.216,859.311,189.327"/>
	<path fill="#868686" d="M852.723,183.106l2.071,2.07c0.055-0.064,0.111-0.129,0.174-0.191c1.51-1.512,3.957-1.512,5.467,0
		c1.512,1.51,1.512,3.957,0,5.467c-0.06,0.062-0.127,0.117-0.191,0.176l2.07,2.07c0.062-0.061,0.125-0.117,0.188-0.18
		c2.651-2.65,2.651-6.949,0-9.6c-2.652-2.65-6.948-2.652-9.6,0C852.84,182.979,852.782,183.042,852.723,183.106"/>
	<path fill="#868686" d="M852.521,177.487c1.256,0,2.273-1.018,2.273-2.275s-1.018-2.275-2.273-2.275s-2.277,1.018-2.275,2.275
		C850.243,176.47,851.265,177.487,852.521,177.487"/>
	<path fill="#868686" d="M852.262,168.431v2.926c0.085-0.004,0.17-0.01,0.259-0.012c2.137,0,3.866,1.73,3.866,3.867
		c0,2.135-1.729,3.867-3.866,3.867c-0.089,0-0.174-0.008-0.259-0.014v2.928c0.085,0.004,0.172,0.006,0.261,0.006
		c3.749,0,6.785-3.039,6.785-6.787s-3.036-6.787-6.785-6.787C852.434,168.425,852.347,168.427,852.262,168.431"/>
	<path fill="#868686" d="M856.093,164.315c0.888,0.887,2.329,0.887,3.218,0c0.887-0.891,0.887-2.33,0.001-3.219
		c-0.89-0.889-2.331-0.889-3.219,0C855.204,161.985,855.204,163.425,856.093,164.315"/>
	<path fill="#868686" d="M862.313,157.728l-2.07,2.068c0.064,0.057,0.13,0.113,0.191,0.174c1.512,1.512,1.512,3.959,0,5.469
		c-1.509,1.51-3.957,1.51-5.468,0c-0.062-0.061-0.118-0.127-0.175-0.191l-2.07,2.07c0.061,0.062,0.118,0.125,0.18,0.188
		c2.651,2.65,6.947,2.65,9.6,0c2.651-2.65,2.651-6.949,0-9.602C862.438,157.845,862.376,157.784,862.313,157.728"/>
</g>
<g>
	<path fill="#868686" d="M304.329,195.241c0,0,11.964-21.148,30.137-33.551l1.492-0.904c0,0-12.036,3.67-37.738,30.506
		L304.329,195.241"/>
	<path fill="#868686" d="M298.242,191.548c0,0,7.39-23.809,20.977-31.307c0,0,9.89,1.957,16.194,14.24c0,0,0.761-7.719-1.086-12.936
		l1.63-0.76c0,0,2.39,9.998,0.543,17.826l-1.522,1.629c0,0-4.892-13.367-13.37-15.76c0,0-7.172,1.848-17.28,30.76L298.242,191.548"
		/>
	<path fill="#868686" d="M330.765,193.565v-9.311c0-1.072-0.513-2.191-2.49-2.191c-1.025,0-1.566,0.145-2.157,0.365v11.137h-3.131
		v-12.428c1.31-0.584,3.082-0.953,5.417-0.953c4.136,0,5.492,1.902,5.492,4.021v9.359H330.765"/>
	<path fill="#868686" d="M338.672,188.083c0.258,2.436,1.491,3.654,3.773,3.654c1.59,0,2.746-0.367,3.491-0.73l0.745,1.877
		c-0.977,0.512-2.465,0.926-4.57,0.926c-3.927,0-6.418-2.414-6.418-6.85c0-4.287,2.284-6.775,5.904-6.775
		c3.671,0,5.672,2.316,5.544,6.727L338.672,188.083 M341.496,182.013c-1.822,0-3.079,1.414-3.002,4.557l5.723-0.826
		C344.217,183.087,343.216,182.013,341.496,182.013z"/>
	<path fill="#868686" d="M364.521,193.565v-9.334c0-1.145-0.666-2.145-2.335-2.145c-0.95,0-1.668,0.293-2.311,0.902v10.576h-3.13
		v-9.408c0-1.266-0.9-2.094-2.594-2.094c-0.922,0-1.439,0.119-2.053,0.365v11.137h-3.131v-12.428
		c1.388-0.635,2.875-0.953,5.184-0.953c2.234,0,3.519,0.611,4.315,1.438c0.921-0.803,2.334-1.438,4.44-1.438
		c3.285,0,4.749,1.951,4.749,4.021v9.359H364.521"/>
	<path fill="#868686" d="M374.945,193.81c-3.777,0-5.648-1.461-5.648-3.998c0-3.461,3.517-4.459,7.728-4.852v-0.705
		c0-1.705-1.131-2.168-2.748-2.168c-1.337,0-2.62,0.414-3.466,0.805l-0.719-1.705c0.898-0.416,2.567-1.002,4.75-1.002
		c2.848,0,5.108,1.145,5.108,4.535v8.141C378.848,193.419,377.102,193.81,374.945,193.81 M377.025,186.376
		c-2.952,0.342-4.775,0.949-4.775,3.338c0,1.705,1.078,2.436,2.9,2.436c0.719,0,1.412-0.145,1.875-0.365V186.376z"/>
	<polyline fill="#868686" points="390.143,193.565 385.522,186.862 385.471,186.862 385.471,193.565 382.361,193.565 
		382.361,180.265 385.471,180.265 385.471,186.376 385.522,186.376 389.909,180.429 393.093,180.429 388.318,186.446 
		393.657,193.565 390.143,193.565 	"/>
</g>
<g>
	<path fill="#868686" d="M18.575,171.45H8.523c-1.428,0.035-2.374,0.75-2.856,2.127l-4.517,17.5
		c-0.679,2.377,1.106,3.789,2.213,3.789l13.265,0.09l-5.16-19.432l2.303-0.643l5.267,19.895h3.963
		c1.357-0.018,2.66-2.02,2.393-3.252l-4.142-15.82l2.017-0.555l5.446,19.717h4.16c1.106-0.07,2.928-1.34,2.571-2.787l-4.981-18.949
		c-0.428-1.377-1.196-1.932-2.303-1.68l-7.552,2.037C20.61,171.968,19.771,171.485,18.575,171.45L18.575,171.45z"/>
	<path fill="#868686" d="M47.175,179.798l-8.266,3.146c-1.196,0.375-1.839,1.305-1.964,2.787v7.008
		c-0.071,1.252,0.411,2.18,1.428,2.162h12.748L47.175,179.798L47.175,179.798z"/>
	<path fill="#868686" d="M37.392,177.366l9.159-3.236c0.768-0.32,1.339,0.037,1.696,1.074l5.303,19.697h4.124
		c1.839-0.105,2.66-1.34,2.339-3.055l-4.214-15.91c-1-2.824-5.213-5.238-8.266-4.416l-10.23,3.684L37.392,177.366L37.392,177.366z"
		/>
	<path fill="#868686" d="M70.42,173.772V171.7H59.922c-1.785,0.053-2.785,1.822-2.338,3.324l4.945,17.895
		c0.643,1.697,1.607,2.197,2.338,2.162h5.463l-5.106-19.145c-0.429-1.305,0.196-2.252,1.875-2.342L70.42,173.772L70.42,173.772z"/>
	<path fill="#868686" d="M79.472,169.966v-9.725l-6.498,2.182c-0.446,0.178-0.464,0.715-0.429,1.055v8.348
		c-0.072,1.25-0.018,2.504,0.429,3.771l4.57,17.625c0.518,1.484,1.285,2.02,2.178,1.932h5.606l-4.891-19.127
		c-0.393-1.787,0.446-2.361,1.839-2.361h3.32v-2.107h-4.285C80.418,171.593,79.418,171.038,79.472,169.966L79.472,169.966z"/>
	<path fill="#868686" d="M87.006,171.646l5.785,21.486c0.375,1.414,1.143,1.932,2.268,1.932l5.374-0.09l-5.981-23.328H87.006
		L87.006,171.646z"/>
	<path fill="#868686" d="M88.148,168.392l6.999-2.537c1.482-0.572,0.536-3.344-1.143-2.717l-6.874,2.449
		C85.042,166.39,85.935,169.126,88.148,168.392L88.148,168.392z"/>
	<path fill="#868686" d="M101.842,195.241v-2.967h0.589l0.696,2.092c0.071,0.197,0.107,0.34,0.143,0.447
		c0.036-0.107,0.089-0.268,0.16-0.482l0.697-2.057h0.536v2.967h-0.375v-2.484l-0.857,2.484h-0.357l-0.857-2.52v2.52H101.842
		L101.842,195.241z M105.288,195.241v-2.967h1.303c0.269,0,0.464,0.037,0.607,0.09c0.144,0.053,0.25,0.143,0.321,0.285
		c0.09,0.127,0.125,0.27,0.125,0.43c0,0.215-0.071,0.393-0.197,0.537c-0.143,0.143-0.339,0.23-0.625,0.268
		c0.107,0.053,0.178,0.107,0.232,0.16c0.107,0.09,0.214,0.232,0.322,0.393l0.518,0.805h-0.5l-0.393-0.625
		c-0.106-0.18-0.196-0.305-0.268-0.41c-0.071-0.09-0.143-0.162-0.196-0.197c-0.071-0.037-0.125-0.055-0.179-0.072
		c-0.053-0.018-0.125-0.018-0.232-0.018h-0.446v1.322H105.288L105.288,195.241z M105.68,193.579h0.839
		c0.179,0,0.321-0.018,0.411-0.053c0.107-0.037,0.178-0.09,0.232-0.18c0.053-0.07,0.089-0.16,0.089-0.268
		c0-0.125-0.054-0.25-0.16-0.34c-0.09-0.09-0.251-0.125-0.483-0.125h-0.928V193.579L105.68,193.579z"/>
</g>
</svg>
