<?xml version="1.0" encoding="utf-8"?>
<!-- Generator: Adobe Illustrator 16.0.0, SVG Export Plug-In . SVG Version: 6.00 Build 0)  -->
<!DOCTYPE svg PUBLIC "-//W3C//DTD SVG 1.1//EN" "http://www.w3.org/Graphics/SVG/1.1/DTD/svg11.dtd">
<svg version="1.1" id="Layer_1" xmlns="http://www.w3.org/2000/svg" xmlns:xlink="http://www.w3.org/1999/xlink" x="0px" y="0px"
	 width="81px" height="39.82812px" viewBox="0 0 81 39.82812" enable-background="new 0 0 81 39.82812" xml:space="preserve">
<g>
	<g>
		<g>
			<path fill="#FFFFFF" d="M67.68164,10.00879c-0.10645,0.05225-1.03711,2.99023-1.47559,3.95117
				c-0.4375,0.96045-6.69043,13.06445-7.11133,13.06445c-0.26367-1.47559,3.31836-12.85352,5.37305-16.06738
				c-0.21094-0.4209-2.31738-1.73828-3.63477-1.68555c-0.64941,0.03223-2.80762,5.42725-4.12598,10.56641
				c-1.16895,1.98828-2.80273,4.375-4.19727,5.97461c1.1582-7.32178,4.00391-13.38037,4.95215-14.85547
				c-0.42188-0.63232-2.58203-1.68555-3.84668-1.68555c-0.26172,0-0.7373,0.7373-1.21094,1.896
				c-0.94824-0.79004-2.05469-1.52734-3.21289-1.84375c-3.47363-0.9585-6.85645,7.64941-7.85498,13.75244
				c-1.38379,1.41211-2.79248,2.74805-3.96777,3.68457c0,0,1.76025-14.12207,9.15771-24.36523
				C45.53027,1.36475,44.28418,0.05127,43.7959,0h-0.05273c-1.73926,0-9.74609,17.91064-9.74609,26.39258
				c0,1.47461,2.05371,4.42383,2.94971,4.42383c0.54639-0.10059,2.25781-1.83301,4.10791-4.06055
				c0.02002,0.37891,0.06201,0.7168,0.12891,1.00586c0.47363,2.16016,2.63379,3.00293,3.31934,3.00293
				c1.2627,0,3.03516-3.07324,4.35254-6.60156c-0.15723,1.05273-0.19043,1.22852-0.19043,2.01758
				c0,1.10742,2.21191,3.68848,3.42383,3.68848c0.79883,0,2.27148-2.06543,3.60059-4.53418
				c-0.07715,0.96582-0.05859,1.7998,0.08691,2.42676c0.47363,2.16016,2.63379,3.00293,3.31836,3.00293
				c1.21094,0,2.79199-3.37207,4.10938-6.74316c-1.21191,4.32031-2.47656,9.00781-3.21387,13.32812
				c-0.26367,1.42188,2.63477,2.52832,3.21387,2.47656c0-5.05859,5.10938-21.02002,8.32227-28.34229
				C71.21191,10.90479,68.78809,9.37744,67.68164,10.00879z M50.61328,16.06641c-2.89746,6.05859-5.74219,10.95801-6.11035,10.95801
				c-0.26367-1.47559,2.68652-11.43164,5.16211-14.01318c0.5791-0.5791,1.15918-0.68457,1.94922,0.10547
				C51.29883,14.0127,50.92871,15.01367,50.61328,16.06641z M72.73438,27.76172c-0.84277-0.63184-0.38867-4.26758,0.77051-7.63818
				c3.00195,3.37061,7.7959-2.79199,7.48047-6.47998c-0.1582-1.84375-4.32031-4.4248-4.84668-4.4248
				c-3.26562,0-7.58691,10.1665-7.58691,16.54102c0,1.79102,2.63477,5.00488,5.6377,5.00488
				c2.68652,0,6.2207-4.96387,4.58789-6.70215C77.56543,26.5918,74.15723,28.81543,72.73438,27.76172z M77.98242,12.16895
				c0.26367,1.79102-1.00098,6.05811-4.05664,6.90088C75.24316,15.48779,76.98145,12.16895,77.98242,12.16895z M35.0542,12.59131
				c-0.20996-1.10693-2.58154-3.00342-3.2666-3.00342c-1.10645,0-3.00244,2.89844-4.95166,7.16406
				c1.26514-3.68701,2.42334-6.42627,2.95068-6.63574c-0.36914-0.42285-2.8457-0.84473-4.16309-0.68604
				c-0.20703,0.0415-3.72998,9.90283-6.25244,19.87646c-1.6792-3.05371-3.1748-7.5166-4.45508-12.00684
				c5.27637-6.79883,10.29883-12.95508,10.8833-12.73145c-0.06055-0.85889-1.34863-3.4834-2.56201-3.94824
				c-0.42383-0.16211-4.81543,5.25781-9.68604,11.62305c-1.1665-4.5249-2.08301-8.50293-2.71289-10.33545
				c-0.8042,0.00098-4.11768,1.92432-4.06543,2.27637c0.15674,1.03564,1.50195,6.4502,3.50488,12.3833
				c-4.69824,6.27246-9.12891,12.4707-10.23828,14.53906c-0.37158,0.9707,1.96973,2.53027,2.50391,2.73535
				c1.32812-1.94336,5.18896-7.16699,9.39551-12.6748c1.69629,4.375,3.6748,8.49707,5.72412,10.82812
				c0.2998,0.06836,0.74658-0.18555,1.17334-0.50684c-0.47021,1.98633-0.88867,3.94922-1.21924,5.81055
				c-0.26318,1.42188,2.63379,2.52832,3.21338,2.47461c0-1.89551,1.00098-6.37402,2.36963-11.32715
				c0.63232,0.79199,1.5293,1.47559,2.63428,1.74023c1.89795,0.52539,3.95215-1.63379,5.63818-4.6377
				c0.69238-1.28516,1.24805-2.4502,1.64795-3.59961C34.43799,18.47021,35.42334,14.43555,35.0542,12.59131z M27.35156,24.83301
				c-0.78271,1.14648-1.66602,1.45996-2.18018,1.13477c-0.51465-0.32422-0.72559-0.53223-0.72559-0.53223
				c3.16113-8.16455,6.68701-12.71533,7.16113-12.71533C31.81738,14.03711,29.66943,21.25098,27.35156,24.83301z"/>
		</g>
	</g>
</g>
</svg>
