<?xml version="1.0" encoding="utf-8"?>
<!-- Generator: Adobe Illustrator 16.0.0, SVG Export Plug-In . SVG Version: 6.00 Build 0)  -->
<!DOCTYPE svg PUBLIC "-//W3C//DTD SVG 1.1//EN" "http://www.w3.org/Graphics/SVG/1.1/DTD/svg11.dtd">
<svg version="1.1" id="Layer_1" xmlns="http://www.w3.org/2000/svg" xmlns:xlink="http://www.w3.org/1999/xlink" x="0px" y="0px"
	 width="142.333px" height="74px" viewBox="0 0 142.333 74" enable-background="new 0 0 142.333 74" xml:space="preserve">
<g>
	<g>
		<g>
			<path fill="#9B9B9B" d="M35.963,30.324c0.015,5.477,0,11.99,0,17.933c0,4.042-9.17,3.667-9.17,3.667s-8.609,0.375-8.609-3.667
				V30.324c-1.674-2.097-3.928-2.858-7.517-2.825v20.758c0,7.318,6.954,10.269,16.126,10.226
				c9.171-0.045,16.312-2.764,16.312-10.226V27.499C39.489,27.465,37.638,28.227,35.963,30.324z M124.243,30.333l-12.298,13.169
				L99.29,30.333c-3.308-2.834-7.211-2.834-7.211-2.834s0.004,30.875,0,31.004h7.174V39.955l12.654,13.792l12.297-13.792v18.548
				h7.463c0,0,0-31.01,0-31.004C131.667,27.499,127.471,27.496,124.243,30.333z M67.271,48.302
				c-4.162-5.682-8.089-12.159-12.077-17.978c-3.352-2.825-6.602-2.825-10.439-2.825c0.077,0.143,12.833,21.313,19.342,31.004
				c0,0,3.455,0,6.154,0c6.559-9.868,13.21-21.219,19.891-31.004c-3.353,0-7.224,0-10.771,2.825
				C79.372,30.324,71.044,42.684,67.271,48.302z"/>
		</g>
	</g>
</g>
</svg>
