<?xml version="1.0" encoding="utf-8"?>
<!-- Generator: Adobe Illustrator 16.0.0, SVG Export Plug-In . SVG Version: 6.00 Build 0)  -->
<!DOCTYPE svg PUBLIC "-//W3C//DTD SVG 1.1//EN" "http://www.w3.org/Graphics/SVG/1.1/DTD/svg11.dtd">
<svg version="1.1" id="Layer_1" xmlns="http://www.w3.org/2000/svg" xmlns:xlink="http://www.w3.org/1999/xlink" x="0px" y="0px"
	 width="122px" height="122px" viewBox="0 0 122 122" enable-background="new 0 0 122 122" xml:space="preserve">
<g>
	<g>
		<path fill="#797979" d="M61,1c-5.932,0-11.791,0.863-17.415,2.564C43.043,3.729,42.735,4.3,42.9,4.843
			c0.163,0.542,0.736,0.848,1.278,0.685C49.611,3.884,55.27,3.051,61,3.051c9.379,0,18.236,2.254,26.081,6.226l0.924-1.83
			C79.882,3.333,70.711,1,61,1z"/>
		<path fill="#FFFFFF" d="M6.132,42.309c0.183-0.538-0.104-1.12-0.64-1.303c-0.536-0.182-1.119,0.105-1.302,0.64
			C2.072,47.861,1,54.372,1,61h2.051C3.051,54.597,4.087,48.309,6.132,42.309z"/>
		<path fill="#FFFFFF" d="M88.005,7.447l-0.924,1.83c18.884,9.562,31.866,29.148,31.866,51.723
			c0,22.574-12.982,42.161-31.866,51.723c-7.845,3.973-16.702,6.227-26.081,6.227s-18.236-2.254-26.083-6.227
			C16.033,103.161,3.051,83.574,3.051,61H1c0,23.372,13.442,43.652,32.995,53.553C42.118,118.666,51.289,121,61,121
			s18.882-2.334,27.005-6.447C107.556,104.652,121,84.372,121,61C121,37.627,107.556,17.347,88.005,7.447z"/>
	</g>
	<g>
		<g>
			<path fill="#FFFFFF" d="M63.761,64.954l0.647-3.671l14.911-14.912c0.81-0.809,2.218-0.807,3.024,0
				c0.404,0.404,0.626,0.941,0.626,1.513c0,0.571-0.223,1.108-0.626,1.512L67.433,64.307L63.761,64.954z M65.323,61.76l-0.35,1.981
				l1.982-0.351L81.647,48.7c0.218-0.218,0.338-0.507,0.338-0.817c0-0.308-0.12-0.598-0.338-0.816
				c-0.436-0.435-1.194-0.438-1.632,0.001L65.323,61.76z"/>
			
				<rect x="76.793" y="49.784" transform="matrix(0.707 0.7072 -0.7072 0.707 58.5342 -40.7413)" fill="#FFFFFF" width="3.291" height="0.984"/>
			
				<rect x="64.64" y="61.936" transform="matrix(0.7074 0.7068 -0.7068 0.7074 63.52 -28.5858)" fill="#FFFFFF" width="3.292" height="0.984"/>
		</g>
		<polygon fill="#FFFFFF" points="76.613,76.255 44.936,76.255 44.936,52.219 73.687,52.219 73.687,53.204 45.919,53.204 
			45.919,75.271 75.629,75.271 75.629,54.927 76.613,54.927 		"/>
	</g>
</g>
</svg>
