<?xml version="1.0" encoding="utf-8"?>
<!-- Generator: Adobe Illustrator 16.0.0, SVG Export Plug-In . SVG Version: 6.00 Build 0)  -->
<!DOCTYPE svg PUBLIC "-//W3C//DTD SVG 1.1//EN" "http://www.w3.org/Graphics/SVG/1.1/DTD/svg11.dtd">
<svg version="1.1" id="Layer_1" xmlns="http://www.w3.org/2000/svg" xmlns:xlink="http://www.w3.org/1999/xlink" x="0px" y="0px"
	 width="122px" height="122px" viewBox="0 0 122 122" enable-background="new 0 0 122 122" xml:space="preserve">
<path fill="#FFFFFF" d="M61,121C27.916,121,1,94.084,1,61c0-6.627,1.074-13.139,3.192-19.354c0.183-0.535,0.765-0.823,1.302-0.64
	c0.536,0.183,0.822,0.765,0.64,1.302C4.089,48.311,3.052,54.599,3.052,61c0,31.953,25.995,57.949,57.948,57.949
	S118.949,92.953,118.949,61S92.953,3.051,61,3.051c-5.73,0-11.391,0.833-16.82,2.477c-0.544,0.164-1.115-0.143-1.279-0.684
	c-0.164-0.543,0.143-1.115,0.685-1.279C49.209,1.863,55.069,1,61,1c33.084,0,60,26.916,60,60C121,94.084,94.084,121,61,121z"/>
<g>
	<path fill="#FFFFFF" d="M65.199,73.804H56.8l-0.146-0.165c-1.392-1.569-2.125-3.937-2.125-6.846c0-0.823,0.059-1.862,0.175-3.089
		c0.464-4.848,2.329-15.576,5.137-17.786l0.101-0.08l0.127-0.02c0.616-0.096,1.245-0.098,1.864,0l0.127,0.02l0.1,0.08
		c2.809,2.21,4.674,12.938,5.137,17.786c0.117,1.227,0.176,2.266,0.176,3.089c0,2.909-0.734,5.276-2.125,6.846L65.199,73.804z
		 M57.249,72.819h7.501c1.137-1.388,1.736-3.466,1.736-6.026c0-0.793-0.057-1.801-0.17-2.994c-0.57-5.967-2.5-15.099-4.672-17.027
		c-0.429-0.056-0.861-0.056-1.291,0c-2.171,1.928-4.101,11.061-4.67,17.027c-0.114,1.193-0.172,2.201-0.172,2.994
		C55.512,69.354,56.112,71.432,57.249,72.819z"/>
	<path fill="#FFFFFF" d="M69.924,76.255c-0.334,0-0.645-0.214-0.922-0.636c-0.754-1.147-1.715-2.371-3.582-2.371v-0.984
		c2.553,0,3.803,1.901,4.404,2.814c0.023,0.038,0.047,0.07,0.068,0.096c0.01-0.023,0.023-0.052,0.035-0.084
		c1.943-4.961,2.064-7.576,1.32-7.968c-2.279-1.205-5.068-5.689-5.186-5.88l0.838-0.517c0.025,0.044,2.764,4.446,4.809,5.526
		c1.506,0.794,1.215,3.889-0.863,9.198c-0.195,0.494-0.475,0.763-0.836,0.802C69.98,76.254,69.953,76.255,69.924,76.255z"/>
	<path fill="#FFFFFF" d="M52.078,76.255c-0.028,0-0.057-0.001-0.085-0.004c-0.362-0.04-0.643-0.31-0.835-0.804
		c-2.083-5.306-2.373-8.4-0.865-9.196c2.046-1.08,4.782-5.481,4.809-5.526l0.838,0.517c-0.118,0.19-2.907,4.675-5.187,5.88
		c-0.744,0.393-0.624,3.008,1.322,7.968c0.013,0.032,0.024,0.062,0.035,0.084c0.021-0.025,0.045-0.058,0.07-0.097
		c0.6-0.912,1.85-2.813,4.403-2.813v0.984c-1.867,0-2.828,1.224-3.581,2.37C52.723,76.041,52.413,76.255,52.078,76.255z"/>
	<rect x="55.411" y="69.639" fill="#FFFFFF" width="11.185" height="0.983"/>
	<rect x="59.236" y="62.321" fill="#FFFFFF" width="3.586" height="0.984"/>
	<path fill="#FFFFFF" d="M61.006,59.578c-1.527,0-2.77-1.242-2.77-2.769c0-1.526,1.242-2.768,2.77-2.768
		c1.527,0,2.767,1.242,2.767,2.768C63.773,58.336,62.533,59.578,61.006,59.578z M61.006,55.025c-0.985,0-1.786,0.8-1.786,1.784
		c0,0.984,0.801,1.785,1.786,1.785c0.984,0,1.785-0.8,1.785-1.785C62.791,55.825,61.99,55.025,61.006,55.025z"/>
</g>
</svg>
