<?xml version="1.0" encoding="utf-8"?>
<!-- Generator: Adobe Illustrator 16.0.0, SVG Export Plug-In . SVG Version: 6.00 Build 0)  -->
<!DOCTYPE svg PUBLIC "-//W3C//DTD SVG 1.1//EN" "http://www.w3.org/Graphics/SVG/1.1/DTD/svg11.dtd">
<svg version="1.1" id="Layer_1" xmlns="http://www.w3.org/2000/svg" xmlns:xlink="http://www.w3.org/1999/xlink" x="0px" y="0px"
	 width="122px" height="122px" viewBox="0 0 122 122" enable-background="new 0 0 122 122" xml:space="preserve">
<g>
	<path fill="#797979" d="M61,1c-5.932,0-11.791,0.863-17.415,2.564C43.042,3.729,42.735,4.3,42.9,4.843
		c0.164,0.542,0.737,0.848,1.278,0.685C49.611,3.884,55.27,3.051,61,3.051c9.379,0,18.236,2.254,26.082,6.226l0.923-1.83
		C79.882,3.333,70.711,1,61,1z"/>
	<path fill="#FFFFFF" d="M6.133,42.309c0.182-0.538-0.105-1.12-0.64-1.303c-0.537-0.182-1.12,0.105-1.302,0.64
		C2.074,47.861,1,54.372,1,61h2.051C3.051,54.597,4.088,48.309,6.133,42.309z"/>
	<path fill="#797979" d="M118.948,61H121c0-23.373-13.443-43.653-32.995-53.553l-0.923,1.83
		C105.966,18.839,118.948,38.425,118.948,61z"/>
	<path fill="#797979" d="M121,61h-2.052c0,22.574-12.982,42.161-31.866,51.723l0.923,1.83C107.557,104.652,121,84.372,121,61z"/>
	<path fill="#FFFFFF" d="M87.082,112.723c-7.846,3.973-16.703,6.227-26.082,6.227c-9.378,0-18.236-2.254-26.083-6.227
		C16.034,103.161,3.051,83.574,3.051,61H1c0,23.372,13.443,43.652,32.995,53.553C42.118,118.666,51.289,121,61,121
		s18.882-2.334,27.005-6.447L87.082,112.723z"/>
</g>
<g>
	<g>
		<path fill="#FFFFFF" d="M71.996,76.255H53.288c-0.556,0-1.008-0.452-1.008-1.011V50.507c0-0.558,0.452-1.01,1.008-1.01h11.461
			l8.254,9.195v16.553C73.003,75.803,72.552,76.255,71.996,76.255z M53.288,50.48l-0.023,24.764l18.731,0.026
			c0.013,0,0.023-0.012,0.023-0.026V59.068l-7.71-8.588H53.288z"/>
		<path fill="#FFFFFF" d="M70.557,59.372h-6.054c-0.555,0-1.005-0.454-1.005-1.01v-5.109h0.984v5.109l6.074,0.026V59.372z"/>
		<path fill="#FFFFFF" d="M51.365,74.379h-1.406c-0.53,0-0.962-0.431-0.962-0.961V46.707c0-0.531,0.432-0.961,0.962-0.961h11.255
			c0.529,0,0.961,0.431,0.961,0.961H61.19c0,0.012,0.011,0.023,0.023,0.023H49.959l0.022,26.688l1.384-0.023V74.379z"/>
	</g>
	<polygon fill="#FFFFFF" points="62.357,70.156 60.135,67.935 60.831,67.238 62.357,68.765 65.797,65.325 66.493,66.021 	"/>
</g>
</svg>
