<?xml version="1.0" standalone="no"?>
<!DOCTYPE svg PUBLIC "-//W3C//DTD SVG 1.1//EN" "http://www.w3.org/Graphics/SVG/1.1/DTD/svg11.dtd">
<svg xmlns="http://www.w3.org/2000/svg">
<metadata>Generated by Fontastic.me</metadata>
<defs>
<font id="visage-ui" horiz-adv-x="512">
<font-face font-family="visage-ui" units-per-em="512" ascent="480" descent="-32"/>
<missing-glyph horiz-adv-x="512" />

<glyph unicode="&#97;" d="M509 32l-509 0l0 269l81-82l109 118l158-155l161 96l0-246z m-429 253l108 118l166-162l155 92l0 66l-145-83l-177 167l-106-115l-81 79l0-81z"/>
<glyph unicode="&#98;" d="M443 411l-59 0l-14 36c-7 18-27 32-46 32l-136 0c-19 0-40-14-47-32l-13-36l-60 0c-37 0-68-31-68-68l0-239c0-37 31-68 68-68l375 0c38 0 68 31 68 68l0 239c0 37-30 68-68 68z m-187-307c-66 0-120 54-120 120c0 65 54 119 120 119c65 0 119-54 119-119c0-66-54-120-119-120z m0 196c-43 0-77-34-77-76c0-43 34-77 77-77c42 0 76 34 76 77c0 42-34 76-76 76z"/>
<glyph unicode="&#99;" d="M0 243l115 0l0-226l-115 0z m196 252l115 0l0-478l-115 0z m195-168l116 0l0-310l-116 0z"/>
<glyph unicode="&#100;" d="M0 288l257-65l258 65l0-65l-258-64l-257 64z m0-129l257-64l258 64l0-64l-258-65l-257 65z m0 257l257 65l258-65l0-64l-258-64l-257 64z"/>
<glyph unicode="&#101;" d="M164 93l-57-13l-25 25l13 56l219 219l-35 35l-229-229l-50-185l188 47l229 228l-35 35z m136 343l70 70l139-138l-70-70z m35-78l25-25l-215-216l-26 25z"/>
<glyph unicode="&#102;" d="M509 230l0 58l-8 2l-62 20l-17 40l32 68l-41 41l-7-4l-59-30l-40 17l-25 70l-58 0l-2-8l-20-62l-40-17l-68 32l-41-41l4-8l30-58l-17-40l-70-25l0-58l8-2l62-21l17-40l-32-67l41-41l8 4l58 29l40-16l25-70l58 0l2 8l21 62l40 17l67-32l41 41l-4 7l-29 59l16 40z m-254-54c-45 0-81 37-81 81c0 45 36 81 81 81c44 0 81-36 81-81c0-44-37-81-81-81z"/>
<glyph unicode="&#103;" d="M162 330c9 0 17 3 24 7l68-40c0-1 0-3 0-4c0-23 18-42 42-42c23 0 41 19 41 42c0 5-1 10-2 15l78 84l46-39l28 148l-143-49l41-35l-77-84c-4 2-8 2-12 2c-9 0-17-2-23-7l-69 42c0 0 0 1 0 2c0 23-19 42-42 42c-23 0-42-19-42-42c0-4 1-8 2-12l-56-51l0-51l81 75c5-2 10-3 15-3z m0-151c12 0 22 5 30 12l120-44c3-22 20-38 42-38c23 0 42 19 42 42c0 5-1 11-3 16l71 80l27-21l13 101l-94-38l24-19l-69-79c-3 1-7 2-11 2c-11 0-21-5-29-12l-121 46c-3 20-20 36-42 36c-23 0-42-19-42-42c0-1 0-2 0-3l-54-34l0-43l74 45c6-4 14-7 22-7z m-125-144l0 0l-1 0l0 477l-36 0l0-514l514 0l0 37z"/>
<glyph unicode="&#104;" d="M510 70l-135 134c20 31 31 68 31 107c0 111-90 201-200 201c-111 0-201-90-201-201c0-110 90-200 201-200c37 0 72 10 102 28l136-135z m-430 241c0 70 56 126 126 126c69 0 126-56 126-126c0-69-57-125-126-125c-70 0-126 56-126 125z"/>
<glyph unicode="&#105;" d="M276 406l0 35l59 59c9-3 17-6 26-10z m150 41l-150-150l0-17l18 0l150 149c-6 6-12 12-18 18z m-150 31l30 30c-10 2-19 3-30 4z m228-169l-29-29l34 0c-1 10-3 20-5 29z m-7 29c-3 9-6 17-10 26l-84-84l35 0z m-23 50c-4 7-9 14-14 21l-129-129l35 0z m-68 75c-7 5-14 10-21 14l-109-108l0-35z m-173-227l0 276c-130-11-233-120-233-254c0-141 114-255 255-255c133 0 243 103 254 233z"/>
<glyph unicode="&#106;" d="M399 153l-200 0l0 37l200 0z m0 73l-200 0l0 37l200 0z m0 71l-200 0l0 37l200 0z m-250-246l0 329l298 0c0 0 0-166 0-206c0-63-88-42-88-42c0 0 21-82-39-82c-40 1-24 1-171 1z m347 125l0 253l-396 0l0-428l221 0c84 0 175 99 175 175z m-437-124l0 416l386 0l0 44l-429 0l0-460z"/>
<glyph unicode="&#107;" d="M507 44c-11 4-21 7-31 8c-10 1-17 4-21 7c-3 2-6 8-11 18c-9 18-16 34-20 45c-8 23-15 40-20 51c-8 18-18 42-29 72c-11 29-25 59-38 90l-63 147l-3 7l-16 0c-8 0-15 0-23 0l-86-222l-73-188c-5-11-10-18-14-21c-4-3-16-6-34-10c-12-2-20-4-24-5l-1-24l6 0c17 0 34 1 52 4l14 2c57-4 92-6 107-6c1 3 1 6 1 9c0 3 0 9-1 17c-15 3-23 4-25 4c-16 2-26 6-32 10c-3 3-5 7-5 13c0 5 2 13 7 26c16 44 27 72 32 84l137-1l29-70l14-34c1-4 2-7 2-10c0-3-1-6-4-8c-2-2-9-5-21-8l-40-8c-1-8-1-16-1-24l18 1l61 3c9 0 22 1 41 1c17 0 37-1 58-3c21-1 41-2 59-2c0 3 0 6 0 8c0 3 0 9-2 17z m-238 174c-10 0-43 1-99 1l52 138c7-15 17-36 28-65c12-28 21-52 28-73z"/>
<glyph unicode="&#108;" d="M234 226c-23-63-53-74-53-74c114-12 107 62 102 72c-21 36-47 8-49 2z m66-10l-7-5l0 7c-1 0-3 0-4 1c1-3 1-6 1-10c0-11-3-27-16-40c3-5 4-11 4-17c0-21-17-39-39-39c-19 0-35 15-38 33c-7 0-13 1-20 1l-2 10c0 0 2 0 5 2c2 2 7 5 12 10c9 10 22 28 33 58l0 0c1 3 3 6 6 8c-20 21 0 55 0 55c31 50 46 83 47 108c-4 75-100 69-100 69c-157-15-188-165-181-220c30-332 343-177 353-120c6 34-6 75-54 89z m-218-50c-19 0-34 16-34 35c0 19 15 34 34 34c19 0 35-15 35-34c0-19-16-35-35-35z m8 118c-19 0-34 16-34 35c0 19 15 34 34 34c19 0 35-15 35-34c0-19-16-35-35-35z m79 73c-16 0-29 13-29 28c0 16 13 29 29 29c16 0 28-13 28-29c0-15-12-28-28-28z m129-137l42 29l-36 39l-28-38c22-7 22-30 22-30z m20 81l37-40c101 76 154 180 162 198c-135-67-194-150-199-158z"/>
<glyph unicode="&#109;" d="M463 477l0-50l-418 0l0 50l117 0c20 0 35 16 35 35l114 0c0-19 15-35 34-35z m-22-87l0-390l-374 0l0 390z m-260-77c0 10-8 18-19 18c-10 0-18-8-18-18l0-237c0-10 8-18 18-18c11 0 19 8 19 18z m92 0c0 10-9 18-19 18c-10 0-19-8-19-18l0-237c0-10 9-18 19-18c10 0 19 8 19 18z m91 0c0 10-8 18-18 18c-11 0-19-8-19-18l0-237c0-10 8-18 19-18c10 0 18 8 18 18z"/>
<glyph unicode="&#110;" d="M512 320l-194 0l-62 192l-62-192l-194 0l158-113l-60-186l158 116l158-116l-60 186z"/>
<glyph unicode="&#111;" d="M0 422l0-76l512 0l0 76z m0-204l512 0l0 76l-512 0z m0-128l512 0l0 76l-512 0z"/>
<glyph unicode="&#112;" d="M0 305l73 0l0-73l-73 0z m122 0l74 0l0-73l-74 0z m267 73l0-244l122 122z m-144-73l73 0l0-73l-73 0z"/>
<glyph unicode="&#113;" d="M520 21l-231 231l231 231l-29 29l-231-231l-231 231l-29-29l231-231l-231-231l29-29l231 231l231-231z"/>
<glyph unicode="&#114;" d="M501 65l-105 105c25 36 39 78 39 124c0 120-97 218-217 218c-120 0-218-98-218-218c0-120 98-217 218-217c46 0 88 14 124 39l105-105c7-8 17-11 27-11c10 0 20 3 27 11c15 15 15 39 0 54z m-424 229c0 78 63 141 141 141c77 0 140-63 140-141c0-77-63-140-140-140c-78 0-141 63-141 140z"/>
<glyph unicode="&#115;" d="M467 95l0 0l-1 2c0 0-1 1-1 2l-193 334c-3 5-9 9-16 9c-8 0-14-4-17-11l0 0l-191-331l0 0c-3-4-4-8-4-12c0-10 8-18 18-18l388 0c10 0 18 8 18 18c0 3 0 5-1 7z m-211 9c-15 0-26 12-26 27c0 14 11 26 26 26c15 0 26-12 26-26c0-15-11-27-26-27z m26 233l0-145l0 0c0 0 0 0 0 0c0-6-4-11-10-11c0 0 0 0 0 0l0 0l-32 0c-6 0-10 5-10 11c0 0 0 0 0 0l0 0l0 144c0 0 0 1 0 1c0 5 4 10 9 10l0 0l33 0l0 0c6 0 10-4 10-10l0 0l0 0c0 0 0 0 0 0z"/>
<glyph unicode="&#116;" d="M451 357l-66 66c-3 2-6 4-9 4c-3 0-7-2-9-4l-176-176l-46 47c-5 5-13 5-18 0l-66-66c-2-3-3-6-3-9c0-3 1-7 3-9l121-121c3-2 6-4 9-4c0 0 0 1 0 1c1 0 1-1 1-1c3 0 6 2 9 4l250 250c5 5 5 13 0 18z"/>
<glyph unicode="&#117;" d="M471 387l-44 45c-1 1-4 2-6 2c-2 0-4-1-6-2l-159-160l-31 31c-3 3-9 3-12 0l-44-44c-2-2-2-4-2-6c0-2 0-4 2-6l81-80c1-2 3-3 6-3c0 0 0 0 0 0c0 0 0 0 0 0c2 0 4 1 6 3l209 209c3 3 3 8 0 11z m-102-150l0-108l-226 0l0 226l159 0l51 51l-234 0l0 0c0 0 0 0-1 0c-14 0-25-12-26-26l0 0l0-276l0 0c1-14 12-26 26-26l0 0l276 0l0 0c14 0 25 12 26 26l0 0l0 185z"/>
<glyph unicode="&#118;" d="M442 302l-372 0c-4 0-8-3-8-8l0-77c0-4 4-8 8-8l372 0c4 0 8 4 8 8l0 77c0 5-4 8-8 8z m-154 119l0 0l-218 0c-4 0-8-4-8-8l0-77c0-5 4-8 8-8l218 0l0 0c3 1 6 4 6 8l0 77c0 4-3 7-6 8z m49-237l-267 0c-4 0-8-3-8-8l0-77c0-4 4-8 8-8l267 0c5 0 8 4 8 8l0 77c0 5-3 8-8 8z"/>
<glyph unicode="&#119;" d="M453 290l-52 5c-4 12-9 25-15 36l33 41c4 4 4 11 0 15l-32 32c-3 2-5 3-8 3c-3 0-5-1-7-3l-41-33c-12 6-24 11-36 15l-5 52c-1 6-6 10-11 10l-46 0c-5 0-10-4-11-10l-5-52c-12-4-24-9-36-15l-41 33c-2 2-4 3-7 3c-3 0-5-1-8-3l-32-32c-4-4-4-11 0-15l33-41c-6-11-11-24-15-36l-52-5c-6-1-10-6-10-11l0-46c0-5 4-10 10-11l52-5c4-12 9-24 15-36l-33-41c-4-4-4-11 0-15l32-32c3-2 5-3 8-3c3 0 5 1 7 3l41 33c12-6 24-11 36-15l5-52c1-6 6-10 11-10l46 0c5 0 10 4 11 10l5 52c12 4 24 9 36 15l41-33c2-2 4-3 7-3c3 0 5 1 8 3l32 32c4 4 4 11 0 15l-33 41c6 12 11 24 15 36l52 5c6 1 10 6 10 11l0 46c0 5-4 10-10 11z m-197-95c-34 0-61 27-61 61c0 34 27 61 61 61c34 0 61-27 61-61c0-34-27-61-61-61z"/>
<glyph unicode="&#120;" d="M291 459c-91 0-164-74-164-164c0-31 8-60 23-85l-79-79l0 0c-8-8-14-20-14-33c0-25 21-45 46-45c12 0 24 5 32 14l0-1l82 82c22-11 47-17 74-17c90 0 164 73 164 164c0 90-74 164-164 164z m1-263c-57 0-103 45-103 102c0 56 46 102 103 102c56 0 102-46 102-102c0-57-46-102-102-102z m60 126l-121 0c-4 0-8-4-8-8l0-32c0-5 4-8 8-8l121 0c4 0 8 3 8 8l0 32c0 4-4 8-8 8z"/>
<glyph unicode="&#121;" d="M291 459c-91 0-164-74-164-164c0-31 8-60 23-85l-79-79l0 0c-8-8-14-20-14-33c0-25 21-45 46-45c12 0 24 5 32 14l0-1l82 82c22-11 47-17 74-17c90 0 164 73 164 164c0 90-74 164-164 164z m1-263c-57 0-103 45-103 102c0 56 46 102 103 102c56 0 102-46 102-102c0-57-46-102-102-102z m60 126l0 0l-36 0l0 36c0 5-4 8-8 8c0 0-1 0-1 0l-31 0c0 0 0 0 0 0c-5 0-8-3-8-8c0 0 0 0 0-1l0-35l-37 0c-4 0-8-4-8-8l0-32c0-5 4-8 8-8c1 0 1 0 1 0l36 0l-1-36l1 0c0 0 0 0 0 0c0-5 3-8 8-8c0 0 0 0 0 0l0 0l32 0l0 0c4 0 8 3 8 8l0 0l0 36l36 0l0 0c0 0 0 0 0 0c4 0 8 3 8 8l0 32c0 4-4 8-8 8z"/>
<glyph unicode="&#122;" d="M388 87l-194 336l-194-336z"/>
<glyph unicode="&#65;" d="M0 423l194-336l194 336z"/>
<glyph unicode="&#66;" d="M505 266l-246 246l-29-29l211-210l-441 0l0-41l441 0l-211-211l29-29l246 246l14 14l0 0z"/>
<glyph unicode="&#67;" d="M14 266l246 246l29-29l-211-210l441 0l0-41l-441 0l211-211l-29-29l-246 246l-14 14l0 0z"/>
<glyph unicode="&#68;" d="M290 512l-253 0l0-468l49 0l0 419l254 0z m83-91l-244 0l0-419l345 0l0 318z m52-369l-247 0l0 319l164 0l0-82l83 0z"/>
<glyph unicode="&#69;" d="M101 274c0-2-1-5-3-6l-82-83c-2-1-4-2-7-2c-2 0-4 1-6 3c-2 1-3 4-3 6l0 165c0 2 1 4 3 6c2 2 4 3 6 3c3 0 5-1 7-3l82-82c2-2 3-4 3-7z m411-137l0-55c0-2-1-4-3-6c-2-2-4-3-6-3l-494 0c-2 0-4 1-6 3c-2 2-3 4-3 6l0 55c0 3 1 5 3 7c2 1 4 2 6 2l494 0c2 0 4-1 6-2c2-2 3-4 3-7z m0 110l0-55c0-2-1-5-3-6c-2-2-4-3-6-3l-311 0c-2 0-5 1-6 3c-2 1-3 4-3 6l0 55c0 2 1 4 3 6c1 2 4 3 6 3l311 0c2 0 4-1 6-3c2-2 3-4 3-6z m0 110l0-55c0-3-1-5-3-7c-2-2-4-2-6-2l-311 0c-2 0-5 0-6 2c-2 2-3 4-3 7l0 55c0 2 1 4 3 6c1 2 4 3 6 3l311 0c2 0 4-1 6-3c2-2 3-4 3-6z m0 109l0-55c0-2-1-4-3-6c-2-2-4-3-6-3l-494 0c-2 0-4 1-6 3c-2 2-3 4-3 6l0 55c0 3 1 5 3 7c2 2 4 2 6 2l494 0c2 0 4 0 6-2c2-2 3-4 3-7z"/>
<glyph unicode="&#70;" d="M462 228l0 56l-49 17c-4 12-8 23-14 34l22 47l-39 39l-47-22c-11 6-22 10-34 14l-17 49l-56 0l-17-49c-12-4-23-8-34-14l-47 22l-39-39l22-47c-6-11-10-22-14-34l-49-17l0-56l49-17c4-12 8-23 14-34l-22-47l39-39l47 22c11-6 22-10 34-14l17-49l56 0l17 49c12 4 23 8 34 14l47-22l39 39l-22 47c6 11 10 22 14 34z m-206-48c-42 0-76 34-76 76c0 42 34 76 76 76c42 0 76-34 76-76c0-42-34-76-76-76z"/>
<glyph unicode="&#71;" d="M303 63l-186 186c-7 7-10 15-10 25c0 11 3 19 10 26l186 186c7 7 16 11 26 11c10 0 19-4 26-11l22-21c7-7 10-16 10-26c0-10-3-19-10-26l-139-139l139-138c7-8 10-16 10-26c0-10-3-19-10-26l-22-21c-7-7-16-11-26-11c-10 0-19 4-26 11z"/>
<glyph unicode="&#72;" d="M244 117c-3-6-3-10 3-10c11 0 55 25 75 41c10 0 18-8 16-16c-32-33-103-76-169-76c-21 0-37 18-37 25c0 7 3 15 10 28l83 160c3 5 3 9-1 9c-14 0-59-27-72-36c-9 1-16 9-12 15c43 43 118 74 161 74c17 0 37-14 37-28c0-7-6-19-11-29z m91 355c27 0 45-13 45-38c0-28-24-52-61-52c-30 0-47 16-47 37c0 28 26 53 63 53z"/>
<glyph unicode="&#73;" d="M460 104l-109 109c16 25 26 55 26 86c0 90-73 163-163 163c-90 0-162-73-162-163c0-89 72-162 162-162c30 0 59 8 83 23l110-110z m-348 195c0 57 46 102 102 102c56 0 102-45 102-102c0-56-46-101-102-101c-56 0-102 45-102 101z"/>
<glyph unicode="&#74;" d="M107 213l192 0l0-96l138 139l-138 139l0-96l-193 0c-23 0-42-19-42-43c0-24 20-43 43-43z"/>
<glyph unicode="&#75;" d="M55 37l82 0l0 82l-82 0z m100 0l92 0l0 82l-92 0z m-100 100l82 0l0 92l-82 0z m100 0l92 0l0 92l-92 0z m-100 110l82 0l0 82l-82 0z m210-210l92 0l0 82l-92 0z m-110 210l92 0l0 82l-92 0z m220-210l82 0l0 82l-82 0z m-110 100l92 0l0 92l-92 0z m-100 247l0 82c0 3-1 5-3 7c-2 2-4 2-7 2l-18 0c-2 0-4 0-6-2c-2-2-3-4-3-7l0-82c0-2 1-5 3-6c2-2 4-3 6-3l18 0c3 0 5 1 7 3c2 1 3 4 3 6z m210-247l82 0l0 92l-82 0z m-110 110l92 0l0 82l-92 0z m110 0l82 0l0 82l-82 0z m9 137l0 82c0 3-1 5-3 7c-2 2-4 2-6 2l-18 0c-3 0-5 0-7-2c-2-2-3-4-3-7l0-82c0-2 1-5 3-6c2-2 4-3 7-3l18 0c2 0 4 1 6 3c2 1 3 4 3 6z m110 18l0-365c0-10-4-19-11-26c-7-7-16-11-26-11l-402 0c-10 0-19 4-26 11c-7 7-11 16-11 26l0 365c0 10 4 19 11 26c7 7 16 11 26 11l36 0l0 27c0 13 5 24 14 33c9 9 20 13 32 13l18 0c13 0 24-4 33-13c9-9 13-20 13-33l0-27l110 0l0 27c0 13 4 24 13 33c9 9 20 13 33 13l18 0c12 0 23-4 32-13c9-9 14-20 14-33l0-27l36 0c10 0 19-4 26-11c7-7 11-16 11-26z"/>
<glyph unicode="&#76;" d="M256 136c-81 0-158 56-206 127c54 75 133 113 206 113c74 0 154-37 206-113c-45-74-121-127-206-127z m-162 126c39-49 98-91 162-91c88 0 145 66 164 91c-40 46-98 79-164 79c-84 0-142-56-162-79z m164-6l-58 38c-7-11-11-24-11-38c0-38 31-70 69-70c39 0 70 32 70 70c0 38-31 69-70 69c-13 0-25-3-35-9z"/>
<glyph unicode="&#77;" d="M384 299l-192 0l0 96l-139-139l139-139l0 96l193 0c23 0 42 19 42 43c0 24-20 43-43 43z"/>
<glyph unicode="&#78;" d="M213 384l0-192l-96 0l139-139l139 139l-96 0l0 193c0 23-19 42-43 42c-24 0-43-20-43-43z"/>
<glyph unicode="&#79;" d="M299 107l0 192l96 0l-139 138l-139-138l96 0l0-193c0-23 19-42 43-42c24 0 43 20 43 43z"/>
<glyph unicode="&#80;" d="M426 134c0-7-3-14-8-19l-39-39c-5-5-12-8-20-8c-7 0-14 3-19 8l-84 84l-84-84c-5-5-12-8-19-8c-8 0-15 3-20 8l-39 39c-5 5-8 12-8 19c0 8 3 14 8 20l84 84l-84 84c-5 5-8 12-8 19c0 8 3 14 8 20l39 38c5 6 12 8 20 8c7 0 14-2 19-8l84-84l84 84c5 6 12 8 19 8c8 0 15-2 20-8l39-38c5-6 8-12 8-20c0-7-3-14-8-19l-84-84l84-84c5-6 8-12 8-20z"/>
<glyph unicode="&#81;" d="M73 137l0-55c0-2-1-4-3-6c-1-2-4-3-6-3l-55 0c-2 0-4 1-6 3c-2 2-3 4-3 6l0 55c0 3 1 5 3 7c2 1 4 2 6 2l55 0c2 0 5-1 6-2c2-2 3-4 3-7z m0 110l0-55c0-2-1-5-3-6c-1-2-4-3-6-3l-55 0c-2 0-4 1-6 3c-2 1-3 4-3 6l0 55c0 2 1 4 3 6c2 2 4 3 6 3l55 0c2 0 5-1 6-3c2-2 3-4 3-6z m0 110l0-55c0-3-1-5-3-7c-1-2-4-2-6-2l-55 0c-2 0-4 0-6 2c-2 2-3 4-3 7l0 55c0 2 1 4 3 6c2 2 4 3 6 3l55 0c2 0 5-1 6-3c2-2 3-4 3-6z m439-220l0-55c0-2-1-4-3-6c-2-2-4-3-6-3l-384 0c-3 0-5 1-7 3c-1 2-2 4-2 6l0 55c0 3 1 5 2 7c2 1 4 2 7 2l384 0c2 0 4-1 6-2c2-2 3-4 3-7z m-439 329l0-55c0-2-1-4-3-6c-1-2-4-3-6-3l-55 0c-2 0-4 1-6 3c-2 2-3 4-3 6l0 55c0 3 1 5 3 7c2 2 4 2 6 2l55 0c2 0 5 0 6-2c2-2 3-4 3-7z m439-219l0-55c0-2-1-5-3-6c-2-2-4-3-6-3l-384 0c-3 0-5 1-7 3c-1 1-2 4-2 6l0 55c0 2 1 4 2 6c2 2 4 3 7 3l384 0c2 0 4-1 6-3c2-2 3-4 3-6z m0 110l0-55c0-3-1-5-3-7c-2-2-4-2-6-2l-384 0c-3 0-5 0-7 2c-1 2-2 4-2 7l0 55c0 2 1 4 2 6c2 2 4 3 7 3l384 0c2 0 4-1 6-3c2-2 3-4 3-6z m0 109l0-55c0-2-1-4-3-6c-2-2-4-3-6-3l-384 0c-3 0-5 1-7 3c-1 2-2 4-2 6l0 55c0 3 1 5 2 7c2 2 4 2 7 2l384 0c2 0 4 0 6-2c2-2 3-4 3-7z"/>
<glyph unicode="&#82;" d="M512 128l0-37c0-5-2-9-5-12c-4-4-8-6-13-6l-476 0c-5 0-9 2-13 6c-3 3-5 7-5 12l0 37c0 5 2 9 5 13c4 3 8 5 13 5l476 0c5 0 9-2 13-5c3-4 5-8 5-13z m0 110l0-37c0-5-2-9-5-13c-4-3-8-5-13-5l-476 0c-5 0-9 2-13 5c-3 4-5 8-5 13l0 37c0 5 2 9 5 13c4 3 8 5 13 5l476 0c5 0 9-2 13-5c3-4 5-8 5-13z m0 109l0-36c0-5-2-9-5-13c-4-4-8-5-13-5l-476 0c-5 0-9 1-13 5c-3 4-5 8-5 13l0 36c0 5 2 10 5 13c4 4 8 6 13 6l476 0c5 0 9-2 13-6c3-3 5-8 5-13z m0 110l0-36c0-5-2-10-5-13c-4-4-8-6-13-6l-476 0c-5 0-9 2-13 6c-3 3-5 8-5 13l0 36c0 5 2 9 5 13c4 4 8 5 13 5l476 0c5 0 9-1 13-5c3-4 5-8 5-13z"/>
<glyph unicode="&#83;" d="M512 128l0-37c0-5-2-9-5-12c-4-4-8-6-13-6l-476 0c-5 0-9 2-13 6c-3 3-5 7-5 12l0 37c0 5 2 9 5 13c4 3 8 5 13 5l476 0c5 0 9-2 13-5c3-4 5-8 5-13z m0 110l0-37c0-5-2-9-5-13c-4-3-8-5-13-5l-366 0c-5 0-9 2-13 5c-3 4-5 8-5 13l0 37c0 5 2 9 5 13c4 3 8 5 13 5l366 0c5 0 9-2 13-5c3-4 5-8 5-13z m0 109l0-36c0-5-2-9-5-13c-4-4-8-5-13-5l-439 0c-5 0-9 1-13 5c-4 4-5 8-5 13l0 36c0 5 1 10 5 13c4 4 8 6 13 6l439 0c5 0 9-2 13-6c3-3 5-8 5-13z m0 110l0-36c0-5-2-10-5-13c-4-4-8-6-13-6l-329 0c-5 0-10 2-13 6c-4 3-6 8-6 13l0 36c0 5 2 9 6 13c3 4 8 5 13 5l329 0c5 0 9-1 13-5c3-4 5-8 5-13z"/>
<glyph unicode="&#84;" d="M512 128l0-37c0-5-2-9-5-12c-4-4-8-6-13-6l-476 0c-5 0-9 2-13 6c-3 3-5 7-5 12l0 37c0 5 2 9 5 13c4 3 8 5 13 5l476 0c5 0 9-2 13-5c3-4 5-8 5-13z m-110 110l0-37c0-5-2-9-5-13c-4-3-8-5-13-5l-256 0c-5 0-9 2-13 5c-3 4-5 8-5 13l0 37c0 5 2 9 5 13c4 3 8 5 13 5l256 0c5 0 9-2 13-5c3-4 5-8 5-13z m73 109l0-36c0-5-1-9-5-13c-4-4-8-5-13-5l-402 0c-5 0-9 1-13 5c-4 4-5 8-5 13l0 36c0 5 1 10 5 13c4 4 8 6 13 6l402 0c5 0 9-2 13-6c4-3 5-8 5-13z m-109 110l0-36c0-5-2-10-6-13c-3-4-8-6-13-6l-182 0c-5 0-10 2-13 6c-4 3-6 8-6 13l0 36c0 5 2 9 6 13c3 4 8 5 13 5l182 0c5 0 10-1 13-5c4-4 6-8 6-13z"/>
<glyph unicode="&#85;" d="M512 128l0-37c0-5-2-9-5-12c-4-4-8-6-13-6l-476 0c-5 0-9 2-13 6c-3 3-5 7-5 12l0 37c0 5 2 9 5 13c4 3 8 5 13 5l476 0c5 0 9-2 13-5c3-4 5-8 5-13z m-110 110l0-37c0-5-2-9-5-13c-4-3-8-5-13-5l-366 0c-5 0-9 2-13 5c-3 4-5 8-5 13l0 37c0 5 2 9 5 13c4 3 8 5 13 5l366 0c5 0 9-2 13-5c3-4 5-8 5-13z m73 109l0-36c0-5-1-9-5-13c-4-4-8-5-13-5l-439 0c-5 0-9 1-13 5c-3 4-5 8-5 13l0 36c0 5 2 10 5 13c4 4 8 6 13 6l439 0c5 0 9-2 13-6c4-3 5-8 5-13z m-109 110l0-36c0-5-2-10-6-13c-3-4-8-6-13-6l-329 0c-5 0-9 2-13 6c-3 3-5 8-5 13l0 36c0 5 2 9 5 13c4 4 8 5 13 5l329 0c5 0 10-1 13-5c4-4 6-8 6-13z"/>
<glyph unicode="&#86;" d="M23 475l16-8c3-1 23-1 60-1l37 0l5 1l33 0l62 0l83 0l10-1c3 0 5 1 8 2c3 2 5 3 6 5l2 2l12 0c3 0 6 0 8 0l0-30c0 0 0-12 0-37l1-29l-1-16c0-7 0-11-1-15c-7-3-14-5-19-5c-5 8-10 20-16 36c-1 5-3 11-4 18c-1 8-3 14-3 19c-1 5-2 8-2 8c-2 3-5 5-8 6c-1 0-5 0-12 0c-7 0-16 0-29 0c-13 0-24 0-32 0c-7 0-13-1-19-2c-2-18-3-31-3-39l1-43l0-95l1-102l-1-42c0-9 1-17 3-25c10-4 18-8 26-9c0 0 2 0 5-1c3-1 7-2 13-4c5-2 9-3 12-3c6-2 10-4 14-6c1-8 2-13 2-14c0-2-1-5-1-8c-3 0-6 0-10 0c-21 0-39 1-53 2c-14 2-37 3-68 3c-17 0-39-2-67-4c-9-1-16-1-20-1c0 4-1 6-1 7l0 7l0 3c4 6 12 11 23 14c26 7 41 12 45 14c2 4 3 10 4 16c1 37 2 78 1 124l-1 122c0 12 0 23 0 34c0 11 0 21 0 29c0 9 0 15-1 17c0 2-1 3-1 4c-2 1-3 2-4 2c-8 1-22 1-43 1c-8 0-17-1-28-3c-11-3-18-5-21-7c-3-2-5-5-6-10c-2-4-4-12-7-21c-2-10-4-18-7-24c-1-4-3-7-5-9c-3-3-5-4-6-4c-8 5-14 9-16 12l0 110z m475-365c7 0 11-2 12-6c2-3 1-7-3-12l-36-47c-4-5-8-7-14-7c-5 0-10 2-14 7l-36 47c-4 5-5 9-3 12c2 4 6 6 12 6l23 0l0 292l-23 0c-6 0-10 2-12 6c-2 3-1 7 3 12l36 47c4 5 9 7 14 7c6 0 10-2 14-7l36-47c4-5 5-9 3-12c-1-4-5-6-12-6l-23 0l0-292z"/>
<glyph unicode="&#87;" d="M60 475l15-8c4-1 24-1 60-1l38 0l5 1l33 0l127 0l91 0l10-1c3 0 5 1 8 2c3 2 5 3 6 5l2 2l12 0c3 0 5 0 8 0l0-30c0 0 0-12 0-37l0-29l0-16c0-7 0-11-1-15c-7-3-14-5-19-5c-5 8-10 20-16 36c-1 5-3 11-4 18c-2 8-3 14-4 19c0 5-1 8-1 8c-3 3-5 5-8 6c-1 0-7 0-17 0c-10 0-23 0-39 0c-17 0-29 0-37 0c-18 0-30-1-36-2c-2-18-3-31-2-39l0-43l0 15l1-103l-1-42c0-8 1-17 4-24c9-5 17-8 25-9c0 0 2-1 5-2c3-1 7-2 13-3c5-2 9-3 12-4c6-1 10-3 14-5c1-8 2-13 2-14c0-2-1-5-1-8c-3-1-6-1-10-1c-21 0-39 1-53 3c-14 2-37 2-68 2c-16 0-38-1-67-3c-8-1-15-2-20-2c0 4 0 7 0 8l-1 7l0 3c4 6 12 11 23 14c26 7 41 12 45 14c2 4 3 9 4 16c1 26 1 67 1 124l-1 12c0 51 0 77-1 80c0 2-1 3-1 4c-1 1-3 2-4 2c-8 1-22 1-43 1c-9 0-25-1-48-4c-22-2-35-5-38-6c-2-2-4-5-6-10c-2-4-4-12-6-21c-3-10-5-18-7-24c-1-4-3-7-6-9c-2-3-4-4-5-4c-9 5-14 9-16 12l0 110z m407-370c5-3 7-8 7-14c0-5-2-10-7-14l-47-36c-5-3-9-4-12-3c-4 2-6 6-6 12l0 23l-292 0l0-23c0-6-2-10-6-12c-3-1-7 0-12 3l-47 36c-5 4-7 9-7 14c0 6 2 11 7 14l47 36c5 4 9 5 12 4c4-2 6-6 6-12l0-23l292 0l0 23c0 6 2 10 6 12c3 1 7 0 12-4z"/>
<glyph unicode="&#88;" d="M213 77c15-6 28-9 40-9c25 0 46 4 62 12c16 8 28 19 35 32c7 14 11 31 11 52c0 22-4 39-12 51c-11 18-24 30-40 36c-15 7-39 10-71 10c-14 0-23-1-29-3l0-41l0-50l1-77c0-3 1-7 3-13z m-4 214c9-2 19-2 32-2c33 0 58 6 75 18c17 13 25 34 25 64c0 21-8 39-24 54c-16 14-40 21-73 21c-10 0-22-1-37-4c0-8 0-15 1-22c1-23 2-50 1-79l0-28c0-9 0-16 0-22z m-154-254l0 26c9 2 15 3 20 4c15 2 26 5 35 9c3 5 5 10 6 14c2 13 3 31 3 56l-1 142c-1 48-2 87-3 115c0 17-1 27-3 31c0 1-1 2-3 4c-4 2-10 3-20 4c-6 0-16 2-32 4l-2 23l75 2l108 4l13 0c1 0 2 0 4 0c2 0 3 0 4 0c0 0 2 0 6 0c4 0 8 0 12 0l21 0c17 0 35-2 55-8c8-2 17-6 27-11c11-5 21-12 29-21c9-9 15-19 19-30c4-11 6-23 6-35c0-13-3-26-9-37c-7-11-16-21-28-30c-5-3-19-11-42-22c33-7 59-21 76-41c17-20 26-43 26-68c0-14-3-30-8-46c-4-12-11-23-20-33c-13-14-26-24-40-31c-14-7-34-13-58-17c-16-3-35-4-57-3l-56 1c-16 0-45-1-85-3c-7-1-33-2-78-3z"/>
<glyph unicode="&#89;" d="M225 352l-48-128c14 0 28-1 44-1c15 0 26 0 34 0c7 0 12 0 15 0l8 0c-6 18-15 41-26 69c-10 25-19 45-27 60z m-201-315l-6 0l1 22c4 1 12 3 23 5c17 3 27 6 31 9c4 3 9 10 14 20l68 176l80 206l36 0l3-6l59-137c19-46 31-74 35-85c8-19 17-41 28-67c5-11 11-26 18-47c5-12 11-27 19-42c4-9 7-15 10-16c4-4 11-6 20-7c9-1 18-4 29-8c1-7 2-13 2-16c0-3 0-5-1-7c-15 0-33 0-54 2c-18 1-36 2-54 2c-15 0-28 0-39 0l-57-4l-17 0c0 8 1 16 1 22l38 8c11 3 17 5 19 7c3 2 4 5 4 7c0 3-1 6-2 10l-13 32l-27 65l-128 1c-6-13-16-39-30-78c-4-13-7-21-7-24c0-6 2-10 5-13c5-4 15-7 30-9c0 0 2 0 4 0c2-1 4-1 8-2c4 0 8-1 12-2c0-5 0-10 0-16c0-3 0-6-1-8c-12 0-45 2-99 6l-14-2c-15-3-31-4-48-4z"/>
<glyph unicode="&#90;" d="M403 357l-101-101l101-101l41 41c6 6 12 7 20 4c8-4 11-9 11-17l0-128c0-5-1-9-5-13c-4-4-8-5-13-5l-128 0c-8 0-13 3-17 11c-3 7-2 14 4 20l41 41l-101 101l-101-101l41-41c6-6 7-13 4-20c-4-8-9-11-17-11l-128 0c-5 0-9 1-13 5c-4 4-5 8-5 13l0 128c0 8 3 13 11 17c7 3 14 2 20-4l41-41l101 101l-101 101l-41-41c-4-3-8-5-13-5c-2 0-5 0-7 1c-8 4-11 9-11 17l0 128c0 5 1 9 5 13c4 4 8 5 13 5l128 0c8 0 13-3 17-11c3-7 2-14-4-20l-41-41l101-101l101 101l-41 41c-6 6-7 13-4 20c4 8 9 11 17 11l128 0c5 0 9-1 13-5c4-4 5-8 5-13l0-128c0-8-3-13-11-17c-2-1-5-1-7-1c-5 0-9 2-13 5z"/>
<glyph unicode="&#48;" d="M507 101c0 0 0 0 0 0l-155 155l155 155c0 0 0 0 0 0c2 2 3 4 4 6c2 6 1 12-4 17l-73 73c-5 5-11 6-17 4c-2-1-4-2-6-4c0 0 0 0 0 0l-155-155l-155 155c0 0 0 0 0 0c-2 2-4 3-6 4c-6 2-12 1-17-4l-73-73c-5-5-6-11-4-17c1-2 2-4 4-6c0 0 0 0 0 0l155-155l-155-155c0 0 0 0 0 0c-2-2-3-4-4-6c-2-6-1-12 4-17l73-73c5-5 11-6 17-4c2 1 4 2 6 4c0 0 0 0 0 0l155 155l155-155c0 0 0 0 0 0c2-2 4-3 6-4c6-2 12-1 17 4l73 73c5 5 6 11 4 17c-1 2-2 4-4 6z"/>
<glyph unicode="&#49;" d="M399 302c0-3-1-5-3-7l-133-133c-2-2-5-3-7-3c-2 0-5 1-7 3l-133 133c-2 2-3 4-3 7c0 2 1 4 3 6l15 15c1 1 4 2 6 2c3 0 5-1 7-2l112-113l112 113c2 1 4 2 7 2c2 0 5-1 6-2l15-15c2-2 3-4 3-6z"/>
<glyph unicode="&#50;" d="M405 274c0-10-3-18-10-26l-186-186c-7-7-16-10-26-10c-10 0-19 3-26 10l-22 22c-7 7-10 16-10 26c0 10 3 18 10 25l139 139l-139 139c-7 7-10 16-10 26c0 10 3 19 10 26l22 21c7 7 16 11 26 11c10 0 19-4 26-11l186-186c7-7 10-16 10-26z"/>
<glyph unicode="&#51;" d="M110 357l0-165c0-2-1-5-3-6c-2-2-4-3-6-3c-3 0-5 1-7 2l-82 83c-2 1-3 4-3 6c0 3 1 5 3 7l82 82c2 2 4 3 7 3c2 0 4-1 6-3c2-2 3-4 3-6z m402-220l0-55c0-2-1-4-3-6c-2-2-4-3-6-3l-494 0c-2 0-4 1-6 3c-2 2-3 4-3 6l0 55c0 3 1 5 3 7c2 1 4 2 6 2l494 0c2 0 4-1 6-2c2-2 3-4 3-7z m0 110l0-55c0-2-1-5-3-6c-2-2-4-3-6-3l-311 0c-2 0-5 1-6 3c-2 1-3 4-3 6l0 55c0 2 1 4 3 6c1 2 4 3 6 3l311 0c2 0 4-1 6-3c2-2 3-4 3-6z m0 110l0-55c0-3-1-5-3-7c-2-2-4-2-6-2l-311 0c-2 0-5 0-6 2c-2 2-3 4-3 7l0 55c0 2 1 4 3 6c1 2 4 3 6 3l311 0c2 0 4-1 6-3c2-2 3-4 3-6z m0 109l0-55c0-2-1-4-3-6c-2-2-4-3-6-3l-494 0c-2 0-4 1-6 3c-2 2-3 4-3 6l0 55c0 3 1 5 3 7c2 2 4 2 6 2l494 0c2 0 4 0 6-2c2-2 3-4 3-7z"/>
<glyph unicode="&#52;" d="M171 341c0-14-5-26-15-36c-10-10-22-15-37-15c-14 0-26 5-36 15c-10 10-15 22-15 36c0 15 5 27 15 37c10 10 22 15 36 15c15 0 27-5 37-15c10-10 15-22 15-37z m273-102l0-120l-376 0l0 52l86 85l42-43l137 137z m25 188l-426 0c-3 0-5-1-6-3c-2-2-3-4-3-6l0-324c0-2 1-4 3-6c1-2 3-3 6-3l426 0c3 0 5 1 6 3c2 2 3 4 3 6l0 324c0 2-1 4-3 6c-1 2-3 3-6 3z m43-9l0-324c0-12-4-22-13-30c-8-9-18-13-30-13l-426 0c-12 0-22 4-30 13c-9 8-13 18-13 30l0 324c0 12 4 22 13 30c8 9 18 13 30 13l426 0c12 0 22-4 30-13c9-8 13-18 13-30z"/>
<glyph unicode="&#53;" d="M399 174c0-3-1-5-3-7l-15-14c-1-2-4-3-6-3c-3 0-5 1-7 3l-112 112l-112-112c-2-2-4-3-7-3c-2 0-5 1-6 3l-15 14c-2 2-3 4-3 7c0 2 1 4 3 6l133 133c2 2 5 3 7 3c2 0 5-1 7-3l133-133c2-2 3-4 3-6z"/>
<glyph unicode="&#54;" d="M335 238c0-3-1-5-3-7l-133-133c-2-2-5-3-7-3c-2 0-5 1-7 3l-14 14c-2 2-3 4-3 7c0 2 1 5 3 6l112 113l-112 112c-2 2-3 4-3 7c0 2 1 4 3 6l14 14c2 2 5 3 7 3c2 0 5-1 7-3l133-133c2-2 3-4 3-6z"/>
<glyph unicode="&#55;" d="M344 357c0-3-1-5-3-7l-112-112l112-113c2-1 3-4 3-6c0-3-1-5-3-7l-14-14c-2-2-5-3-7-3c-2 0-5 1-7 3l-133 133c-2 2-3 4-3 7c0 2 1 4 3 6l133 133c2 2 5 3 7 3c2 0 5-1 7-3l14-14c2-2 3-4 3-6z"/>
<glyph unicode="&#56;" d="M293 119l0 54c0 3-1 5-3 7c-2 2-4 3-7 3l-54 0c-3 0-5-1-7-3c-2-2-3-4-3-7l0-54c0-3 1-5 3-7c2-1 4-2 7-2l54 0c3 0 5 1 7 2c2 2 3 4 3 7z m-1 107l5 131c0 2-1 4-3 6c-2 2-4 3-7 3l-62 0c-3 0-5-1-7-3c-2-2-3-4-3-6l5-131c0-2 1-3 3-5c1-1 4-2 6-2l53 0c3 0 5 1 7 2c2 2 3 3 3 5z m-4 267l219-402c7-12 7-24 0-36c-3-6-8-10-13-14c-6-3-12-4-19-4l-438 0c-7 0-13 1-19 4c-5 4-10 8-13 14c-7 12-7 24 0 36l219 402c3 6 8 10 13 14c6 3 12 5 19 5c7 0 13-2 19-5c5-4 10-8 13-14z"/>
<glyph unicode="&#57;" d="M146 155l0-54c0-8-2-15-8-20c-5-5-12-8-19-8l-92 0c-7 0-14 3-19 8c-5 5-8 12-8 20l0 54c0 8 3 15 8 20c5 5 12 8 19 8l92 0c7 0 14-3 19-8c6-5 8-12 8-20z m0 147l0-55c0-8-2-14-8-20c-5-5-12-8-19-8l-92 0c-7 0-14 3-19 8c-5 6-8 12-8 20l0 55c0 7 3 14 8 19c5 5 12 8 19 8l92 0c7 0 14-3 19-8c6-5 8-12 8-19z m366-147l0-54c0-8-3-15-8-20c-5-5-12-8-19-8l-275 0c-7 0-14 3-19 8c-5 5-8 12-8 20l0 54c0 8 3 15 8 20c5 5 12 8 19 8l275 0c7 0 14-3 19-8c5-5 8-12 8-20z m-366 293l0-55c0-7-2-14-8-19c-5-6-12-8-19-8l-92 0c-7 0-14 2-19 8c-5 5-8 12-8 19l0 55c0 8 3 14 8 19c5 6 12 8 19 8l92 0c7 0 14-2 19-8c6-5 8-11 8-19z m366-146l0-55c0-8-3-14-8-20c-5-5-12-8-19-8l-275 0c-7 0-14 3-19 8c-5 6-8 12-8 20l0 55c0 7 3 14 8 19c5 5 12 8 19 8l275 0c7 0 14-3 19-8c5-5 8-12 8-19z m0 146l0-55c0-7-3-14-8-19c-5-6-12-8-19-8l-275 0c-7 0-14 2-19 8c-5 5-8 12-8 19l0 55c0 8 3 14 8 19c5 6 12 8 19 8l275 0c7 0 14-2 19-8c5-5 8-11 8-19z"/>
<glyph unicode="&#33;" d="M256 448c-141 0-256-190-256-190c0 0 115-194 256-194c141 0 256 194 256 194c0 0-115 190-256 190z m0-320c-71 0-128 57-128 128c0 71 57 128 128 128c71 0 128-57 128-128c0-71-57-128-128-128z m-64 128c0-35 29-64 64-64c35 0 64 29 64 64c0 35-29 64-64 64c-35 0-64-29-64-64z"/>
<glyph unicode="&#34;" d="M146 155l0-54c0-8-2-15-8-20c-5-5-12-8-19-8l-92 0c-7 0-14 3-19 8c-5 5-8 12-8 20l0 54c0 8 3 15 8 20c5 5 12 8 19 8l92 0c7 0 14-3 19-8c6-5 8-12 8-20z m0 147l0-55c0-8-2-14-8-20c-5-5-12-8-19-8l-92 0c-7 0-14 3-19 8c-5 6-8 12-8 20l0 55c0 7 3 14 8 19c5 5 12 8 19 8l92 0c7 0 14-3 19-8c6-5 8-12 8-19z m183-147l0-54c0-8-3-15-8-20c-5-5-12-8-19-8l-92 0c-7 0-14 3-19 8c-5 5-8 12-8 20l0 54c0 8 3 15 8 20c5 5 12 8 19 8l92 0c7 0 14-3 19-8c5-5 8-12 8-20z m-183 293l0-55c0-7-2-14-8-19c-5-6-12-8-19-8l-92 0c-7 0-14 2-19 8c-5 5-8 12-8 19l0 55c0 8 3 14 8 19c5 6 12 8 19 8l92 0c7 0 14-2 19-8c6-5 8-11 8-19z m183-146l0-55c0-8-3-14-8-20c-5-5-12-8-19-8l-92 0c-7 0-14 3-19 8c-5 6-8 12-8 20l0 55c0 7 3 14 8 19c5 5 12 8 19 8l92 0c7 0 14-3 19-8c5-5 8-12 8-19z m183-147l0-54c0-8-3-15-8-20c-5-5-12-8-19-8l-92 0c-7 0-14 3-19 8c-6 5-8 12-8 20l0 54c0 8 2 15 8 20c5 5 12 8 19 8l92 0c7 0 14-3 19-8c5-5 8-12 8-20z m-183 293l0-55c0-7-3-14-8-19c-5-6-12-8-19-8l-92 0c-7 0-14 2-19 8c-5 5-8 12-8 19l0 55c0 8 3 14 8 19c5 6 12 8 19 8l92 0c7 0 14-2 19-8c5-5 8-11 8-19z m183-146l0-55c0-8-3-14-8-20c-5-5-12-8-19-8l-92 0c-7 0-14 3-19 8c-6 6-8 12-8 20l0 55c0 7 2 14 8 19c5 5 12 8 19 8l92 0c7 0 14-3 19-8c5-5 8-12 8-19z m0 146l0-55c0-7-3-14-8-19c-5-6-12-8-19-8l-92 0c-7 0-14 2-19 8c-6 5-8 12-8 19l0 55c0 8 2 14 8 19c5 6 12 8 19 8l92 0c7 0 14-2 19-8c5-5 8-11 8-19z"/>
<glyph unicode="&#35;" d="M238 219l0-109c0-10-4-19-11-26c-7-7-16-11-26-11l-146 0c-10 0-19 4-26 11c-7 7-11 16-11 26l0 109c0 10 4 19 11 26c7 7 16 11 26 11l146 0c10 0 19-4 26-11c7-7 11-16 11-26z m0 220l0-110c0-10-4-18-11-26c-7-7-16-10-26-10l-146 0c-10 0-19 3-26 10c-7 8-11 16-11 26l0 110c0 10 4 18 11 26c7 7 16 10 26 10l146 0c10 0 19-3 26-10c7-8 11-16 11-26z m256-220l0-109c0-10-4-19-11-26c-7-7-16-11-26-11l-146 0c-10 0-19 4-26 11c-7 7-11 16-11 26l0 109c0 10 4 19 11 26c7 7 16 11 26 11l146 0c10 0 19-4 26-11c7-7 11-16 11-26z m0 220l0-110c0-10-4-18-11-26c-7-7-16-10-26-10l-146 0c-10 0-19 3-26 10c-7 8-11 16-11 26l0 110c0 10 4 18 11 26c7 7 16 10 26 10l146 0c10 0 19-3 26-10c7-8 11-16 11-26z"/>
<glyph unicode="&#36;" d="M261 27c0 3-2 5-5 5c-11 0-21 4-29 12c-8 8-12 18-12 29c0 3-2 5-5 5c-3 0-4-2-4-5c0-14 5-26 14-35c10-10 22-15 36-15c3 0 5 1 5 4z m233 83c0-10-4-19-11-26c-7-7-16-11-26-11l-128 0c0-20-7-37-21-52c-15-14-32-21-52-21c-20 0-37 7-52 21c-14 15-21 32-21 52l-128 0c-10 0-19 4-26 11c-7 7-11 16-11 26c36 30 64 68 82 113c19 45 28 93 28 143c0 31 9 56 27 75c19 18 44 29 76 33c-2 3-2 7-2 11c0 7 2 14 8 19c5 5 11 8 19 8c8 0 14-3 19-8c6-5 8-12 8-19c0-4 0-8-2-11c32-4 57-15 76-33c18-19 27-44 27-75c0-50 9-98 28-143c18-45 46-83 82-113z"/>
<glyph unicode="&#37;" d="M284 462l-205 0l0-378l40 0l0 338l205 0z m42-114l0-66l67 0l0-192l-199 0l0 258l132 0m25 40l-197 0l0-338l279 0l0 257z"/>
<glyph unicode="&#38;" d="M400 357c6-6 15-6 21 0l85 66c14-44 4-94-31-129c-34-34-81-44-124-33l-100-100c11-43 1-90-33-124c-35-35-85-45-129-31l66 85c6 6 6 15 0 21l-43 43c-6 6-15 6-21 0l-85-66c-14 44-4 94 31 129c34 34 81 44 124 33l100 100c-11 43-1 90 33 124c35 35 85 45 129 31l-66-85c-6-6-6-15 0-21z"/>
<glyph unicode="&#39;" d="M256 136c-83 0-158 57-206 127c48 67 124 113 206 113c84 0 159-45 206-113c-44-73-120-127-206-127z m-162 126c39-49 98-91 162-91c88 0 145 66 164 91c-40 46-98 79-164 79c-84 0-142-56-162-79z m164 63c-38 0-69-31-69-69c0-38 31-69 69-69c39 0 70 31 70 69c0 38-31 69-70 69z m0-69c-10-10-25-10-35 0c-10 10-10 26 0 35c10 10 25 10 35 0c10-9 10-25 0-35z"/>
<glyph unicode="&#41;" d="M84 434c-49-35-81-92-81-157c0-23 4-46 12-67l181 67z m-51-151c0 40 15 78 43 107l89-99l-127-43c-3 11-4 23-5 35z m251 197c-54 0-106-19-147-55l1 0l-9-8l136-156l-198-63l3-9l0 0c1-2 1-4 2-6l2-5l0 0c33-88 115-146 210-146c124 0 224 100 224 224c0 123-100 224-224 224z m166-152l-135-49l88 113c20-17 36-39 47-64z m-277 71c32 25 71 38 111 38c38 0 73-12 103-32l-103-132z m-58-208l155 49l-28-160c-58 14-105 55-127 111z m169-116c-7 0-14 1-21 1l30 172l165 60c5-16 7-34 7-52c0-100-81-181-181-181z"/>
<glyph unicode="&#42;" d="M491 43l0 21l-22 0l0-21l-21 0l0 213l-107 0l0-213l-21 0l0 426l-107 0l0-426l-21 0l0 256l-21 0l0 21l-22 0l0-21l-42 0l0 21l-22 0l0-277l-42 0l0 469l-43 0l0-512l512 0l0 43z m-342 0l-21 0l0 213l21 0z m128 0l-21 0l0 384l21 0z m128 0l-21 0l0 170l21 0z m-320 469l22 0l0-21l-22 0z m64 0l22 0l0-21l-22 0z m64 0l22 0l0-21l-22 0z m64 0l22 0l0-21l-22 0z m64 0l22 0l0-21l-22 0z m64 0l22 0l0-21l-22 0z m64 0l22 0l0-21l-22 0z m0-64l22 0l0-21l-22 0z m-64 0l22 0l0-21l-22 0z m-64 0l22 0l0-21l-22 0z m0-64l22 0l0-21l-22 0z m64 0l22 0l0-21l-22 0z m64 0l22 0l0-21l-22 0z m0-64l22 0l0-21l-22 0z m-64 0l22 0l0-21l-22 0z m-64 0l22 0l0-21l-22 0z m128-64l22 0l0-21l-22 0z m0-64l22 0l0-21l-22 0z m0-64l22 0l0-21l-22 0z m-320 320l22 0l0-21l-22 0z m0-64l22 0l0-21l-22 0z m-64 0l22 0l0-21l-22 0z m0 64l22 0l0-21l-22 0z"/>
<glyph unicode="&#43;" d="M491 43l-43 0l0 21l-21 0l0-21l-43 0l0 21l-21 0l0-21l-43 0l0 21l-21 0l0-21l-43 0l0 21l-21 0l0-21l-43 0l0 21l-21 0l0-21l-94 0l112 67l56 163l83-145l160 266l-37 22l-123-204l-93 164l-81-237l-111-67l0 440l-43 0l0-512l512 0l0 64l-21 0z m0 469l21 0l0-21l-21 0z m-64 0l21 0l0-21l-21 0z m-64 0l21 0l0-21l-21 0z m-64 0l21 0l0-21l-21 0z m-64 0l21 0l0-21l-21 0z m-64 0l21 0l0-21l-21 0z m-64 0l21 0l0-21l-21 0z m-64 0l21 0l0-21l-21 0z m448-64l21 0l0-21l-21 0z m-64 0l21 0l0-21l-21 0z m-64 0l21 0l0-21l-21 0z m-64 0l21 0l0-21l-21 0z m-64 0l21 0l0-21l-21 0z m-64 0l21 0l0-21l-21 0z m-64 0l21 0l0-21l-21 0z m-64 0l21 0l0-21l-21 0z m448-64l21 0l0-21l-21 0z m-128 0l21 0l0-21l-21 0z m-64 0l21 0l0-21l-21 0z m-128 0l21 0l0-21l-21 0z m-64 0l21 0l0-21l-21 0z m-64 0l21 0l0-21l-21 0z m448-64l21 0l0-21l-21 0z m-192 0l21 0l0-21l-21 0z m-128 0l21 0l0-21l-21 0z m-64 0l21 0l0-21l-21 0z m-64 0l21 0l0-21l-21 0z m448-64l21 0l0-21l-21 0z m-64 0l21 0l0-21l-21 0z m-320 0l21 0l0-21l-21 0z m-64 0l21 0l0-21l-21 0z m448-64l21 0l0-21l-21 0z m-64 0l21 0l0-21l-21 0z m-192 0l21 0l0-21l-21 0z m-128 0l21 0l0-21l-21 0z m-64 0l21 0l0-21l-21 0z m448-64l21 0l0-21l-21 0z m-64 0l21 0l0-21l-21 0z m-64 0l21 0l0-21l-21 0z m-128 0l21 0l0-21l-21 0z m-192 0l21 0l0-21l-21 0z"/>
<glyph unicode="&#44;" d="M64 64l448 0l0-64l-512 0l0 512l64 0z m80 32c-27 0-48 21-48 48c0 27 21 48 48 48c1 0 3 0 4 0l52 86c-5 7-8 16-8 26c0 27 21 48 48 48c27 0 48-21 48-48c0-10-3-19-8-26l52-86c1 0 3 0 4 0c1 0 2 0 3 0l85 149c-5 8-8 17-8 27c0 27 21 48 48 48c27 0 48-21 48-48c0-27-21-48-48-48c-1 0-2 0-3 0l-85-149c5-8 8-17 8-27c0-27-21-48-48-48c-27 0-48 21-48 48c0 10 3 19 8 26l-52 86c-1 0-3 0-4 0c-1 0-3 0-4 0l-52-86c5-7 8-16 8-26c0-27-21-48-48-48z"/>
<glyph unicode="&#45;" d="M224 224l0 224c-124 0-224-100-224-224c0-124 100-224 224-224c124 0 224 100 224 224c0 36-9 70-24 100z m232 164c-36 74-112 124-200 124l0-224z"/>
<glyph unicode="&#46;" d="M220 202l-160 160c-79-92-79-228 0-320z m100 243l0-234l-165-166c37-27 82-45 132-45c125 0 225 101 225 225c0 113-83 204-192 220z m-63-189l0 256c-70-4-133-31-184-73z"/>
<glyph unicode="&#47;" d="M249 201l-170 169c-84-97-84-241 0-338z m23 23l0 288c-78-5-149-35-206-82z m32 224l0-237l-166-166c37-28 82-45 132-45c125 0 226 101 226 226c0 113-84 205-192 222z"/>
<glyph unicode="&#58;" d="M0 96l512 0l0-64l-512 0z m64 128l64 0l0-96l-64 0z m96 128l64 0l0-224l-64 0z m96-96l64 0l0-128l-64 0z m96 192l64 0l0-320l-64 0z"/>
<glyph unicode="&#59;" d="M107 235l85 0l0-128l-85 0z m106 170l86 0l0-297l-86 0z m107-85l85 0l0-212l-85 0z"/>
<glyph unicode="&#60;" d="M405 299l-106 0l0 106l-107 0l0-106l-107 0l0-107l107 0l0-107l107 0l0 107l106 0z"/>
<glyph unicode="&#61;" d="M427 363l-64 64l-96-96l-96 96l-64-64l96-96l-96-96l64-64l96 96l96-96l64 64l-96 96z"/>
<glyph unicode="&#64;" d="M473 392c8 4 17-1 11-10c-33-47-61-83-84-109c-23-26-42-41-56-46c-14-5-26-5-37-1c-11 4-21 11-31 19c-10 8-20 15-32 20c-12 5-28 5-48-2c-20-7-44-21-71-44l46-180l-51 0l-94 369l47 17c31 23 57 37 78 44c21 7 38 8 50 2c12-6 22-15 32-27c10-12 20-23 32-36c12-13 26-23 41-32c15-9 37-12 66-10c29 2 62 10 101 26z"/>
<glyph unicode="&#91;" d="M195 402c5-5 8-10 8-16c0-6-3-11-8-15l-126-115l126-116c5-4 8-9 8-15c0-6-3-11-8-16c-10-10-21-10-31 0l-164 147l164 146c10 10 21 10 31 0z m154 0l163-146l-163-147c-11-10-22-10-32 0c-11 11-11 21 0 31l127 116l-127 115c-11 10-11 20 0 31c10 10 21 10 32 0z"/>
<glyph unicode="&#93;" d="M430 256c0-25 14-45 41-62c-4-14-9-28-17-42c-24 6-47-2-70-23c-18-20-24-43-17-70c-14-7-28-13-43-18c-16 28-39 42-68 42c-29 0-52-14-68-42c-15 5-29 11-43 18c7 27 1 51-17 70c-18 18-42 24-70 17c-5 9-10 23-17 42c28 18 42 41 42 68c0 25-14 45-42 63c7 19 12 33 17 42c25-6 49 2 70 23c18 19 24 43 17 70c14 8 29 13 43 17c16-27 39-41 68-41c29 0 52 14 68 41c14-4 29-9 43-17c-7-27-1-50 17-70c23-21 46-29 70-23c8-14 13-28 17-42c-27-17-41-38-41-63z m-174-93c51 0 93 42 93 93c0 51-42 94-93 94c-51 0-93-43-93-94c0-51 42-93 93-93z"/>
<glyph unicode="&#94;" d="M426 381c6-3 9-7 9-14l0-288c0-10-10-19-20-19c-16 0-24 7-24 19l0 267c0 4-2 7-6 9l-207 111c-11 3-23 2-35-5c-15-7-24-15-28-23l209-116c6-3 9-8 9-15l0-281c0-10-8-17-18-17c-5 0-8 1-10 2c-10 7-212 132-212 132c-9 6-13 13-13 18l-3 268c0 10 2 19 7 27c10 16 27 28 52 39c25 11 46 13 60 5z"/>
<glyph unicode="&#95;" d="M77 88c18-4 32-18 32-39c0-31-24-49-54-49c-20 0-37 6-50 19l17 25c9-9 19-13 30-13c11 0 21 5 21 16c0 12-10 18-30 16l-8 16c9 11 22 29 32 39l0 1c-5 0-23-1-28-1l0-15l-30 0l0 43l95 0l0-25z m-20 241c27 0 49-17 49-44c0-20-17-36-31-44c-8-4-15-10-22-15c-7-5-10-10-10-15l36 0l0 17l30 0l0-45l-103 0c-1 7-2 12-2 15c0 42 37 52 58 72c4 4 7 9 7 13c0 10-7 15-16 15c-9 0-16-6-23-17l-24 17c8 17 27 31 51 31z m446-183c5 0 9-4 9-9l0-55c0-5-4-9-9-9l-348 0c-5 0-9 4-9 9l0 55c0 5 4 9 9 9z m-458 248l0 73l-1 0c-2-3-6-9-14-16l-20 22l39 36l30 0l0-115l31 0l0-28l-96 0l0 28z m458-101c5 0 9-5 9-10l0-54c0-5-4-10-9-10l-348 0c-5 0-9 5-9 10l0 54c0 5 4 10 9 10z m0 146c5 0 9-4 9-9l0-55c0-5-4-9-9-9l-348 0c-5 0-9 4-9 9l0 55c0 5 4 9 9 9z"/>
<glyph unicode="&#96;" d="M55 37l82 0l0 82l-82 0z m100 0l92 0l0 82l-92 0z m-100 100l82 0l0 92l-82 0z m100 0l92 0l0 92l-92 0z m-100 110l82 0l0 82l-82 0z m210-210l92 0l0 82l-92 0z m-110 210l92 0l0 82l-92 0z m220-210l82 0l0 82l-82 0z m-110 100l92 0l0 92l-92 0z m-110 238c5 0 10 4 10 9l0 82c0 5-5 9-10 9l-18 0c-5 0-9-4-9-9l0-82c0-5 4-9 9-9z m220-238l82 0l0 92l-82 0z m-110 110l92 0l0 82l-92 0z m110 0l82 0l0 82l-82 0z m0 128c5 0 9 4 9 9l0 82c0 5-4 9-9 9l-18 0c-5 0-10-4-10-9l0-82c0-5 5-9 10-9z m82 64c20 0 37-17 37-37l0-365c0-20-17-37-37-37l-402 0c-20 0-37 17-37 37l0 365c0 20 17 37 37 37l36 0l0 27c0 25 21 46 46 46l18 0c25 0 46-21 46-46l0-27l110 0l0 27c0 25 21 46 46 46l18 0c25 0 46-21 46-46l0-27z"/>
<glyph unicode="&#123;" d="M200 199l0-35l-103 41l0 35z m0 106l0-35l-103 41l0 35z m56-279c-1 0-4 1-5 1l-5 1l-204 82c-11 4-16 11-16 23l0 328c0 10 3 17 11 21c8 5 15 6 23 3l196-78l196 78c8 3 15 2 23-3c8-4 11-11 11-21l0-328c0-12-5-19-16-23l-204-82c-3-1-4-1-5-1c-1 0-4-1-5-1z m-26 53l0 287l-163 65l0-287z m215 65l0 287l-163-65l0-287z m-30 96l0-35l-103-41l0 35z m0 106l0-35l-103-41l0 35z"/>
<glyph unicode="&#124;" d="M323 486c14 0 25-11 25-25l0-435l-92 92l-92-92l0 435c0 17 6 25 20 25z"/>
<glyph unicode="&#125;" d="M384 219c10 0 18-8 18-18c0-5-1-9-5-13l-128-128c-4-4-8-5-13-5c-5 0-9 1-13 5l-128 128c-4 4-5 8-5 13c0 10 8 18 18 18z m-256 74c-10 0-18 8-18 18c0 5 1 9 5 13l128 128c4 4 8 5 13 5c5 0 9-1 13-5l128-128c4-4 5-8 5-13c0-10-8-18-18-18z"/>
<glyph unicode="&#126;" d="M256 416c-27 0-48 22-48 48c0 26 21 48 48 48c26 0 48-22 48-48c0-26-22-48-48-48z m46-37l-46-91l-46 91c-19-4-36-9-50-17l0-170l45 0l19-192l64 0l19 192l45 0l0 170c-14 8-31 13-50 17z"/>
<glyph unicode="&#92;" d="M288 384c35 0 64-29 64-64l0-128l-32 0l0-192l-128 0l0 192l-32 0l0 128c0 35 29 64 64 64z m-32 32c26 0 48 22 48 48c0 26-22 48-48 48c-27 0-48-22-48-48c0-26 21-48 48-48z"/>
<glyph unicode="&#57344;" d="M488 121c-15 23-65 38-115 59c-50 21-61 28-61 28l-1 47c0 0 19 15 25 60c12-3 23 17 24 28c1 11-1 40-15 37c3 22 5 42 4 52c-4 38-42 79-100 79c-58 0-95-41-99-79c-1-10 1-30 4-52c-14 3-17-26-16-37c1-11 12-31 24-28c6-45 25-60 25-60l-1-47c0 0-11-7-61-28c-50-21-100-36-115-59c-13-21-9-121-9-121l497 0c0 0 3 100-10 121z"/>
<glyph unicode="&#57345;" d="M479 85c19-19 19-57 19-57l-484 0c0 0 0 38 19 57c19 19 93 38 130 57c22 11 34 34 37 55l-40 0c0 21-42 199 7 243c13 13 30 16 38 12c0 0 0 2 1 4c2 6 9 18 21 24c4 2 22 5 36 3c9 0 19-2 28-5c39-11 86-45 81-138c-6-117-20-143-20-143l-40 0c3-21 15-44 37-55c37-19 111-38 130-57z"/>
<glyph unicode="&#57346;" d="M191 52l-191 191l91 91l100-100l230 230l91-91z"/>
<glyph unicode="&#57347;" d="M512 256l-256-256l-256 256l91 90l101-101l0 267l128 0l0-267l101 101z"/>
<glyph unicode="&#57348;" d="M256 512c141 0 256-115 256-256c0-141-115-256-256-256c-141 0-256 115-256 256c0 141 115 256 256 256z m-40-374l199 199l-45 45l-154-154l-72 73l-45-45z"/>
<glyph unicode="&#57349;" d="M479 85c19-19 19-57 19-57l-484 0c0 0 0 38 19 57c18 19 93 38 130 57c25 12 37 39 37 63c0 12-8 23-15 31c-6 7-11 16-15 28c-10 4-22 15-22 37c0 14 2 23 7 29c-2 13-4 26-5 39c0 0-5 35 8 59c13 24 36 28 46 24c2 2 6 20 22 28c17 8 133 12 135-101c1-17-2-33-4-49c5-6 7-15 7-29c0-22-12-32-22-36c-4-12-9-22-15-29c-7-8-16-19-16-31c0-24 13-50 38-63c37-19 111-38 130-57z"/>
<glyph unicode="&#57350;" d="M479 91c19-19 19-56 19-56l-484 0c0 0 0 37 19 56c19 19 93 37 130 56c25 12 37 39 37 62c0 12-8 22-15 30c-19 22-34 62-34 118c0 82 49 120 105 120c56 0 105-38 105-120c0-56-15-96-34-118c-7-8-15-18-15-30c0-23 12-50 37-62c37-19 111-37 130-56z"/>
<glyph unicode="&#57351;" d="M20 256c0 31 26 56 57 56c31 0 56-25 56-56c0-30-25-56-56-56c-31 0-57 26-57 56z m180 0c0 31 25 56 56 56c31 0 56-25 56-56c0-30-26-56-56-56c-30 0-56 26-56 56z m235 56c31 0 57-25 57-56c0-30-26-56-57-56c-31 0-56 26-56 56c0 31 25 56 56 56z"/>
<glyph unicode="&#57352;" d="M494 146c10 0 18-8 18-18l0-37c0-10-8-18-18-18l-476 0c-10 0-18 8-18 18l0 37c0 10 8 18 18 18z m-110 110c10 0 18-8 18-18l0-37c0-10-8-18-18-18l-256 0c-10 0-18 8-18 18l0 37c0 10 8 18 18 18z m73 110c10 0 18-9 18-19l0-36c0-10-8-18-18-18l-402 0c-10 0-18 8-18 18l0 36c0 10 8 19 18 19z m-110 109c10 0 19-8 19-18l0-36c0-10-9-19-19-19l-182 0c-10 0-19 9-19 19l0 36c0 10 9 18 19 18z"/>
<glyph unicode="&#57353;" d="M494 146c10 0 18-8 18-18l0-37c0-10-8-18-18-18l-476 0c-10 0-18 8-18 18l0 37c0 10 8 18 18 18z m0 110c10 0 18-8 18-18l0-37c0-10-8-18-18-18l-476 0c-10 0-18 8-18 18l0 37c0 10 8 18 18 18z m0 110c10 0 18-9 18-19l0-36c0-10-8-18-18-18l-476 0c-10 0-18 8-18 18l0 36c0 10 8 19 18 19z m0 109c10 0 18-8 18-18l0-36c0-10-8-19-18-19l-476 0c-10 0-18 9-18 19l0 36c0 10 8 18 18 18z"/>
<glyph unicode="&#57354;" d="M352 115c16-16 16-48 16-48l-354 0l0 68c24 9 54 19 72 28c21 11 32 33 32 53c0 10-7 19-13 26c-5 6-9 14-13 24c-8 3-18 12-18 31c0 12 1 19 5 24c-2 11-2 23-3 34c-4 46 41 90 88 90c47 0 93-44 89-90c-1-11-2-23-3-34c4-5 5-12 5-24c0-19-10-28-18-31c-4-10-8-18-13-24c-6-7-13-16-13-26c0-20 11-42 32-53c31-16 93-32 109-48z m146 7l0-55l-103 0c0 0 0 39-19 58c-11 11-23 22-53 33c7 9 11 20 11 31c0 8-5 15-10 21c-4 5-8 12-11 20c-7 3-15 9-15 25c0 10 2 16 5 20l-3 27c-3 37 33 76 72 76c38 0 76-39 73-76l-3-27c3-4 5-10 5-20c0-15-8-22-15-25c-3-8-7-15-11-20c-5-6-10-13-10-21c0-16 8-34 25-43c16-8 42-16 62-24z"/>
<glyph unicode="&#57355;" d="M256 486c120 0 217-30 217-66c-11-89-56-292-60-315c-9-49-96-79-157-79c-61 0-148 30-157 79c-7 39-52 244-60 315c0 36 97 66 217 66z m135-273l20 98l-66-57z m-88 42l-49 44l-48-42l50-43z m-69-59l-50 42l-47-40l50-43z m22-19l-47-41l50-43l46 41z m21 19l50-43l45 39l-48 44z m47 78l52 44c-25-6-55-10-88-12z m-105 32c-32 2-60 7-84 13l49-43z m-57-49l-61 53l18-90z m-31-91l10-50l24 20z m56-48l-26-23c23-10 49-16 73-18z m140-3l-43-37c22 3 45 8 66 17z m22 19l22-19l10 47z m-93 309c-84 0-152-17-152-38c0-21 68-37 152-37c84 0 152 16 152 37c0 21-68 38-152 38z"/>
<glyph unicode="&#57356;" d="M137 329c15 0 28-12 28-27l0-55c0-15-13-28-28-28l-55 0c-15 0-27 13-27 28l0 55c0 15 12 27 27 27z m146 0c15 0 28-12 28-27l0-55c0-15-13-28-28-28l-54 0c-15 0-28 13-28 28l0 55c0 15 13 27 28 27z m147 0c15 0 27-12 27-27l0-55c0-15-12-28-27-28l-55 0c-15 0-28 13-28 28l0 55c0 15 13 27 28 27z"/>
<glyph unicode="&#57357;" d="M347 366c30 0 55-25 55-55l0-119c0-15-12-27-27-27c-15 0-28 12-28 27l0 101l-18 0l0-261c0-17-15-32-32-32c-17 0-32 15-32 32l0 133l-18 0l0-133c0-17-15-32-32-32c-17 0-32 15-32 32l0 261l-18 0l0-101c0-15-13-27-28-27c-15 0-27 12-27 27l0 119c0 30 25 55 55 55z m-91 137c35 0 64-29 64-64c0-35-29-64-64-64c-35 0-64 29-64 64c0 35 29 64 64 64z"/>
<glyph unicode="&#57358;" d="M435 486c14 0 26-11 26-25l0-435l-103 0l0 435c0 17 7 25 21 25z m-153-153c14 0 25-12 25-26l0-281l-102 0l0 281c0 17 6 26 20 26z m-154-154c14 0 26-11 26-25l0-128l-103 0l0 128c0 17 7 25 21 25z"/>
<glyph unicode="&#57359;" d="M499 452c5 8 8 7 8-2l0-394l-494 0c-9 0-10 7-5 13l118 147c7 8 13 8 20 1l38-34c7-5 16-5 20 2l81 122c5 9 11 10 19 2l57-53c7-7 14-6 20 2z"/>
<glyph unicode="&#57360;" d="M141 5c-35 0-64 12-87 37c-25 24-37 52-38 85c-1 33 14 65 43 97l254 254c27 27 57 37 89 28c30-8 56-35 64-65c9-33 0-63-27-90l-243-242c-23-23-60-36-86-10c-10 8-15 21-14 38c1 17 9 33 24 47l170 171c8 9 17 9 26 0c9-9 9-17 0-25l-170-170c-15-15-19-27-11-36c13-9 27 1 36 10l243 243c17 17 22 35 17 55c-5 20-19 34-39 39c-18 5-37-1-55-18l-253-253c-23-26-34-51-33-74c1-23 10-42 27-59c40-39 89-31 132 6l254 253c8 8 17 8 26 0c9-8 9-16 0-25l-254-254c-28-28-59-42-95-42z"/>
<glyph unicode="&#57361;" d="M101 183c-15 0-28 12-28 27c0 6 2 10 5 15l73 110c14 20 30 31 50 31l110 0c20 0 36-11 50-31l73-110c3-5 5-9 5-15c0-15-13-27-28-27c-10 0-16 4-22 12l-65 98l-13 0l0-38l70-118c2-3 3-6 3-9c0-10-8-18-18-18l-55 0l0-78c0-17-15-32-32-32l-46 0c-17 0-32 15-32 32l0 78l-55 0c-10 0-18 8-18 18c0 3 1 6 3 9l70 118l0 38l-13 0l-65-98c-6-8-12-12-22-12z m155 320c35 0 64-29 64-64c0-35-29-64-64-64c-35 0-64 29-64 64c0 35 29 64 64 64z"/>
<glyph unicode="&#57362;" d="M17 222c-14 3-19 13-16 29c3 14 12 19 27 16l50-12l-26-41z m455-6c10 8 24 7 32-2c11-11 11-22-1-33l-128-115c-4-4-10-6-16-6c-5 0-9 2-14 5l-146 112l-28 8l26 40l18-4c4-1 7-3 8-4l135-104z m-251 112l-178-280c-4-7-11-12-20-12c-16 0-30 21-19 36l191 300c5 10 21 16 33 8l125-80l115 166c6 10 21 13 32 5c13-8 15-18 6-31l-128-185c-8-12-19-14-32-6z"/>
<glyph unicode="&#57363;" d="M229 471l0-188l-188 0c6 50 27 92 62 127c35 35 77 56 126 61z m55 0c53-7 97-30 133-71c36-41 54-88 54-143c0-59-21-111-63-153c-42-42-93-63-153-63c-55 0-102 18-142 54c-40 36-64 80-72 134l217 0c14 0 26 12 26 26z"/>
<glyph unicode="&#57364;" d="M154 26c-28 0-52 23-52 51c0 27 25 51 52 51c28 0 51-23 51-51c0-28-23-51-51-51z m256 0c-28 0-52 23-52 51c0 27 25 51 52 51c28 0 51-23 51-51c0-28-23-51-51-51z m-216 172c-12-3-19-8-18-12c1-4 9-7 23-7l287 0l0-39c0-7-3-10-10-10l-335 0c-7 0-10 3-10 10l0 39c-18 85-37 171-55 256l-50 0l0 41c0 7 3 10 10 10l80 0c7 0 10-3 10-10l0-44l360 0l0-140c0-8-3-12-9-13z"/>
<glyph unicode="&#57365;" d="M320 461c0 14-12 25-26 25l-51 0c0 17 7 26 21 26l107 0c14 0 26-12 26-26l0-435l-77 92z m-77-26c14 0 26-11 26-25l0-410l-77 92l-77-92l0 410c0 17 7 25 21 25z"/>
<glyph unicode="&#57366;" d="M365 191c0 5-2 9-6 13l-51 52l51 52c4 4 6 8 6 13c0 5-2 9-6 13l-25 25c-4 4-8 6-13 6c-5 0-9-2-13-6l-52-51l-52 51c-4 4-8 6-13 6c-5 0-9-2-13-6l-25-25c-4-4-6-8-6-13c0-5 2-9 6-13l51-52l-51-52c-4-4-6-8-6-13c0-5 2-9 6-13l25-25c4-4 8-6 13-6c5 0 9 2 13 6l52 51l52-51c4-4 8-6 13-6c5 0 9 2 13 6l25 25c4 4 6 8 6 13z m110 65c0-88-50-155-109-190c-34-20-70-29-110-29c-88 0-155 50-190 109c-20 34-29 70-29 110c0 88 50 155 109 190c34 20 70 29 110 29c88 0 155-50 190-109c20-34 29-70 29-110z"/>
<glyph unicode="&#57367;" d="M256 0l-256 256l256 256l90-91l-100-101l266 0l0-128l-266 0c50-50 100-101 100-101z"/>
<glyph unicode="&#57368;" d="M0 256l256 256l256-256l-91-90l-101 101l0-267l-128 0l0 267l-101-101z"/>
<glyph unicode="&#57369;" d="M256 512l256-256l-256-256l-90 91l101 101l-267 0l0 128l267 0l-101 101z"/>
<glyph unicode="&#57370;" d="M0 256c0 141 115 256 256 256c141 0 256-115 256-256c0-141-115-256-256-256c-141 0-256 115-256 256z m384 0l-128 128l-128-128l96 0l0-128l64 0l0 128z"/>
<glyph unicode="&#57371;" d="M512 256c0-141-115-256-256-256c-141 0-256 115-256 256c0 141 115 256 256 256c141 0 256-115 256-256z m-384 0l128-128l128 128l-96 0l0 128l-64 0l0-128z"/>
<glyph unicode="&#57372;" d="M256 512c141 0 256-115 256-256c0-141-115-256-256-256c-141 0-256 115-256 256c0 141 115 256 256 256z m0-384l128 128l-128 128l0-96l-128 0l0-64l128 0z"/>
<glyph unicode="&#57373;" d="M256 0c-141 0-256 115-256 256c0 141 115 256 256 256c141 0 256-115 256-256c0-141-115-256-256-256z m0 384l-128-128l128-128l0 96l128 0l0 64l-128 0z"/>
<glyph unicode="&#57374;" d="M512 128l-384 0l0-64l-128 96l128 96l0-64l384 0z m-512 192l0 64l384 0l0 64l128-96l-128-96l0 64z"/>
<glyph unicode="&#57375;" d="M256 512c141 0 256-115 256-256c0-141-115-256-256-256c-141 0-256 115-256 256c0 141 115 256 256 256z m127-337l-82 81l82 81l-46 46l-81-82l-81 82l-46-46l82-81l-82-81l46-46l81 82l81-82z"/>
<glyph unicode="&#57376;" d="M512 102l-102-102l-154 154l-154-154l-102 102l154 154l-154 154l102 102l154-154l154 154l102-102l-154-154z"/>
<glyph unicode="&#57377;" d="M0 448l192 0l0-192l-192-192z m320 0l192 0l0-192l-192-192z"/>
<glyph unicode="&#57378;" d="M414 415c42-42 66-99 66-159c0-124-100-224-224-224l0-32l-64 64l64 64l0-32c88 0 160 72 160 160c0 43-17 83-47 113z m-94 33l-64-64l0 32c-88 0-160-72-160-160c0-43 17-83 47-113l-45-46c-42 42-66 99-66 159c0 124 100 224 224 224l0 32z"/>
<glyph unicode="&#57379;" d="M512 320l0-128l-192 0l0-192l-128 0l0 192l-192 0l0 128l192 0l0 192l128 0l0-192z"/>
<glyph unicode="&#57380;" d="M319 160l96 128l97-128l-64 0l0-32c0-53-43-96-96-96l-192 0c-53 0-96 43-96 96l0 32l64 0l0-32c0-18 14-32 32-32l192 0c18 0 32 14 32 32l0 32z m-126 192l-96-128l-97 128l64 0l0 32c0 53 43 96 96 96l192 0c53 0 96-43 96-96l0-32l-64 0l0 32c0 18-14 32-32 32l-192 0c-18 0-32-14-32-32l0-32z"/>
<glyph unicode="&#57381;" d="M473 192l-185 136l0 88c0 24-24 96-48 96c-24 0-48-72-48-96l0-88l-185-136c-4-3-7-8-7-13l0-3c0-10 10-19 20-16l172 47l0-134l-57-41c-4-3-7-9-7-14l0-2c0-10 9-18 20-15l92 31l92-31c11-3 20 5 20 15l0 3c0 5-3 10-7 13l-57 41l0 134l172-47c10-3 20 6 20 16l0 3c0 5-3 10-7 13z"/>
<glyph unicode="&#57382;" d="M112 512c9 0 16-7 16-16l0-96c0-9-7-16-16-16l-96 0c-9 0-16 7-16 16l0 96c0 9 7 16 16 16z m0-192c9 0 16-7 16-16l0-96c0-9-7-16-16-16l-96 0c-9 0-16 7-16 16l0 96c0 9 7 16 16 16z m0-192c9 0 16-7 16-16l0-96c0-9-7-16-16-16l-96 0c-9 0-16 7-16 16l0 96c0 9 7 16 16 16z m384 384c9 0 16-7 16-16l0-96c0-9-7-16-16-16l-288 0c-9 0-16 7-16 16l0 96c0 9 7 16 16 16z m0-192c9 0 16-7 16-16l0-96c0-9-7-16-16-16l-288 0c-9 0-16 7-16 16l0 96c0 9 7 16 16 16z m0-192l-288 0c-9 0-16-7-16-16l0-96c0-9 7-16 16-16l288 0c9 0 16 7 16 16l0 96c0 9-7 16-16 16z"/>
<glyph unicode="&#57383;" d="M288 480c192 0 224-128 224-224c0-96-32-256-224-256c-64 0-96 56-96 128c0 64-82 75-96 32c-32-96-96-32-96 0c0 128 96 320 288 320z m-160-232c22 0 40 18 40 40c0 22-18 40-40 40c-22 0-40-18-40-40c0-22 18-40 40-40z m72 120c0-22 18-40 40-40c22 0 40 18 40 40c0 22-18 40-40 40c-22 0-40-18-40-40z m104-280c31 0 56 25 56 56c0 31-25 56-56 56c-31 0-56-25-56-56c0-31 25-56 56-56z m96 96c13 0 24 11 24 24c0 13-11 24-24 24c-13 0-24-11-24-24c0-13 11-24 24-24z m-32 96c-31 0-56 25-56 56c0 31 25 56 56 56c31 0 56-25 56-56c0-31-25-56-56-56z"/>
<glyph unicode="&#57384;" d="M128 448l256 0l0-32l-256 0z m0-352l256 0l0-32l-256 0z m-96 256l32 0l0-192l-32 0z m416 0l32 0l0-192l-32 0z m-400 128c27 0 48-21 48-48c0-27-22-48-48-48c-26 0-48 21-48 48c0 27 22 48 48 48z m416-96c-26 0-48 21-48 48c0 27 22 48 48 48c26 0 48-21 48-48c0-27-22-48-48-48z m0-256c26 0 48-21 48-48c0-27-22-48-48-48c-26 0-48 21-48 48c0 27 22 48 48 48z m-416 0c-26 0-48-21-48-48c0-27 22-48 48-48c26 0 48 21 48 48c0 27-21 48-48 48z"/>
<glyph unicode="&#57385;" d="M512 384l-32 0l0-256l32 0l0-96l-96 0l0 32l-320 0l0-32l-96 0l0 96l32 0l0 256l-32 0l0 96l96 0l0-32l320 0l0 32l96 0z m-64 64l0-32l32 0l0 32z m-416 0l0-32l32 0l0 32z m0-352l0-32l32 0l0 32z m448-32l0 32l-32 0l0-32z m-32 64l0 256l-32 0l0 32l-320 0l0-32l-32 0l0-256l32 0l0-32l320 0l0 32z"/>
<glyph unicode="&#57386;" d="M88 109l-48 42l216 252l216-252l-48-42l-168 196z"/>
<glyph unicode="&#57387;" d="M496 512c9 0 16-7 16-16l0-96c0-9-7-16-16-16l-480 0c-9 0-16 7-16 16l0 96c0 9 7 16 16 16z m0-192c9 0 16-7 16-16l0-96c0-9-7-16-16-16l-480 0c-9 0-16 7-16 16l0 96c0 9 7 16 16 16z m0-192l-480 0c-9 0-16-7-16-16l0-96c0-9 7-16 16-16l480 0c9 0 16 7 16 16l0 96c0 9-7 16-16 16z"/>
<glyph unicode="&#57388;" d="M208 512c9 0 16-7 16-16l0-192c0-9-7-16-16-16l-192 0c-9 0-16 7-16 16l0 192c0 9 7 16 16 16z m288 0c9 0 16-7 16-16l0-192c0-9-7-16-16-16l-192 0c-9 0-16 7-16 16l0 192c0 9 7 16 16 16z m-288-288c9 0 16-7 16-16l0-192c0-9-7-16-16-16l-192 0c-9 0-16 7-16 16l0 192c0 9 7 16 16 16z m288 0l-192 0c-9 0-16-7-16-16l0-192c0-9 7-16 16-16l192 0c9 0 16 7 16 16l0 192c0 9-7 16-16 16z"/>
<glyph unicode="&#57389;" d="M361 40l-252 216l252 216l42-48l-196-168l196-168z"/>
<glyph unicode="&#57390;" d="M151 40l-42 48l196 168l-196 168l42 48l252-216z"/>
<glyph unicode="&#57391;" d="M64 448l0-256l128 0l0-96l128 96l128 0l0 256z m-64 64l512 0l0-384l-204 0l-180-128l0 128l-128 0z"/>
<glyph unicode="&#57392;" d="M257 512l96-128l-65 0l0-96l96 0l0 64l128-96l-128-96l0 64l-96 0l0-96l65 0l-96-128l-96 128l63 0l0 96l-96 0l0-64l-128 96l128 96l0-64l96 0l0 96l-63 0z"/>
<glyph unicode="&#57393;" d="M384 288c-17 0-31-13-32-30l0 30c0 18-14 32-32 32c-18 0-32-14-32-32l0 32c0 18-14 32-32 32c-18 0-32-14-32-32l0 128c0 18-14 32-32 32c-18 0-32-14-32-32l0-215c0-8-13-12-18-5c-24 31-22 61-56 61c-14 0-28-16-19-33l100-216c3-5 8-8 14-8l187 0c26 0 48 21 48 48l0 176c0 18-14 32-32 32z"/>
<glyph unicode="&#57394;" d="M112 512c9 0 16-7 16-16l0-96c0-9-7-16-16-16l-96 0c-9 0-16 7-16 16l0 96c0 9 7 16 16 16z m0-192c9 0 16-7 16-16l0-96c0-9-7-16-16-16l-96 0c-9 0-16 7-16 16l0 96c0 9 7 16 16 16z m0-192c9 0 16-7 16-16l0-96c0-9-7-16-16-16l-96 0c-9 0-16 7-16 16l0 96c0 9 7 16 16 16z m192 384c9 0 16-7 16-16l0-96c0-9-7-16-16-16l-96 0c-9 0-16 7-16 16l0 96c0 9 7 16 16 16z m0-192c9 0 16-7 16-16l0-96c0-9-7-16-16-16l-96 0c-9 0-16 7-16 16l0 96c0 9 7 16 16 16z m0-192c9 0 16-7 16-16l0-96c0-9-7-16-16-16l-96 0c-9 0-16 7-16 16l0 96c0 9 7 16 16 16z m192 384c9 0 16-7 16-16l0-96c0-9-7-16-16-16l-96 0c-9 0-16 7-16 16l0 96c0 9 7 16 16 16z m0-192c9 0 16-7 16-16l0-96c0-9-7-16-16-16l-96 0c-9 0-16 7-16 16l0 96c0 9 7 16 16 16z m0-192l-96 0c-9 0-16-7-16-16l0-96c0-9 7-16 16-16l96 0c9 0 16 7 16 16l0 96c0 9-7 16-16 16z"/>
<glyph unicode="&#57395;" d="M256 109l-216 252l48 42l168-196l168 196l48-42z"/>
<glyph unicode="&#57401;" d="M303 63l-186 186c-7 7-10 15-10 25c0 10 3 19 10 26l186 186c7 7 16 11 26 11c10 0 19-4 26-11l22-21c7-7 10-16 10-26c0-10-3-19-10-26l-139-139l139-138c7-7 10-16 10-26c0-10-3-19-10-26l-22-21c-7-7-16-11-26-11c-10 0-19 4-26 11z"/>
<glyph unicode="&#57402;" d="M479 165c0-10-4-19-11-26l-21-22c-7-7-16-10-26-10c-10 0-19 3-26 10l-139 139l-139-139c-7-7-16-10-26-10c-10 0-18 3-25 10l-22 22c-7 7-11 16-11 26c0 10 4 19 11 26l186 186c7 7 16 10 26 10c10 0 19-3 26-10l186-186c7-7 11-16 11-26z"/>
<glyph unicode="&#57403;" d="M329 402c10 0 18-8 18-18l0-256c0-10-8-18-18-18c-5 0-9 1-13 5l-128 128c-4 4-5 8-5 13c0 5 1 9 5 13l128 128c4 4 8 5 13 5z"/>
<glyph unicode="&#57405;" d="M405 274c0-10-3-19-10-26l-186-186c-7-7-16-10-26-10c-10 0-19 3-26 10l-22 22c-7 7-10 16-10 26c0 10 3 18 10 25l139 139l-139 139c-7 7-10 16-10 26c0 10 3 19 10 26l22 21c7 7 16 11 26 11c10 0 19-4 26-11l186-186c7-7 10-16 10-26z"/>
<glyph unicode="&#57406;" d="M343 225l88 85l-121 18l-54 109l-54-109l-121-18l88-85l-21-120l108 57l108-57z m-227-176c-8 0-12 7-12 15c0 1 1 2 1 5l24 143l-104 101c-5 5-7 10-7 14c0 7 5 11 16 13l144 21l64 130c4 8 8 12 14 12c6 0 10-4 14-12l64-130l144-21c11-2 16-6 16-13c0-4-3-9-8-14l-103-101l24-143l0-5c0-10-3-15-11-15c-4 0-8 2-12 4l-128 67l-128-67c-4-2-9-4-12-4z"/>
<glyph unicode="&#57408;" d="M116 49c-8 0-12 7-12 15c0 1 1 2 1 5l24 143l-104 101c-5 5-7 10-7 14c0 7 5 11 16 13l144 21l64 130c4 8 8 12 14 12c6 0 10-4 14-12l64-130l144-21c11-2 16-6 16-13c0-4-3-9-8-14l-103-101l24-143l0-5c0-8-3-15-11-15c-4 0-8 2-12 4l-128 67l-128-67c-4-2-9-4-12-4z"/>
<glyph unicode="&#57409;" d="M477 350c0-8-3-14-8-19c-82-82-163-164-245-246c-5-5-12-8-20-8c-8 0-14 3-19 8l-142 142c-5 5-8 12-8 20c0 8 3 14 8 19l38 39c5 5 12 8 20 8c8 0 14-3 19-8l84-84l188 188c5 5 11 8 19 8c8 0 15-3 20-8l38-39c5-5 8-12 8-20z"/>
<glyph unicode="&#57410;" d="M0 247c0 5 4 9 9 9l494 0c5 0 9-4 9-9l0-18c0-5-4-10-9-10l-494 0c-5 0-9 5-9 10z m246 196c-39 0-71-21-71-58c0-14 6-27 19-40c13-13 39-25 80-37c19-5 58-22 76-34l-212 0c-14 18-28 50-28 77c0 34 12 64 38 88c25 24 62 36 112 36c30 0 67-9 99-19c2-7 4-18 6-33c3-23 4-42 4-53c0-3-1-8-2-13l-3 0l-24 1l-4 1c-10 28-20 47-30 58c-17 17-37 26-60 26z m37-242l117 0c1-7 2-16 2-26c0-37-12-69-32-90c-7-7-17-15-31-24c-31-19-54-24-102-24c-22 0-40 2-55 6l-40 12c-11 3-18 6-21 8c-2 2-2 3-2 6l0 4c0 32-2 39-1 64l1 10l0 13l29 0c4-10 11-27 15-36c6-15 16-27 26-35c16-13 40-22 68-22c43 0 88 26 88 69c0 16-8 31-23 45c-6 6-19 12-39 20z"/>
<glyph unicode="&#57411;" d="M128 293c-10 0-18 8-18 18c0 5 1 9 5 13l128 128c4 4 8 5 13 5c5 0 9-1 13-5l128-128c4-4 5-8 5-13c0-10-8-18-18-18z"/>
<glyph unicode="&#57412;" d="M55 165c30 0 55-25 55-55c0-30-25-55-55-55c-30 0-55 25-55 55c0 30 25 55 55 55z m0 146c30 0 55-25 55-55c0-30-25-55-55-55c-30 0-55 25-55 55c0 30 25 55 55 55z m448-165c5 0 9-4 9-9l0-55c0-5-4-9-9-9l-348 0c-5 0-9 4-9 9l0 55c0 5 4 9 9 9z m-448 311c30 0 55-25 55-55c0-30-25-55-55-55c-30 0-55 25-55 55c0 30 25 55 55 55z m448-164c5 0 9-5 9-10l0-54c0-5-4-10-9-10l-348 0c-5 0-9 5-9 10l0 54c0 5 4 10 9 10z m0 146c5 0 9-4 9-9l0-55c0-5-4-9-9-9l-348 0c-5 0-9 4-9 9l0 55c0 5 4 9 9 9z"/>
<glyph unicode="&#57413;" d="M238 256c10 0 18-8 18-18l0-128c0-10-8-19-18-19c-5 0-9 2-13 6l-41 41l-95-95c-2-2-5-3-7-3c-2 0-4 1-6 3l-33 33c-2 2-3 4-3 6c0 2 1 5 3 7l95 95l-41 41c-4 4-6 8-6 13c0 10 9 18 19 18z m18 146c0 10 8 19 18 19c5 0 9-2 13-6l41-41l95 95c2 2 5 3 7 3c2 0 4-1 6-3l33-33c2-2 3-4 3-6c0-2-1-5-3-7l-95-95l41-41c4-4 6-8 6-13c0-10-9-18-19-18l-128 0c-10 0-18 8-18 18z"/>
<glyph unicode="&#57415;" d="M64 448c0-18-14-32-32-32c-18 0-32 14-32 32c0 18 14 32 32 32c18 0 32-14 32-32z m64 32l384 0l0-64l-384 0z m64-160c0-18-14-32-32-32c-18 0-32 14-32 32c0 18 14 32 32 32c18 0 32-14 32-32z m64 32l256 0l0-64l-256 0z m-64-288c0-18-14-32-32-32c-18 0-32 14-32 32c0 18 14 32 32 32c18 0 32-14 32-32z m64 32l256 0l0-64l-256 0z m64 96c0-18-14-32-32-32c-18 0-32 14-32 32c0 18 14 32 32 32c18 0 32-14 32-32z m64 32l128 0l0-64l-128 0z"/>
<glyph unicode="&#57416;" d="M64 448c0-18-14-32-32-32c-18 0-32 14-32 32c0 18 14 32 32 32c18 0 32-14 32-32z m0-128c0-18-14-32-32-32c-18 0-32 14-32 32c0 18 14 32 32 32c18 0 32-14 32-32z m0-128c0-18-14-32-32-32c-18 0-32 14-32 32c0 18 14 32 32 32c18 0 32-14 32-32z m0-128c0-18-14-32-32-32c-18 0-32 14-32 32c0 18 14 32 32 32c18 0 32-14 32-32z m64 416l384 0l0-64l-384 0z m0-128l384 0l0-64l-384 0z m0-128l384 0l0-64l-384 0z m0-128l384 0l0-64l-384 0z"/>
<glyph unicode="&#57417;" d="M405 430l-76 0c-18 0-30-1-36-2c-2-18-2-32-2-39c0-44 1-87 1-131l-1-42c0-9 2-17 4-24c9-5 17-8 25-9c0 0 2-1 5-2c12-4 29-7 39-12c1-9 2-13 2-14c0-2 0-4-1-8c-3 0-6-1-10-1c-21 0-38 1-53 3c-14 2-36 2-68 2c-16 0-38-1-67-3c-9-1-15-2-20-2l0 8l-1 7l0 3c4 6 12 11 23 14c26 7 41 12 45 14c2 4 3 9 4 16c1 26 1 68 1 124l-1 12c0 50-1 78-1 80c-1 4-1 6-5 6c-7 1-22 1-43 1c-10 0-80-6-86-10c-2-2-4-5-6-10c-3-9-10-35-13-45c-1-4-6-13-11-13c-8 5-14 9-16 12l0 110l23 0l15-8c4-1 24-1 60-1l38 0l5 1l251 0l10-1c7-1 13 5 16 9l20 0l0-30c2 0 2-12 0-37l0-45c0-6 0-11-1-15c-7-3-13-4-19-5c-6 11-16 34-20 54c-1 7-3 14-4 19c-2 16-6 14-26 14z m62-325c5-4 7-8 7-14c0-6-2-10-7-14l-47-36c-10-7-18-4-18 9l0 23l-292 0l0-23c0-13-8-16-18-9l-47 36c-5 4-7 8-7 14c0 6 2 10 7 14l47 36c10 7 18 5 18-8l0-23l292 0l0 23c0 13 8 15 18 8z"/>
<glyph unicode="&#57418;" d="M384 329c10 0 18-8 18-18c0-5-1-9-5-13l-128-128c-4-4-8-5-13-5c-5 0-9 1-13 5l-128 128c-4 4-5 8-5 13c0 10 8 18 18 18z"/>
<glyph unicode="&#57419;" d="M165 384c0 10 8 18 18 18c5 0 9-1 13-5l128-128c4-4 5-8 5-13c0-5-1-9-5-13l-128-128c-4-4-8-5-13-5c-10 0-18 8-18 18z"/>
<glyph unicode="&#57420;" d="M439 119l73 73l0-192l-192 0l73 73l-73 74l45 45z m-247 393l-73-73l72-73l-45-45l-73 72l-73-73l0 192z m0-365l-73-74l73-73l-192 0l0 192l73-73l74 73z m320 365l0-192l-73 73l-73-72l-45 45l72 73l-73 73z"/>
<glyph unicode="&#57421;" d="M471 87l41 41l0-128l-128 0l41 41l-105 106l45 45z m-430 338l-41-41l0 128l128 0l-41-41l105-106l-45-45z m384 46l-41 41l128 0l0-128l-41 41l-106-105l-45 45z m-233-324l-105-106l41-41l-128 0l0 128l41-41l106 105z"/>
<glyph unicode="&#57422;" d="M512 64l-192 0l0 192l192 192z m-320 0l-192 0l0 192l192 192z"/>
<glyph unicode="&#57425;" d="M403 302c0 5-2 10-5 13l-26 26c-4 4-8 6-13 6c-5 0-8-2-12-6l-117-116l-65 64c-4 4-7 6-12 6c-5 0-9-2-13-6l-26-25c-3-3-5-8-5-13c0-5 2-10 5-13l103-104c4-4 8-5 13-5c5 0 9 1 13 5l155 155c3 3 5 8 5 13z m72-46c0-88-50-155-109-190c-34-20-70-29-110-29c-88 0-155 50-190 109c-20 34-29 70-29 110c0 88 50 155 109 190c34 20 70 29 110 29c88 0 155-50 190-109c20-34 29-70 29-110z"/>
<glyph unicode="&#57426;" d="M283 512c5 0 10-4 10-9l0-357l64 0c7 0 11-9 6-15l-100-110c-2-2-4-3-6-3c-3 0-5 1-7 3l-101 110c-5 6-1 15 6 15l64 0l0 357c0 5 5 9 10 9z"/>
<glyph unicode="&#57427;" d="M503 293c5 0 9-5 9-10l0-54c0-5-4-10-9-10l-357 0l0-64c0-7-9-11-15-6l-110 100c-2 2-3 4-3 6c0 3 1 5 3 7l110 101c6 6 15 1 15-6l0-64z"/>
<glyph unicode="&#57428;" d="M256 475c88 0 155-50 190-109c20-34 29-70 29-110c0-88-50-155-109-190c-34-20-70-29-110-29c-88 0-155 50-190 109c-20 34-29 70-29 110c0 88 50 155 109 190c34 20 70 29 110 29z m28-365c5 0 9 4 9 9l0 54c0 5-4 10-9 10l-55 0c-5 0-10-5-10-10l0-54c0-5 5-9 10-9z m-64 107c0-4 4-7 9-7l53 0c5 0 10 3 10 7l5 178c0 5-5 7-10 7l-62 0c-5 0-10-2-10-7z"/>
<glyph unicode="&#57429;" d="M366 219c10 0 18 9 18 19l0 36c0 10-8 19-18 19l-220 0c-10 0-18-9-18-19l0-36c0-10 8-19 18-19z m109 37c0-88-50-155-109-190c-34-20-70-29-110-29c-88 0-155 50-190 109c-20 34-29 70-29 110c0 88 50 155 109 190c34 20 70 29 110 29c88 0 155-50 190-109c20-34 29-70 29-110z"/>
<glyph unicode="&#57431;" d="M283 110c5 0 10 4 10 9l0 55c0 5-5 9-10 9l-54 0c-5 0-10-4-10-9l0-55c0-5 5-9 10-9z m0 91c5 0 10 4 10 9c0 18 24 30 35 37c7 4 21 16 26 23c6 9 12 25 12 41c0 38-29 67-56 80c-16 8-31 11-48 11c-46 0-82-20-106-61c-3-5-2-9 2-12l38-28c1-1 3-2 5-2c3 0 5 2 7 4c10 13 19 21 25 26c6 5 14 7 24 7c15 0 36-11 36-25c0-18-11-23-26-30c-20-9-48-32-48-60l0-11c0-5 5-9 10-9z m192 55c0-88-50-155-109-190c-34-20-70-29-110-29c-88 0-155 50-190 109c-20 34-29 70-29 110c0 88 50 155 109 190c34 20 70 29 110 29c88 0 155-50 190-109c20-34 29-70 29-110z"/>
<glyph unicode="&#57432;" d="M475 329c0-10-7-18-18-18c-5 0-9 1-13 5l-41 41l-101-101l101-101l41 41c6 6 12 7 20 4c7-3 11-9 11-17l0-128c0-10-8-18-18-18l-128 0c-15 0-25 19-13 31l41 41l-101 101l-101-101l41-41c12-12 2-31-13-31l-128 0c-10 0-18 8-18 18l0 128c0 15 19 25 31 13l41-41l101 101l-101 101l-41-41c-4-4-8-5-13-5c-11 0-18 9-18 18l0 128c0 10 8 18 18 18l128 0c15 0 25-19 13-31l-41-41l101-101l101 101l-41 41c-12 12-2 31 13 31l128 0c10 0 18-8 18-18z"/>
<glyph unicode="&#57436;" d="M64 110c5 0 9-4 9-9l0-55c0-5-4-9-9-9l-55 0c-5 0-9 4-9 9l0 55c0 5 4 9 9 9z m110 36c5 0 9-4 9-9l0-91c0-5-4-9-9-9l-55 0c-5 0-9 4-9 9l0 91c0 5 4 9 9 9z m109 73c5 0 10-4 10-9l0-164c0-5-5-9-10-9l-54 0c-5 0-10 4-10 9l0 164c0 5 5 9 10 9z m110 110c5 0 9-4 9-9l0-274c0-5-4-9-9-9l-55 0c-5 0-9 4-9 9l0 274c0 5 4 9 9 9z m110 146c5 0 9-4 9-9l0-420c0-5-4-9-9-9l-55 0c-5 0-9 4-9 9l0 420c0 5 4 9 9 9z"/>
<glyph unicode="&#57437;" d="M402 329c0 10 9 18 19 18c5 0 8-1 12-5l74-73c4-4 5-8 5-13c0-5-1-9-5-13l-74-73c-4-4-7-5-12-5c-10 0-19 8-19 18l0 36l-109 0l0-109l36 0c10 0 18-9 18-19c0-5-1-8-5-12l-73-74c-4-4-8-5-13-5c-5 0-9 1-13 5l-73 74c-4 4-5 7-5 12c0 10 8 19 18 19l36 0l0 109l-109 0l0-36c0-10-9-18-19-18c-5 0-8 1-12 5l-74 73c-4 4-5 8-5 13c0 5 1 9 5 13l74 73c4 4 7 5 12 5c10 0 19-8 19-18l0-36l109 0l0 109l-36 0c-10 0-18 9-18 19c0 5 1 8 5 12l73 74c4 4 8 5 13 5c5 0 9-1 13-5l73-74c4-4 5-7 5-12c0-10-8-19-18-19l-36 0l0-109l109 0z"/>
<glyph unicode="&#57439;" d="M0 283c0 5 4 10 9 10l357 0l0 64c0 7 9 11 15 6l110-100c2-2 3-4 3-6c0-3-1-5-3-7l-110-101c-6-6-15-1-15 6l0 64l-357 0c-5 0-9 5-9 10z"/>
<glyph unicode="&#57440;" d="M183 402c-10 0-18 9-18 19c0 5 1 8 5 12l73 74c4 4 8 5 13 5c5 0 9-1 13-5l73-74c4-4 5-7 5-12c0-10-8-19-18-19l-36 0l0-292l36 0c10 0 18-9 18-19c0-5-1-8-5-12l-73-74c-4-4-8-5-13-5c-5 0-9 1-13 5l-73 74c-4 4-5 7-5 12c0 10 8 19 18 19l36 0l0 292z"/>
<glyph unicode="&#57441;" d="M402 329c0 10 9 18 19 18c5 0 8-1 12-5l74-73c4-4 5-8 5-13c0-5-1-9-5-13l-74-73c-4-4-7-5-12-5c-10 0-19 8-19 18l0 36l-292 0l0-36c0-10-9-18-19-18c-5 0-8 1-12 5l-74 73c-4 4-5 8-5 13c0 5 1 9 5 13l74 73c4 4 7 5 12 5c10 0 19-8 19-18l0-36l292 0z"/>
<glyph unicode="&#57443;" d="M393 73l-73-73l0 192l192 0l-73-73l73-74l-45-45z m-393 247l73 73l-72 73l45 45l73-72l73 73l0-192z m0-275l73 74l-73 73l192 0l0-192l-73 73l-74-73z m320 275l0 192l73-73l73 72l45-45l-72-73l73-73z"/>
<glyph unicode="&#57444;" d="M288 192l0-96l64 0l-96-96l-96 96l64 0l0 96z m-64 128l0 96l-64 0l96 96l96-96l-64 0l0-96z"/>
<glyph unicode="&#57446;" d="M192 224l-96 0l0-64l-96 96l96 96l0-64l96 0z m128 64l96 0l0 64l96-96l-96-96l0 64l-96 0z"/>
<glyph unicode="&#57447;" d="M423 431c0-3 1-13 1-16c2-4 4-42 7-114c1-37-1-65-5-86c-7-35-18-51-43-70c-30-23-72-35-125-35c-59 0-108 17-133 48c-12 14-19 32-23 55c-3 15-5 38-5 68l0 95c0 36-2 56-5 61c-5 7-19 10-42 11c-7 0-11 1-13 1l0 26l11 0c21 0 70-3 79-3c24 0 74 1 90 2c11 0 19 1 25 1l-1-4l1-19l0-2c-11-2-23-3-35-3c-11 0-19-2-23-7c-2-3-4-16-4-38c0-3 1-13 1-16l0-66l4-80c2-41 15-69 42-84c17-9 33-13 50-13c33 0 63 7 83 22c19 14 28 29 34 51c4 14 6 36 6 66c0 44-5 74-8 117l-1 17c-1 13-3 21-7 25c-6 7-14 10-22 10l-29-1l-4 1l1 24l24 0l59-2c14-1 33 0 56 2l5 0c1-7 1-13 1-15c0-1 0-4-1-9c-11-3-42-4-46-8c-3-3-5-7-5-12z m43-358c5 0 9-4 9-9l0-18c0-5-4-9-9-9l-420 0c-5 0-9 4-9 9l0 18c0 5 4 9 9 9z"/>
<glyph unicode="&#57448;" d="M288 192l0-96l64 0l-96-96l-96 96l64 0l0 96z m-64 128l0 96l-64 0l96 96l96-96l-64 0l0-96z m-32-96l-96 0l0-64l-96 96l96 96l0-64l96 0z m128 64l96 0l0 64l96-96l-96-96l0 64l-96 0z"/>
<glyph unicode="&#57449;" d="M512 256c0-141-115-256-256-256c-141 0-256 115-256 256c0 141 115 256 256 256c141 0 256-115 256-256z m-352-32l192 0l0-32l64 64l-64 64l0-32l-192 0l0 32l-64-64l64-64z"/>
<glyph unicode="&#57450;" d="M256 512c141 0 256-115 256-256c0-141-115-256-256-256c-141 0-256 115-256 256c0 141 115 256 256 256z m32-352l0 192l32 0l-64 64l-64-64l32 0l0-192l-32 0l64-64l64 64z"/>
<glyph unicode="&#57451;" d="M157 453c78 78 216 78 294 0l-46-45c-54 54-149 54-203 0l-85-85l75 0l0-64l-192 0l0 192l64 0l0-91z m163-198l192 0l0-192l-64 0l0 91l-93-93c-39-39-91-61-147-61c-56 0-108 22-147 61l46 45c54-54 149-54 203 0l85 85l-75 0z"/>
<glyph unicode="&#57452;" d="M416 256l96-96l-64 0c0-53-43-96-96-96l-192 0c-53 0-96 43-96 96l0 32l64 0l0-32c0-18 14-32 32-32l192 0c18 0 32 14 32 32l-64 0z m-64 192c53 0 96-43 96-96l0-32l-64 0l0 32c0 18-14 32-32 32l-192 0c-18 0-32-14-32-32l0-1l64 0l-96-95l-96 95l64 0l0 1c0 53 43 96 96 96z"/>
<glyph unicode="&#57453;" d="M256 512c141 0 256-115 256-256c0-141-115-256-256-256c-141 0-256 115-256 256c0 141 115 256 256 256z m128-288l0 64l-96 0l0 96l-64 0l0-96l-96 0l0-64l96 0l0-96l64 0l0 96z"/>
<glyph unicode="&#57454;" d="M256 512c141 0 256-115 256-256c0-141-115-256-256-256c-141 0-256 115-256 256c0 141 115 256 256 256z m128-288l0 64l-256 0l0-64z"/>
<glyph unicode="&#57455;" d="M96 448l0-384l320 0l0 275l-109 109z m-64 64l301 0l147-147l0-365l-448 0z m192-262l64-64l96 96l0-45l-96-96l-64 64l-96-96l0 45z"/>
<glyph unicode="&#57456;" d="M448 256l64 0l0-32c0-53-43-96-96-96l-224 0l0-64l-128 96l128 96l0-64l224 0c18 0 32 14 32 32z m-384 32l0-32l-64 0l0 32c0 53 43 96 96 96l224 0l0 64l128-96l-128-96l0 64l-224 0c-18 0-32-14-32-32z"/>
<glyph unicode="&#40;" d="M110 37l5 24c0 1 8 3 22 6c14 4 25 7 33 11c5 7 9 17 11 29l8 40l16 76l4 19c1 8 3 16 4 24c2 8 4 14 5 19c1 5 3 9 4 13c1 4 1 7 2 9c1 2 1 3 1 3l8 45l5 18l6 39l3 14l0 11c-8 4-22 7-42 8c-5 0-9 1-10 1l5 29l91-4c7 0 14 0 20 0c13 0 33 1 62 2c6 1 12 1 19 2c7 0 10 0 10 0c0-3-1-7-1-10c-2-6-3-11-4-15c-11-4-21-7-31-9c-12-3-22-6-29-9c-2-6-5-14-7-25c-2-8-3-16-4-23c-8-38-14-67-19-88l-17-89l-11-45l-12-67l-4-13c0-1 0-4 1-7c12-3 23-5 34-6c7-1 13-2 19-3c-1-6-1-11-2-17c-2-6-3-10-3-12c-3 0-6 0-7 0c-4 0-8 0-12 0c-1 0-4 0-8 0c-3 1-17 3-41 5l-57 1c-7 0-24-1-49-3c-14-2-24-2-28-3z"/>
<glyph unicode="&#62;" d="M502 114c-11 11-23 17-39 23c-1 1-1 1-2 1c-62 54-33 97-33 152c0 54-55 137-128 161c1 2 1 4 1 6c0 24-20 44-44 44c-24 0-44-20-44-44c0-3 0-5 1-8c-70-26-122-104-122-159c0-54 26-97-30-149c-11-3-21-7-30-12c-8-4-14-8-21-15c-5-6-11-16-11-28c0-11 6-21 11-27c11-12 24-18 39-24c24-8 53-14 89-19c35-4 75-7 118-7c65 0 124 6 169 16c22 5 41 11 56 18c7 5 14 9 20 16c6 6 12 16 12 27c0 12-6 22-12 28z m-56-30c-17-7-44-13-77-17c-33-4-71-7-112-7c-62 0-119 6-158 15c-16 3-29 8-38 11c2 1 4 2 7 3c17 6 44 12 77 17c21 2 46 4 72 5c4-18 20-32 40-32c19 0 36 14 40 32c46-1 87-6 118-13c15-4 28-8 37-12c-2 0-4-1-6-2z"/>
<glyph unicode="&#63;" d="M0 256c0 14 12 26 26 26l153 0c14 0 26-12 26-26c0-14-12-26-26-26l-153 0c-14 0-26 12-26 26z m0-102c0 14 12 25 26 25l153 0c14 0 26-11 26-25c0-14-12-26-26-26l-153 0c-14 0-26 12-26 26z m497 128c10 0 15-9 15-26c0-17-5-26-15-26l-87 0l0-87c0-10-9-15-26-15c-17 0-26 5-26 15l0 87l-84 0c-10 0-15 9-15 26c0 17 5 26 15 26l84 0l0 87c0 10 9 15 26 15c17 0 26-5 26-15l0-87z m-318 102c14 0 26-12 26-26c0-14-12-25-26-25l-153 0c-14 0-26 11-26 25c0 14 12 26 26 26z"/>
<glyph unicode="&#57396;" d="M254 30l260 125l-94 32l-165-80l-158 66l-95-38z m0 230l260 125l-246 93l-266-113z m0-118l260 125l-100 34l-159-76l-152 63l-101-41z"/>
<glyph unicode="&#57397;" d="M50 447l0-294l65 0l0-88l131 88l216 0l0 294z m206-219l-134 0l0 30l134 0z m136 60l-270 0l0 30l270 0z m0 60l-270 0l0 30l270 0z"/>
<glyph unicode="&#57398;" d="M364 224l-77 0l0-77l-58 0l0 77l-77 0l0 58l77 0l0 77l58 0l0-77l77 0z m98 32c0-114-92-206-206-206c-114 0-206 92-206 206c0 114 92 206 206 206c114 0 206-92 206-206z m-40 0c0 92-74 166-166 166c-92 0-166-74-166-166c0-92 74-166 166-166c92 0 166 74 166 166z"/>
<glyph unicode="&#57399;" d="M462 153l-80 0c0 87-43 45-43 122c0 27 18 42 41 42c34 0 58-33 25-94c-10-20 12-24 35-30c24-5 22-18 22-40z m-390 40c23 6 45 10 35 30c-33 61-9 94 25 94c23 0 41-15 41-42c0-77-43-35-43-122l-80 0c0 22-2 35 22 40z m260 10c-30 7-57 13-44 39c41 76 11 117-32 117c-44 0-73-42-32-117c14-26-15-32-44-39c-30-6-27-22-27-50l206 0c0 28 3 44-27 50z"/>
<glyph unicode="&#57400;" d="M340 142l-168 0l0 30l168 0z m-1 55l-167 0l0 30l167 0z m0 55l-167 0l0 30l167 0z m-41 170l0-86l86 0l0-246l-256 0l0 332l170 0m25 40l-235 0l0-412l336 0l0 311z"/>
<glyph unicode="&#57404;" d="M288 326l0 136l-200 0l0-412l336 0l0 276z m65-205l-194 0l0 30l194 0z m0 55l-194 0l0 30l194 0z m0 55l-194 0l0 30l194 0z m70 130l-100 0l0 101z"/>
<glyph unicode="&#57407;" d="M360 235l-103-104l-103 104l47 0l0 38l112 0l0-38z m-159 57l112 0l0 31l-112 0z m112 47l0 26l-112 0l0-26z m-223-83c0-92 74-166 166-166c92 0 166 74 166 166c0 92-74 166-166 166c-92 0-166-74-166-166z m372 0c0-114-92-206-206-206c-114 0-206 92-206 206c0 114 92 206 206 206c114 0 206-92 206-206z"/>
<glyph unicode="&#57414;" d="M90 90l46 0l0-40l-86 0l0 87l40 0z m-40 203l40 0l0 46l46 0l0 40l-86 0z m195 86l-69 0l0-40l29 0z m-155-126l-40 0l0-76l40 0z m249-48l0-28l40 0l0 68z m-163-155l77 0l0 40l-77 0z m163 40l-46 0l0-40l86 0l0 87l-40 0z m-167 84l100 23l-75 75z m212 288l-166-166l78-78l166 166z"/>
<glyph unicode="&#57423;" d="M404 298l0-172l-76-76l-260 0l0 387l226 0l-40-40l-146 0l0-307l195 0l0 61l61 0l0 107z m-229-103l90 21l-68 68z m199 267l-158-157l70-70l158 157z"/>
<glyph unicode="&#57424;" d="M143 112l-93 0l0 35l93 0z m241 288l-189-188l-23-100l101 22l189 189z m-128-234l-19-4l-14 15l4 17l157 157l28-28z"/>
<glyph unicode="&#57430;" d="M424 142l-52 0l0 51l-40 0l0-51l-52 0l0-40l52 0l0-52l40 0l0 52l52 0z m-181-92l-155 0l0 412l235 0l101-101l0-130l-40 0l0 105l-86 0l0 86l-170 0l0-332l115 0z"/>
<glyph unicode="&#57433;" d="M115 307l90 90l-71 71l44 44l-178 0l0-178l44 44z m0-102l-71-71l-44 44l0-178l178 0l-44 44l71 71z m219 307l44-44l-70-69l91-91l69 70l44-44l0 178z m65-308l-91-91l70-69l-44-44l178 0l0 178l-44-44z"/>
<glyph unicode="&#57434;" d="M71 162l-43 43l177 0l0-177l-43 43l-71-71l-91 91z m415 146l-44 44l70 69l-91 91l-69-70l-44 44l0-178z m-324 133l43 43l0-177l-177 0l43 43l-71 71l91 91z m146-415l44 44l69-70l91 91l-70 69l44 44l-178 0z"/>
<glyph unicode="&#57435;" d="M512 57c0-16-12-29-28-29l-484 0l0 114l484 0c19 0 28-7 28-23z m-170 170c0-16-14-28-29-28l-313 0l0 114l313 0c19 0 29-7 29-22z m-172 171c0-15-12-28-28-28l-142 0l0 114l142 0c19 0 28-8 28-23z"/>
<glyph unicode="&#57438;" d="M256 512c-141 0-256-115-256-256c0-141 115-256 256-256c141 0 256 115 256 256c0 141-115 256-256 256z m-1-404c-82 0-148 66-148 148c0 82 66 149 148 149c82 0 149-67 149-149c0-82-67-148-149-148z"/>
<glyph unicode="&#57442;" d="M64 512l-64 0l0-512l512 0l0 64l-448 0z m442-375l0 47c0 12-7 18-21 18l-364 0l0-86l364 0c12 0 21 10 21 21z m-217 1c-4 0-6 2-6 4l0 34c0 2 2 4 6 4l195 0c3 0 6-2 6-4l0-34c0-2-3-4-6-4z m89 127l0 48c0 12-8 17-22 17l-235 0l0-86l235 0c12 0 22 10 22 21z m-170 1c-2 0-4 2-4 4l0 34c0 2 2 4 4 4l145 0c3 0 5-2 5-4l0-34c0-2-2-4-5-4z m41 128l0 47c0 12-7 17-21 17l-107 0l0-86l107 0c12 0 21 10 21 22z m-73 0c-1 0-2 2-2 4l0 33c0 3 1 4 2 4l53 0c1 0 2-1 2-4l0-33c0-2-1-4-2-4z"/>
<glyph unicode="&#57445;" d="M64 512l-64 0l0-512l512 0l0 64l-448 0z m122-268l-47 0c-12 0-18-7-18-21l0-107l86 0l0 107c0 11-10 21-21 21z m0-74c0-1-2-2-4-2l-34 0c-2 0-4 1-4 2l0 54c0 0 2 1 4 1l34 0c2 0 4-1 4-1z m128 202l-47 0c-12 0-17-7-17-21l0-235l85 0l0 235c0 11-9 21-21 21z m-1-169c0-3-1-5-3-5l-34 0c-2 0-4 2-4 5l0 145c0 2 2 4 4 4l34 0c2 0 3-2 3-4z m129 297l-47 0c-11 0-17-6-17-21l0-363l86 0l0 363c0 12-10 21-22 21z m-1-217c0-3-1-6-4-6l-33 0c-3 0-4 3-4 6l0 195c0 4 1 6 4 6l33 0c3 0 4-2 4-6z"/>
<glyph unicode="&#57457;" d="M101 366c5 0 9-4 9-9l0-165c0-5-4-9-9-9c-3 0-5 0-7 2l-82 83c-2 2-3 3-3 6c0 3 1 5 3 7l82 82c2 2 4 3 7 3z m402-220c5 0 9-4 9-9l0-55c0-5-4-9-9-9l-494 0c-5 0-9 4-9 9l0 55c0 5 4 9 9 9z m0 110c5 0 9-4 9-9l0-55c0-5-4-9-9-9l-311 0c-5 0-9 4-9 9l0 55c0 5 4 9 9 9z m0 110c5 0 9-4 9-9l0-55c0-5-4-9-9-9l-311 0c-5 0-9 4-9 9l0 55c0 5 4 9 9 9z m0 109c5 0 9-4 9-9l0-55c0-5-4-9-9-9l-494 0c-5 0-9 4-9 9l0 55c0 5 4 9 9 9z"/>
<glyph unicode="&#57458;" d="M0 357c0 5 4 9 9 9c3 0 5-1 7-3l82-82c2-2 3-4 3-7c0-3-1-4-3-6l-82-83c-2-2-4-2-7-2c-5 0-9 4-9 9z m503-211c5 0 9-4 9-9l0-55c0-5-4-9-9-9l-494 0c-5 0-9 4-9 9l0 55c0 5 4 9 9 9z m0 110c5 0 9-4 9-9l0-55c0-5-4-9-9-9l-311 0c-5 0-9 4-9 9l0 55c0 5 4 9 9 9z m0 110c5 0 9-4 9-9l0-55c0-5-4-9-9-9l-311 0c-5 0-9 4-9 9l0 55c0 5 4 9 9 9z m0 109c5 0 9-4 9-9l0-55c0-5-4-9-9-9l-494 0c-5 0-9 4-9 9l0 55c0 5 4 9 9 9z"/>
<glyph unicode="&#57459;" d="M198 142l-198 115l198 114z m116 229l198-114l-198-115z"/>
<glyph unicode="&#57460;" d="M370 198l-115-198l-114 198z m-229 116l114 198l115-198z"/>
</font>
</defs>
</svg>
